<?xml version="1.0" encoding="UTF-8" standalone="no"?>
<svg
   xmlns:dc="http://purl.org/dc/elements/1.1/"
   xmlns:cc="http://creativecommons.org/ns#"
   xmlns:rdf="http://www.w3.org/1999/02/22-rdf-syntax-ns#"
   xmlns:svg="http://www.w3.org/2000/svg"
   xmlns="http://www.w3.org/2000/svg"
   xmlns:sodipodi="http://sodipodi.sourceforge.net/DTD/sodipodi-0.dtd"
   xmlns:inkscape="http://www.inkscape.org/namespaces/inkscape"
   version="1.1"
   id="svg10"
   width="1733.3333"
   height="2452"
   viewBox="0 0 1733.3333 2452"
   sodipodi:docname="bow.svg"
   inkscape:version="1.0.2-2 (e86c870879, 2021-01-15)">
  <metadata
     id="metadata16">
    <rdf:RDF>
      <cc:Work
         rdf:about="">
        <dc:format>image/svg+xml</dc:format>
        <dc:type
           rdf:resource="http://purl.org/dc/dcmitype/StillImage" />
        <dc:title></dc:title>
      </cc:Work>
    </rdf:RDF>
  </metadata>
  <defs
     id="defs14" />
  <sodipodi:namedview
     pagecolor="#ffffff"
     bordercolor="#666666"
     borderopacity="1"
     objecttolerance="10"
     gridtolerance="10"
     guidetolerance="10"
     inkscape:pageopacity="0"
     inkscape:pageshadow="2"
     inkscape:window-width="1280"
     inkscape:window-height="668"
     id="namedview12"
     showgrid="false"
     inkscape:zoom="0.20187602"
     inkscape:cx="866.66663"
     inkscape:cy="970.15617"
     inkscape:window-x="-6"
     inkscape:window-y="-6"
     inkscape:window-maximized="1"
     inkscape:current-layer="g18" />
  <g
     inkscape:groupmode="layer"
     inkscape:label="Image"
     id="g18">
    <path
       style="fill:#ffffff;stroke-width:0.987019"
       d="m 919.87972,1601.0495 c -2.9698,-0.7765 -11.4742,-1.9578 -18.8987,-2.625 -40.3343,-3.6248 -67.5482,-14.2062 -85.8334,-33.3739 -6.4669,-6.779 -14.0659,-20.1259 -21.1885,-37.2155 -4.7526,-11.4034 -5.3918,-13.5265 -8.6154,-28.6193 -2.0625,-9.6565 -2.1191,-15.0967 -2.1077,-202.5219 0.01,-105.9294 0.3354,-210.7198 0.7309,-232.8676 l 0.7193,-40.2688 -4.5277,-2.3875 c -8.7047,-4.5902 -10.9789,-11.695 -5.6651,-17.6988 l 2.185,-2.4688 -15.3336,-0.5636 c -8.4335,-0.31 -20.9936,-0.8029 -27.9113,-1.0952 l -12.5777,-0.5316 -2.7586,3.932 c -1.5172,2.1627 -6.7916,9.0945 -11.7208,15.404 -4.9292,6.3095 -11.8779,15.3803 -15.4417,20.1572 -7.6228,10.2176 -13.1071,17.4124 -19.8988,26.1044 -2.7168,3.477 -5.4256,6.9977 -6.0195,7.8238 -0.594,0.8262 -10.1899,13.4073 -21.32426,27.9582 -17.81413,23.2802 -20.24483,26.8999 -20.24868,30.1538 -0.006,5.3574 -9.15162,31.0706 -15.68978,44.1136 -2.67983,5.3461 -7.15019,13.566 -8.34018,15.3358 -0.66726,0.9923 -2.82102,4.3661 -4.78614,7.4973 -4.95154,7.8897 -9.53206,13.3381 -15.90159,18.9142 -4.40701,3.8581 -6.77599,5.1133 -12.49048,6.6184 -3.8786,1.0215 -9.36891,1.8294 -12.20069,1.7951 l -5.1487,-0.062 -7.9322,10.1328 c -6.98608,8.9241 -19.02797,21.1059 -19.02797,19.2489 0,-0.3713 -0.76366,-0.037 -1.69703,0.7425 -1.57322,1.3142 -2.56631,1.5859 -6.13246,1.6779 -2.87496,0.074 -5.07239,-1.4414 -6.18965,-4.2693 -2.18258,-5.5243 -0.58194,-9.6006 8.32858,-21.21 15.22897,-19.8417 14.61195,-18.8067 12.39524,-20.7942 -4.90051,-4.3939 -7.47555,-16.7563 -5.4388,-26.1106 2.78644,-12.7975 16.81515,-28.7307 33.29186,-37.8115 3.26679,-1.8004 6.1826,-3.4869 6.47958,-3.7479 0.29698,-0.2609 1.98523,-1.2444 3.75168,-2.1854 1.76644,-0.9411 3.71032,-2.0557 4.31972,-2.4768 4.30725,-2.9762 6.17959,-4.2152 8.68915,-5.75 1.57205,-0.9613 5.40959,-3.3717 8.52789,-5.3563 11.60349,-7.385 12.77585,-8.1289 13.50563,-8.57 0.41047,-0.248 19.46538,-25.0108 42.34424,-55.0282 22.87884,-30.0175 43.62164,-56.8099 46.09514,-59.5388 2.4735,-2.7288 4.1375,-5.0574 3.6977,-5.1746 -0.4398,-0.1172 -44.2938,-1.6664 -97.45334,-3.4429 -53.15953,-1.7764 -106.61603,-3.5728 -118.79224,-3.9921 -12.1762,-0.4193 -39.95522,-1.2544 -61.73114,-1.8557 l -39.5926,-1.0934 -16.03625,6.4262 c -8.81995,3.5345 -16.51662,6.4325 -17.10371,6.4401 -0.58709,0.01 -6.12703,1.6237 -12.31097,3.5913 -6.18395,1.9676 -16.38928,4.4622 -22.67852,5.5435 -10.42832,1.7929 -12.71846,1.8868 -26.01404,1.0664 -16.33738,-1.0081 -20.2413,-2.1624 -27.66309,-8.1789 -5.17248,-4.1932 -10.13444,-12.0692 -10.13444,-16.0862 v -2.8706 l -8.14359,-1.0117 c -4.47897,-0.5565 -12.71832,-1.0118 -18.30967,-1.0118 -8.09364,0 -11.66215,-0.4527 -17.50474,-2.2204 -4.03626,-1.2212 -8.1891,-3.093 -9.22853,-4.1595 -2.91019,-2.98572 -2.40161,-6.63162 1.28675,-9.22402 4.96421,-3.4894 12.6471,-4.611 25.89697,-3.781 6.28307,0.3936 14.51916,0.7553 18.30243,0.8037 6.38465,0.082 6.95228,-0.074 7.90358,-2.1632 1.8251,-4.0088 6.23222,-8.0306 13.01863,-11.8803 10.66305,-6.0488 15.03841,-7.0679 30.34656,-7.0679 11.83915,0 14.42427,0.3 23.43284,2.7186 5.5691,1.4952 14.60952,4.5528 20.08983,6.7945 5.48031,2.2417 12.54666,4.8194 15.70302,5.7281 3.15636,0.9088 10.8415,3.5059 17.07809,5.7716 7.42169,2.6962 13.57786,4.3015 17.81883,4.6465 7.34195,0.5973 50.04089,2.0576 81.53468,2.7886 11.58224,0.2688 29.56307,0.8368 39.95739,1.2621 10.39432,0.4254 19.8707,0.8014 21.05862,0.83582 1.18793,0.034 8.23446,0.2339 15.65898,0.4435 7.42451,0.2095 48.13052,1.5235 90.45779,2.9198 67.21668,2.2174 77.14168,2.373 78.40458,1.2293 0.7953,-0.7202 18.0242,-23.08142 38.2864,-49.69142 l 36.8405,-48.382 0.8735,-395.00135 0.8734,-395.001336 3.3991,-8.18496 c 7.6345,-18.38377 20.0984,-30.27176 40.9438,-39.05196 13.6705,-5.7581 23.3097,-7.59162 39.8394,-7.57804 14.9666,0.0123 21.5029,0.98325 34.5314,5.12954 16.8712,5.36921 30.293,14.23213 38.2312,25.24551 8.273,11.47789 12.9173,27.77108 13.2319,46.420396 l 0.1989,11.79602 4.1271,2.28142 c 2.2698,1.25478 4.5958,2.28142 5.1689,2.28142 0.573,0 1.6768,0.73049 2.453,1.62331 0.7761,0.89282 5.2988,3.81395 10.0505,6.49138 4.75172,2.67743 9.36842,5.53728 10.25942,6.35523 0.8909,0.81796 3.5541,2.66671 5.9181,4.10833 19.79106,12.06904 62.20306,42.94515 79.96246,58.21304 34.8331,29.94639 60.945,61.3631 103.1825,124.14438 9.3659,13.92139 12.5719,17.99383 13.4933,17.13994 0.6647,-0.61601 8.3011,-10.45677 16.9697,-21.86837 8.6687,-11.41159 16.8316,-21.35727 18.1399,-22.1015 1.3083,-0.74424 3.6475,-2.20479 5.1983,-3.24569 6.4757,-4.34658 14.2947,-2.91188 16.2422,2.98031 1.6091,4.86789 0.4639,7.58127 -6.9597,16.48924 -6.6436,7.97205 -35.9966,46.41799 -36.8381,48.24975 -0.3182,0.69258 0.6273,3.01164 2.101,5.15347 6.0253,8.75695 29.3685,46.05975 49.6347,79.31737 16.6894,27.38766 15.7991,26.17064 18.3193,25.04399 4.6673,-2.08654 8.5778,-0.59813 14.5291,5.52991 13.306,13.70124 24.3667,29.66322 25.6995,37.08748 0.8552,4.76384 -0.7076,10.42065 -3.7804,13.68386 -1.1877,1.26134 -5.6083,4.19124 -9.8234,6.51089 -4.2151,2.31965 -10.8956,7.08428 -14.8457,10.58805 -9.8078,8.69981 -11.0269,9.04095 -29.6987,8.31006 -14.1003,-0.55195 -15.7631,-0.44543 -21.5251,1.37897 -16.5874,5.2519 -25.5212,16.48251 -27.4356,34.48907 -0.7795,7.3311 3.3287,44.29473 7.2534,65.26352 0.5622,3.00379 1.4803,9.09298 2.0401,13.53154 0.5599,4.43857 1.7774,13.75336 2.7056,20.69955 0.9281,6.94619 2.4079,18.31267 3.2884,25.25886 0.8804,6.9462 2.377,18.5156 3.3257,25.7099 0.9486,7.1943 2.1571,16.734 2.6854,21.1994 2.9699,25.1012 5.7296,38.5169 8.768,42.6237 l 2.3557,3.1839 -1.863,12.2782 c -1.0247,6.753 -3.3156,21.412 -5.0909,32.5755 -1.7753,11.1635 -3.6719,23.3419 -4.2147,27.0631 -0.5428,3.7211 -1.5115,10.0133 -2.1527,13.9825 -0.6412,3.9693 -1.6081,10.2615 -2.1486,13.9827 -0.5406,3.7211 -2.2506,14.8847 -3.8001,24.8078 -4.1337,26.4734 -4.7613,33.0197 -3.7919,39.54972 1.1278,7.5962 5.2296,15.0279 9.9569,18.0398 l 3.7171,2.3683 33.9409,0.9135 c 18.6676,0.5023 36.2196,1.1292 39.0044,1.3929 2.7849,0.2637 14.6911,0.7078 26.4582,0.9871 11.7673,0.2792 61.9733,1.8363 111.5691,3.4602 l 90.1741,2.9525 7.19,2.4424 c 9.2243,3.1334 10.8587,4.6443 10.4263,9.6377 -0.2838,3.2772 -0.9209,4.2242 -4.007,5.956 -4.6903,2.632 2.0286,2.6954 -114.0428,-1.0776 -52.8625,-1.7183 -104.1322,-3.3589 -113.9325,-3.6456 -9.8004,-0.2867 -23.8935,-0.8923 -31.318,-1.3458 -7.4245,-0.4535 -22.5445,-1.0847 -33.5999,-1.4027 l -20.1009,-0.5782 0.5103,4.4363 c 0.2917,2.5359 -0.2959,7.4633 -1.3716,11.5023 -2.2833,8.5729 -1.6981,17.3179 1.7128,25.5981 4.6152,11.2038 13.8559,15.3945 31.1948,14.1471 14.7613,-1.0619 15.1735,-1.0067 23.2744,3.1151 15.5665,7.9205 26.0418,13.863 29.9681,17.0002 3.5676,2.8506 4.0497,3.746 4.0497,7.5208 0,2.3568 -0.4313,5.2175 -0.9586,6.3571 -0.5271,1.1398 -2.299,5.5228 -3.9375,9.7401 -3.554,9.1479 -13.134,25.2606 -17.8451,30.0138 -4.2704,4.3086 -8.6777,6.212 -15.9498,6.8883 l -5.7532,0.5352 -17.5162,28.8672 c -45.1342,74.3822 -107.3899,173.0828 -119.7752,189.8926 -11.91,16.1646 -34.2312,37.8562 -59.6286,57.9472 -13.4269,10.6215 -46.2235,34.2796 -59.7399,43.0938 -10.2958,6.714 -9.8148,4.8831 -5.5675,21.1938 3.8864,14.925 2.255,27.6799 -6.4616,50.5178 -1.7043,4.4654 -3.9507,10.5546 -4.9918,13.5315 -8.97656,25.6655 -36.67118,43.7779 -69.02968,45.1458 -5.9117,0.2499 -10.3442,-0.08 -14.0391,-1.0467 z m 16.703,-9.1426 c -0.067,-1.2661 -4.0844,-4.7361 -5.4828,-4.7361 -1.0833,0 -1.1048,0.2406 -0.097,1.0825 0.7127,0.5954 1.2959,1.8133 1.2959,2.7064 0,1.0223 0.8,1.6237 2.1599,1.6237 1.1879,0 2.1437,-0.3044 2.1239,-0.6765 z m -15.623,-2.0298 c -0.3671,-0.4961 -1.4892,-0.8958 -2.4936,-0.8883 -1.5738,0.012 -1.6023,0.1347 -0.2063,0.8883 2.1149,1.1417 3.5446,1.1417 2.6999,0 z m 39.2982,-3.7991 c 8.8001,-3.479 21.0131,-13.4698 25.78282,-21.0916 5.344,-8.5394 16.68366,-40.8986 17.98996,-51.3369 0.4609,-3.6826 0.393,-3.957 -0.37,-1.4952 -0.514,1.6586 -1.4463,3.443 -2.0719,3.9656 -0.6255,0.5225 -0.8718,2.0591 -0.5473,3.4146 0.8672,3.6217 -1.14246,5.9386 -6.68436,7.7065 -3.427,1.0933 -4.5789,1.857 -3.7921,2.5143 1.9387,1.6194 1.3284,5.2192 -0.9701,5.7213 -1.7692,0.3864 -1.898,0.729 -0.8178,2.1739 1.7063,2.2824 -0.263,4.8974 -3.5995,4.7797 -1.3501,-0.048 -3.3122,0.6298 -4.36032,1.5053 -1.8209,1.521 -1.8069,1.6653 0.3154,3.2439 3.20602,2.3848 5.23952,6.9693 4.48652,10.1147 -1.4058,5.8714 -15.65852,17.7258 -27.12852,22.5635 -4.1294,1.7417 -4.4542,2.111 -3.2609,3.7071 1.0968,1.4671 0.9996,2.0449 -0.5637,3.3507 -2.2835,1.9075 -5.665,0.5989 -5.5668,-2.1544 0.055,-1.5395 -0.318,-1.6232 -3.5098,-0.7888 -3.9874,1.0426 -4.3066,1.5658 -1.9513,3.1986 0.8909,0.6177 1.6199,1.6495 1.6199,2.293 0,1.5639 5.7799,0.2592 14.9998,-3.3858 z m -49.3339,1.5358 c -2.5266,-0.9169 -4.1824,-2.4734 -5.7201,-5.3772 -2.1031,-3.9715 -2.3008,-4.0868 -7.008,-4.0868 -2.6641,0 -6.5236,-0.5863 -8.5767,-1.3029 l -3.7329,-1.3028 2.2525,2.5449 c 3.1652,3.5762 2.3634,5.9265 -2.0183,5.9165 -4.6942,-0.011 -5.4742,2.0531 -1.0193,2.6973 10.8949,1.5756 16.0663,2.0685 22.3594,2.1315 6.9995,0.07 7.0094,0.067 3.4634,-1.2205 z m 27.3145,-12.0608 c 13.8381,-3.3776 17.4574,-4.7085 23.7958,-8.75 8.4495,-5.3876 13.3808,-10.7322 11.4164,-12.3731 -0.8657,-0.7231 -3.1939,-0.454 -8.5579,0.9891 -10.7332,2.8876 -16.5817,2.6493 -23.2955,-0.9494 -4.6888,-2.5132 -6.3986,-2.9218 -11.9738,-2.8617 -8.2222,0.088 -15.9066,2.2224 -24.2768,6.7416 -3.6135,1.9509 -8.5146,3.8068 -10.8914,4.1243 -5.4798,0.732 -6.1922,1.7336 -3.1543,4.4347 2.1638,1.924 3.2789,2.1422 10.337,2.0219 9.2824,-0.1581 12.3021,1.3273 12.3021,6.0515 0,1.577 0.3645,3.1805 0.81,3.5636 1.3503,1.1609 12.0651,-0.2042 23.4884,-2.9925 z m -59.0133,-3.7179 c 0.9305,0 0.8423,-0.7274 -0.3151,-2.597 -1.4846,-2.3981 -3.6482,-3.7177 -6.0956,-3.7177 -1.3694,0 -1.2478,5.1314 0.1742,7.3509 1.0703,1.6705 1.3209,1.7027 3.0549,0.3918 1.0389,-0.7854 2.4706,-1.428 3.1816,-1.428 z m -38.0338,-3.6003 c -11.2757,-7.4824 -19.238,-15.2483 -25.9268,-25.2876 -5.3663,-8.0543 -4.9011,-5.9738 0.9111,4.0747 5.8683,10.1453 11.39,16.1373 20.2896,22.0178 5.6232,3.7158 6.8532,4.204 7.426,2.9477 0.4682,-1.0267 -0.3903,-2.22 -2.6999,-3.7526 z m 15.6296,-5.2833 c -4.0266,-4.7237 -10.7627,-17.4947 -13.6333,-25.8474 -3.8016,-11.062 -4.7646,-18.4738 -4.1038,-31.588 l 0.5608,-11.1297 -6.521,1.6954 c -3.5866,0.9324 -10.2411,1.9769 -14.7879,2.3211 l -8.2668,0.6258 0.7262,4.153 c 1.0047,5.7456 4.6876,17.147 6.5587,20.3039 0.8539,1.4407 1.5524,3.1337 1.5524,3.7622 0,2.201 8.0311,14.3205 13.5521,20.451 5.9289,6.5834 15.8563,14.1814 22.0856,16.9033 2.0789,0.9083 3.9543,1.51 4.1676,1.3368 0.2132,-0.1731 -0.6375,-1.5174 -1.8906,-2.9874 z m 37.7687,-10.0606 c 1.7394,0 1.0649,-1.7079 -1.0474,-2.6522 -1.7145,-0.7666 -2.1223,-0.5479 -2.5621,1.3737 -0.3965,1.7327 -0.1432,2.1636 1.0475,1.7819 0.8637,-0.2768 2.0166,-0.5034 2.562,-0.5034 z m -3.3281,-5.9169 c 0,-0.7735 -0.4939,-1.1514 -1.0975,-0.8397 -0.6037,0.3116 -0.818,0.9445 -0.4763,1.4064 0.9258,1.2512 1.5738,1.0179 1.5738,-0.5667 z m 12.342,-0.1723 c -0.4665,-0.8682 -0.883,-2.695 -0.9255,-4.0594 -0.09,-2.8843 -1.2455,-3.0777 -4.7886,-0.8014 l -2.5516,1.6391 3.6315,2.3902 c 4.2164,2.7752 5.8346,3.0656 4.6342,0.8315 z m 57.8534,-0.2255 c 3.8608,-0.9847 8.9173,-1.7935 11.2367,-1.7973 4.1219,-0.01 4.1738,-0.047 2.2988,-1.7775 -2.06,-1.9015 -1.58,-4.5441 0.8254,-4.5441 0.8201,0 1.4317,-0.877 1.3838,-1.9844 -0.05,-1.153 0.8556,-2.3841 2.1613,-2.9388 2.62812,-1.1165 2.25322,-3.3529 -0.4269,-2.5472 -1.001,0.3009 -3.1738,1.3309 -4.8282,2.2888 -3.4254,1.9832 -5.8406,1.5749 -7.0671,-1.1946 -0.7813,-1.7642 -1.153,-1.5907 -5.0038,2.3349 -7.5078,7.6535 -14.68,9.5013 -23.0443,5.9368 -3.9236,-1.6721 -4.1095,-1.673 -7.7865,-0.038 l -3.767,1.6751 3.7798,0.043 c 5.4625,0.062 11.0607,1.5396 15.246,4.0244 4.5433,2.6973 6.2233,2.7555 14.992,0.5189 z m -80.9947,-6.8429 c 0,-1.2646 -3.7328,0.032 -6.7325,2.3374 l -3.5268,2.7111 5.1297,-2.3372 c 2.8213,-1.2856 5.1296,-2.5056 5.1296,-2.7113 z m 35.6377,4.1366 c 1.2578,-0.679 0.9418,-0.8776 -1.4137,-0.8883 -1.7506,-0.01 -2.7512,0.3677 -2.3661,0.8883 0.8287,1.1201 1.7049,1.1201 3.7798,0 z m -57.3364,-7.9549 c 1.157,-1.8944 4.1344,-4.977 6.6164,-6.8502 2.4821,-1.8731 4.0967,-3.7449 3.588,-4.1594 -1.2215,-0.9954 -5.4447,1.9395 -5.951,4.1357 -0.5714,2.4785 -3.9222,2.6814 -7.526,0.4557 -1.7088,-1.0553 -3.1069,-1.6287 -3.1069,-1.2743 0,1.1216 3.5074,11.1369 3.9002,11.1369 0.2066,0 1.3223,-1.55 2.4793,-3.4444 z m 60.2837,-2.5133 c -0.3589,-0.2997 -1.2903,-0.3318 -2.0699,-0.071 -0.8615,0.2879 -0.6056,0.5017 0.6525,0.545 1.1384,0.039 1.7762,-0.1741 1.4174,-0.4739 z m 7.1217,-1.1987 c 1.4576,-0.4629 4.4051,-2.1288 6.5499,-3.7018 3.1207,-2.2889 3.8997,-3.5077 3.8997,-6.1012 v -3.2411 l -2.8627,4.7987 c -2.4168,4.0515 -3.7202,5.1246 -8.3694,6.891 -5.2934,2.0111 -4.6719,3.0867 0.7825,1.3544 z m 28.2048,-4.442 c 7.4401,-7.3218 16.1161,-13.6271 20.8244,-15.134 3.0202,-0.9666 6.56322,-1.3214 10.48472,-1.0497 6.8549,0.4748 6.9036,0.4255 7.8376,-7.9292 0.4398,-3.9346 0.092,-6.832 -1.2154,-10.1197 l -1.8317,-4.6067 -16.34062,9.2066 c -20.6012,11.607 -25.6289,15.4586 -25.6518,19.6516 -0.01,1.6975 -0.7209,5.5221 -1.5814,8.499 -0.8605,2.977 -1.5819,5.7444 -1.603,6.15 -0.097,1.8577 5.2294,-0.8813 9.0772,-4.6679 z m -55.3314,-3.4535 c 1.8873,-1.4268 2.341,-1.4215 7.3602,0.087 6.2391,1.8741 15.0186,1.3145 17.5945,-1.1213 0.8748,-0.8273 2.2516,-3.4904 3.0598,-5.9181 1.8976,-5.7006 4.5704,-7.2326 7.4695,-4.2815 1.8538,1.887 2.0962,1.9384 2.1266,0.4511 0.019,-0.9232 0.7252,-2.4408 1.5696,-3.3723 1.3655,-1.5063 1.2721,-1.8717 -0.8443,-3.3042 -2.1185,-1.434 -2.2413,-1.9171 -1.1196,-4.404 1.1085,-2.4577 1.0085,-2.9059 -0.8323,-3.7288 -3.2171,-1.4382 -4.2783,-0.1993 -2.2981,2.6829 1.4948,2.1756 1.55,2.8251 0.3437,4.0393 -0.7907,0.7958 -2.0615,1.4469 -2.8241,1.4469 -0.8091,0 -1.1725,0.6837 -0.8726,1.6417 0.6467,2.0659 -2.2107,4.1267 -4.9059,3.5379 -1.6919,-0.3696 -2.1412,0.1762 -2.6249,3.1886 -0.7622,4.7472 -4.5207,7.8593 -10.2693,8.5034 -4.0269,0.4513 -4.82,0.1937 -8.2642,-2.6834 -4.8194,-4.0259 -5.1628,-8.1962 -1.0141,-12.3148 2.4231,-2.4055 3.5029,-2.7755 8.0994,-2.7755 3.523,0 5.3037,-0.3786 5.3037,-1.1277 0,-0.7438 -1.7459,-1.1276 -5.1297,-1.1276 -2.8213,0 -7.5789,-0.3071 -10.5724,-0.6825 -5.4248,-0.6803 -5.4426,-0.6743 -5.3997,1.8042 0.033,1.8885 -0.528,2.5547 -2.331,2.7689 -4.1816,0.497 -7.0816,-1.4575 -6.5608,-4.4218 0.3926,-2.2347 0.1,-2.6261 -1.963,-2.6261 -1.3335,0 -3.3147,-0.2822 -4.4027,-0.6271 -1.088,-0.3448 2.0691,3.0783 7.0159,7.607 6.7635,6.1918 8.9061,8.7524 8.6394,10.3246 -0.5812,3.4264 -5.4904,3.3122 -8.4821,-0.1974 -1.8433,-2.1625 -2.6431,-2.5512 -3.3516,-1.6292 -0.6271,0.8159 -0.098,1.7995 1.6234,3.0152 1.4047,0.9923 2.7683,2.3851 3.0302,3.0952 0.372,1.0082 5.3314,3.145 8.3603,3.6019 0.2502,0.038 1.36,-0.6155 2.4662,-1.4518 z m 82.80972,-2.1848 c 2.6049,-0.6462 4.2204,-1.3185 3.5901,-1.494 -2.017,-0.5616 -9.64292,1.5516 -11.17022,3.0953 -1.3183,1.3325 -1.2453,1.3893 0.6841,0.5325 1.188,-0.5275 4.2912,-1.4878 6.89602,-2.1338 z m -116.37482,-2.8501 c -1.0665,-0.8843 -1.1906,-0.7807 -0.6045,0.505 0.4055,0.8896 1.0094,1.3903 1.3419,1.1126 0.3325,-0.2777 7e-4,-1.0057 -0.7374,-1.6176 z m -63.1121,-5.3412 c -0.3448,-0.7196 -0.6007,-0.5059 -0.6525,0.545 -0.047,0.9509 0.2084,1.4838 0.5672,1.1841 0.3589,-0.2998 0.3972,-1.0779 0.085,-1.7291 z m 69.4577,-4.513 c 0,-1.1858 -2.4545,-0.4433 -2.9926,0.9052 -0.263,0.6592 0.2307,0.8608 1.2824,0.5237 0.9406,-0.3015 1.7102,-0.9445 1.7102,-1.4289 z m 81.2063,-18.4008 c 5.5263,-3.2686 10.7694,-6.2813 11.6514,-6.6947 1.3111,-0.6146 1.0649,-1.1057 -1.3499,-2.6925 -3.2551,-2.1388 -3.8001,-4.6104 -1.3855,-6.2844 2.0822,-1.4435 5.434,-0.4613 8.1049,2.3751 2.4659,2.6186 2.5723,2.5954 12.08772,-2.6365 3.8784,-2.1325 7.4572,-2.0336 8.1644,0.2255 0.8891,2.8399 2.2678,2.1064 2.0921,-1.113 -0.1497,-2.7413 0.3856,-3.1867 8.87286,-7.3845 7.3915,-3.6559 8.6506,-4.5852 6.9315,-5.1164 -1.1554,-0.357 -3.3092,-1.8488 -4.7862,-3.315 l -2.6853,-2.6659 -3.78496,2.8975 c -3.7232,2.8502 -11.4858,5.318 -19.52792,6.2081 -2.2118,0.2447 -5.1838,0.9797 -6.6045,1.6332 -14.2953,6.5759 -13.9747,6.3799 -22.0912,13.5055 -4.1969,3.6845 -4.4027,4.0654 -2.1598,3.9966 1.9085,-0.059 2.5554,0.4752 2.8109,2.3194 0.257,1.8549 -0.5348,2.9476 -3.5098,4.8431 -2.1129,1.3462 -3.8416,3.2114 -3.8416,4.1448 0,0.9334 0.2167,1.6971 0.4816,1.6971 0.2649,0 5.0031,-2.6744 10.5293,-5.943 z m -2.3284,-6.1921 c -2.0335,-2.0467 -0.9247,-4.5538 2.0139,-4.5538 3.4065,0 5.3362,2.504 3.4178,4.4349 -1.769,1.7805 -3.7381,1.8236 -5.4317,0.1189 z m 21.6418,-9.8795 c -2.2921,-2.3071 -0.9827,-4.5974 2.6283,-4.5974 2.8634,0 3.225,0.3034 3.225,2.7063 0,2.0568 -0.541,2.7709 -2.2543,2.9754 -1.2399,0.1479 -2.8594,-0.34 -3.599,-1.0843 z m -171.4997,16.2733 c 2.4914,-2.0813 2.5057,-2.1822 0.5891,-4.1595 -1.0804,-1.1145 -1.9644,-2.746 -1.9644,-3.6255 0,-0.9737 -1.0186,-1.7617 -2.6047,-2.015 -2.4296,-0.388 -2.5708,-0.1981 -2.1015,2.8266 1.5993,10.3071 1.8064,10.5445 6.0815,6.9734 z m 50.9728,-2.6791 c -1.7536,-5.2204 -2.9478,-6.6364 -6.5021,-7.71 -2.0537,-0.6204 -4.4423,-2.2176 -5.308,-3.5495 -1.0825,-1.6654 -1.5876,-1.9452 -1.6173,-0.8962 -0.024,0.839 0.4894,1.8005 1.1405,2.1366 0.651,0.3361 0.9782,1.7809 0.727,3.2106 -0.3939,2.2419 -0.104,2.5995 2.1076,2.5995 2.7428,0 7.8609,3.9382 7.8609,6.0486 0,0.7011 0.5057,1.0136 1.1239,0.6945 0.6181,-0.3192 0.8285,-1.4594 0.4675,-2.5341 z m 64.7359,0.656 c 1.4284,-0.4578 1.7073,-2.3423 1.7027,-11.5018 0,-6.0248 -0.3176,-14.889 -0.6988,-19.6982 l -0.6932,-8.7439 -2.983,1.076 c -6.3598,2.2943 -14.4864,13.0249 -15.9552,21.0678 -0.8943,4.8975 0.5888,11.8368 3.0565,14.3008 3.1481,3.1434 11.1037,4.9313 15.571,3.4993 z m -44.7339,-5.4505 3.5045,-0.5856 -0.637,-4.6015 c -2.5269,-18.2535 11.0164,-37.4332 32.5535,-46.1015 l 8.9575,-3.6052 -0.5989,-17.14 c -0.6819,-19.5144 -2.2253,-58.8851 -3.8371,-97.8781 -0.605,-14.6366 -1.5717,-40.6171 -2.1483,-57.7345 -0.5765,-17.1174 -1.5487,-41.6771 -2.1603,-54.5772 -0.6116,-12.9001 -1.5787,-37.4598 -2.1492,-54.5772 -1.2974,-38.9336 -3.1348,-84.6645 -4.1139,-102.3886 l -0.7475,-13.5315 -8.0995,0.3246 c -4.4547,0.1786 -8.3127,0.492 -8.5734,0.6966 -0.2608,0.2047 -1.0849,11.2221 -1.8315,24.4833 -1.3252,23.5386 -2.5151,42.6141 -4.7113,75.5309 -0.5959,8.9308 -1.5651,24.9657 -2.1538,35.6331 -0.5887,10.6673 -1.7869,30.1527 -2.6626,43.3009 -0.8757,13.1481 -2.333,36.0841 -3.2384,50.9687 -0.9055,14.8847 -2.1389,34.3701 -2.7409,43.301 -0.6021,8.9308 -1.5789,23.9508 -2.1708,33.3777 -0.5919,9.427 -1.7867,28.1005 -2.6552,41.4967 -0.8684,13.3963 -2.0866,33.4906 -2.7071,44.6541 -0.6205,11.1635 -1.6732,26.0807 -2.3394,33.1492 l -1.2112,12.8519 3.9512,6.7688 c 4.2365,7.2575 4.7054,7.489 12.5206,6.1834 z m 72.9983,-13.1426 c 3.0236,-2.638 6.8048,-6.5263 8.4027,-8.6407 6.6489,-8.7982 4.3461,-12.097 -7.0359,-10.0794 -3.4879,0.6183 -8.7676,0.8841 -11.7327,0.5909 l -5.391,-0.5334 v 7.9403 c 0,4.3671 0.3123,11.0259 0.6939,14.7972 l 0.6939,6.8569 4.4358,-3.0677 c 2.4397,-1.6872 6.9096,-5.226 9.9333,-7.8641 z m -144.9475,-0.9311 c -0.9167,-9.202 0.5917,-13.0492 7.1148,-18.1461 5.1108,-3.9933 5.6362,-4.1809 11.7069,-4.1809 8.0679,0 14.3115,2.6299 18.9546,7.9841 3.0845,3.5568 3.4001,4.5406 3.4001,10.5977 0,5.1089 0.3536,6.677 1.5058,6.677 1.2101,0 1.3839,-1.3459 0.8853,-6.8535 -1.2666,-13.989 -8.4679,-20.5529 -22.368,-20.3882 -3.4379,0.041 -7.8821,0.658 -9.8758,1.372 -8.3468,2.9884 -14.0357,10.9925 -15.898,22.3676 -0.7783,4.7537 -0.6691,5.3063 1.0486,5.3063 1.0546,0 2.2178,0.406 2.5848,0.9021 1.382,1.8678 1.574,0.7171 0.9409,-5.6381 z m 23.6812,5.0897 c 7.1137,-2.9856 8.9128,-7.5031 5.4299,-13.6343 -1.9626,-3.4548 -7.6953,-6.1293 -11.166,-5.209 -1.1077,0.2936 -3.5019,1.9494 -5.3203,3.6795 -2.6151,2.488 -3.3063,3.974 -3.3063,7.108 0,3.4774 0.4927,4.3017 4.0258,6.7344 4.6233,3.1834 5.6023,3.3085 10.3369,1.3214 z m 202.45948,-19.7165 c 4.2917,-2.9591 7.8031,-5.911 7.8031,-6.5596 0,-0.6486 1.3364,-1.6556 2.9698,-2.2378 1.6334,-0.5821 6.3716,-3.4884 10.5293,-6.4584 4.1577,-2.97 7.9734,-5.6927 8.4792,-6.0504 0.5059,-0.3577 -0.6084,-1.7877 -2.4761,-3.1778 -3.6504,-2.717 -4.0104,-5.3827 -0.9438,-6.9882 1.322,-0.6921 2.5726,-0.6159 4.5731,0.2784 5.5919,2.4999 9.3882,1.8625 14.8485,-2.4931 l 5.0423,-4.0221 -3.2087,-2.2554 c -4.1291,-2.9022 -3.8774,-5.9489 0.5262,-6.3697 2.0692,-0.1977 3.9389,0.3778 5.6887,1.7509 l 2.6064,2.0454 4.7134,-3.8642 c 3.3277,-2.7281 4.551,-4.3826 4.1611,-5.6281 -0.3399,-1.0858 0.4041,-2.6144 1.9354,-3.9759 2.3641,-2.1021 2.3817,-2.212 0.3555,-2.212 -2.7174,0 -4.7239,-1.6687 -4.7239,-3.9286 0,-1.7064 -0.07,-1.7107 -2.1599,-0.1308 -1.1879,0.898 -2.1599,2.0811 -2.1599,2.6291 0,0.548 0.972,1.5034 2.1599,2.1231 2.5595,1.3352 2.8137,4.0456 0.5281,5.6302 -1.3143,0.9112 -2.4171,0.8775 -5.6696,-0.173 l -4.0379,-1.3041 -12.9592,10.9209 c -7.1275,6.0065 -16.7633,13.5218 -21.4128,16.7008 -7.5195,5.1412 -8.2047,5.8568 -6.2008,6.476 2.6588,0.8217 4.952,4.5505 4.0311,6.5551 -1.326,2.8865 -8.8382,0.5164 -9.5514,-3.0134 -0.294,-1.455 -1.5648,-0.9683 -8.7617,3.356 -6.7177,4.0362 -8.0263,5.1799 -6.4795,5.6627 2.9888,0.9329 5.9488,4.1093 5.5334,5.9379 -0.6624,2.9159 -5.6283,2.5681 -8.8388,-0.619 -2.6832,-2.6638 -2.9604,-2.7379 -5.2446,-1.4014 -1.3263,0.776 -1.771,1.411 -0.9881,1.411 0.783,0 2.835,0.8395 4.5601,1.8656 2.2642,1.3468 3.1365,2.6155 3.1365,4.5617 0,3.1356 -0.6035,3.3971 11.6356,-5.0418 z m -1.523,-8.1452 c -0.374,-0.8143 -0.1622,-1.913 0.4707,-2.4418 1.6454,-1.3744 4.7629,-0.1182 4.3331,1.7461 -0.4787,2.0765 -3.9392,2.5776 -4.8038,0.6957 z m -53.80928,6.0602 c -0.035,-2.1541 -3.246,-5.4935 -4.3749,-4.5505 -0.2282,0.1906 0.096,2.0299 0.7217,4.0873 1.2607,4.1491 3.7189,4.4608 3.6532,0.4632 z m 29.86648,-8.7726 c 5.8857,-3.7212 10.9737,-6.7658 11.3066,-6.7658 0.333,0 5.7752,-3.349 12.0938,-7.4423 13.2927,-8.6112 44.2838,-34.0159 57.4997,-47.1348 34.2852,-34.0338 51.5791,-56.7833 69.2625,-91.1124 8.9253,-17.3266 29.9767,-63.4229 29.9767,-65.6399 0,-0.2636 -2.6729,-5.213 -5.9397,-10.9985 -3.2667,-5.7857 -5.9396,-10.6625 -5.9396,-10.8375 0,-0.175 -1.7009,-3.3522 -3.7797,-7.0603 -5.1431,-9.1739 -5.0709,-13.0007 0.3975,-21.0777 5.0452,-7.4519 8.7819,-14.2017 8.7819,-15.8631 0,-0.6722 0.4406,-1.6079 0.9791,-2.0792 1.6096,-1.4087 5.3278,-14.6951 6.6475,-23.7532 3.2262,-22.1447 -5.77,-37.5683 -32.9294,-56.4554 -6.7877,-4.7204 -12.6627,-9.4284 -13.0555,-10.4623 -0.9133,-2.4037 -0.1703,-4.7954 3.6784,-11.8418 6.632,-12.1417 7.6816,-14.6119 7.6816,-18.0767 0,-3.9426 -1.9032,-7.8675 -5.7713,-11.9022 l -2.5252,-2.634 -107.1907,0.223 -107.19078,0.2229 -3.3366,3.1745 c -1.8352,1.7459 -4.5023,3.5446 -5.927,3.9971 l -2.5903,0.8226 0.6651,21.4175 c 0.3657,11.7797 1.1333,32.7841 1.7056,46.6764 0.5724,13.8924 1.5372,38.0462 2.1441,53.6751 0.6068,15.6289 1.5926,38.9708 2.1905,51.8709 0.598,12.9001 1.5737,38.0687 2.1683,55.9303 0.5946,17.8617 1.5518,43.6392 2.127,57.2835 0.5753,13.6443 1.5278,38.0011 2.1167,54.1262 0.589,16.1251 1.3961,35.103 1.7937,42.1733 l 0.7229,12.8549 h 6.6289 c 3.6458,0 9.4218,0.6077 12.8356,1.3505 10.9939,2.392 26.9116,10.6594 36.30612,18.8568 2.0469,1.7861 4.1813,3.2474 4.7432,3.2474 0.5618,0 5.8371,-3.0446 11.72276,-6.7658 z m -194.59618,-6.5335 c 2.8984,-1.2044 6.5495,-1.5723 15.659,-1.578 l 11.8792,-0.01 5.9396,3.3481 c 5.8413,3.2927 5.9512,3.3151 6.6419,1.3532 0.3863,-1.0973 0.756,-5.8515 0.8216,-10.565 0.066,-4.7135 0.8249,-18.7186 1.6872,-31.1225 1.7483,-25.1467 2.8235,-42.1645 5.9561,-94.2697 1.1782,-19.5982 2.6501,-42.7371 3.2708,-51.4198 1.2041,-16.8431 6.9411,-107.8476 8.6442,-137.1196 1.0343,-17.7771 3.7767,-61.0775 4.843,-76.4681 0.5696,-8.2213 0.5358,-8.3734 -2.047,-9.1935 -1.4444,-0.4589 -4.0061,-2.2788 -5.6927,-4.0445 l -3.0665,-3.2087 -31.954,-10e-5 h -31.954 l -0.7229,62.9216 c -0.5347,46.5427 -1.0242,283.5862 -0.7277,352.3866 l 0.023,5.3027 3.5098,-2.3716 c 1.9304,-1.3043 5.2107,-3.0783 7.2895,-3.9421 z m 138.8693,4.7449 c 2.9157,-0.7357 6.2732,-1.0912 7.4611,-0.79 4.7901,1.2142 0.178,-0.9576 -5.111,-2.4068 -8.8286,-2.419 -11.469,-2.7891 -15.4484,-2.1655 -3.2003,0.5015 -3.5471,0.8033 -2.608,2.2691 1.2101,1.8887 6.054,4.3393 8.6867,4.3947 0.9451,0.02 4.1039,-0.5658 7.0196,-1.3015 z m 158.16488,-50.9844 c 1.3461,0 2.1062,-0.6158 2.1062,-1.7066 0,-2.106 8.8539,-10.4762 12.7299,-12.0344 3.7568,-1.5102 5.443,-7.0073 2.1494,-7.0073 -1.1697,0 -3.4476,-0.7858 -5.0621,-1.746 l -2.9354,-1.7461 -10.5237,10.98 -10.5236,10.98 3.4201,0.7403 c 2.089,0.4522 3.6462,1.4626 4.0011,2.5962 0.507,1.6194 0.7053,1.6704 1.5565,0.3999 0.5365,-0.8008 1.9232,-1.456 3.0816,-1.456 z m -4.2808,-3.9662 c -1.9878,-2.0007 -1.0372,-5.4575 1.5869,-5.7711 3.1607,-0.3777 6.6832,3.0564 5.1844,5.0541 -1.5156,2.02 -5.0996,2.3996 -6.7713,0.717 z m 10.0173,-10.0164 c -1.0378,-2.2591 0.4653,-4.0594 3.3892,-4.0594 3.2106,0 4.6171,2.1298 2.6884,4.0709 -1.7227,1.7339 -5.2789,1.7273 -6.0776,-0.012 z m 18.9297,-15.2992 c 1.83,-2.7087 4.727,-5.7894 6.4377,-6.8458 4.5771,-2.8268 8.1331,-8.6894 8.2672,-13.6296 0.1287,-4.739 1.8577,-7.0704 5.2546,-7.0852 1.8777,-0.01 4.3154,-3.1828 13.341,-17.3747 9.7504,-15.3317 10.9695,-17.7452 10.412,-20.6147 -0.3481,-1.7918 -0.077,-4.1148 0.6039,-5.1778 1.0977,-1.7133 0.9544,-1.9279 -1.2867,-1.9279 -1.387,0 -3.0311,-0.4254 -3.6535,-0.9453 -0.7889,-0.659 -1.7986,0.5022 -3.3338,3.8339 -1.9509,4.2336 -2.0204,4.9518 -0.6096,6.2908 2.4856,2.3591 1.3448,4.7621 -2.4072,5.0704 -2.9932,0.2459 -3.6725,1.0209 -8.5112,9.71 -2.8921,5.1935 -8.5237,14.0041 -12.5146,19.5791 -6.628,9.2586 -7.0762,10.1942 -5.1765,10.8061 2.5671,0.8269 2.2865,4.9964 -0.432,6.418 -1.3849,0.7242 -2.3287,0.5756 -3.9029,-0.6145 -1.9862,-1.5015 -2.1507,-1.4746 -3.7938,0.6201 -1.6157,2.0599 -1.5878,2.218 0.4727,2.668 3.2849,0.7175 2.4261,5.4637 -1.0632,5.8761 -1.4049,0.166 -3.056,-0.1171 -3.669,-0.6292 -0.7662,-0.6399 -1.812,-0.1904 -3.3456,1.4382 -1.7643,1.8736 -1.9159,2.4569 -0.7248,2.7886 0.8284,0.2307 2.5115,1.333 3.7401,2.4497 1.2287,1.1166 2.3091,2.0731 2.4009,2.1255 0.092,0.052 1.6642,-2.121 3.4943,-4.8298 z m 53.4819,-81.171 c -1.1283,-0.6892 -1.6421,-1.8442 -1.3026,-2.9285 0.4644,-1.4835 0.1219,-1.7204 -1.9979,-1.3819 -1.4071,0.2247 -3.2845,-0.095 -4.172,-0.7101 -1.3556,-0.9398 -1.8725,-0.601 -3.2336,2.1201 -2.0391,4.0768 -2.0297,4.1989 0.3239,4.1989 2.4595,0 4.5357,1.704 4.5357,3.7227 0,2.9367 3.6633,2.4089 5.7447,-0.8277 1.8566,-2.8869 1.8622,-3.1182 0.1018,-4.1935 z m 7.7102,-12.0031 c 3.1556,0.5039 4.9236,-2.5139 4.0643,-6.9375 -0.4924,-2.5347 -0.017,-3.9876 2.2313,-6.8263 1.6338,-2.0624 3.7182,-3.6061 4.8688,-3.6061 1.7142,0 1.9484,-0.5673 1.5831,-3.834 -0.3604,-3.2229 0.3922,-5.1279 4.7224,-11.9528 4.5374,-7.1518 5.4943,-8.1154 8.0326,-8.0891 2.1952,0.023 3.2737,-0.6573 4.5283,-2.855 1.4249,-2.4961 1.4368,-2.9521 0.088,-3.3844 -2.332,-0.7475 -1.8833,-4.6937 1.0178,-8.9526 1.417,-2.0801 3.8571,-5.6634 5.4224,-7.963 l 2.8461,-4.181 -3.5325,-0.5582 c -1.9429,-0.3069 -6.0063,-2.1251 -9.0297,-4.0405 l -5.4971,-3.4824 -3.4892,6.4173 c -3.3675,6.1936 -5.9334,11.6682 -13.578,28.97 -1.973,4.4654 -5.3367,11.9754 -7.4749,16.6889 -2.1381,4.7134 -3.883,8.9759 -3.8775,9.472 0.01,0.4962 1.4976,1.6093 3.3156,2.4737 2.6326,1.2516 3.2358,2.078 2.963,4.0594 -0.2714,1.9711 -0.9731,2.5483 -3.3777,2.7787 -1.6693,0.1599 -3.7326,-0.1929 -4.585,-0.7838 -1.2772,-0.8855 -1.9234,-0.3811 -3.6727,2.8666 -2.0535,3.8125 -2.0574,3.9502 -0.1175,4.2171 1.103,0.1518 2.8477,1.0534 3.8772,2.0037 1.8349,1.6937 1.9146,1.6822 4.0467,-0.5821 1.5087,-1.6021 2.9252,-2.1899 4.6239,-1.9186 z m -1.0648,-19.107 c -2.2169,-2.0463 -1.9111,-4.4365 0.7466,-5.8341 2.3489,-1.2353 7.611,0.9287 8.1717,3.3605 0.8988,3.899 -5.4625,5.6634 -8.9183,2.4736 z m 5.2354,-11.2174 c -1.0314,-2.2451 -0.016,-5.5031 1.8058,-5.7928 0.9428,-0.15 2.8867,0.5309 4.3197,1.513 2.121,1.4534 2.3844,2.0896 1.4166,3.4207 -1.5242,2.0964 -6.7027,2.6863 -7.5421,0.8591 z m 4.5381,-10.3831 c -2.7396,-2.5288 -1.9117,-5.9121 1.5287,-6.2473 3.7673,-0.3671 8.4916,3.7398 6.8388,5.9452 -1.6773,2.2382 -6.0971,2.3977 -8.3675,0.3021 z m 5.9033,-12.215 c -2.7287,-2.4263 -2.6639,-4.7981 0.1718,-6.2898 1.548,-0.8143 2.582,-0.4057 5.823,2.3017 2.5475,2.128 3.7077,3.7994 3.2814,4.7274 -1.0171,2.2139 -6.4411,1.7816 -9.2762,-0.7393 z m 9.2079,-7.6386 c -2.3131,-2.135 -1.9186,-4.9308 0.7564,-5.3611 3.0819,-0.4958 7.4076,2.3582 7.0202,4.6318 -0.4564,2.6787 -5.1844,3.1221 -7.7766,0.7293 z m -17.3954,-9.5818 c 2.2119,-4.4654 4.2616,-8.6264 4.5549,-9.2466 0.313,-0.6616 -0.3106,-1.1276 -1.5089,-1.1276 -1.1233,0 -4.667,-2.2201 -7.8749,-4.9334 -4.4803,-3.7896 -6.1619,-4.7053 -7.2527,-3.949 -2.6725,1.8528 -1.4082,3.9234 5.0636,8.2926 4.7086,3.1788 6.4755,4.9711 6.4755,6.5685 0,2.6552 -2.7452,3.7343 -5.6478,2.2201 -1.1671,-0.6089 -2.267,-0.9774 -2.4443,-0.819 -0.1772,0.1584 0.6897,2.8172 1.9264,5.9084 1.2368,3.0912 2.3472,5.5269 2.4676,5.4127 0.1205,-0.1143 2.0287,-3.8613 4.2406,-8.3267 z m -647.31447,-9.6976 c 4.95792,-6.5741 15.24391,-20.0205 22.85777,-29.881 9.1725,-11.8789 12.78589,-17.2055 10.70921,-15.7868 -1.72379,1.1778 -4.23535,2.7503 -5.58126,3.4945 -19.29257,10.6681 -32.15805,20.9875 -37.94004,30.4316 -4.11595,6.7228 -5.37189,16.463 -2.68291,20.8067 0.98325,1.5884 2.20063,2.8878 2.70528,2.8878 0.50466,0 4.97403,-5.3787 9.93195,-11.9528 z m 685.89167,2.9318 c 1.3925,-1.7365 3.6086,-3.2871 4.9246,-3.4456 2.7465,-0.3308 3.1509,-1.5309 0.7728,-2.2932 -2.8936,-0.9275 -1.7356,-4.5488 4.6904,-14.6684 8.657,-13.6332 21.7679,-36.3062 21.7679,-37.6441 0,-0.6041 -1.486,-1.8317 -3.3021,-2.7278 -2.5743,-1.2703 -3.2288,-2.1581 -2.9698,-4.0284 0.4323,-3.1212 4.19,-3.6395 8.041,-1.1091 2.8463,1.8703 7.5544,2.6196 6.3659,1.0132 -0.3475,-0.4697 -2.9005,-2.133 -5.6731,-3.696 -2.7726,-1.5631 -6.5583,-3.8087 -8.4126,-4.9901 l -3.3715,-2.1482 -6.9481,11.86 c -10.6853,18.2391 -25.6329,42.4789 -28.6821,46.5123 -1.1944,1.5799 -1.2297,2.0446 -0.1596,2.0968 0.7562,0.037 4.2907,1.7729 7.8544,3.8579 6.9391,4.0597 8.5531,7.1053 4.0487,7.6397 -2.4427,0.2897 -11.1205,-2.7431 -14.5001,-5.0677 -1.6008,-1.101 -2.01,-0.9266 -3.5098,1.4962 -2.1047,3.3999 -2.108,3.7341 -0.037,3.7341 0.9136,0 4.6798,1.6148 8.3694,3.5883 3.6896,1.9735 7.0437,3.4958 7.4535,3.3829 0.4097,-0.113 1.8843,-1.6262 3.2769,-3.3628 z m -25.4188,-15.9824 c 2.8588,-4.8211 5.3406,-9.0351 5.5149,-9.3645 0.1744,-0.3293 -0.8784,-0.8494 -2.3395,-1.1557 -1.4611,-0.3063 -4.674,-2.1761 -7.1397,-4.1551 -3.494,-2.8041 -4.4075,-4.1481 -4.14,-6.0909 0.5818,-4.2271 3.9558,-3.6071 10.4995,1.9294 5.8355,4.9372 5.8371,4.9378 7.5595,2.9643 2.0023,-2.2942 0.873,-0.4119 25.9999,-43.337 10.703,-18.2844 19.46,-33.7684 19.46,-34.409 0,-1.5751 -2.4809,-2.2598 -8.1878,-2.2598 -5.2145,0 -5.3737,0.1208 -3.4864,2.6454 1.6407,2.1946 -0.2521,4.3429 -4.1795,4.7434 -2.2762,0.2322 -4.3192,2.5541 -12.1509,13.8106 -5.1781,7.4424 -11.7717,16.5762 -14.6526,20.2973 -5.2982,6.8436 -17.8188,24.2626 -17.8188,24.7902 0,0.1575 -3.4018,5.5003 -7.5595,11.8728 -4.1578,6.3726 -7.5595,12.1579 -7.5595,12.8561 0,0.9406 13.524,13.3783 14.7808,13.5936 0.1109,0.019 2.5407,-3.91 5.3996,-8.7311 z m -10.2856,-2.5945 c -3.5937,-2.5695 -4.5401,-3.8214 -4.284,-5.6666 0.516,-3.7173 3.9995,-3.4617 8.801,0.6459 2.9072,2.487 4.024,4.1649 3.7691,5.6632 -0.547,3.2166 -3.1737,3.0129 -8.2861,-0.6425 z m 16.3577,-23.4934 c -1.591,-3.4634 4.1467,-6.0079 6.505,-2.8849 0.8237,1.0908 0.7456,1.895 -0.2845,2.9319 -1.8473,1.8593 -5.357,1.8328 -6.2205,-0.047 z m 14.8278,-22.3867 c -2.2166,-2.2311 -0.914,-4.5538 2.5539,-4.5538 3.4432,0 5.673,2.114 4.6284,4.3879 -0.8398,1.8282 -5.4255,1.9341 -7.1823,0.1659 z m -634.85956,39.8913 c -0.80139,-0.6693 -0.94193,-0.3171 -0.47219,1.1834 0.38187,1.2198 0.87139,1.6288 1.141,0.9531 0.2597,-0.6508 -0.0413,-1.6122 -0.66881,-2.1365 z m 598.21086,-24.4152 c -0.8692,-0.726 -1.183,-0.275 -1.159,1.6657 0.029,2.3329 0.1758,2.4557 1.1918,0.9955 0.8307,-1.1936 0.8214,-1.9476 -0.033,-2.6612 z m 93.2777,-2.5938 c 3.2029,-1.2191 5.0261,-3.5165 11.6892,-14.7298 5.0854,-8.5581 11.5536,-23.3815 11.5536,-26.4778 0,-3.7549 -1.9479,-2.5877 -6.3104,3.7815 -2.4689,3.6046 -4.4889,6.8537 -4.4889,7.2203 0,0.3666 -1.398,3.1868 -3.1067,6.2671 -1.7086,3.0803 -3.4219,6.4604 -3.8073,7.5112 -0.3854,1.051 -1.6602,2.6362 -2.8329,3.5227 -1.1728,0.8866 -2.1324,2.3566 -2.1324,3.2667 0,0.9101 -0.9252,3.6888 -2.056,6.1749 -1.1309,2.4861 -1.8828,4.5202 -1.6708,4.5202 0.212,0 1.6351,-0.4757 3.1626,-1.057 z m -71.563,-25.104 c 1.51,-2.2327 4.4048,-6.4951 6.433,-9.472 4.2704,-6.268 14.9376,-23.543 14.9376,-24.1906 0,-0.9133 -8.1846,-4.5098 -10.0615,-4.4212 -3.4837,0.1642 -18.2181,-7.6667 -37.9954,-20.1935 -12.115,-7.6736 -13.745,-8.9994 -13.325,-10.8386 0.6805,-2.9804 4.7119,-2.4523 11.3438,1.4864 22.9075,13.6046 29.784,17.1703 29.1499,15.1153 -3.5358,-11.4594 -4.1134,-15.3168 -3.709,-24.7691 0.4705,-10.9956 1.5176,-13.2013 6.0513,-12.7466 1.4841,0.149 2.8757,-0.1687 3.0923,-0.7057 0.2166,-0.5369 -0.7129,-0.9429 -2.0656,-0.9021 -2.0293,0.061 -2.4624,-0.3991 -2.4756,-2.632 -0.037,-6.2336 0.8419,-6.0454 -33.3314,-7.1341 -27.7061,-0.8827 -30.9101,-0.8398 -30.9093,0.4135 5e-4,0.769 -0.4723,1.7935 -1.0507,2.2767 -1.7064,1.4254 4.7983,8.9006 7.7706,8.9301 7.6815,0.076 8.6585,21.5944 1.2913,28.4406 -1.3348,1.2404 -2.5898,3.2701 -2.7888,4.5105 -0.2876,1.7927 -1.0627,2.3121 -3.7796,2.5322 -3.4267,0.2777 -5.3177,2.1929 -3.9673,4.0181 0.4304,0.5818 1.0711,0.1851 1.5886,-0.9834 1.5315,-3.4583 5.6095,-2.405 15.5802,4.024 5.4269,3.4991 11.3737,8.3517 14.3263,11.6902 2.9544,3.3405 5.8748,5.7232 7.0413,5.7449 1.0962,0.021 3.4071,0.8781 5.1352,1.906 l 3.1421,1.8689 3.2763,-2.7367 c 4.2009,-3.5093 9.7445,-4.4428 14.6882,-2.4736 2.0329,0.8099 4.7975,1.4725 6.1434,1.4725 4.4252,0 7.1597,4.7894 3.4192,5.9885 -1.0653,0.3414 -1.6199,1.7512 -1.6199,4.1174 0,1.9791 -0.6909,4.6757 -1.5352,5.9927 -0.8444,1.317 -1.801,3.1049 -2.126,3.9731 -0.4273,1.142 -1.7322,1.5787 -4.717,1.5787 -3.7916,0 -4.1227,0.2012 -4.0836,2.4808 0.034,2.0003 -0.4917,2.5327 -2.7163,2.7492 -3.5829,0.3486 -8.2953,-2.7691 -8.9579,-5.9264 -0.2841,-1.3535 -0.2696,-0.6342 0.032,1.5985 0.3019,2.2327 0.7733,9.5047 1.0477,16.16 l 0.4989,12.1005 6.2401,-8.4921 c 3.4321,-4.6706 7.4756,-10.3189 8.9856,-12.5516 z m -14.5371,-88.2418 c -8.8129,-5.7008 -6.1051,-9.2766 3.6246,-4.7865 4.9102,2.266 5.8248,3.0877 5.8248,5.2338 0,3.6997 -3.2783,3.5445 -9.4494,-0.4473 z m 82.3934,98.3318 c 1.4473,-2.9312 1.2872,-3.8007 -0.5887,-3.1994 -0.891,0.2857 -1.6199,1.5287 -1.6199,2.7625 0,1.4384 -0.73,2.4026 -2.0344,2.6876 -1.4303,0.3124 -1.8632,0.9911 -1.4581,2.2854 0.5617,1.7939 0.6287,1.7862 2.6231,-0.3033 1.1259,-1.1794 2.5109,-3.0842 3.078,-4.2328 z m -7.8833,-12.6823 c -2.8232,-2.0653 -4.0546,-3.6597 -3.8324,-4.9615 0.563,-3.296 5.0519,-2.8386 11.3134,1.1531 l 5.5859,3.561 1.6339,-3.3162 c 1.4679,-2.9793 1.4631,-3.4078 -0.048,-4.2182 -6.6231,-3.5544 -13.3603,-8.2129 -13.8885,-9.6033 -1.744,-4.5899 3.5605,-4.5757 11.9892,0.033 3.5307,1.9301 6.6331,3.3416 6.8942,3.1366 0.2611,-0.205 -0.6283,-1.018 -1.9764,-1.8068 -1.6813,-0.9838 -2.2797,-2.0397 -1.9053,-3.3622 0.4419,-1.5605 -0.3133,-2.2717 -3.9632,-3.7321 -3.7017,-1.4812 -4.5015,-2.2484 -4.4666,-4.285 0.024,-1.3645 -0.5356,-2.4808 -1.2423,-2.4808 -1.5561,0 -19.8589,26.1564 -19.8589,28.3803 0,0.2678 0.6537,0.487 1.4525,0.487 0.7989,0 2.3783,0.8667 3.5098,1.926 1.1315,1.0593 4.2441,3.0743 6.9169,4.4779 l 4.8597,2.552 0.5926,-2.4483 c 0.4885,-2.0187 -0.1373,-2.9821 -3.5675,-5.4915 z m 10.7321,4.2274 c -0.3447,-0.7196 -0.6007,-0.5059 -0.6525,0.545 -0.046,0.9509 0.2084,1.4838 0.5673,1.184 0.3588,-0.2997 0.3972,-1.0778 0.085,-1.729 z m -73.093,-19.6771 c 0,-0.4962 -0.7289,-0.9021 -1.6199,-0.9021 -0.8909,0 -1.6199,0.4059 -1.6199,0.9021 0,0.4961 0.729,0.9021 1.6199,0.9021 0.891,0 1.6199,-0.406 1.6199,-0.9021 z m -547.52418,-40.5946 c 0.6358,-0.9923 0.913,-1.8042 0.616,-1.8042 -0.297,0 -1.0602,0.8119 -1.6959,1.8042 -0.6358,0.9923 -0.9129,1.8042 -0.616,1.8042 0.297,0 1.0602,-0.8119 1.6959,-1.8042 z m 7.6982,-10.3742 1.0604,-1.8042 -1.7586,1.8042 c -0.9672,0.9923 -2.2358,2.6161 -2.819,3.6084 l -1.0603,1.8042 1.7586,-1.8042 c 0.9672,-0.9923 2.2357,-2.6161 2.8189,-3.6084 z m 5.7888,-7.3279 c 1.0208,-1.3014 1.3223,-2.0908 0.6699,-1.7539 -1.2466,0.6435 -3.761,4.1202 -2.9798,4.1202 0.2495,0 1.289,-1.0648 2.3099,-2.3663 z m 805.38998,-25.2884 c -0.7311,-0.2472 -2.189,-0.2622 -3.2398,-0.033 -1.0506,0.2288 -0.4525,0.4309 1.3294,0.4493 1.7819,0.018 2.6416,-0.1687 1.9104,-0.4158 z m -28.0782,-0.9021 c -0.7311,-0.2472 -2.189,-0.2622 -3.2397,-0.033 -1.0507,0.2288 -0.4525,0.4309 1.3293,0.4493 1.7819,0.018 2.6417,-0.1687 1.9104,-0.4158 z m -28.0781,-0.9021 c -0.7311,-0.2472 -2.189,-0.2622 -3.2398,-0.033 -1.0507,0.2288 -0.4525,0.4309 1.3294,0.4493 1.7819,0.018 2.6416,-0.1687 1.9104,-0.4158 z m -642.53518,-2.1159 c 0.3108,-0.9929 0.1246,-1.578 -0.414,-1.2999 -0.5386,0.2781 -0.9792,1.0905 -0.9792,1.8054 0,1.8672 0.7338,1.6009 1.3932,-0.5055 z m 614.45698,1.2138 c -0.7311,-0.2472 -2.189,-0.2622 -3.2398,-0.033 -1.0506,0.2288 -0.4525,0.4309 1.3294,0.4493 1.7819,0.018 2.6416,-0.1687 1.9104,-0.4158 z m -27.5587,-0.9323 c -1.0394,-0.2269 -2.7403,-0.2269 -3.7798,0 -1.0394,0.2269 -0.1889,0.4126 1.8899,0.4126 2.0789,0 2.9293,-0.1857 1.8899,-0.4126 z m -481.37848,-2.3383 c 0,-1.9345 2.5299,-2.9021 5.1296,-1.9622 2.3098,0.8352 18.6288,1.1395 18.6288,0.3474 0,-0.788 -17.5611,-1.7513 -30.6739,-1.6826 -7.6291,0.04 -10.1737,0.3022 -8.4735,0.8731 1.3364,0.4487 2.4298,1.3161 2.4298,1.9274 0,0.8646 0.288,0.871 1.2959,0.029 1.9159,-1.6004 5.3135,-1.3136 5.8801,0.4961 0.6825,2.1803 5.7832,2.1553 5.7832,-0.028 z m 453.84028,1.4606 c -0.7425,-0.2502 -1.9574,-0.2502 -2.6998,0 -0.7425,0.2502 -0.135,0.455 1.3499,0.455 1.4849,0 2.0923,-0.2048 1.3499,-0.455 z m -27.5382,-0.9265 c -1.0394,-0.2269 -2.7403,-0.2269 -3.7798,0 -1.0394,0.2269 -0.189,0.4126 1.8899,0.4126 2.0789,0 2.9293,-0.1857 1.8899,-0.4126 z m -31.8579,-0.9408 c -2.5244,-0.1899 -6.6551,-0.1899 -9.1794,0 -2.5244,0.1899 -0.459,0.3454 4.5897,0.3454 5.0486,0 7.114,-0.1555 4.5897,-0.3454 z m -32.9379,-0.8877 c -1.6334,-0.2067 -4.3062,-0.2067 -5.9396,0 -1.6334,0.2067 -0.297,0.3758 2.9698,0.3758 3.2668,0 4.6032,-0.1691 2.9698,-0.3758 z m 9.6969,0.1011 c -0.3588,-0.2998 -1.2903,-0.3318 -2.0699,-0.071 -0.8614,0.288 -0.6056,0.5018 0.6525,0.5451 1.1384,0.039 1.7763,-0.1741 1.4174,-0.4739 z m -56.6533,-1.8508 c -0.7311,-0.2472 -2.189,-0.2622 -3.2397,-0.033 -1.0508,0.2288 -0.4526,0.4309 1.3293,0.4493 1.7819,0.018 2.6416,-0.1688 1.9104,-0.4158 z m -28.0781,-0.9021 c -0.7312,-0.2472 -2.1891,-0.2622 -3.2398,-0.033 -1.0508,0.2288 -0.4525,0.4309 1.3293,0.4493 1.7819,0.018 2.6416,-0.1688 1.9105,-0.4159 z m -864.40295,-6.239 c 0.20411,-0.9567 2.14798,-3.3304 4.31972,-5.2748 l 3.94863,-3.5357 -5.63959,3.8813 c -3.10179,2.1345 -6.36227,4.8024 -7.24552,5.9284 -1.55703,1.9851 -1.51685,2.0275 1.31988,1.3937 1.664,-0.3717 3.08583,-1.4037 3.29688,-2.3929 z m 640.85757,-0.9779 c -0.7311,-0.2471 -2.189,-0.2621 -3.2398,-0.033 -1.0507,0.2287 -0.4525,0.4309 1.3294,0.4493 1.7819,0.018 2.6416,-0.1688 1.9104,-0.4159 z m -26.5013,-0.8554 c -0.3588,-0.2998 -1.2903,-0.3318 -2.0699,-0.071 -0.8615,0.288 -0.6056,0.5018 0.6525,0.5451 1.1384,0.039 1.7763,-0.1741 1.4174,-0.4739 z m 276.62808,-4.8729 c -1.1496,-1.9875 -2.3614,-4.9306 -2.6929,-6.5403 -0.9899,-4.8058 -2.656,-7.7219 -5.211,-9.1203 -1.3266,-0.7261 -6.0157,-3.74162 -10.4201,-6.70112 -4.4044,-2.9594 -14.0826,-8.7999 -21.5071,-12.9788 -11.1253,-6.2619 -13.4991,-7.9864 -13.4991,-9.8063 0,-2.9052 3.7121,-3.3871 7.7803,-1.0101 1.6604,0.9701 7.8786,4.4039 13.8183,7.6305 5.9396,3.2268 14.4538,8.2799 18.9205,11.2292 7.783,5.1391 14.484,7.7176 13.2874,5.1129 -0.2929,-0.6377 -1.585,-1.2848 -2.8712,-1.4378 -2.1723,-0.2585 -2.3385,-0.7841 -2.3385,-7.3968 0,-5.8972 0.3351,-7.2901 1.9531,-8.1189 1.5638,-0.8011 2.2634,-0.6514 3.5098,0.7506 1.4965,1.6835 1.5566,1.6622 1.5566,-0.5514 0,-1.9471 -0.402,-2.2384 -2.6042,-1.8868 -4.1091,0.6562 -5.4936,-2.4082 -3.4808,-7.7043 0.8859,-2.3309 2.1453,-6.443 2.7987,-9.1381 1.3479,-5.56 2.6649,-7.2783 5.5784,-7.2783 2.7683,0 2.6569,-3.2606 -0.1322,-3.8697 -1.7231,-0.3765 -2.1599,-1.2306 -2.1599,-4.224 0,-4.5591 1.5621,-7.242 4.2165,-7.242 1.4396,0 2.154,-0.8929 2.6157,-3.2695 0.5152,-2.6522 0.1935,-3.5682 -1.7038,-4.8516 -2.2726,-1.5372 -2.3018,-1.8091 -1.0295,-9.5855 0.7202,-4.4018 1.7982,-12.0628 2.3956,-17.0244 0.5974,-4.9616 1.5715,-12.2686 2.1646,-16.2378 0.5931,-3.9693 1.8183,-13.509 2.7227,-21.1994 2.3026,-19.5816 2.6424,-21.5363 3.8521,-22.1608 0.6834,-0.3529 0.6131,-1.0122 -0.1946,-1.8253 -1.8356,-1.8475 -17.0921,-1.6442 -39.8776,0.5314 -10.3928,0.9923 -21.8124,1.8097 -25.3769,1.8165 -3.5646,0.01 -7.6308,0.2694 -9.0359,0.5836 -2.3307,0.5211 -2.4981,0.9173 -1.908,4.5137 0.3558,2.1684 1.3852,5.1352 2.2876,6.5929 1.665,2.6895 2.339,3.1703 11.8479,8.452 2.9442,1.6354 6.103,4.0184 7.0196,5.2958 1.6585,2.3112 17.4677,14.4205 34.4405,26.38 7.378,5.1988 8.8492,6.6676 8.5837,8.57 -0.654,4.6868 -4.0154,3.2615 -20.299,-8.6072 -8.6125,-6.2774 -18.5165,-13.6992 -22.009,-16.493 -5.1785,-4.1426 -6.2079,-4.6636 -5.5795,-2.8244 2.8528,8.3502 2.9021,14.5595 0.229,28.8673 -0.2318,1.2403 -0.2182,1.5872 0.03,0.7707 0.8254,-2.7128 4.5659,-4.8648 6.6038,-3.7992 2.6687,1.3955 2.6468,4.533 -0.078,11.1474 -2.107,5.1152 -2.7599,5.8636 -5.1151,5.8636 -2.3984,0 -2.7612,-0.4531 -3.2493,-4.0594 l -0.5494,-4.0595 -2.5187,7.5825 c -1.3852,4.1704 -2.7691,8.2298 -3.0752,9.0211 -0.3061,0.7911 0.4599,0.1191 1.7023,-1.4934 2.3838,-3.0939 4.2561,-3.6354 6.3944,-1.8493 1.8664,1.5591 1.5023,4.9187 -1.2026,11.0959 -2.0218,4.6172 -2.7615,5.4126 -5.0336,5.4126 -1.7568,0 -3.1284,-0.7677 -4.0293,-2.2552 -0.7513,-1.2404 -1.3731,-1.9783 -1.3818,-1.6397 -0.01,0.3386 -1.7168,5.599 -3.7957,11.6899 -2.0789,6.0908 -3.7798,11.1546 -3.7798,11.2528 0,0.098 0.9746,-0.034 2.1657,-0.2945 2.5565,-0.5585 5.3938,1.1503 5.3938,3.2484 0,0.8158 -2.0894,6.7538 -4.6432,13.1956 l -4.6432,11.7121 4.5587,0.022 c 5.0336,0.024 8.1615,1.8181 10.9681,6.2908 1.314,2.0943 1.6669,5.317 1.556,14.21032 -0.1277,10.2469 0.058,11.5145 1.6998,11.6183 3.041,0.1921 33.7781,1.3559 40.3526,1.5279 l 6.1116,0.1598 -2.0902,-3.6137 z m -12.9472,-1.1225 c -5.4436,-3.4683 -6.3041,-6.3882 -2.0059,-6.8069 3.9859,-0.3884 12.0821,4.6937 11.6374,7.3048 -0.5265,3.0913 -4.3046,2.896 -9.6315,-0.4979 z m -10.9669,-42.22832 c -14.7062,-8.1441 -21.9459,-13.5117 -21.0004,-15.57 1.5887,-3.4584 5.4746,-1.7112 34.0091,15.2917 6.3301,3.772 6.9791,6.0448 1.8434,6.4557 -2.4914,0.1994 -5.8907,-1.2145 -14.8521,-6.1774 z m -3.4043,-17.3035 c -11.4456,-6.9995 -13.2444,-8.6147 -12.1785,-10.935 1.285,-2.7971 5.3433,-1.4537 17.6635,5.8471 9.9189,5.8778 12.2925,7.7024 12.0288,9.2465 -0.2406,1.4094 -1.1948,1.9859 -3.5682,2.1562 -2.5517,0.1829 -5.5138,-1.1583 -13.9456,-6.3148 z m 19.3452,-40.5642 c -13.1422,-8.7651 -17.9235,-12.7271 -17.6055,-14.5887 0.6619,-3.8747 4.3804,-2.5901 15.9856,5.5228 7.406,5.1773 11.3393,8.5482 11.3393,9.7181 0,2.9663 -4.7742,2.646 -9.7194,-0.6522 z m 2.6246,-32.0577 c -5.0073,-3.3923 -13.9639,-9.2432 -19.9035,-13.0019 -12.5142,-7.9194 -15.0825,-10.0895 -14.2039,-12.002 1.1947,-2.6007 4.7439,-1.39 15.9561,5.4429 20.2135,12.3184 32.411,21.1856 32.0497,23.299 -0.6311,3.6923 -4.4448,2.6667 -13.8984,-3.738 z M 841.87542,992.9958 c -0.7312,-0.2471 -2.1891,-0.2621 -3.2398,-0.033 -1.0507,0.2287 -0.4525,0.4309 1.3294,0.4493 1.7818,0.018 2.6415,-0.1688 1.9104,-0.4159 z m -28.0782,-0.9021 c -0.7311,-0.2471 -2.189,-0.2621 -3.2398,-0.033 -1.0507,0.2287 -0.4525,0.4309 1.3294,0.4493 1.7819,0.018 2.6416,-0.1688 1.9104,-0.4159 z m 325.21928,-10.3353 0.7167,-4.1612 -10.2863,0.4495 c -15.9257,0.6958 -16.1511,0.1377 -8.6192,-21.33942 18.4554,-52.6253 28.2893,-81.5273 29.6422,-87.1187 1.3628,-5.6324 0.7705,-13.7306 -1.247,-17.0495 -0.6469,-1.0642 -4.4777,-4.5964 -8.5128,-7.8495 -11.5077,-9.2773 -10.8674,-5.3358 -12.1144,-74.5715 l -1.0596,-58.83568 4.3031,-6.56673 c 2.3667,-3.6117 5.8028,-10.2261 7.6358,-14.69865 5.7122,-13.93762 6.9827,-20.33398 6.9859,-35.169 0,-12.1057 -0.3032,-14.37547 -2.9018,-21.5407 -1.5976,-4.40505 -4.8326,-11.38342 -7.189,-15.50751 -5.5416,-9.69897 -5.6938,-13.77648 -0.743,-19.90853 4.4565,-5.51971 6.1781,-8.79732 6.1781,-11.76186 0,-2.35481 -3.3161,-10.63817 -7.46,-18.63459 -1.2427,-2.39787 -2.2594,-5.99802 -2.2594,-8.00034 0,-3.36883 0.5844,-4.08628 7.8295,-9.61193 13.3036,-10.14634 24.1657,-19.71365 26.3039,-23.1684 1.1244,-1.81661 2.8704,-4.58154 3.8802,-6.14431 6.4718,-10.01606 8.5225,-25.0128 4.7676,-34.86601 -3.1703,-8.31923 -8.2191,-17.9573 -15.4089,-29.4156 -3.7695,-6.00738 -6.8493,-11.69063 -6.844,-12.62944 0.01,-0.9388 1.68,-5.75444 3.7216,-10.70142 2.0415,-4.94697 3.6111,-9.07867 3.4879,-9.18154 -0.1989,-0.16619 -46.6053,60.35242 -52.0362,67.86044 -1.1879,1.64228 -47.815,62.7846 -103.6157,135.87184 l -101.45588,132.88586 0.011,16.2378 c 0.01,8.9309 0.6072,27.6044 1.3359,41.4968 0.7287,13.8923 1.7825,38.655 2.3417,55.0282 2.1662,63.4216 4.2329,110.75572 4.8587,111.27842 0.3595,0.3004 51.2852,2.1781 113.16808,4.1726 l 112.5143,3.6266 0.6771,-3.1574 c 0.3724,-1.7365 0.9996,-5.0299 1.3939,-7.3186 z m -837.90775,3.8844 c -0.3325,-0.2778 -1.2039,-5e-4 -1.93645,0.616 -1.05862,0.8909 -0.93458,0.9945 0.60454,0.5049 1.06505,-0.3387 1.66441,-0.8431 1.33191,-1.1209 z m 597.17447,-20.24602 c -0.3629,-10.5433 -1.1194,-28.2352 -1.6809,-39.3152 -0.5615,-11.08 -1.0796,-24.8821 -1.1514,-30.6715 -0.2093,-16.8952 -1.5796,-5.9067 -4.706,37.7365 -1.5106,21.0867 -3.0512,41.28252 -3.4237,44.87972 l -0.6772,6.5402 h 6.1496 6.1496 z m -22.7959,15.33582 c 0.2873,-1.6125 1.0617,-11.25382 1.7208,-21.42502 1.3918,-21.4768 4.9391,-71.0656 6.4855,-90.6613 0.5873,-7.4424 1.7784,-24.898 2.6469,-38.7904 0.8685,-13.8924 1.8539,-27.4916 2.1898,-30.2204 1.3527,-10.989 1.7433,-22.0828 0.7463,-21.1995 -0.56,0.4962 -21.7251,28.0684 -47.0335,61.2715 l -46.0153,60.3695 v 40.4405 c 0,22.2424 0.3645,40.48102 0.81,40.53042 1.9575,0.2173 62.1032,2.3628 69.6065,2.4831 l 8.3205,0.1334 z m -409.44792,0.5301 c -0.74245,-0.2502 -1.95737,-0.2502 -2.69982,0 -0.74246,0.2503 -0.135,0.455 1.34991,0.455 1.4849,0 2.09236,-0.2047 1.34991,-0.455 z m 12.43178,-0.023 c -1.03251,-0.2258 -2.97638,-0.234 -4.31972,-0.018 -1.34333,0.2158 -0.49856,0.4006 1.87729,0.4106 2.37584,0.01 3.47494,-0.1665 2.44243,-0.3923 z m -29.71065,-0.9187 c -1.33641,-0.2151 -3.52327,-0.2151 -4.85968,0 -1.33642,0.2149 -0.24299,0.3909 2.42984,0.3909 2.67282,0 3.76625,-0.176 2.42984,-0.3909 z m 335.58809,-31.97612 v -32.6126 l -24.1249,31.485 c -13.2687,17.3168 -23.921,31.68802 -23.6718,31.93612 0.2491,0.2481 9.0399,0.6724 19.5351,0.943 10.4952,0.2706 21.1476,0.575 23.6719,0.6765 l 4.5897,0.1847 z m 358.80648,18.0753 c -1.9304,-1.0327 -3.5098,-2.2471 -3.5098,-2.6988 0,-0.4516 -0.9719,-0.3141 -2.1598,0.3056 -1.727,0.901 -2.5928,0.901 -4.3197,0 -1.188,-0.6197 -2.1599,-0.7505 -2.1599,-0.2908 0,0.4598 -0.2801,1.4458 -0.6225,2.1911 -0.7313,1.5919 1.6116,2.1046 10.3419,2.2628 l 5.9396,0.1077 z m -812.91683,-4.3229 c -6.53357,-2.4068 -13.35339,-5.0199 -15.15515,-5.8069 -9.37038,-4.0932 -33.6841,-6.0542 -41.54115,-3.3505 -6.24697,2.1497 -11.92461,5.628 -13.59751,8.3304 l -1.57696,2.5473 7.31725,0.089 c 4.02449,0.05 21.16735,0.5969 38.09525,1.217 16.92789,0.6201 32.47888,1.1773 34.55774,1.2383 3.06784,0.09 1.54231,-0.7134 -8.09947,-4.2651 z m 514.05855,-161.5602 45.092,-59.0877 -0.691,-18.0421 c -0.38,-9.92311 -1.1654,-30.62636 -1.7453,-46.0072 -0.5798,-15.38085 -1.5628,-40.95544 -2.1843,-56.83245 -1.7104,-43.69503 -4.1769,-107.57676 -5.3813,-139.3748 -0.5919,-15.62892 -1.5619,-40.39163 -2.1554,-55.02824 -1.4823,-36.55224 -2.9247,-73.74568 -4.863,-125.39221 -0.9031,-24.06358 -2.1379,-54.71251 -2.7442,-68.10873 -0.6062,-13.39622 -1.3695,-31.46081 -1.6961,-40.14355 -0.3266,-8.68273 -0.7551,-16.2321 -0.9521,-16.77638 -0.197,-0.54427 -3.4678,-1.23214 -7.2683,-1.5286 -8.0848,-0.63065 -27.7455,-5.93421 -37.0217,-9.98678 -7.6636,-3.34805 -19.1667,-12.18076 -22.4838,-17.2644 l -2.3546,-3.60841 -0.6526,123.13696 c -0.3589,67.72533 -0.7234,229.68663 -0.8099,359.91401 -0.1339,201.40938 0.065,236.51128 1.3311,234.99768 0.8187,-0.9787 21.7799,-28.3689 46.5805,-60.8671 z m 297.14368,6.0891 c -0.2996,-0.6201 -0.5447,-0.1127 -0.5447,1.1277 0,1.2404 0.2451,1.7478 0.5447,1.1276 0.2996,-0.6202 0.2996,-1.6351 0,-2.2553 z m 21.9633,2.1659 4.8597,-0.6323 -5.3997,-2.6339 c -2.9698,-1.4487 -6.8575,-3.5099 -8.6394,-4.5804 -1.7819,-1.0706 -3.7258,-2.1706 -4.3197,-2.4445 -0.6696,-0.3087 -1.08,1.6973 -1.08,5.2796 v 5.7775 l 4.8597,-0.067 c 2.6728,-0.037 7.0466,-0.3514 9.7194,-0.6991 z m 25.6412,-3.2868 c 6.0842,-0.7479 14.883,-1.3598 19.553,-1.3598 h 8.4907 l -1.498,-6.9913 c -4.6264,-21.592 -9.7979,-57.606 -8.6354,-60.1365 0.3618,-0.7876 1.7793,-1.432 3.1501,-1.432 2.2664,0 2.4609,-0.3475 2.1464,-3.8339 -0.618,-6.8488 -1.0015,-7.5214 -4.2651,-7.4803 -2.1071,0.027 -3.3243,-0.5688 -4.0717,-1.9918 -0.5863,-1.1164 -1.8506,-2.02974 -2.8096,-2.02974 -1.7161,0 -5.5209,-2.0514 -30.1053,-16.23201 l -12.3825,-7.14232 -3.4792,6.27455 c -3.7292,6.72533 -6.3632,8.00132 -9.2962,4.50336 -1.4043,-1.67471 -1.6135,-1.55057 -3.841,2.27939 -2.9768,5.11813 -3.0259,6.68608 -0.1902,6.06665 4.2694,-0.93264 5.3938,1.16294 5.3938,10.05212 0,9.6115 -1.5007,12.6092 -5.3338,10.654 -2.1429,-1.0931 -2.2257,-0.9502 -2.2257,3.8416 0,4.6808 0.1233,4.9125 2.0722,3.8958 2.9183,-1.5224 5.4873,0.4547 5.4873,4.2231 0,3.1856 -2.3015,5.4553 -4.7395,4.6738 -2.0954,-0.6717 -2.7322,1.9153 -2.0404,8.2891 0.4915,4.5273 0.8572,5.2396 2.5053,4.8796 3.072,-0.6711 4.0607,2.16 4.8899,14.0015 0.677,9.6683 1.0021,11.0058 2.6748,11.0058 1.5885,0 1.8108,-0.5806 1.3416,-3.5032 -1.0632,-6.6214 3.5078,-13.7355 10.8958,-16.9576 4.1553,-1.8122 11.4069,-3.4973 20.954,-4.8692 l 7.8634,-1.13 3.6039,2.9178 c 3.5892,2.906 3.6069,2.9626 4.3544,13.9228 0.4691,6.8785 0.3373,11.9129 -0.3516,13.4263 -1.4448,3.1744 -6.1231,5.1064 -14.0388,5.7975 -5.0204,0.4383 -6.5333,0.9271 -6.9455,2.2438 -0.2913,0.9305 -1.4866,1.6834 -2.6724,1.6834 -1.18,0 -2.44,0.6411 -2.7999,1.4246 -0.5285,1.1505 -0.083,1.3254 2.3143,0.9088 1.6328,-0.2838 7.9467,-1.1278 14.0309,-1.8757 z m 17.7074,-6.1925 c -4.9789,-4.2377 -5.6131,-7.1414 -1.6633,-7.615 3.0274,-0.3631 10.4111,6.4059 9.9466,9.1185 -0.5512,3.2183 -3.3278,2.7143 -8.2833,-1.5035 z m -8.1715,-37.4928 c -2.4639,-2.2744 -1.4994,-4.5839 1.9143,-4.5839 3.0917,0 5.3498,1.9815 4.834,4.2417 -0.5231,2.2919 -4.4218,2.4896 -6.7483,0.3422 z m -30.0642,-1.9004 c -6.2317,-1.3131 -12.2632,-4.1797 -14.6194,-6.948 -3.086,-3.6258 -4.9217,-9.5067 -4.104,-13.1479 1.6028,-7.1369 8.4936,-10.8643 23.1715,-12.5341 l 9.7053,-1.1042 -5.0435,-2.4571 c -2.7739,-1.3514 -8.4452,-4.61688 -12.6029,-7.25663 -5.8052,-3.6857 -7.5595,-5.322 -7.5595,-7.05086 0,-4.10031 3.7118,-3.11146 16.1989,4.31545 10.1564,6.04071 11.8731,7.41784 11.8367,9.49584 -0.04,2.3017 0.228,2.4305 5.0659,2.4305 2.8097,0 5.3369,0.3087 5.6161,0.686 0.2791,0.3773 1.3335,6.1066 2.3429,12.7318 1.796,11.7864 1.7901,12.0969 -0.2695,14.4241 -4.9907,5.6393 -19.0393,8.6698 -29.7385,6.4151 z m 18.0548,-10.0451 c 2.3443,-0.8922 2.7506,-1.6365 2.7506,-5.0385 v -3.9916 l -8.3695,0.5675 c -8.9382,0.6062 -17.2755,2.0956 -18.1201,3.2371 -1.0836,1.4647 0.8921,3.4821 4.7051,4.8043 4.7503,1.6473 15.2047,1.8786 19.0339,0.4212 z m 2.7506,35.6727 c 0,-3.1672 -0.3645,-5.7525 -0.81,-5.7452 -1.8376,0.03 -15.0693,2.7962 -17.8601,3.7334 -3.297,1.1073 -5.0884,3.2489 -5.0884,6.0833 0,1.6875 0.7757,1.8498 9.9894,2.089 14.3294,0.3721 13.7691,0.6228 13.7691,-6.1605 z M 1010.0127,583.24787 c 55.3779,-72.62255 102.3602,-133.87184 104.405,-136.10954 2.0447,-2.23769 4.3728,-5.33493 5.1735,-6.88275 0.8007,-1.54781 10.4478,-14.5529 21.438,-28.90018 l 19.9823,-26.08599 -2.4736,-5.48759 c -19.5389,-43.34737 -52.381,-92.1164 -82.9735,-123.21196 -10.071,-10.23657 -36.9488,-32.58525 -47.6917,-39.65527 -4.7517,-3.12713 -8.8824,-5.93708 -9.1794,-6.24434 -1.3707,-1.4181 -33.03026,-21.19341 -53.43838,-33.37878 -15.5097,-9.26063 -18.4567,-10.7058 -19.0928,-9.36272 -0.4137,0.87353 -0.7864,5.32113 -0.8281,9.88355 -0.042,4.56242 -0.5392,13.29026 -1.1055,19.3952 -0.5662,6.10494 -1.5492,18.40692 -2.1844,27.33773 -0.6352,8.93081 -2.1124,29.02514 -3.2827,44.65407 -2.6893,35.91421 -4.1261,55.93043 -5.407,75.32554 -0.5571,8.43465 -1.5192,21.6279 -2.1381,29.31832 -0.619,7.69042 -1.8361,24.33421 -2.7048,36.98619 -1.8045,26.28073 -3.3061,46.82524 -4.8465,66.30452 -0.5885,7.44235 -1.5391,21.04154 -2.1124,30.22043 -0.5734,9.17889 -1.5573,22.98105 -2.1865,30.67148 -1.5319,18.72169 -4.2186,55.52622 -5.4327,74.42343 -0.542,8.43466 -1.4853,21.62791 -2.0964,29.31833 -0.6111,7.69042 -1.8434,24.53718 -2.7385,37.43724 -0.895,12.90007 -1.9247,27.10818 -2.2882,31.57358 -0.5928,7.2836 -0.4974,7.9333 0.9272,6.31472 0.8733,-0.99231 46.8972,-61.22265 102.27518,-133.84521 z m 199.6021,132.02769 c 0.1727,-0.1158 -0.01,-2.84903 -0.4052,-6.07384 -0.632,-5.15298 -0.9651,-5.80954 -2.7495,-5.41973 -3.2433,0.70848 -4.9637,-1.26472 -5.7632,-6.60985 -0.8171,-5.46323 0.3081,-7.59318 4.0114,-7.59318 1.8462,0 2.0639,-0.4125 1.4877,-2.81907 -0.3712,-1.55049 -0.675,-3.32095 -0.675,-3.93437 0,-0.69229 -0.9877,-0.95757 -2.6042,-0.69943 -3.5374,0.56487 -5.1539,-2.17755 -4.7406,-8.04251 0.3098,-4.39634 0.7424,-4.98033 5.0041,-6.7557 0.1974,-0.0823 0.027,-2.36781 -0.3783,-5.07898 -0.6073,-4.06066 -1.0646,-4.85792 -2.5943,-4.52375 -1.0214,0.22312 -2.3455,-0.12999 -2.9425,-0.78468 -1.9858,-2.17781 -3.6234,-8.54981 -3.6234,-14.09882 0,-4.62534 0.3713,-5.69955 2.3752,-6.87201 2.3327,-1.36485 2.3518,-1.54722 1.0695,-10.1998 -0.7181,-4.84556 -1.301,-12.36214 -1.2952,-16.70351 0.01,-7.36028 -0.1392,-7.89339 -2.2046,-7.89339 -1.5106,0 -2.7172,-1.00403 -3.7942,-3.15736 -0.933,-1.86521 -2.3468,-3.16736 -3.4547,-3.1818 -1.0315,-0.0134 -6.6982,-4.47061 -12.5927,-9.90482 -5.8946,-5.43422 -12.0964,-10.98407 -13.782,-12.33301 l -3.0646,-2.45263 1.6211,4.46406 c 0.8915,2.45522 1.6194,7.1027 1.6175,10.32771 0,5.28405 -0.5171,6.6607 -5.1988,13.92687 -4.3294,6.71922 -6.4669,8.95038 -9.6672,10.09068 -0.1726,0.0615 0.6167,1.48232 1.754,3.15736 1.1374,1.67504 2.9435,5.15231 4.0136,7.72727 1.8157,4.36879 2.1451,4.64844 4.9282,4.18348 2.0032,-0.33467 3.9796,0.0938 6.0196,1.30495 l 3.0372,1.80322 0.1842,-5.08459 c 0.2271,-6.26911 3.2504,-12.25917 8.1628,-16.17252 3.4547,-2.75221 4.1845,-2.94982 9.9939,-2.70631 7.4348,0.31164 9.4508,1.90847 7.0804,5.60824 -1.2142,1.89518 -1.2568,4.0336 -0.239,12.01159 2.6324,20.63525 2.8201,27.02184 0.8671,29.51166 -2.0975,2.67406 -5.5963,2.96751 -10.7141,0.89856 -2.5007,-1.01097 -0.8455,0.72277 5.9875,6.27176 9.3542,7.59636 9.4427,7.70994 9.3489,11.99692 -0.052,2.38036 0.2516,7.61391 0.6748,11.63009 l 0.7695,7.30215 -3.6388,1.86866 c -14.3432,7.36572 -31.327,-1.97833 -28.6493,-15.76209 0.9864,-5.07753 8.9969,-11.08505 14.781,-11.08505 2.0134,0 1.6868,-0.59665 -2.6462,-4.83329 -5.3657,-5.24639 -6.1673,-7.69766 -2.7606,-8.44183 1.7806,-0.38896 1.9407,-0.72035 0.8689,-1.79906 -1.1288,-1.13622 -1.431,-1.05726 -2.1478,0.56124 -0.4587,1.03593 -1.6689,1.88351 -2.6891,1.88351 -2.2369,0 -6.854,-3.44823 -6.854,-5.11881 0,-0.65775 -0.7169,-1.1959 -1.5932,-1.1959 -1.2003,0 -1.37,0.50054 -0.6885,2.02973 2.6185,5.87475 2.2654,34.53901 -0.5278,42.84985 -0.4153,1.23563 -0.2092,2.02973 0.5269,2.02973 2.3782,0 39.9336,21.96925 41.7483,24.42202 0.5059,0.68385 5.5232,0.28991 6.7453,-0.52962 z m -23.5325,-36.08796 c 0,-3.98952 -0.063,-4.06398 -2.9698,-3.48402 -4.1334,0.82483 -5.6696,2.02746 -5.6696,4.43859 0,2.28518 1.2248,2.94426 5.6696,3.05085 2.8143,0.0675 2.9698,-0.1423 2.9698,-4.00542 z M 900.36742,638.15913 c 0.4052,-5.7058 1.455,-19.91391 2.3329,-31.57358 0.8778,-11.65967 2.0665,-28.50643 2.6416,-37.43725 0.575,-8.93081 1.5235,-22.12405 2.1077,-29.31832 1.4857,-18.29412 4.2137,-56.02676 5.4458,-75.32554 0.5702,-8.93081 1.5349,-22.12406 2.1438,-29.31832 0.6088,-7.19427 1.5764,-19.98157 2.1502,-28.41623 0.5737,-8.43465 1.542,-22.23682 2.1518,-30.67147 0.6097,-8.43466 1.5901,-22.23683 2.1786,-30.67148 0.5885,-8.43466 1.5563,-21.42493 2.1506,-28.86727 0.5942,-7.44235 1.578,-20.63559 2.1861,-29.31833 1.9771,-28.23152 5.3621,-75.87511 6.4732,-91.11233 2.4729,-33.91103 2.5396,-36.21671 1.0698,-36.97557 -0.8824,-0.45553 -4.3834,0.79098 -9.4776,3.37447 -4.443,2.25327 -11.3009,5.22246 -15.2396,6.5982 -7.131,2.49074 -21.3284,5.35245 -26.5546,5.35245 -3.3763,0 -3.3036,-3.18378 -1.158,50.75692 0.873,21.9474 2.0918,53.30057 2.7084,69.67373 0.6167,16.37316 1.6133,41.33884 2.2147,55.47929 0.6015,14.14045 2.0628,50.87857 3.2473,81.64026 1.1846,30.76169 2.6394,66.68791 3.2329,79.83605 0.5936,13.14814 1.5596,37.09896 2.1467,53.22403 0.5871,16.12508 1.5393,40.0759 2.116,53.22404 0.5767,13.14814 1.0922,26.13841 1.1455,28.86727 0.1595,8.1675 1.7626,2.57576 2.5862,-9.02102 z m 268.55238,2.93183 c -0.5718,-0.86827 -3.9378,-3.958 -7.4802,-6.86605 l -6.4406,-5.28738 2.2663,5.40382 c 2.0101,4.79293 2.4851,5.28968 4.2019,4.39406 1.5901,-0.82955 2.4254,-0.56858 4.6796,1.46223 3.1365,2.82556 4.2901,3.19719 2.773,0.89332 z m 11.4599,-11.61678 c -0.6413,-8.97938 -2.2077,-12.54891 -3.5485,-8.0864 -1.1695,3.89222 1.5765,16.77135 3.5758,16.77135 0.3261,0 0.3139,-3.90823 -0.027,-8.68495 z m 9.0616,-49.9517 c 1.5459,-6.51169 8.7697,-19.41149 11.5718,-20.66419 3.3518,-1.49849 5.7276,-1.18589 6.3608,0.83696 0.4508,1.43982 0.8862,1.60454 2.0708,0.78334 1.2694,-0.88004 1.2333,-1.20273 -0.2345,-2.09929 -3.4098,-2.08277 -1.3852,-5.22098 6.0302,-9.34697 3.8608,-2.14815 7.1452,-4.19452 7.2988,-4.54749 0.1536,-0.35297 -2.2778,-2.7512 -5.403,-5.32939 l -5.6823,-4.68763 -4.7383,3.13214 c -3.8044,2.51477 -5.6875,3.13212 -9.554,3.13212 -4.0112,0 -5.4129,-0.49888 -8.3907,-2.98632 -3.8255,-3.19559 -6.4512,-9.3607 -5.5898,-13.1248 l 0.5203,-2.27382 -2.0253,2.20118 c -2.4687,2.683 -2.5044,3.03457 -0.4535,4.45643 2.2939,1.5903 2.0075,4.83998 -0.6004,6.81143 -1.9102,1.44408 -2.5385,1.5124 -4.4998,0.48928 -2.087,-1.08874 -2.6025,-0.85678 -6.1043,2.74635 -2.1036,2.16454 -6.2128,5.80909 -9.1316,8.09898 -3.3274,2.61054 -4.8546,4.39689 -4.0946,4.78928 1.7608,0.90904 1.4857,5.52147 -0.4077,6.83406 -0.8909,0.61766 -1.6198,2.03188 -1.6198,3.14272 0,1.62851 0.4872,1.94189 2.5157,1.61797 2.0852,-0.33297 4.904,1.71345 16.4689,11.95606 10.1903,9.02511 14.0289,11.90409 14.2338,10.67548 0.1544,-0.92527 0.8107,-3.91502 1.4585,-6.64388 z m -10.8001,-10.8979 c -5.6825,-4.82229 -7.1431,-8.48406 -3.8103,-9.55239 2.4162,-0.77452 14.6755,9.43962 14.2591,11.88032 -0.6008,3.52102 -4.6086,2.6281 -10.4488,-2.32793 z m -31.544,-9.81824 c 0.094,-1.15706 -0.089,-1.1564 -1.4801,0.005 -1.0292,0.85978 -1.3356,2.11764 -0.8709,3.57618 l 0.7168,2.24992 0.7633,-2.25526 c 0.4198,-1.24039 0.8117,-2.84968 0.8709,-3.57619 z m 99.7202,-14.0759 c -6.0603,-2.52272 -15.6646,-9.8544 -22.6319,-17.2767 -3.1274,-3.33162 -4.5978,-4.32079 -5.0286,-3.38288 -0.3349,0.72901 -1.2457,1.32548 -2.0239,1.32548 -1.3957,0 -11.2328,-8.07358 -17.8576,-14.6562 -3.2205,-3.20001 -3.463,-3.28405 -4.5555,-1.57868 -1.3883,2.16676 -4.914,2.36314 -6.2635,0.34887 -0.7674,-1.14547 -1.1016,-0.81186 -1.5817,1.57868 -0.3347,1.66708 -0.9698,3.79563 -1.4113,4.73011 -0.7545,1.59711 -0.3716,1.66048 6.3826,1.05627 10.1059,-0.90403 13.6947,0.30223 19.5217,6.56168 2.6197,2.81414 7.9646,7.74355 11.8774,10.95424 3.9129,3.21068 7.1143,6.53861 7.1143,7.39541 0,1.33077 0.461,1.42356 3.1633,0.63668 3.8901,-1.13282 7.636,0.26571 7.636,2.85093 0,1.53449 0.7535,1.77247 5.6116,1.77247 h 5.6118 z m 13.0728,-6.29252 c -0.3517,-0.76563 -0.8711,-1.19859 -1.1542,-0.96212 -0.2831,0.23647 -0.1944,0.8629 0.1972,1.39206 1.0648,1.43927 1.6872,1.15966 0.957,-0.42994 z m -9.0641,-10.09758 c -2.6252,-3.45746 -3.7727,-4.24158 -5.8727,-4.01279 -1.8491,0.20145 -4.0425,-0.81848 -7.5222,-3.49777 -2.7015,-2.08018 -4.9239,-4.23787 -4.9385,-4.79488 -0.032,-1.20046 -7.5329,-4.50459 -7.5329,-3.318 0,2.32752 18.4188,20.29157 22.467,21.91235 2.4934,0.99827 3.1513,0.94083 4.7768,-0.41703 1.7936,-1.49826 1.7267,-1.78347 -1.3775,-5.87188 z m 38.6214,2.87335 c 1.3156,-0.71875 3.3289,-1.30683 4.4742,-1.30683 1.1453,0 2.362,-0.60892 2.7039,-1.35316 0.3725,-0.81067 0.011,-1.35315 -0.9094,-1.35315 -2.8812,0 -7.398,-6.15348 -7.4925,-10.20759 -0.076,-3.2288 0.2555,-3.81582 2.286,-4.05715 2.764,-0.32852 8.723,5.82311 9.7375,10.05252 0.4384,1.82794 0.8714,2.21244 1.5234,1.35315 1.837,-2.42051 0.8352,-5.90492 -3.9486,-13.73565 -4.2284,-6.92127 -17.0956,-23.09778 -18.3727,-23.09778 -0.6596,0 1.2412,3.89509 4.9387,10.12033 1.8169,3.05908 3.1605,6.39735 2.9856,7.4184 -0.3557,2.07727 -4.4682,3.02022 -6.6314,1.52052 -0.9585,-0.66448 -1.7057,-0.42961 -2.6496,0.83286 -1.9387,2.59317 -3.8674,2.18543 -9.8184,-2.07559 -18.3176,-13.11576 -26.3392,-18.2428 -28.1603,-17.99872 -1.2939,0.17342 -3.0725,-0.94735 -5.0107,-3.15736 -1.6526,-1.88442 -3.4296,-3.83216 -3.9488,-4.32831 -1.6952,-1.61977 6.5844,12.30205 12.9576,21.78763 5.9548,8.86307 6.2497,9.14099 6.7661,6.37926 0.6336,-3.38842 3.3677,-4.23341 5.9403,-1.83586 2.3622,2.20144 6.318,7.37481 12.3414,16.14025 2.7549,4.00911 6.2076,8.52588 7.6727,10.03727 2.6019,2.68429 2.7513,2.71813 6.4435,1.45989 2.0788,-0.70845 4.8561,-1.87617 6.1715,-2.59493 z m -28.8002,-22.45606 c -1.9605,-1.9732 -0.5628,-4.29589 2.3751,-3.94739 1.7808,0.21124 2.4347,0.89122 2.4347,2.5317 0,2.63209 -2.7864,3.45224 -4.8098,1.41569 z m -59.446,20.69817 c 1.0934,-1.10052 1.042,-1.35315 -0.2755,-1.35315 -0.8909,0 -2.2249,0.60892 -2.9643,1.35315 -1.0934,1.10052 -1.0419,1.35316 0.2755,1.35316 0.891,0 2.2249,-0.60892 2.9643,-1.35316 z m 32.3237,-25.93544 c -12.0029,-19.93921 -24.4853,-40.02022 -28.7386,-46.23274 -2.3778,-3.47309 -6.1666,-9.15634 -8.4196,-12.62943 -2.253,-3.47309 -6.7761,-10.13235 -10.0513,-14.79834 l -5.9549,-8.48362 -2.0246,3.29653 c -1.1136,1.81309 -2.7513,3.29654 -3.6393,3.29654 -2.3407,0 -1.1314,3.42699 4.6157,13.08048 14.255,23.94402 15.2072,25.05832 31.3962,36.74055 8.4829,6.12138 9.9963,7.61792 9.7194,9.61161 -0.4996,3.59743 -4.0032,3.46799 -8.3867,-0.30985 -2.0373,-1.75584 -4.0997,-3.19245 -4.5831,-3.19245 -0.4834,0 1.3263,3.66785 4.0216,8.15077 3.4635,5.76063 5.6834,8.39942 7.5703,8.9987 1.4685,0.46635 2.6699,1.26392 2.6699,1.77235 0,0.50843 0.7305,0.92443 1.6235,0.92443 0.8929,0 4.1213,2.01116 7.1742,4.46926 3.053,2.45809 6.3316,4.6437 7.286,4.85692 0.9543,0.21321 1.7566,0.43475 1.7827,0.4923 0.026,0.0575 -2.7014,-4.46225 -6.0614,-10.04401 z m -29.2026,-4.05946 c -4.2757,-6.82215 -8.3368,-13.01282 -9.0247,-13.75706 -0.6878,-0.74423 -2.1468,-3.08256 -3.2421,-5.19629 -1.0954,-2.11371 -2.1268,-3.73013 -2.2921,-3.59204 -0.1653,0.13809 0.6255,3.08533 1.7574,6.54943 1.1319,3.4641 2.0722,8.42413 2.0895,11.02229 0.03,4.48551 0.2119,4.78694 3.6081,5.97229 1.9672,0.68659 5.914,3.53366 8.7706,6.32682 2.8567,2.79316 5.3995,5.07847 5.6506,5.07847 0.2512,0 -3.0416,-5.58176 -7.3173,-12.40391 z m -116.2998,1.80421 c 5.7822,-7.35169 6.4953,-8.34445 5.9935,-8.34445 -0.4721,0 -1.9973,1.81532 -7.7688,9.24655 -1.0597,1.36443 -1.6925,2.48078 -1.4061,2.48078 0.2864,0 1.718,-1.5223 3.1814,-3.38288 z m 186.902,-3.0533 c -5.6647,-8.78157 -6.2397,-9.50273 -9.6696,-12.12838 -2.3296,-1.78328 -9.4277,-12.53 -21.9627,-33.25191 -10.1864,-16.83938 -20.7219,-34.09209 -23.4124,-38.33934 -2.6904,-4.24726 -7.5802,-11.98472 -10.8662,-17.19436 -5.2277,-8.28799 -11.4057,-17.91197 -12.9188,-20.12455 -0.2743,-0.40114 -3.3356,3.02333 -6.8028,7.60994 l -6.304,8.33927 2.601,2.5821 c 3.4739,3.44861 6.1631,8.32095 5.7037,10.33381 -0.4621,2.02469 -4.7065,2.63465 -7.1412,1.02627 -1.5298,-1.01063 -1.4987,-0.78788 0.2002,1.43155 1.1065,1.44563 2.9685,3.98279 4.1377,5.63814 2.3447,3.31947 3.5092,3.73256 4.492,1.59329 0.3903,-0.8496 1.625,-1.30085 3.0853,-1.12762 3.3344,0.39551 16.0038,21.36253 15.5736,25.77318 -0.1573,1.61251 0.155,2.93184 0.6939,2.93184 2.2909,0 38.1215,25.77613 41.6099,29.93361 1.7465,2.08153 0.9235,4.34627 -1.5796,4.34627 -1.0015,0 -6.1572,-3.0807 -11.4571,-6.84601 -5.2998,-3.76531 -9.7856,-6.70842 -9.9685,-6.54024 -0.1828,0.16817 1.6801,3.05169 4.1398,6.40782 3.4225,4.66975 7.2782,8.05767 16.4264,14.43363 6.5747,4.58237 14.9802,10.46281 18.6787,13.06763 3.6985,2.60482 6.9506,4.73604 7.2267,4.73604 0.2762,0 -0.8425,-2.08439 -2.486,-4.63198 z m -176.1779,-11.15481 1.0604,-1.80421 -1.7586,1.80421 c -0.9672,0.99231 -2.2358,2.61609 -2.819,3.60841 l -1.0603,1.8042 1.7586,-1.8042 c 0.9672,-0.99232 2.2357,-2.6161 2.8189,-3.60841 z m 123.0762,-28.04422 c 0.8554,-0.88302 -0.071,-1.48692 -5.7967,-3.77808 -0.4588,-0.18359 0.2701,1.5697 1.6199,3.8962 1.7644,3.04142 2.5625,3.75695 2.8402,2.5465 0.2124,-0.9259 0.8139,-2.12499 1.3366,-2.66462 z m -41.0084,-56.91127 c -1.2731,-1.82875 -1.5805,-1.24341 -0.5384,1.0251 0.3704,0.80621 0.9009,1.27581 1.1789,1.04354 0.2781,-0.23226 -0.01,-1.16315 -0.6405,-2.06864 z m -9.5232,-32.51057 c 0.888,0.28464 2.9233,-1.52816 5.3367,-4.75325 l 3.9013,-5.21338 -2.8931,-2.20203 c -4.6066,-3.50617 -17.4722,-11.74964 -17.4722,-11.19504 0,0.49893 3.7007,7.62992 5.564,10.72122 1.583,2.62647 2.3556,9.38551 1.1442,10.01088 -0.6082,0.314 -0.8491,1.39095 -0.5353,2.39322 0.4456,1.42325 0.8933,1.59851 2.0447,0.80028 0.8109,-0.56212 2.1202,-0.81498 2.9097,-0.5619 z m 5.3594,-22.13427 c -0.5812,-0.6202 -2.509,-3.36033 -4.2841,-6.08919 -10.0628,-15.46945 -12.6764,-18.90921 -13.7109,-18.04508 -2.0218,1.68894 -4.4554,0.91461 -10.1088,-3.21649 l -5.6404,-4.12162 3.0117,5.24925 c 1.6564,2.88709 3.7716,6.43112 4.7005,7.87563 0.9289,1.44451 7.2228,6.4067 13.9865,11.0271 12.2466,8.36579 14.0548,9.4647 12.0455,7.3204 z m -22.0229,-32.47568 c -4.6419,-7.28953 -25.6386,-35.81448 -34.6951,-47.13485 -27.6279,-34.5341 -50.0749,-55.63855 -90.1381,-84.74684 -10.8221,-7.86293 -20.8623,-14.94749 -22.3116,-15.74348 -1.4493,-0.79598 -7.71146,-4.89778 -13.91616,-9.11511 -6.2047,-4.21732 -14.55302,-9.6976 -18.55192,-12.17838 -3.9989,-2.48078 -12.5231,-7.75808 -18.9426,-11.72733 -18.4936,-11.43467 -36.2328,-22.68968 -50.0587,-31.76082 -12.3021,-8.071296 -14.752,-9.056756 -14.752,-5.933846 0,2.07383 -4.9459,7.188386 -9.7803,10.113726 l -4.1581,2.51613 2.9195,2.2612 c 4.2804,3.31527 17.6444,10.5983 30.179,16.44676 13.0538,6.09071 15.7196,9.6841 7.8381,10.56545 -2.634,0.29456 -2.6077,0.34737 1.08,2.16824 l 3.7797,1.86633 v -2.76843 c 0,-4.14561 3.2067,-3.95069 11.7042,0.71145 4.0162,2.20347 8.6144,4.41509 10.2182,4.9147 1.6038,0.49961 3.645,1.1482 4.5359,1.44133 0.8909,0.29312 4.5357,2.07988 8.0995,3.97058 5.2258,2.77248 6.447,3.86616 6.3113,5.65243 -0.1364,1.79606 1.5659,3.29254 9.0043,7.91518 7.9655,4.95024 9.08842,5.98036 8.53332,7.82802 -0.74352,2.47432 3.3158,5.61424 5.2112,4.03097 2.0614,-1.72199 4.5279,-0.7801 18.39706,7.02546 15.2518,8.58368 17.397,10.42336 14.3568,12.31217 -1.606,0.99776 -1.6677,1.34396 -0.3961,2.22545 1.1672,0.80918 1.6478,0.73447 2.1379,-0.33229 0.4225,-0.91965 2.0813,-1.37618 5.0004,-1.37618 5.3781,0 6.6582,0.50605 23.0612,9.11654 5.8425,3.06693 10.8901,6.15833 11.2169,6.86977 0.3268,0.71144 -0.192,1.9503 -1.1529,2.75301 -1.6096,1.34456 -2.4503,1.15383 -10.677,-2.42254 -4.9114,-2.13512 -9.697,-4.44714 -10.6347,-5.13784 -0.9377,-0.6907 -2.1213,-1.25581 -2.6302,-1.25581 -0.5089,0 -2.0067,-0.84864 -3.3284,-1.88585 -1.3217,-1.03722 -3.1529,-1.74762 -4.0692,-1.57868 -1.0483,0.19327 3.0619,3.68577 11.0842,9.41848 11.6202,8.30376 12.8609,8.9634 13.9981,7.44235 1.7256,-2.30812 4.092,-2.0864 6.1829,0.57932 1.8762,2.39193 1.4234,4.974 -0.8699,4.9602 -0.7611,-0.005 2.2429,3.19246 6.6756,7.10455 6.7063,5.91879 8.3666,6.9526 9.8895,6.15815 1.5811,-0.82483 1.0271,-1.43506 -4.0712,-4.48472 -4.4643,-2.6704 -5.8206,-4.00316 -5.5698,-5.47324 0.5587,-3.27473 4.6107,-2.86016 12.5092,1.27987 11.691,6.12782 15.518,8.9318 15.1479,11.09867 -0.4326,2.53262 -4.2195,2.92978 -8.0929,0.84874 -2.6261,-1.41085 -2.428,-1.0244 1.474,2.87609 2.4792,2.47826 8.4285,8.15944 13.2206,12.62484 9.0233,8.40813 10.4653,11.25781 6.6928,13.22584 -1.9525,1.01859 -1.9041,1.24343 1.1661,5.41152 3.8947,5.28734 4.5085,5.63959 7.2946,4.18617 3.4636,-1.80691 4.9581,-0.0838 19.91,22.95546 2.4925,3.84063 3.9692,5.18508 5.6974,5.18709 2.143,0.003 12.2082,5.88088 13.8356,8.08036 1.3498,1.82445 1.7112,0.91957 0.4339,-1.08636 z M 939.58852,137.4201 c -2.3565,-1.14651 -2.4694,-4.30911 -0.1801,-5.04296 2.2528,-0.72211 6.3581,2.70725 5.4937,4.58904 -0.7489,1.63008 -2.5755,1.78613 -5.3136,0.45392 z m -19.7088,-8.52234 c -9.1985,-4.16476 -11.0067,-5.61707 -9.9251,-7.97168 1.0682,-2.3253 3.9585,-1.77057 12.8647,2.46911 4.5578,2.16968 9.0413,4.18667 9.9632,4.4822 3.2019,1.02635 1.0454,5.2055 -2.5894,5.01822 -0.9207,-0.0474 -5.5617,-1.84647 -10.3134,-3.99785 z m -35.6376,35.77311 5.3996,-0.62861 -5.8083,-0.69195 c -8.2375,-0.98136 -12.0105,-4.23199 -12.0105,-10.34761 0,-3.66431 -0.3781,-4.55726 -2.0875,-4.93069 -1.8228,-0.39818 -1.9598,-0.17529 -1.0799,1.75772 1.6283,3.57753 1.1736,6.34488 -1.4631,8.9055 -2.1479,2.08585 -3.5941,2.4825 -11.0693,3.0359 -9.5318,0.70564 -10.2052,0.44808 7.0603,2.70059 7.335,0.95694 14.0073,1.02004 21.0587,0.19915 z m -46.5959,-6.84998 c -2.904,-1.69911 -5.7807,-6.7705 -5.7807,-10.19088 0,-2.64595 -0.037,-2.66196 -4.0609,-1.76475 -3.387,0.75519 -4.7892,0.59501 -8.4508,-0.96538 -5.4563,-2.32524 -12.2598,-9.62014 -16.1632,-17.33064 -2.6974,-5.32842 -2.9782,-6.93417 -3.0757,-17.591 -0.1042,-11.393876 -0.016,-11.864776 3.0981,-16.561506 7.4175,-11.18671 19.5505,-15.1899 34.6905,-11.4458 4.1448,1.02503 4.8844,1.04971 3.3902,0.11313 -1.0511,-0.65883 -6.1538,-1.84357 -11.3393,-2.63274 -8.0185,-1.22034 -9.8722,-1.84634 -12.398,-4.18683 -5.6809,-5.26422 -2.627,-12.94435 6.7583,-16.99608 4.1628,-1.79713 6.0439,-2.04197 13.2601,-1.72594 4.625,0.20254 8.9745,0.84048 9.6654,1.41763 2.1012,1.75521 2.9624,1.18452 2.3121,-1.532 -1.141,-4.76534 2.7776,-8.96371 10.3283,-11.06571 1.892,-0.52671 1.0817,-0.60425 -2.5706,-0.246 -17.2737,1.69432 -38.0302,12.04138 -47.5734,23.71521 -8.7936,10.75677 -12.3336,21.00987 -12.3904,35.886686 -0.046,12.1396 1.7477,18.81625 7.709,28.68952 7.9537,13.17315 13.9723,18.41566 26.9241,23.45198 6.5039,2.52909 9.0991,2.96922 5.6669,0.9611 z m 64.1877,-4.9433 c 2.2037,-0.96509 5.3722,-2.69179 7.0411,-3.83711 l 3.0344,-2.0824 -10.5939,-5.72164 c -5.8266,-3.1469 -11.0791,-5.78412 -11.6722,-5.86049 -1.1578,-0.14906 -6.7636,13.00637 -6.9243,16.24935 -0.1214,2.45144 1.0722,2.84713 8.8556,2.93578 4.2365,0.0483 7.5446,-0.49457 10.2593,-1.68349 z m -43.6278,0.1096 c 0.3023,-0.40866 -0.4266,-3.35177 -1.6199,-6.54025 -1.1932,-3.18847 -2.5054,-7.91076 -2.9158,-10.49399 l -0.7463,-4.69676 -4.4817,1.68043 c -3.5494,1.33087 -4.6525,2.30787 -5.3031,4.69676 -1.0839,3.97967 -0.5852,10.82994 0.8973,12.32713 2.6785,2.70504 12.8068,4.8685 14.1695,3.02668 z m 19.9984,-20.12126 c 0.8413,-3.09661 0.6991,-3.34906 -2.6361,-4.67761 -1.939,-0.77238 -3.8179,-1.15999 -4.1754,-0.86135 -1.2462,1.04099 -0.6371,7.16938 1.1474,11.54422 l 1.7974,4.40653 1.4887,-3.56925 c 0.8188,-1.9631 1.8889,-5.04223 2.378,-6.84254 z m -52.4271,-1.50352 c 2.9971,-8.92282 10.7736,-17.59205 22.5985,-25.19279 l 6.3407,-4.07564 -3.4626,-2.984276 c -4.7774,-4.11733 -14.5596,-8.28843 -21.1516,-9.01889 -7.5287,-0.83426 -12.4908,1.19721 -16.3626,6.69881 -2.6362,3.745996 -2.9324,5.034536 -2.9275,12.737566 0,7.02261 0.4843,9.54725 2.6576,13.98259 2.8124,5.73953 8.2507,13.08048 9.6904,13.08048 0.4736,0 1.6513,-2.35253 2.6171,-5.22785 z m 28.2948,-9.20579 c 2.5652,0 5.0099,0.46745 5.4326,1.03876 0.5325,0.71977 1.2154,0.52829 2.2236,-0.62347 2.0925,-2.3904 1.8199,-3.93801 -1.3711,-7.7844 -3.3985,-4.09652 -4.6213,-3.7905 -12.1839,3.04934 -7.2558,6.56238 -7.6742,7.4292 -2.7575,5.71317 2.1957,-0.76636 6.0911,-1.3934 8.6563,-1.3934 z m 89.8127,-17.36547 c -0.3109,-5.584776 -1.4783,-12.962236 -2.596,-16.405226 -1.7125,-5.27525 -2.4624,-6.35295 -4.781,-6.87093 -1.5125,-0.33789 -4.9006,-1.91741 -7.5292,-3.51005 l -4.7792,-2.89571 -0.6685,4.41797 c -0.8201,5.42061 -2.2466,7.82184 -7.2379,12.18347 -2.1292,1.86059 -3.3593,3.38288 -2.7335,3.38288 0.6257,0 3.5858,-2.2327 6.578,-4.96156 4.8237,-4.39931 5.9205,-4.96156 9.6786,-4.96156 4.3685,0 8.216,2.41937 10.9674,6.89643 2.2207,3.61334 2.6364,11.318806 0.8431,15.626936 -1.5294,3.67419 -1.5237,4.17233 0.064,5.63814 0.9581,0.88432 1.9708,1.60786 2.2504,1.60786 0.2797,0 0.2543,-4.56689 -0.057,-10.14865 z m -12.2415,-0.2993 c 1.0705,-2.33034 0.6765,-6.996376 -0.7752,-9.179846 l -1.3542,-2.03681 -4.207,3.59893 c -2.3138,1.97941 -3.9956,3.728246 -3.7372,3.886306 0.2584,0.15805 2.0865,1.38334 4.0624,2.72287 4.1519,2.81459 5.1079,2.97498 6.0112,1.00855 z m -52.5067,-9.398296 c 1.9462,-3.08168 0.9064,-10.67426 -1.7677,-12.90803 -2.2283,-1.86132 -10.1946,-3.0072 -14.5533,-2.09336 -1.7113,0.35879 -3.0805,1.57357 -3.8489,3.41491 -0.656,1.57191 -0.9919,3.02577 -0.7465,3.23078 0.2454,0.20501 0.768,-0.47419 1.1613,-1.50933 0.3933,-1.03515 2.1976,-2.52247 4.0096,-3.30518 10.4862,-4.52974 20.027,6.32933 11.684,13.29851 l -3.2272,2.69583 2.9322,-0.28444 c 1.8085,-0.17542 3.4781,-1.14877 4.3565,-2.53969 z m 32.2034,-11.90805 c 4.1325,-6.62234 0.3762,-15.28463 -8.7406,-20.15624 -11.666,-6.23381 -36.2039,-11.27032 -40.798,-8.37395 -1.7841,1.12482 -1.5379,1.59098 3.4342,6.50315 2.9459,2.91031 5.8997,6.38768 6.564,7.72748 0.7287,1.46935 3.0751,3.19374 5.9132,4.34557 2.5879,1.05026 6.2904,3.55725 8.2278,5.57109 1.9374,2.01383 4.0487,3.67733 4.6917,3.69664 0.643,0.0193 3.842,1.38518 7.1088,3.03524 5.7481,2.90339 6.0386,2.95316 9.0092,1.54356 1.6883,-0.80111 3.7536,-2.55275 4.5897,-3.89254 z m -58.956,-7.65685 c 0,-4.38751 -9.9606,-11.1089 -16.4571,-11.10517 -3.4422,0.002 -10.0011,2.90725 -10.0011,4.43 0,0.84206 2.3456,1.67372 6.9177,2.45278 3.8048,0.64831 9.1504,2.14859 11.8792,3.33397 6.1268,2.66143 7.6613,2.83938 7.6613,0.88842 z m 80.8972,-5.01738 c -0.6893,-1.11635 -2.4635,-3.38346 -3.9425,-5.03802 l -2.6891,-3.00828 -1.2939,2.10618 c -1.1926,1.94131 -0.9144,2.33569 3.5547,5.03802 5.7602,3.48307 5.9946,3.53145 4.3708,0.9021 z m -13.4016,-12.93935 c -10.3659,-7.27827 -35.0925,-14.0101 -50.7566,-13.81854 -4.542,0.0555 -3.5986,0.33255 5.9396,1.74394 12.6016,1.8647 23.8248,5.0862 31.6041,9.07163 2.8303,1.44997 6.475,2.64922 8.0995,2.665 1.6245,0.0158 3.8969,0.6247 5.0499,1.35315 3.4847,2.20172 3.5336,1.42126 0.064,-1.01518 z"
       id="path24" />
  </g>
</svg>
