<?xml version="1.0" encoding="UTF-8" standalone="no"?>
<svg
   xmlns:dc="http://purl.org/dc/elements/1.1/"
   xmlns:cc="http://creativecommons.org/ns#"
   xmlns:rdf="http://www.w3.org/1999/02/22-rdf-syntax-ns#"
   xmlns:svg="http://www.w3.org/2000/svg"
   xmlns="http://www.w3.org/2000/svg"
   xmlns:sodipodi="http://sodipodi.sourceforge.net/DTD/sodipodi-0.dtd"
   xmlns:inkscape="http://www.inkscape.org/namespaces/inkscape"
   version="1.1"
   id="svg35"
   width="900.33325"
   height="900"
   viewBox="0 0 900.33328 900.00002"
   sodipodi:docname="gren.svg"
   inkscape:version="1.0.2-2 (e86c870879, 2021-01-15)">
  <metadata
     id="metadata41">
    <rdf:RDF>
      <cc:Work
         rdf:about="">
        <dc:format>image/svg+xml</dc:format>
        <dc:type
           rdf:resource="http://purl.org/dc/dcmitype/StillImage" />
        <dc:title></dc:title>
      </cc:Work>
    </rdf:RDF>
  </metadata>
  <defs
     id="defs39" />
  <sodipodi:namedview
     pagecolor="#ffffff"
     bordercolor="#666666"
     borderopacity="1"
     objecttolerance="10"
     gridtolerance="10"
     guidetolerance="10"
     inkscape:pageopacity="0"
     inkscape:pageshadow="2"
     inkscape:window-width="1280"
     inkscape:window-height="668"
     id="namedview37"
     showgrid="false"
     showguides="true"
     inkscape:guide-bbox="true"
     inkscape:zoom="0.28846155"
     inkscape:cx="866.66663"
     inkscape:cy="447.43981"
     inkscape:window-x="-6"
     inkscape:window-y="-6"
     inkscape:window-maximized="1"
     inkscape:current-layer="g43" />
  <g
     inkscape:groupmode="layer"
     inkscape:label="Image"
     id="g43">
    <path
       style="fill:#ffffff;stroke-width:0.689845"
       d="m 353.68981,844.88141 c -17.01587,-1.81172 -30.9211,-7.79233 -40.07738,-17.23707 -2.90895,-3.00058 -4.3983,-3.98321 -6.84689,-4.51734 -2.98635,-0.65139 -3.27726,-0.57258 -6.36956,1.72564 -5.39832,4.012 -11.4392,5.44021 -22.92183,5.41925 -9.04569,-0.0163 -10.08125,-0.15136 -13.63491,-1.77559 -8.37145,-3.8262 -15.99692,-13.5022 -29.4272,-37.34037 -11.53246,-20.4696 -11.62709,-20.6605 -14.37132,-28.99309 -1.90879,-5.79582 -2.40938,-8.2603 -2.05321,-10.10824 0.55526,-2.88086 3.53768,-6.4089 6.91387,-8.17864 l 2.40845,-1.26249 -2.02774,-7.5463 c -1.11526,-4.15043 -2.18287,-8.03102 -2.37248,-8.62354 -0.22846,-0.71387 -2.16917,-1.46163 -5.75373,-2.21688 -12.79409,-2.69581 -17.67056,-7.3671 -21.78356,-20.86679 -5.30663,-17.41749 -9.60575,-36.95245 -12.05722,-54.7874 -2.23356,-16.24969 -2.23468,-39.79597 -0.002,-51.65037 1.97572,-10.49219 4.13818,-15.15597 9.05572,-19.53053 l 3.82859,-3.40585 -0.76119,-12.67501 -0.76118,-12.675 -2.74592,-2.77726 c -3.84674,-3.89064 -5.96275,-7.45773 -8.38265,-14.13107 -4.15071,-11.4464 -4.53125,-16.39029 -4.60041,-59.76773 -0.0563,-35.29749 0.0624,-39.73434 1.21016,-45.25916 1.676,-8.06727 4.77559,-16.51605 7.68015,-20.9343 3.0237,-4.59948 10.01748,-11.39046 15.38317,-14.93712 4.44473,-2.93813 13.46748,-6.66539 16.13489,-6.66539 1.24316,0 2.00715,-0.88736 3.6264,-4.21201 1.12829,-2.3166 3.04664,-5.83144 4.263,-7.81075 l 2.21156,-3.59874 -1.4649,-3.58911 c -2.11139,-5.17304 -2.07193,-13.73528 0.0887,-19.24266 2.18521,-5.5701 4.52607,-9.16287 13.87143,-21.28995 17.08109,-22.16541 29.39341,-32.06053 43.30286,-34.80153 6.04573,-1.19136 6.06099,-1.19968 7.07509,-3.85831 5.78635,-15.16985 12.55613,-29.5561 18.18768,-38.65007 l 2.47582,-3.998 -2.89636,-18.12114 c -5.81855,-36.40375 -7.71246,-53.45679 -8.27835,-74.53886 l -0.43652,-16.26298 -22.75837,0.36159 c -26.23782,0.41688 -27.39654,0.25793 -32.03907,-4.3951 -8.8527,-8.87272 -9.30017,-34.18063 -0.85944,-48.607551 4.8456,-8.2821 16.56422,-16.23594 26.85573,-18.227939 5.83928,-1.13023 45.46769,-2.09632 85.99016,-2.09632 h 27.25516 l 1.41311,2.1857 1.41312,2.185699 7.05347,0.0262 c 3.87941,0.0144 15.56227,-0.17523 25.96192,-0.42144 l 18.90846,-0.447649 -0.36212,-5.64961 c -0.40546,-6.32571 0.35928,-9.02388 3.16687,-11.17347 3.42378,-2.62136 22.87999,-1.4407 34.81263,2.11254 10.7593,3.20385 26.93607,11.07436 47.85673,23.283809 15.60157,9.10517 30.20887,20.093621 33.50307,25.202951 0.7693,1.19318 2.7113,3.39447 4.3156,4.89176 6.8708,6.41245 13.6635,17.92678 25.252,42.80464 2.4226,5.20068 4.8767,9.70944 5.4535,10.01946 0.5769,0.31002 5.014,2.41436 9.8603,4.67632 16.7631,7.82406 33.7939,18.78144 48.0747,30.93072 8.0043,6.80964 22.9987,22.04787 28.8458,29.31502 11.0464,13.72891 18.7098,25.6516 26.1328,40.65711 10.4191,21.06221 16.9628,42.08392 20.3922,65.51048 1.8599,12.70463 1.8614,47.16892 0,59.89182 -2.6877,18.39775 -7.7705,36.55651 -14.9543,53.42623 -4.1569,9.76144 -11.326,23.89221 -14.1568,27.90415 -1.1075,1.56949 -1.1747,4.42013 -0.8663,36.7518 0.6682,70.04208 -2.9718,108.79734 -13.2639,141.22219 -2.9682,9.35089 -4.8535,13.29384 -7.9532,16.63344 -3.4337,3.69935 -5.738,4.80511 -10.0134,4.80511 -4.4171,0 -6.8158,-0.88659 -9.78,-3.61483 -5.6899,-5.23696 -6.059,-9.64378 -2.9038,-34.67173 3.8115,-30.23473 5.9743,-67.54768 5.4789,-94.52368 -0.1706,-9.29305 -0.5144,-17.09516 -0.7639,-17.33803 -0.2495,-0.24286 -2.1674,1.08292 -4.2619,2.94618 -4.7202,4.19894 -15.915,12.97064 -19.6643,15.40795 -1.5383,0.99998 -4.2695,2.74632 -6.0693,3.88075 -1.7998,1.13442 -4.0559,3.35113 -5.0136,4.92602 -0.9577,1.57489 -3.1823,4.22882 -4.9435,5.89764 l -3.1997,3.03421 v 11.47224 11.47225 l 2.0432,1.67342 c 1.1238,0.92038 2.697,2.98802 3.4961,4.59476 3.4775,6.99211 1.0594,45.42477 -5.5868,88.79359 -2.3841,15.55705 -4.4567,23.35034 -8.1578,30.6747 -3.0742,6.08378 -9.3567,12.45212 -15.1994,15.4073 l -4.0556,2.05116 -3.0123,10.19944 c -1.6569,5.60962 -3.0299,10.67804 -3.0513,11.26307 -0.021,0.58503 0.9447,1.96323 2.1469,3.06265 5.1837,4.74044 6.2941,13.04682 3.0261,22.63693 -2.3985,7.03845 -11.9142,25.72749 -16.5172,32.44 -5.316,7.75231 -14.8174,16.92087 -19.9264,19.22834 -5.2525,2.37233 -13.1448,2.9006 -18.3229,1.22655 l -3.50012,-1.13154 -5.11266,2.67662 c -2.81196,1.47211 -6.8934,3.37286 -9.06987,4.22394 -2.44929,0.95765 -4.3079,2.18509 -4.87756,3.22115 -1.46044,2.65614 -7.95825,8.07451 -11.97958,9.98948 -4.18807,1.99447 -11.94044,3.76067 -16.59426,3.78074 -1.73058,0.007 -8.96757,0.62043 -16.0822,1.36213 -14.29052,1.48981 -27.69431,1.75096 -33.76899,0.65793 -5.24595,-0.94391 -9.80013,-2.92939 -14.43349,-6.29259 l -3.80163,-2.75945 -11.58135,-0.45763 -11.58136,-0.45755 -3.14652,2.54383 c -7.88601,6.37549 -19.21551,8.90455 -33.21325,7.41413 z m 17.48066,-11.651 c 6.0586,-1.50458 15.10214,-8.85473 16.42833,-13.35227 2.44713,-8.29889 2.58276,-25.28013 0.33593,-42.05849 -1.36368,-10.18344 -2.13632,-13.00578 -3.79728,-13.87094 -2.08811,-1.08779 -30.00125,-5.31812 -42.64031,-6.46233 -24.98378,-2.26173 -33.17267,-0.77376 -37.3475,6.78629 -2.4017,4.34917 -2.07721,13.98576 0.82504,24.5012 3.74285,13.56107 7.96155,23.80346 11.84965,28.76931 1.78999,2.28616 9.06968,8.18197 11.86026,9.60563 1.49061,0.76049 9.59179,3.20761 17.47004,5.27721 8.22281,2.16006 18.25731,2.48279 25.01584,0.80439 z m 89.85057,0.50459 c 5.57633,-0.54297 13.59995,-1.27719 17.83027,-1.63158 12.20397,-1.02244 18.39474,-3.98872 22.47776,-10.77018 0.98843,-1.64165 2.36649,-3.28139 3.06236,-3.64387 1.63335,-0.85087 3.03798,-6.9271 4.56039,-19.72755 2.11906,-17.81721 1.68137,-23.69586 -2.06981,-27.80022 -4.8277,-5.28219 -20.28386,-7.81473 -38.51909,-6.3113 -4.99947,0.41216 -13.33774,1.06124 -18.5295,1.44237 -13.54471,0.99441 -20.78109,3.26009 -27.02336,8.46081 -7.23796,6.03029 -11.91732,22.999 -10.05406,36.45894 1.24261,8.97642 3.30771,14.97296 5.15641,14.97296 0.49138,0 1.81758,0.94608 2.94711,2.10247 2.68476,2.74856 7.21865,5.31574 11.33658,6.41904 4.50024,1.20573 16.60913,1.21751 28.82494,0.0279 z m -51.95475,-13.48389 c -2.01783,-5.86355 -2.20298,-25.72443 -0.30225,-32.42156 4.08652,-14.3986 12.22984,-22.34598 26.53173,-25.89321 11.35929,-2.81743 49.15834,-4.38088 59.98736,-2.48122 10.93321,1.9179 17.81287,6.84237 19.58095,14.01612 1.29758,5.26476 -0.19838,28.72643 -2.51093,39.37975 l -0.4989,2.29829 5.17455,-2.63858 5.17454,-2.63858 0.41259,-4.08353 c 0.70116,-6.93949 3.36097,-14.38118 13.42309,-37.55557 5.17645,-11.92195 7.59265,-15.86514 12.40775,-20.24909 4.7119,-4.28995 8.8314,-5.94277 15.8164,-6.34581 l 5.7001,-0.32886 1.1374,-3.83158 c 0.6256,-2.10731 2.0684,-6.89416 3.2062,-10.6374 1.1379,-3.74324 2.0728,-7.04661 2.0777,-7.34076 0.01,-0.29422 -2.7719,-0.33057 -6.1705,-0.0809 -7.0333,0.51677 -10.1933,-0.19097 -12.7718,-2.86051 -1.4702,-1.52214 -1.705,-2.50212 -1.9117,-7.97719 -0.1399,-3.70512 0.4063,-11.49718 1.3439,-19.17307 1.4252,-11.66815 1.5921,-16.35469 1.7087,-47.98152 0.1394,-37.82734 0.5971,-48.59334 2.2356,-52.58662 1.4253,-3.47354 6.5977,-7.76363 10.8382,-8.98934 4.624,-1.33658 20.3457,-2.64033 27.1893,-2.25472 l 5.5162,0.31081 0.043,-3.80083 c 0.024,-2.09046 0.1809,-7.01662 0.3491,-10.94702 0.1682,-3.9304 0.041,-7.54483 -0.2817,-8.03206 -1.061,-1.59972 -11.9511,0.3172 -22.8356,4.01962 -24.9994,8.5036 -43.2573,11.93502 -68.17461,12.81278 -7.88377,0.27772 -13.07553,0.56043 -11.53723,0.62824 1.5383,0.0678 4.99947,0.56996 7.69149,1.11587 11.3322,2.29806 17.62042,6.20883 21.11233,13.13022 1.9589,3.88277 1.96253,3.91611 2.2005,20.22332 0.35104,24.05507 -1.00101,57.87674 -3.01051,75.30797 -2.56002,22.2068 -4.43015,27.7308 -11.56477,34.16012 -8.93251,8.04946 -15.17753,8.75625 -56.3047,6.37201 -20.39617,-1.18238 -31.04515,-2.06565 -33.06294,-2.74229 -7.18424,-2.40922 -11.41692,-7.33505 -12.67671,-14.75272 -0.76119,-4.48195 -2.59833,-51.37852 -3.30602,-84.39302 -0.53841,-25.11739 1.46671,-39.03509 6.25451,-43.41311 4.62985,-4.23358 22.60876,-7.57262 41.38589,-7.6862 l 9.11652,-0.0551 -9.43955,-1.92135 c -25.60535,-5.21178 -48.63606,-14.1023 -72.15399,-27.85355 l -2.58097,-1.50913 -1.08781,2.04753 c -1.94487,3.66072 -8.12221,10.3196 -12.52346,13.49973 -15.38902,11.11933 -42.0382,14.91686 -72.47581,10.32787 -10.48657,-1.58104 -14.63961,-2.68695 -20.73793,-5.52231 -8.75527,-4.07067 -14.30597,-11.30718 -15.70496,-20.47471 -0.35374,-2.31809 -1.58104,-15.85561 -2.72731,-30.08337 -4.42813,-54.96243 -2.07537,-80.73601 8.85915,-97.04835 3.94638,-5.8873 8.41943,-9.81975 13.94211,-12.2571 2.46515,-1.08796 4.48203,-2.35789 4.48197,-2.82207 -7e-5,-0.46418 -0.44739,-3.14095 -0.99405,-5.94838 -1.02126,-5.24479 -2.7675,-23.10842 -2.30312,-23.56042 0.14281,-0.13901 0.64948,2.73167 1.12592,6.37928 1.18403,9.06492 1.89219,11.37958 4.2972,14.04572 1.6044,1.7786 2.31254,3.56629 3.16422,7.98798 11.52474,59.83336 50.01072,113.1613 103.43963,143.33071 58.77628,33.18888 129.37194,37.76888 191.58801,12.42955 8.3919,-3.41784 21.0121,-9.5274 24.9764,-12.09132 1.5772,-1.02003 4.7836,-3.0225 7.1255,-4.44993 2.3418,-1.42743 5.8359,-4.18382 7.7647,-6.1253 1.9287,-1.94148 6.3694,-5.67382 9.8682,-8.29408 9.1418,-6.84641 19.139,-15.97933 19.139,-17.48441 0,-0.70098 0.5506,-1.45493 1.2236,-1.67545 5.3132,-1.74092 7.5774,-3.47214 13.1144,-10.0272 5.3963,-6.38837 12.1025,-15.23491 14.1555,-18.67332 0.4807,-0.80512 0.874,-2.20836 0.874,-3.11832 0,-0.90996 1.4587,-4.05333 3.2416,-6.98527 13.1989,-21.7055 23.0717,-48.83766 26.8228,-73.71447 5.5596,-36.87043 1.4858,-72.03935 -12.3774,-106.85345 -19.6329,-49.30305 -57.2499,-88.45998 -107.6565,-112.06361 -5.834,-2.73187 -11.0365,-5.56341 -11.561,-6.29232 -1.6477,-2.28968 -24.7594,-9.30552 -39.0622,-11.85777 l -5.2923,-0.9444 -0.8241,5.16953 c -0.4533,2.84323 -0.9036,5.75218 -1.0007,6.46432 -0.1535,1.12536 0.8285,1.50191 7.503,2.8773 16.9808,3.49913 31.4235,8.26919 46.5105,15.3612 4.8071,2.25974 10.0604,4.36615 11.6738,4.6809 8.2032,1.60033 32.7432,19.76021 48.4996,35.89027 20.1138,20.59076 35.5458,45.17036 45.0668,71.7808 12.8547,35.92797 14.5813,76.58506 4.8311,113.7624 -3.9544,15.07831 -8.2077,26.36271 -10.7957,28.64243 -0.8406,0.74048 -3.4128,5.02197 -5.716,9.51443 -4.6815,9.13171 -10.344,18.53266 -14.5535,24.16195 -3.104,4.15092 -3.9118,5.63455 -4.4711,8.2116 -1.3359,6.15565 -37.1828,40.11021 -42.3455,40.11021 -0.8067,0 -5.1542,2.3692 -9.661,5.2649 -9.0704,5.8277 -25.9423,14.38748 -35.1146,17.81496 -25.6777,9.59515 -48.09802,13.67008 -75.2202,13.67137 -32.37744,0.001 -60.64608,-6.4504 -89.48523,-20.42382 -40.26283,-19.50854 -71.84676,-50.39273 -91.51832,-89.49072 -11.56527,-22.98643 -17.83308,-45.30144 -20.07211,-71.46183 -1.81372,-21.19123 0.99098,-48.22111 7.16388,-69.04083 12.32291,-41.56227 37.58218,-77.25439 73.01371,-103.17062 24.99169,-18.28005 52.46026,-30.0599 83.89244,-35.97709 8.03276,-1.5122 8.38396,-1.64904 8.23235,-3.20768 -0.0871,-0.89546 -0.36724,-3.83227 -0.62254,-6.52626 -0.45595,-4.81147 -0.49647,-4.89297 -2.28893,-4.60513 -14.50917,2.3299 -22.39045,4.17263 -35.38761,8.27401 -19.79814,6.2475 -42.50688,17.40339 -57.50234,28.24858 -2.21626,1.60288 -5.09476,3.62507 -6.39667,4.49377 -7.93926,5.29749 -26.9435,23.2117 -35.15953,33.14287 -8.21453,9.92936 -13.8665,18.07592 -13.8665,19.9867 0,0.99756 -1.28971,3.95274 -2.86603,6.56707 -8.08702,13.41232 -15.08323,28.15136 -19.21676,40.48423 -1.0664,3.18176 -2.66488,6.56249 -3.55217,7.51275 -1.68451,1.80405 -4.01012,9.83863 -6.19778,21.41228 -0.70054,3.70618 -1.66665,6.66289 -2.44622,7.48648 -1.88776,1.99436 -2.58462,4.20705 -3.7895,12.03262 -0.59479,3.86313 -1.36314,8.40206 -1.70744,10.08652 l -0.626,3.06265 -0.10102,-3.40295 -0.10103,-3.40294 -2.93185,3.40294 c -4.85122,5.63073 -15.97914,16.20952 -20.32778,19.32467 -7.73331,5.53977 -13.33503,7.21175 -20.36305,6.07788 -1.08703,-0.17537 -2.12723,1.10839 -5.06,6.24484 -2.03043,3.55608 -3.69591,6.77238 -3.70107,7.14735 -0.005,0.37497 1.41739,1.41849 3.16124,2.31894 6.38086,3.29482 10.70743,10.45234 12.53622,20.73892 1.38206,7.77384 1.39167,28.43981 0.0209,44.99986 -0.55772,6.73783 -1.02078,20.07571 -1.02903,29.63972 -0.0317,36.74814 -1.80454,44.73182 -12.17527,54.82868 -7.71753,7.51373 -16.33451,10.89231 -25.39861,9.9584 l -2.94719,-0.30366 0.31612,3.30201 c 0.17386,1.8161 0.51029,7.52365 0.74762,12.68344 0.39617,8.61334 0.53424,9.34969 1.6864,8.99376 1.96715,-0.60771 10.51907,0.93706 13.87214,2.50578 6.41712,3.00221 12.65113,10.88153 14.71069,18.59318 2.0572,7.70281 6.47328,43.32177 8.14271,65.67683 1.23326,16.51446 1.36186,47.42731 0.21284,51.16021 -1.00952,3.27969 -5.10495,7.0038 -8.92814,8.11874 -1.5622,0.45559 -2.84038,1.11978 -2.84038,1.47606 0,0.54128 4.18659,16.0894 5.2848,19.62669 0.29378,0.94622 1.44093,1.05171 8.5401,0.7852 l 8.20073,-0.30777 3.37553,2.20634 c 3.7278,2.43657 6.98391,6.38025 12.05377,14.59904 1.84725,2.99459 5.10973,8.11745 7.24996,11.38421 5.05689,7.71856 7.09128,11.18119 15.65076,26.63845 7.13306,12.88144 8.09916,14.04239 11.68533,14.04239 1.28901,0 1.28573,-0.0951 -0.11129,-3.2328 -2.01372,-4.52279 -5.3516,-15.08709 -6.93496,-21.94899 -1.64464,-7.12747 -1.81635,-18.32118 -0.34339,-22.38471 3.05432,-8.4261 11.64872,-12.96971 24.58223,-12.99584 9.95346,-0.0204 38.07568,3.07885 53.05898,5.84694 10.75199,1.98636 12.50249,2.58603 13.98724,4.79168 3.46693,5.15016 5.94818,44.45913 3.53734,56.03997 -0.96367,4.62916 -1.0114,5.76526 -0.26169,6.22806 0.50434,0.31131 4.58115,0.57075 9.05958,0.57646 l 8.14259,0.0102 -1.46383,-4.25368 z m -99.11223,-88.99973 c -18.97126,-1.63273 -29.70587,-7.50655 -35.31457,-19.32376 -3.39562,-7.15428 -4.5038,-14.15801 -5.2056,-32.8991 -0.33993,-9.07758 -0.76448,-16.73532 -0.94347,-17.0172 -0.17898,-0.28188 -1.04551,-6.17731 -1.92561,-13.10094 -2.20029,-17.30936 -2.24072,-37.3803 -0.0907,-45.01408 2.16888,-7.70065 5.31658,-13.2126 10.33447,-18.09674 5.07274,-4.93753 10.24872,-7.5741 19.19504,-9.77768 6.95425,-1.71291 20.34287,-2.02638 30.06673,-0.70396 3.26889,0.44455 12.23646,1.69071 19.92795,2.76922 7.69149,1.07852 16.71196,2.30054 20.04548,2.71561 9.86006,1.22771 14.36128,3.72692 18.8356,10.45812 5.15162,7.75014 6.87697,22.05682 6.90482,57.25496 0.0174,22.02516 -1.21777,59.4019 -2.14983,65.05297 -0.94938,5.75615 -2.88331,9.93346 -6.07497,13.12195 -4.58138,4.5769 -5.87962,4.74493 -38.26032,4.95197 -15.76756,0.10079 -31.67282,-0.0753 -35.34504,-0.39134 z m 64.36293,-5.67863 c 4.388,-1.1393 7.58565,-4.1307 8.98112,-8.40187 2.09454,-6.41074 3.82401,-59.27357 2.83432,-86.63393 -1.36431,-37.71743 -4.30574,-42.85373 -25.93906,-45.29465 -5.11526,-0.57716 -15.43617,-2.00511 -22.93538,-3.17321 -16.78092,-2.61388 -32.95709,-3.00065 -40.49458,-0.96823 -16.86762,4.54821 -24.88504,14.89765 -26.58455,34.31719 -0.65477,7.48183 0.0949,21.67826 1.67891,31.79333 1.23228,7.86904 2.19765,19.28003 3.13797,37.09209 0.71446,13.53358 2.0694,20.42019 5.17605,26.30756 5.3145,10.07149 15.16811,14.5045 35.27764,15.87092 13.78107,0.93642 54.16117,0.3128 58.86756,-0.9092 z m -84.04779,92.16276 c 2.37866,-1.02333 4.0685,-2.278 4.72016,-3.50462 0.98893,-1.86141 0.79648,-2.301 -7.47988,-17.08673 -10.28163,-18.36814 -14.32777,-24.96366 -24.71908,-40.29386 -3.19846,-4.71866 -4.92663,-6.57891 -7.27285,-7.82854 -2.94037,-1.56603 -3.35435,-1.60816 -9.29149,-0.94493 -4.53061,0.50616 -6.63296,1.06437 -7.76052,2.06062 -0.85058,0.75151 -3.32668,1.89884 -5.50244,2.54962 l -3.95593,1.18321 2.54235,6.90266 c 1.39829,3.79647 4.0921,9.50593 5.98622,12.68768 1.89414,3.18175 5.74582,9.99064 8.55929,15.13085 9.52596,17.40402 16.87903,27.13107 22.67992,30.00233 3.69192,1.82745 16.4343,1.31858 21.49425,-0.85829 z m 256.41517,-9.49237 c 7.4406,-4.15425 15.2092,-14.16544 22.9146,-29.52946 5.7498,-11.46493 8.3836,-18.31268 8.3836,-21.79756 0,-2.32006 -0.3972,-3.09022 -2.4994,-4.84709 -6.3312,-5.2909 -6.4813,-5.35515 -11.6689,-4.99389 -10.5828,0.73701 -15.8406,6.55189 -24.1655,26.72577 -1.3902,3.36892 -4.18601,10.10675 -6.2129,14.97296 -2.02689,4.86621 -4.0736,10.53211 -4.54823,12.59089 -0.47465,2.05879 -1.01404,4.27921 -1.19866,4.93427 -0.23018,0.81671 0.0637,1.19192 0.93508,1.19376 0.69893,0 2.84403,0.58489 4.7669,1.29638 5.24501,1.94084 9.12471,1.78144 13.29341,-0.54603 z m -39.45891,-91.16557 c 4.72548,-1.79015 9.13794,-5.33956 11.48599,-9.2394 5.18565,-8.61278 7.47934,-29.46464 8.78177,-79.83478 0.58354,-22.56741 0.56653,-30.33235 -0.0731,-33.34885 -2.67119,-12.59821 -8.87405,-15.44359 -39.82852,-18.27015 -14.94097,-1.36432 -42.82364,-1.01755 -50.6939,0.63047 -10.44365,2.18687 -13.13481,3.31487 -14.79931,6.20315 -2.25902,3.91991 -3.10812,9.49403 -3.52761,23.15804 -0.42181,13.73979 1.65113,89.68691 2.61657,95.86373 1.01291,6.48064 2.96652,9.63197 7.19394,11.60431 1.992,0.92935 5.13998,1.89837 6.99551,2.15332 7.88141,1.08295 45.11726,2.90047 56.06054,2.73638 10.25837,-0.15389 12.42131,-0.38079 15.78808,-1.65622 z m -270.65605,-2.04204 c 4.30688,-1.98235 4.54926,-3.17705 4.50908,-22.22469 -0.0484,-22.94737 -1.61462,-42.8594 -5.94209,-75.54537 -1.18788,-8.97224 -2.74197,-17.68485 -3.64105,-20.41265 -2.79638,-8.48422 -7.51203,-13.46826 -14.80599,-15.64866 -5.30019,-1.5844 -8.92489,-1.36108 -10.8859,0.67069 -0.90323,0.93581 -2.04841,1.70147 -2.54485,1.70147 -1.90118,0 -5.76657,4.18231 -6.79124,7.34806 -6.37874,19.70741 -4.90747,51.42704 4.09451,88.27468 2.81654,11.5289 7.04071,25.70836 8.44765,28.35653 1.76268,3.3178 5.561,5.16601 13.22574,6.43538 3.84575,0.63696 7.45286,1.568 8.0158,2.06912 1.09691,0.97631 2.44682,0.75743 6.31834,-1.02456 z m 342.08526,-2.45597 c 0.3387,-0.58919 2.879,-2.12364 5.6451,-3.40995 6.881,-3.19979 9.6341,-5.62344 12.551,-11.04902 3.5524,-6.60798 5.1181,-12.35242 7.476,-27.42889 4.4863,-28.6864 7.0279,-54.47278 7.0279,-71.30233 0,-10.24602 -0.5076,-13.0907 -2.336,-13.0907 -0.4886,0 -1.9546,-0.76566 -3.2578,-1.70147 -2.1625,-1.55295 -2.9919,-1.70147 -9.5013,-1.70147 -9.9375,0 -21.0856,1.21762 -24.409,2.66602 -3.3377,1.45467 -4.7826,2.93248 -6.4006,6.54684 -1.0904,2.43579 -1.2292,6.62557 -1.4312,43.19248 -0.1996,36.14805 -0.3823,41.77357 -1.7016,52.40535 -1.8483,14.89469 -2.0636,23.79556 -0.617,25.50309 0.9261,1.09317 1.8727,1.18402 8.6889,0.834 5.9355,-0.30477 7.7877,-0.63281 8.2656,-1.46395 z m 90.5333,-58.15279 c 3.2503,-4.6945 8.8959,-24.15717 11.7287,-40.43363 4.6248,-26.573 7.3504,-79.48629 6.1033,-118.48888 l -0.4985,-15.58933 -2.9002,4.01932 c -1.5951,2.21063 -5.5282,7.08198 -8.7403,10.82522 l -5.8401,6.80589 0.4334,3.92561 c 1.6596,15.03285 1.2264,63.5991 -0.8148,91.35683 -0.7055,9.59311 -3.6652,37.04184 -4.8802,45.25916 -1.0007,6.76801 -0.8415,11.7259 0.4336,13.49777 1.459,2.02757 3.01,1.66034 4.9751,-1.17796 z m -340.191,-91.87139 c 4.87851,-0.73898 9.44096,-1.63595 10.13878,-1.99328 0.69782,-0.35732 2.99935,-0.86709 5.11451,-1.13281 8.95064,-1.12446 22.00723,-6.91872 28.13204,-12.48446 3.3019,-3.0005 8.22772,-9.55989 8.22772,-10.9563 0,-0.40523 -3.06785,-2.94142 -6.81745,-5.63598 -27.31123,-19.62656 -50.71073,-46.6324 -65.92736,-76.08812 -8.70248,-16.8459 -14.90256,-33.26578 -18.18323,-48.1553 -0.43257,-1.9632 -0.92116,-3.56946 -1.08577,-3.56946 -0.16461,0 -1.70121,0.64142 -3.41466,1.42537 -16.44853,7.52564 -23.64543,33.17957 -21.42978,76.38818 0.44469,8.67208 1.26983,20.8208 1.83364,26.99714 0.56383,6.17635 1.35572,15.21116 1.75978,20.07737 0.40406,4.86622 1.0506,10.36958 1.43676,12.2297 1.04428,5.03031 4.42532,9.65419 9.30306,12.7228 3.696,2.32517 13.59118,6.0143 16.13185,6.0143 0.51587,0 1.11202,0.44155 1.32479,0.98122 0.56878,1.44273 3.64901,3.22306 7.34841,4.24727 4.14252,1.1469 14.20342,0.73546 26.10691,-1.06764 z m 186.44293,-14.1384 c 5.24336,-0.39725 6.03177,-0.6447 7.92475,-2.48723 6.6909,-6.51256 10.97132,-30.12143 10.14123,-55.9344 -0.22871,-7.11216 -0.88491,-16.60637 -1.45821,-21.09826 -0.57331,-4.49189 -1.53046,-13.67984 -2.12701,-20.41767 -1.63844,-18.5055 -3.82141,-29.5211 -7.14824,-36.07121 -3.43594,-6.76491 -4.84276,-7.4322 -18.92413,-8.97606 -13.73126,-1.50548 -56.12869,-1.70027 -63.45442,-0.29155 -19.44866,3.73996 -26.51433,12.05218 -26.39054,31.04646 0.0436,6.6923 0.52415,12.64184 2.96841,36.7518 0.37949,3.74324 1.48955,15.68757 2.4668,26.54296 1.68219,18.68593 2.3104,23.66509 3.91846,31.05757 l 0.68595,3.15342 7.12662,2.79463 c 26.97118,10.57645 58.88979,15.85247 84.27033,13.92954 z m 27.04097,-3.34588 c 2.6921,-0.52563 7.7265,-1.64776 11.1877,-2.49363 7.1411,-1.74522 6.8222,-1.16356 4.9475,-9.02444 -0.879,-3.68617 -1.2893,-11.23182 -1.8131,-33.34885 -0.8685,-36.66663 -1.4695,-44.95782 -5.2543,-72.48272 -1.8796,-13.66973 -0.5566,-20.413 4.9241,-25.09678 3.1922,-2.72809 5.9851,-3.94364 11.6042,-5.05063 l 4.1616,-0.81984 -4.2968,-6.80566 c -6.2476,-9.8954 -11.8078,-18.03538 -12.3195,-18.03538 -0.2448,0 -1.0174,0.50406 -1.7168,1.12013 -1.9043,1.67742 -7.7104,1.99815 -11.3927,0.62935 -3.4762,-1.29217 -7.26578,-5.0185 -9.53462,-9.37543 -0.83722,-1.60775 -5.77085,-9.78472 -10.96363,-18.17104 -16.47106,-26.60076 -21.04193,-38.62179 -17.134,-45.06105 l 1.20667,-1.98829 -6.04156,-5.88053 -6.04157,-5.88052 -20.16245,0.79023 c -47.8644,1.87599 -81.47926,1.68022 -107.91534,-0.62846 -9.43958,-0.82437 -30.5956,-3.66659 -36.96262,-4.96577 l -4.4486,-0.90774 -1.01409,2.45261 c -0.55775,1.34894 -1.43405,3.3714 -1.94733,4.49437 -1.55078,3.39283 -5.76826,16.61583 -7.60293,23.83737 -2.95167,11.61817 -6.32303,36.14553 -4.62838,33.67239 0.38474,-0.56148 2.31178,-3.62413 4.28231,-6.80588 9.45339,-15.26409 12.65718,-19.17359 19.72771,-24.07321 5.75304,-3.98664 12.75273,-6.87028 21.87114,-9.01017 6.64529,-1.55952 8.60734,-1.73829 15.96699,-1.4549 6.92772,0.26675 9.24413,0.64395 13.2853,2.16331 2.69202,1.01212 5.24015,2.20241 5.6625,2.64508 0.42235,0.44268 1.36631,2.64245 2.09768,4.88839 1.14892,3.5282 1.32777,6.2123 1.31518,19.73708 -0.0143,15.38754 -1.5321,33.82269 -3.20551,38.93496 -0.41208,1.25894 -1.65782,2.7414 -2.94262,3.5018 -2.60806,1.54357 -11.16558,3.22062 -21.31607,4.17741 -11.29656,1.0648 -48.91027,1.63697 -52.56367,0.79956 -1.72016,-0.39427 -3.24665,-0.60096 -3.3922,-0.45928 -0.23414,0.2279 0.85055,7.93393 1.62944,11.57619 0.28033,1.31088 0.87992,1.36343 16.22562,1.42203 29.24676,0.11169 44.1493,3.9215 53.35225,13.63939 6.67131,7.04461 8.32889,14.32977 8.34196,36.66334 0.005,8.60945 0.39446,27.6766 0.86539,42.37144 l 0.85623,26.71791 5.27724,3.33305 c 5.79154,3.65788 17.824,10.42869 19.8319,11.15966 0.97879,0.35632 1.19057,0.19044 0.92511,-0.72464 -1.20904,-4.1679 -8.19952,-77.56867 -8.63651,-90.68419 -0.49387,-14.82325 1.7397,-22.2462 8.74201,-29.05272 8.9272,-8.67759 24.81942,-11.65844 57.83348,-10.84765 17.75759,0.43611 40.0437,2.49575 43.87802,4.05513 6.04432,2.45817 10.99507,11.94296 13.38135,25.6364 0.97044,5.56872 1.53219,10.52601 4.61122,40.69215 2.3183,22.71408 1.8016,47.7019 -1.30483,63.09766 -0.98029,4.85839 -4.1978,14.50406 -4.99887,14.98595 -0.37269,0.2242 -0.67763,0.72456 -0.67763,1.11192 0,0.78525 4.31073,0.37065 12.23643,-1.17686 z M 432.20893,382.84021 c -10.15427,-0.71137 -13.46487,-1.69099 -15.80645,-4.67719 -1.81463,-2.31419 -1.87903,-2.69516 -1.85246,-10.95943 0.0573,-17.81796 1.55125,-43.13334 2.73308,-46.31228 2.63041,-7.07548 6.24319,-10.99123 13.39567,-14.51906 5.32664,-2.62727 11.21896,-3.86252 22.16427,-4.6465 11.0794,-0.79357 19.49662,-0.3953 24.35236,1.15228 14.82061,4.7235 26.47154,26.06407 29.95975,54.8761 1.4198,11.72735 -0.86669,17.92554 -7.83718,21.24499 -3.43258,1.63464 -5.00057,1.85269 -19.7888,2.75191 -21.96735,1.33577 -38.40108,1.71402 -47.32024,1.08918 z m 41.99843,-5.85896 c 22.97169,-1.46914 24.9223,-2.01114 27.08621,-7.52621 1.53801,-3.9199 0.99475,-12.36262 -1.45284,-22.57799 -2.93482,-12.2489 -5.25187,-18.35961 -9.86931,-26.02808 -3.60233,-5.9826 -6.57017,-8.94711 -11.6317,-11.61865 l -4.38299,-2.31339 -13.63491,0.0289 c -10.88154,0.023 -14.62331,0.27996 -18.5295,1.27241 -16.27905,4.13604 -20.62717,10.10239 -20.62717,28.30394 0,5.16144 -0.32305,12.44855 -0.71789,16.19358 -0.92006,8.72678 -1.16061,19.13311 -0.48452,20.96011 1.21786,3.291 6.15941,4.12734 25.22673,4.26953 6.8679,0.0512 19.92595,-0.38263 29.01789,-0.9641 z M 222.24064,542.56883 c 7.555,-3.70415 13.12059,-10.04817 16.15201,-18.41112 1.54535,-4.26324 2.38897,-16.38739 3.08744,-44.3712 0.35503,-14.22431 0.9995,-29.84382 1.43216,-34.71003 0.92748,-10.43154 0.3944,-29.01033 -0.987,-34.39914 -2.10122,-8.19674 -5.98187,-14.41451 -10.02188,-16.05754 -2.07906,-0.84553 -3.11335,-0.8349 -8.08546,0.0832 -13.74798,2.53844 -24.42178,10.92743 -29.20746,22.95537 -4.44762,11.17831 -5.25891,19.93909 -4.99703,53.96112 0.28366,36.85222 1.27193,48.21557 5.00728,57.57495 1.95342,4.89452 5.24704,9.54899 8.10671,11.45624 1.28123,0.85451 2.51235,2.1144 2.73584,2.79976 0.9522,2.92019 9.99214,2.44518 16.77739,-0.88157 z m 358.12463,-8.57833 c 5.2619,-2.0354 21.1818,-9.88345 25.8935,-12.76473 2.2259,-1.36119 6.0121,-3.73838 8.4138,-5.28265 5.1243,-3.29492 4.9582,-2.37757 3.2802,-18.121 -0.5785,-5.4277 -1.3423,-19.20962 -1.6972,-30.6265 -0.9097,-29.26192 -2.201,-38.46955 -7.0476,-50.2506 -2.699,-6.56091 -4.97,-9.47029 -8.6182,-11.04107 -3.2591,-1.40319 -12.4767,-2.68369 -19.3184,-2.68369 -2.5291,0 -4.9268,-0.31977 -5.3284,-0.7106 -0.9979,-0.97135 -9.412,0.37004 -12.7389,2.03087 -7.2609,3.62473 -8.5687,9.75391 -5.7448,26.92417 2.7013,16.42459 3.879,34.16718 4.608,69.42007 0.4484,21.68622 1.1244,30.01447 2.8562,35.18725 l 1.0712,3.19958 5.3742,-1.93996 c 2.9558,-1.06697 7.0042,-2.57049 8.9964,-3.34114 z M 385.07244,484.89093 c -0.47318,-13.2885 -0.88417,-31.82976 -0.91331,-41.20278 -0.056,-18.00605 -0.54442,-21.74613 -3.62116,-27.7276 -4.41424,-8.58173 -16.14475,-14.16933 -33.84042,-16.11922 -8.7699,-0.96636 -33.21325,-0.93111 -33.21325,0.0479 0,2.59017 4.87809,18.02804 8.90201,28.17253 5.91952,14.92335 16.97398,33.74344 27.38366,46.62034 8.37441,10.35925 20.68225,22.6043 30.13317,29.97946 3.26467,2.54762 5.95688,4.57765 5.98269,4.51116 0.0258,-0.0665 -0.34021,-10.99329 -0.81339,-24.28179 z m 255.91623,4.89928 c 10.7553,-10.29304 15.0229,-15.57323 14.686,-18.17076 -2.8292,-21.81509 -5.1039,-36.06454 -8.6373,-54.10682 -9.0042,-45.97668 -28.1444,-98.96969 -49.4092,-136.79837 -5.4436,-9.68385 -13.8662,-23.44056 -15.5874,-25.45929 -0.393,-0.46086 -2.7653,-5.23463 -5.2719,-10.60838 -4.9945,-10.70747 -6.6328,-12.93473 -9.5146,-12.93473 h -1.9031 l -0.4337,10.03869 c -0.8183,18.94192 -2.9117,34.85125 -5.2709,40.05842 -0.6968,1.53789 -2.4194,3.65179 -3.828,4.69754 -3.0541,2.26744 -8.4325,2.94542 -23.8983,3.01258 -12.65811,0.055 -18.4537,0.62112 -18.00515,1.75885 0.20291,0.51469 2.08092,0.96141 4.73259,1.12576 3.84884,0.23854 5.22203,0.75216 11.02941,4.12536 10.69685,6.21326 14.47085,11.25185 27.15155,36.25025 8.9893,17.72122 9.6868,19.97514 8.4656,27.35571 l -0.6955,4.20363 4.3241,6.38082 c 4.6721,6.89447 7.2125,10.79317 11.2289,17.23292 l 2.5752,4.12891 8.1956,0.77048 c 14.4864,1.36186 20.6074,4.5634 25.7124,13.44873 7.3181,12.73724 10.739,32.67055 10.801,62.93687 0.01,5.05338 0.4777,13.93506 1.0386,19.73708 0.5609,5.80202 1.0288,10.64792 1.0399,10.76867 0.053,0.57405 4.5583,-3.33425 11.4742,-9.95292 z m 30.2254,-30.59151 c 2.6033,-4.02398 6.6974,-11.11113 9.098,-15.7492 3.9045,-7.54342 4.2676,-8.58429 3.4426,-9.86854 -0.5072,-0.78962 -1.6048,-6.94844 -2.4392,-13.68627 -5.3476,-43.18292 -15.9157,-86.71188 -29.4417,-121.26764 -8.2313,-21.02914 -20.6449,-46.85972 -37.5637,-78.16407 -13.2709,-24.55472 -15.5414,-28.95108 -15.5414,-30.09226 0,-0.8603 -1.6517,-2.05063 -5.4191,-3.90535 -6.3238,-3.11332 -19.2864,-8.47903 -19.6615,-8.13858 -0.1419,0.12881 0.08,3.69429 0.4941,7.92329 1.0925,11.17089 1.6673,31.17767 0.9639,33.55148 -0.5544,1.87081 -0.3356,2.27782 2.6128,4.86116 3.2965,2.88825 4.2004,4.39491 10.762,17.93856 2.0856,4.30473 6.671,12.26762 10.1898,17.69531 9.0819,14.0087 21.6755,38.75485 30.4797,59.89183 16.838,40.42458 30.2266,91.3277 35.7572,135.94763 0.7076,5.70844 1.342,10.37898 1.4099,10.37898 0.068,0 2.2534,-3.29235 4.8566,-7.31633 z m 22.5753,-65.1752 c 2.9451,-14.47399 3.7601,-22.65847 3.7265,-37.42358 -0.032,-13.96516 -0.6472,-20.28157 -3.321,-34.08025 -6.8402,-35.2997 -24.7318,-68.90567 -50.6643,-95.16324 -6.2848,-6.36352 -22.4174,-20.34276 -22.9162,-19.85728 -0.1269,0.12353 1.565,3.55463 3.7597,7.62468 10.213,18.9398 25.0831,48.50144 29.5698,58.78454 1.225,2.80743 2.8337,6.48261 3.575,8.16707 12.4443,28.2786 24.5436,71.05322 30.8808,109.17279 1.2745,7.66608 2.5415,13.72165 2.8157,13.45681 0.2742,-0.26484 1.4325,-5.07154 2.574,-10.68154 z M 359.63323,375.91756 c 8.70106,-0.63323 21.05062,-2.20816 23.93291,-3.05215 1.64857,-0.48273 2.353,-3.53569 3.75301,-16.26549 1.64389,-14.9472 1.7029,-34.13546 0.12043,-39.15684 -1.07316,-3.40528 -1.50755,-3.92298 -4.53265,-5.40191 -6.28399,-3.07215 -22.12948,-2.69172 -32.65189,0.78393 -6.35235,2.09824 -13.64598,5.99105 -15.2967,8.16426 -0.80271,1.05678 -1.86496,1.92141 -2.36055,1.92141 -1.15199,0 -5.29555,5.10172 -9.32432,11.48047 -1.73059,2.74003 -5.77739,8.85029 -8.99291,13.57836 l -5.84639,8.59648 0.27802,8.68516 c 0.1529,4.77683 0.58397,8.98296 0.95792,9.34694 0.37396,0.36399 2.40775,1.12487 4.51954,1.69085 3.11551,0.83498 6.87255,0.96176 19.92183,0.67227 8.84521,-0.19622 20.33,-0.6659 25.52175,-1.04374 z m -110.58087,-7.03163 c 6.89071,-2.36638 16.40342,-10.29624 27.47355,-22.90217 8.25836,-9.40405 8.92988,-10.393 8.96607,-13.20445 0.0394,-3.06479 3.27713,-21.02553 4.89704,-27.16591 0.78165,-2.96289 1.28837,-5.51633 1.12606,-5.67431 -0.16231,-0.15799 -1.97199,0.0531 -4.0215,0.46919 -11.68066,2.37114 -25.73072,15.18228 -42.8261,39.04974 -7.35184,10.26416 -8.74017,16.74877 -5.06289,23.64765 1.02267,1.91863 1.85941,4.04715 1.85941,4.73006 0,2.17166 3.0811,2.59807 7.58836,1.0502 z m 301.04281,0.0398 c 2.0013,-0.8139 2.3843,-1.35904 2.7496,-3.91339 0.2334,-1.63226 0.7474,-4.45697 1.1421,-6.27712 0.3947,-1.82015 0.5166,-4.11714 0.2709,-5.10442 -0.7252,-2.91403 -16.1638,-32.5722 -19.59229,-37.63768 -3.58561,-5.29752 -6.12896,-7.54105 -12.06526,-10.64291 -3.45091,-1.80316 -4.93778,-2.17654 -8.66751,-2.17654 -4.20389,0 -4.52339,0.10878 -4.82463,1.64263 -1.04394,5.31543 5.64953,19.57435 19.32291,41.16311 4.09769,6.4698 8.35308,13.49687 9.45638,15.61571 2.6316,5.05366 4.7953,6.89057 9.6854,8.22253 0.1085,0.0295 1.2436,-0.3718 2.5224,-0.89189 z m -70.19502,-86.1433 c 9.68789,-0.53145 14.92657,-1.09912 16.16185,-1.75132 1.33163,-0.70306 6.83552,-1.15789 20.27757,-1.67567 33.3429,-1.28435 32.553,-1.20639 33.4012,-3.29678 1.9793,-4.87792 5.0365,-39.85448 3.9681,-45.39775 l -0.4613,-2.39354 -14.1237,0.39257 c -7.76799,0.21591 -23.7205,0.67569 -35.45003,1.02173 -11.72952,0.34605 -22.42768,0.51544 -23.77369,0.37644 -1.34601,-0.13902 -6.53776,-0.47921 -11.53723,-0.756 -9.76397,-0.54056 -13.40097,-1.59626 -16.47623,-4.78247 -1.78335,-1.84769 -1.82891,-2.31631 -3.39477,-34.91962 -0.38429,-8.00139 -0.84857,-14.69386 -1.03176,-14.87215 -0.92816,-0.90342 -21.68042,7.08232 -32.23844,12.40576 -9.18972,4.63354 -20.29247,11.35085 -27.96905,16.92166 -6.63728,4.81659 -19.85547,16.12204 -23.71338,20.28192 -16.34659,17.62612 -24.29249,28.48493 -33.14764,45.29933 -3.60378,6.84295 -3.63798,6.96401 -2.06993,7.3274 8.80892,2.04143 39.37068,5.70148 56.13405,6.72257 8.8141,0.53688 81.77521,-0.15423 95.44438,-0.90408 z m -145.2021,-62.6406 c 6.8646,-8.1312 24.03936,-24.6646 31.92745,-30.73517 23.02908,-17.72291 45.93525,-29.56072 72.81606,-37.63102 l 8.13763,-2.44313 -0.28376,-5.60082 c -0.89799,-17.72421 -1.759,-38.83731 -2.14096,-52.49884 l -0.43589,-15.590941 -21.39108,0.44663 c -11.76509,0.24566 -25.08824,0.44718 -29.60699,0.44783 l -8.2159,0.001 v 2.27658 c 0,3.95902 -1.20343,4.39326 -12.23646,4.4153 -11.79104,0.0236 -18.24141,1.4201 -25.42765,5.505221 -6.10526,3.47062 -14.48372,11.09888 -17.35567,15.80166 -2.2744,3.72427 -6.11561,13.92582 -7.49393,19.90249 -0.6349,2.75302 -1.18398,3.54064 -3.20265,4.59398 -1.34002,0.69921 -3.50846,1.2713 -4.81877,1.2713 h -2.38238 l 0.40511,17.52516 c 0.41302,17.86655 1.25556,27.51386 4.35389,49.85314 1.92363,13.86958 5.07798,33.66676 5.67414,35.61169 0.30066,0.9809 1.05472,0.33713 3.58731,-3.06265 1.76364,-2.36753 5.40437,-6.90786 8.0905,-10.08961 z m 196.59523,3.6499 c 17.64489,-0.34174 23.39899,-0.6636 24.45369,-1.36781 0.868,-0.57957 3.389,-0.92091 6.8013,-0.92091 7.5813,0 7.804,-0.38273 7.6451,-13.14031 -0.1643,-13.19722 -1.6728,-29.44666 -2.9582,-31.8655 -0.6309,-1.18731 -11.4758,-4.34651 -23.0062,-6.70187 -8.65616,-1.76824 -9.35354,-1.74077 -10.53893,0.41512 -1.48173,2.69484 -7.90693,7.9881 -12.15243,10.01151 -8.36169,3.98518 -19.8715,4.00705 -28.17471,0.0535 -3.823,-1.8203 -11.76992,-8.67277 -13.28431,-11.45479 -0.66463,-1.22098 -1.03248,-1.24857 -6.21107,-0.46577 -3.02753,0.45763 -8.9306,1.61446 -13.11792,2.57073 l -7.61333,1.73867 0.47046,11.31801 c 0.6583,15.8372 1.83061,35.66264 2.16623,36.63435 0.583,1.68791 4.78683,3.09832 9.05299,3.03734 2.3299,-0.0333 5.96678,0.21994 8.08194,0.56277 2.11516,0.34284 10.92541,0.488 19.57833,0.32258 8.65293,-0.16541 26.11611,-0.50186 38.80706,-0.74765 z m -12.84899,-48.11177 c 6.09064,-2.84345 9.99293,-6.60797 13.00818,-12.5489 2.46645,-4.85965 2.63772,-5.59928 2.63772,-11.39095 0,-5.79211 -0.17108,-6.53075 -2.63772,-11.38841 -3.00311,-5.91413 -6.73436,-9.52439 -12.93186,-12.51255 -3.58863,-1.73027 -4.74158,-1.9342 -11.00102,-1.94586 -6.56183,-0.0122 -7.28213,0.12857 -11.70111,2.28708 -9.05406,4.42259 -14.34809,12.09865 -15.03081,21.7939 -0.81776,11.61288 5.72451,21.6971 17.10371,26.36355 3.48271,1.42821 4.89495,1.62188 10.32744,1.41624 5.06747,-0.19182 7.05887,-0.59575 10.22547,-2.0741 z m 58.71688,-28.19099 c -4.5057,-9.81537 -12.0913,-24.07053 -11.6798,-21.949 1.1028,5.68423 1.9239,10.77945 2.8389,17.61726 0.5704,4.2618 1.1563,7.8648 1.302,8.00666 0.2958,0.28794 9.6382,3.5112 10.4075,3.59075 0.2695,0.0278 -1.0214,-3.24169 -2.8686,-7.26567 z m -14.5449,-5.78501 c -0.965,-8.07223 -3.6426,-21.59618 -5.4449,-27.50095 -0.8323,-2.72705 -2.2153,-4.67912 -6.1986,-8.74956 -4.7681,-4.87231 -5.2316,-5.17592 -6.6173,-4.33363 -2.0265,1.23185 -3.6588,-0.13968 -2.4355,-2.04636 0.7024,-1.09468 0.2203,-1.67814 -3.8633,-4.67606 -13.89372,-10.200011 -48.22925,-28.980421 -59.90765,-32.76755 -7.35161,-2.38402 -17.02363,-4.14877 -22.73806,-4.14877 h -4.02844 l 0.37326,7.11862 c 0.3068,5.850969 0.17141,7.418489 -0.76032,8.802579 -1.02062,1.51614 -1.06561,3.67239 -0.45152,21.636271 0.83781,24.50779 2.10744,52.52762 2.39271,52.80529 0.11632,0.11321 3.00551,-0.38704 6.42042,-1.11168 3.41492,-0.72463 8.09685,-1.54 10.4043,-1.81192 4.50387,-0.53076 6.64265,-1.31369 6.64265,-2.43164 0,-1.80064 3.88858,-8.37862 6.8452,-11.57945 12.52923,-13.56406 33.83578,-14.23423 46.89825,-1.47511 3.8993,3.80874 8.4877,11.3117 8.4877,13.87911 0,0.87795 0.7377,1.3482 2.6221,1.67153 1.4421,0.24745 6.5552,1.2987 11.3624,2.33612 4.8072,1.03741 9.2289,1.92076 9.8261,1.96299 0.9721,0.0688 0.99,-0.72479 0.1705,-7.57983 z m -244.93661,-18.321 c 0,-1.88577 4.40273,-14.61059 6.6673,-19.26991 2.13559,-4.39393 11.77421,-14.37071 17.33854,-17.94684 9.39884,-6.040511 15.00131,-7.665061 27.91171,-8.093571 9.94753,-0.33017 10.31303,-0.39368 10.29804,-1.78942 -0.009,-0.79591 -0.59468,-2.18023 -1.30249,-3.07629 l -1.28695,-1.62918 -34.88246,0.47342 c -19.18536,0.26038 -42.11946,0.70646 -50.96468,0.99127 -14.42269,0.46441 -16.51511,0.68144 -20.27756,2.10316 -11.9974,4.53347 -18.21528,12.451021 -19.80018,25.212601 -1.24991,10.06421 0.9499,21.47849 4.4375,23.02519 1.18271,0.52452 9.98186,0.75291 28.03284,0.72762 14.46998,-0.0203 26.5725,0.21956 26.89448,0.53296 0.32199,0.31341 2.01385,0.45925 3.75967,0.3241 2.60536,-0.20169 3.17424,-0.48577 3.17424,-1.58511 z"
       id="path47" />
  </g>
</svg>
