<?xml version="1.0" encoding="UTF-8" standalone="no"?>
<svg
   xmlns:dc="http://purl.org/dc/elements/1.1/"
   xmlns:cc="http://creativecommons.org/ns#"
   xmlns:rdf="http://www.w3.org/1999/02/22-rdf-syntax-ns#"
   xmlns:svg="http://www.w3.org/2000/svg"
   xmlns="http://www.w3.org/2000/svg"
   xmlns:sodipodi="http://sodipodi.sourceforge.net/DTD/sodipodi-0.dtd"
   xmlns:inkscape="http://www.inkscape.org/namespaces/inkscape"
   version="1.1"
   id="svg10"
   width="690.56171"
   height="692.07922"
   viewBox="0 0 690.56171 692.07922"
   sodipodi:docname="launch.svg"
   inkscape:version="1.0.2-2 (e86c870879, 2021-01-15)">
  <metadata
     id="metadata16">
    <rdf:RDF>
      <cc:Work
         rdf:about="">
        <dc:format>image/svg+xml</dc:format>
        <dc:type
           rdf:resource="http://purl.org/dc/dcmitype/StillImage" />
        <dc:title></dc:title>
      </cc:Work>
    </rdf:RDF>
  </metadata>
  <defs
     id="defs14" />
  <sodipodi:namedview
     pagecolor="#ffffff"
     bordercolor="#666666"
     borderopacity="1"
     objecttolerance="10"
     gridtolerance="10"
     guidetolerance="10"
     inkscape:pageopacity="0"
     inkscape:pageshadow="2"
     inkscape:window-width="1280"
     inkscape:window-height="668"
     id="namedview12"
     showgrid="false"
     inkscape:zoom="0.445"
     inkscape:cx="120.65596"
     inkscape:cy="138.26588"
     inkscape:window-x="-6"
     inkscape:window-y="-6"
     inkscape:window-maximized="1"
     inkscape:current-layer="g18" />
  <g
     inkscape:groupmode="layer"
     inkscape:label="Image"
     id="g18"
     transform="translate(-1731.0779,-422.09471)">
    <path
       style="fill:#ffffff;stroke-width:0.453799"
       d="m 2204.8876,965.29924 c -0.1822,-0.35136 0.1091,-1.11885 0.6743,-1.77707 0.5652,-0.65821 1.2268,-1.00026 1.5318,-0.79198 0.3784,0.25837 0.1793,0.78302 -0.6743,1.77706 -0.8536,0.99404 -1.3059,1.22786 -1.5318,0.79199 z m -56.5256,38.93376 c -0.416,-0.065 -0.9085,-0.2932 -1.0944,-0.5067 -0.186,-0.2136 -0.9705,-0.507 -1.7435,-0.6521 l -1.4055,-0.2637 -36.4503,-42.07152 -36.4504,-42.07154 -1.1692,0.0539 c -1.0541,0.0486 -3.1669,2.34115 -21.4556,23.28059 l -20.2864,23.22667 -1.0151,-0.5808 c -0.5584,-0.31944 -1.5389,-0.39949 -2.1791,-0.1779 -2.6898,0.93114 -7.6077,-4.10944 -7.1335,-7.31146 0.1751,-1.18279 0.045,-1.38744 -3.1875,-4.99908 -1.8536,-2.07121 -3.4617,-3.8378 -3.5735,-3.92578 -0.1118,-0.088 -1.0853,0.75876 -2.1634,1.88167 -1.385,1.44268 -1.894,2.26819 -1.735,2.81386 0.1238,0.42471 2.8466,3.61064 6.0508,7.07984 4.873,5.27607 5.9691,6.62723 6.7026,8.26186 0.4823,1.07483 0.7513,2.10055 0.5977,2.27938 -0.1535,0.17883 -0.01,0.88994 0.3233,1.58025 l 0.6025,1.25511 -22.8517,26.62505 -22.8517,26.625 -0.9903,-0.6194 c -1.8545,-1.16 -3.876,-1.0459 -5.0174,0.2833 -1.005,1.1703 -1.166,1.1733 -3.1953,0.06 -1.1754,-0.6446 -2.8311,-1.949 -3.6795,-2.8984 -1.3663,-1.5291 -1.4923,-1.8396 -1.1028,-2.7174 0.8052,-1.8142 0.035,-2.9478 -8.6663,-12.7597 -6.4922,-7.3206 -8.0666,-9.2561 -8.0943,-9.9503 -0.1004,-2.5149 -1.3005,-4.1499 -13.9086,-18.9494 l -12.2155,-14.3388 -1.3685,0.43997 c -0.7526,0.24199 -2.0521,1.27572 -2.8876,2.29719 -0.8356,1.02147 -2.7475,3.35066 -4.2487,5.17598 -2.4666,2.99912 -2.6686,3.38871 -2.0973,4.04504 0.3477,0.39952 0.6691,1.72402 0.7141,2.94352 0.074,1.9988 0.2365,2.3778 1.6513,3.8483 1.5114,1.5711 1.5586,1.7137 1.2781,3.869 -0.431,3.3118 -0.9351,3.2582 -4.1559,-0.4419 -2.0995,-2.4121 -2.8514,-3.0709 -3.3047,-2.8959 -0.3227,0.1246 -0.9041,-0.1381 -1.2919,-0.5837 -0.8092,-0.9295 -2.271,-0.5401 -3.5278,0.9398 -0.6571,0.7738 -0.7089,1.5796 -0.2585,4.017 1.5028,8.1314 1.3609,9.8964 -1.0088,12.5419 -4.0087,4.4754 -11.2882,13.6286 -11.3411,14.2603 -0.032,0.3825 -0.6906,0.9768 -1.4635,1.3207 -1.0837,0.4823 -4.7019,4.5011 -15.8096,17.56 l -14.4042,16.9347 -2.4032,0.4236 c -1.7743,0.3127 -2.9434,0.1458 -4.4667,-0.6377 l -2.0633,-1.0613 -36.0373,-41.4007 -36.0374,-41.40079 0.1306,-2.6436 c 0.1297,-2.62423 0.1497,-2.6618 2.7246,-5.12566 1.4267,-1.36513 3.2502,-3.34926 4.0523,-4.40918 1.5675,-2.07134 12.9128,-15.39181 20.8072,-24.42955 2.6636,-3.04929 7.518,-8.68516 10.7876,-12.52415 7.8806,-9.25279 9.4642,-10.86025 10.4499,-10.60748 0.4414,0.1132 1.3576,0.0807 2.0359,-0.0722 0.6783,-0.15289 1.4772,0.002 1.7753,0.34466 0.4602,0.52865 0.843,0.22769 2.5357,-1.99341 1.3286,-1.74344 1.8848,-2.82594 1.6675,-3.24528 -0.1794,-0.34608 -0.4798,-1.42865 -0.6676,-2.40572 -0.1877,-0.97707 -0.6823,-2.26243 -1.099,-2.85636 -0.6686,-0.95284 -0.6249,-1.26301 0.3715,-2.63684 0.9927,-1.36862 1.2532,-1.48001 2.1535,-0.92081 0.5633,0.34988 2.1232,0.89341 3.4665,1.20782 l 2.4423,0.57167 2.2756,-2.86451 c 1.2516,-1.57549 2.5296,-2.89577 2.8401,-2.93397 0.3104,-0.0382 3.1251,-3.05427 6.2548,-6.70239 4.6685,-5.44191 5.9351,-6.69302 7.0536,-6.96748 0.9942,-0.24396 1.5425,-0.0805 2.0251,0.60365 0.5589,0.79248 0.8237,0.7868 1.7049,-0.0366 0.8499,-0.79413 0.9386,-1.15471 0.4785,-1.94579 -0.3441,-0.59176 -0.351,-1.21976 -0.018,-1.60789 0.3008,-0.35028 0.6245,-1.08437 0.7195,-1.63129 0.095,-0.54693 0.2502,-1.4419 0.3451,-1.98883 0.2199,-1.2667 3.0056,-4.53676 3.7662,-4.42089 0.3167,0.0482 1.6133,-1.0154 2.8814,-2.36364 l 2.3057,-2.45136 1.0064,1.29733 1.0064,1.29732 2.9697,-3.33398 c 1.6334,-1.8337 3.4457,-3.86807 4.0273,-4.52082 0.5816,-0.65275 1.3988,-1.83252 1.8161,-2.6217 0.4882,-0.92346 1.1377,-1.51304 1.8221,-1.65416 1.0988,-0.22655 1.1576,-0.36898 1.5528,-3.75847 0.079,-0.67382 0.058,-2.06354 -0.046,-3.08827 -0.1681,-1.65421 0.018,-2.10417 1.6564,-4.01243 1.8266,-2.12711 1.8743,-2.14608 4.6229,-1.83884 3.3188,0.37098 3.9841,-10e-4 6.0619,-3.3893 0.8758,-1.42831 1.8024,-2.67802 2.0591,-2.77713 0.2567,-0.0991 0.6009,-0.68381 0.765,-1.29935 l 0.2983,-1.11915 -0.7071,0.68874 c -0.3889,0.37881 -0.9628,0.93528 -1.2754,1.2366 -0.3653,0.35212 -0.8135,0.2663 -1.2544,-0.2402 -0.5419,-0.62254 -0.5099,-1.02726 0.152,-1.92685 0.9715,-1.32031 3.3504,-2.15508 4.0035,-1.40483 0.3332,0.38273 1.2946,-0.35897 3.7524,-2.89475 4.2234,-4.35747 10.62,-12.56663 9.4101,-12.07669 -0.548,0.2219 -1.0696,0.0578 -1.3915,-0.43774 -0.7282,-1.12107 2.9293,-5.94948 3.998,-5.27803 0.3785,0.23781 0.7736,0.86398 0.878,1.39148 0.1639,0.82836 0.3773,0.74069 1.5657,-0.64323 0.7568,-0.88127 1.9211,-1.82933 2.5873,-2.1068 0.6876,-0.28639 1.5189,-1.09736 1.9229,-1.87584 0.5749,-1.10795 0.5482,-1.86038 -0.1393,-3.91754 -0.8678,-2.59664 -0.7581,-3.35572 0.4585,-3.17039 0.4092,0.0624 1.5349,-0.91351 2.8025,-2.42966 1.205,-1.44121 2.4315,-2.51961 2.8442,-2.50082 0.5322,0.0242 0.6999,-0.18185 0.6291,-0.77297 -0.053,-0.44332 0.3403,-1.31483 0.8744,-1.9367 0.534,-0.62187 0.8888,-1.39205 0.7883,-1.71151 -0.2305,-0.73345 1.8271,-3.1717 2.5856,-3.06385 0.3116,0.0443 1.0827,-0.40729 1.7135,-1.00356 0.9955,-0.94104 1.2573,-0.95894 1.9838,-0.13559 0.9953,1.12799 1.5671,0.95068 2.4556,-0.76148 0.4851,-0.93485 0.4802,-1.52855 -0.019,-2.24066 -0.6576,-0.93893 -0.5825,-1.08065 2.436,-4.5957 3.063,-3.56684 3.1271,-3.61181 3.8657,-2.71632 0.4877,0.59126 0.9021,0.73475 1.1817,0.40921 0.2795,-0.32555 0.1527,-0.80385 -0.3618,-1.36393 -0.6179,-0.67262 -0.6495,-1.02897 -0.1435,-1.61818 0.518,-0.60317 0.8227,-0.55786 1.5106,0.22454 0.8407,0.95634 0.932,0.91527 3.7553,-1.68992 3.9696,-3.6629 20.9539,-23.64462 21.3874,-25.16182 0.1885,-0.65988 0.1128,-1.4639 -0.1682,-1.78672 -0.7938,-0.91201 -0.3311,-2.54714 1.1263,-3.98016 1.1119,-1.09321 1.4398,-1.1775 2.0141,-0.51774 1.4356,1.64926 3.0716,0.1587 16.1302,-14.6957 11.0975,-12.62353 12.2064,-14.00658 12.5924,-15.70445 0.2577,-1.13361 0.1906,-2.12913 -0.1716,-2.54521 -0.74,-0.85006 -0.3078,-3.51415 0.7744,-4.77441 0.597,-0.69527 1.3767,-0.84012 2.9511,-0.5483 1.1769,0.21814 2.6806,0.19748 3.3415,-0.0459 0.885,-0.32585 4.1953,-3.96906 12.5567,-13.81932 12.4799,-14.70212 12.3256,-14.45352 11.3722,-18.32165 -0.4405,-1.78735 -0.365,-2.03256 1.1788,-3.83035 1.473,-1.71531 1.7867,-1.86835 2.9321,-1.43077 0.7054,0.26947 1.4347,0.3128 1.6207,0.0963 0.1859,-0.21656 0.9983,-0.26989 1.8051,-0.1185 l 1.4671,0.27523 20.2134,-23.65612 c 11.1174,-13.01086 20.2114,-23.94111 20.2089,-24.28946 -0.01,-0.85522 1.1069,-2.00467 2.2523,-2.32596 0.6515,-0.18274 1.5178,-1.19621 2.8467,-3.33036 1.0506,-1.68721 2.2007,-3.14099 2.5557,-3.23057 0.804,-0.20296 48.1663,-55.73923 50.245,-58.91661 1.2367,-1.89026 1.3769,-2.35216 0.762,-2.50986 -0.4145,-0.10629 -0.9232,-0.54851 -1.1304,-0.98271 -0.3128,-0.65535 0.093,-1.29754 2.3861,-3.78047 2.536,-2.74548 2.8178,-2.92778 3.4333,-2.22071 0.4289,0.49278 0.5145,1.13193 0.2376,1.77407 -1.0897,2.52705 4.5122,-3.51432 19.926,-21.48914 9.0701,-10.57711 16.6078,-19.3967 16.7505,-19.5991 0.1427,-0.2024 0.1671,-1.77794 0.054,-3.50122 l -0.2052,-3.13322 5.6177,-6.79435 c 5.003,-6.05086 5.6063,-6.93878 5.5137,-8.11465 -0.057,-0.72619 0.075,-1.78998 0.2941,-2.36398 0.219,-0.574 0.402,-1.90889 0.4066,-2.96639 0.01,-1.39485 0.2529,-2.06654 0.8987,-2.44645 0.7107,-0.41813 0.8643,-1.12274 0.7623,-3.49605 -0.1695,-3.94289 -0.1099,-4.3504 0.8763,-5.99539 0.6804,-1.13483 0.7065,-1.6304 0.1353,-2.56566 -1.2146,-1.98882 0.043,-4.89463 3.7336,-8.62684 2.6038,-2.63316 3.3285,-3.11924 4.8833,-3.27566 1.0042,-0.101 2.1153,-0.002 2.469,0.22038 0.4606,0.28941 1.0723,-0.0957 2.1557,-1.35738 2.4192,-2.81707 5.0917,-3.27718 8.8442,-1.52257 l 2.644,1.23632 36.8709,42.35834 c 33.7836,38.8116 36.9208,42.49955 37.467,44.04454 0.3278,0.9274 0.8854,2.45859 1.2391,3.40261 0.3537,0.94405 0.7334,2.60536 0.8438,3.69181 l 0.2007,1.97541 -7.5874,8.87431 c -7.7845,9.10497 -9.9253,11.14322 -10.9968,10.47006 -0.3378,-0.21225 -0.8911,-0.0635 -1.2294,0.33039 -0.367,0.42737 -1.124,0.5219 -1.8768,0.2343 -1.1031,-0.4214 -1.3886,-0.28893 -2.271,1.05369 -0.8518,1.29613 -1.3511,1.55717 -3.2009,1.67341 -1.722,0.10823 -2.4,-0.10168 -3.1641,-0.97947 -0.6851,-0.78705 -1.1796,-0.99908 -1.6733,-0.71749 -0.4384,0.25007 -1.1578,0.0136 -1.9217,-0.63168 -0.7686,-0.64922 -1.3749,-0.84672 -1.6364,-0.53296 -0.2285,0.27413 -3.3412,3.7498 -6.9171,7.7237 -5.9285,6.5882 -6.5927,7.20145 -7.5342,6.95534 -0.9883,-0.25837 -1.0259,-0.21739 -0.8786,0.95763 0.1418,1.13052 -0.5996,2.10603 -9.3792,12.34094 -5.2433,6.1122 -9.5521,11.39793 -9.5755,11.74571 -0.023,0.34779 0.2162,1.02966 0.5322,1.51524 0.3202,0.49196 0.3792,1.32152 0.1331,1.87346 -0.4394,0.98562 -0.4377,0.98834 0.3481,0.54689 0.7685,-0.43169 0.9119,-0.30338 5.3128,4.75252 4.1559,4.77437 4.4968,5.25872 4.2002,5.96654 -0.3952,0.94298 0.6028,2.54257 3.1391,5.0313 1.8465,1.81188 1.9067,1.93643 1.6627,3.43876 -0.1393,0.85736 -0.6348,2.01193 -1.1012,2.56574 -2.1167,2.51329 -2.8401,6.31485 -2.2539,11.84475 0.1034,0.97527 -0.062,1.24544 -0.9174,1.49783 -0.5739,0.16938 -1.2066,0.1206 -1.4059,-0.10838 -0.2448,-0.28124 -0.4075,-0.11186 -0.5013,0.52191 -0.076,0.51605 -3.2062,4.68836 -6.9551,9.27181 -9.0405,11.0531 -10.2605,12.88377 -9.7505,14.63009 0.4831,1.65391 0.078,3.20792 -1.4924,5.72975 -0.7011,1.12582 -1.2081,2.66208 -1.2212,3.70057 -0.012,0.97659 -0.1979,2.44298 -0.4126,3.25863 -0.2147,0.81567 -0.3104,1.8871 -0.2127,2.38097 0.098,0.49386 -0.049,1.16235 -0.327,1.48557 -0.2775,0.32318 -0.5016,1.47671 -0.4978,2.56335 0,1.08664 -0.081,2.07744 -0.1874,2.20178 -0.1068,0.12431 -0.1831,0.88607 -0.1696,1.69281 0.014,0.80674 -0.3962,2.19741 -0.9105,3.0904 -0.6008,1.04301 -0.8611,2.303 -0.728,3.52371 0.1139,1.04507 0.1376,3.40665 0.053,5.24792 l -0.1544,3.34775 -16.9395,19.90245 c -11.7826,13.8436 -17.154,19.89264 -17.6444,19.87031 -0.5285,-0.024 -0.673,0.59682 -0.5771,2.47913 0.1141,2.24209 1.8703,10.62042 2.3389,11.1588 0.1015,0.11661 0.4069,1.41308 0.6786,2.88104 0.2717,1.46796 0.6262,2.82087 0.7878,3.00646 0.1615,0.18559 0.4929,1.78217 0.7364,3.54795 0.2436,1.76579 0.6345,3.43071 0.8687,3.69983 0.2343,0.26912 0.3176,1.15627 0.1852,1.97144 -0.1324,0.81521 -0.01,1.9198 0.2766,2.45466 0.2845,0.53488 0.5283,1.63166 0.5417,2.43728 0.024,1.45512 0.079,1.52914 8.2468,11.24503 9.3226,11.08901 10.3503,12.4988 9.8981,13.57782 -0.1742,0.41561 -0.3191,0.80604 -0.322,0.86765 0,0.0616 7.8611,9.33945 17.4756,20.61747 9.6145,11.27802 17.8367,20.94104 18.2716,21.47342 0.8892,1.08876 1.7924,6.47507 1.3568,8.0918 -0.528,1.9593 -6.2578,4.51904 -9.4895,4.23932 -0.7772,-0.0673 -1.8111,0.12322 -2.2976,0.42332 -0.5048,0.31139 -1.7871,0.22708 -2.9867,-0.19639 -1.8645,-0.65822 -2.2874,-0.99671 -3.7427,-2.99539 -0.9024,-1.23932 -9.2638,-11.04999 -18.581,-21.80148 -9.3173,-10.75138 -18.0243,-20.96364 -19.3493,-22.69365 -2.1275,-2.77787 -2.3484,-3.2161 -1.8899,-3.74995 0.6949,-0.80922 0.058,-1.90341 -3.5795,-6.15383 -2.8201,-3.29497 -3.1516,-3.57262 -4.1595,-3.48742 -0.927,0.0785 -3.5397,2.86434 -17.0089,18.13577 -8.7526,9.92368 -18.2713,20.60325 -21.1528,23.73239 -10.2575,11.13915 -20.1527,22.72913 -20.5258,24.04146 -0.5049,1.77612 -2.0644,3.46737 -3.1202,3.38385 -0.6823,-0.054 -1.1757,0.41836 -2.1443,2.0526 -0.692,1.16749 -1.4295,2.14403 -1.6388,2.1701 -0.2094,0.0261 -0.8102,-0.44603 -1.3351,-1.04909 -0.8108,-0.93148 -1.1652,-0.98932 -2.3551,-0.38439 -0.7704,0.39163 -1.5735,0.91322 -1.7846,1.15908 -0.2111,0.24585 -0.9039,0.33855 -1.5396,0.206 -0.6357,-0.13256 -1.3019,-0.0708 -1.4805,0.13715 -0.1786,0.20799 -1.5212,-0.0216 -2.9835,-0.51014 -1.4623,-0.48857 -3.1637,-0.91739 -3.7808,-0.95294 -1.3465,-0.0776 -4.8253,-1.98128 -5.9213,-3.24035 -0.4323,-0.49668 -1.3822,-1.21963 -2.1109,-1.60655 -7.4656,-3.96432 -10.5823,-4.30652 -13.3826,-1.46936 -1.5922,1.61323 -1.684,1.88826 -1.9141,5.73717 -0.1329,2.22348 -0.3622,4.1831 -0.5096,4.35469 -0.1473,0.1716 -0.086,0.54615 0.1369,0.83235 0.7861,1.01038 51.9491,60.11448 71.4664,82.55876 l 19.7773,22.7433 -0.089,1.43204 c -0.049,0.78762 0.1123,1.66315 0.3581,1.94565 0.2459,0.2825 0.6491,1.7357 0.896,3.2293 l 0.4489,2.7157 -2.7605,3.2146 c -1.6408,1.9107 -3.0261,3.1742 -3.4152,3.1149 -0.4238,-0.065 -1.2542,0.7707 -2.3547,2.3684 -4.0562,5.8889 -9.632,12.5592 -10.3981,12.4393 z m -4.2308,-15.71 c -0.3659,-1.3517 -0.5178,-2.8097 -0.3375,-3.2398 0.4415,-1.0535 -0.2497,-1.7513 -1.3811,-1.3943 -0.8835,0.2787 -1.1045,0.084 -5.228,-4.6132 -2.368,-2.69742 -6.6516,-7.52787 -9.5193,-10.73439 -6.8249,-7.63154 -9.1638,-10.29884 -12.2203,-13.93642 -1.39,-1.65425 -3.4101,-3.85425 -4.489,-4.88888 -1.9325,-1.85308 -1.9748,-1.86595 -2.8361,-0.86288 -0.481,0.56004 -0.7923,1.27963 -0.6919,1.59908 0.1004,0.31946 -0.032,0.83007 -0.2931,1.13471 -0.2782,0.32401 -0.2141,0.99029 0.1544,1.60544 0.3465,0.57837 7.9322,9.44086 16.857,19.69443 15.6326,17.95971 16.2663,18.64541 17.2997,18.71101 0.5899,0.037 1.2698,0.2947 1.5109,0.5716 0.2526,0.2902 0.7351,0.145 1.1389,-0.3426 0.5268,-0.636 0.5355,-1.4565 0.035,-3.3038 z m 92.3876,-146.08887 c -0.655,-1.27881 -1.553,-2.74119 -1.9957,-3.24974 -0.5414,-0.62195 -0.6999,-1.29197 -0.4843,-2.04673 l 0.3206,-1.12208 -17.4747,-20.33937 c -20.0647,-23.35392 -22.4655,-26.34646 -22.4124,-27.93677 0.025,-0.74667 -0.5166,-1.85408 -1.7065,-3.48976 -1.5831,-2.17625 -1.9215,-2.44997 -3.6896,-2.98438 l -1.9467,-0.58837 -2.2293,2.62127 c -1.4976,1.76098 -2.2291,2.98469 -2.2287,3.72859 6e-4,1.03379 0.8442,2.09134 12.7048,15.9257 15.4771,18.05265 17.3723,20.47163 17.3178,22.10339 -0.038,1.14549 0.3012,1.59095 8.3674,10.98129 l 8.4073,9.78735 1.3451,0.0973 c 1.2409,0.0898 6.2025,-0.6599 6.6855,-1.01019 0.1156,-0.0838 -0.3257,-1.19872 -0.9806,-2.47753 z m -108.8223,102.18293 c -0.074,-0.0852 -0.31,0.0491 -0.5241,0.2985 -0.2141,0.24935 -0.2398,0.62512 -0.057,0.83503 0.1827,0.20991 0.4186,0.0756 0.5241,-0.2985 0.1055,-0.3741 0.1312,-0.74986 0.057,-0.83503 z m -9.9831,-9.66762 c -0.2723,-0.31278 -0.4772,-1.10083 -0.4555,-1.75122 0.035,-1.03578 -0.039,-1.15203 -0.5969,-0.93681 -0.9392,0.36265 -1.8855,1.59394 -1.6938,2.2039 0.2739,0.87112 2.4179,2.01166 2.8455,1.51368 0.2177,-0.25346 0.173,-0.71676 -0.099,-1.02955 z m -34.129,-29.28064 c 5.4882,-5.91078 5.827,-6.36356 5.5721,-7.44828 -0.6274,-2.67042 -0.7531,-2.57752 -8.1201,6.00129 l -7.0077,8.16051 1.0062,1.15592 c 0.8402,0.96525 1.1434,1.04132 1.8386,0.46116 0.4579,-0.38212 0.8404,-0.99682 0.85,-1.366 0.01,-0.36918 2.647,-3.50325 5.8609,-6.9646 z m -94.9908,93.1609 c -0.2318,-0.7935 -0.1555,-1.9955 0.1695,-2.6711 0.9173,-1.9069 0.7809,-2.4056 -0.4015,-1.4678 -1.3601,1.0787 -2.9699,-0.071 -2.513,-1.794 0.2127,-0.8024 -0.2225,-0.4917 -1.7501,1.2495 -1.3882,1.5822 -1.9058,2.4637 -1.6315,2.7789 0.221,0.2538 0.4798,0.9439 0.5753,1.5335 0.1512,0.9335 0.3314,1.1418 1.3948,1.612 0.6717,0.297 1.5548,0.7562 1.9626,1.0206 0.4077,0.2643 1.057,0.263 1.4429,0 0.3858,-0.2661 0.8075,-0.5585 0.9369,-0.6498 0.1295,-0.091 0.046,-0.8153 -0.1859,-1.6087 z m 13.8114,-16.5117 -0.2808,-2.0348 -1.4593,-0.021 c -1.0882,-0.016 -1.6649,-0.3169 -2.2678,-1.1838 -0.7372,-1.06 -0.8616,-1.0713 -1.4095,-0.1283 -0.4287,0.7379 -0.4152,1.0626 0.047,1.133 0.9079,0.1383 1.6258,1.0641 1.8371,2.3688 0.1603,0.9899 0.3425,1.1944 1.6752,1.8805 1.8585,0.9569 2.2148,0.5708 1.8581,-2.0142 z m 174.6131,-201.72179 c -0.048,-0.41179 0.7766,-1.36447 2.2017,-2.54421 3.459,-2.86355 3.8958,-3.9933 3.3679,-8.71066 -0.2491,-2.22507 -0.464,-4.71203 -0.4776,-5.52653 -0.014,-0.81447 -0.3199,-2.20453 -0.6805,-3.08898 -0.3607,-0.88446 -0.5458,-2.08858 -0.4115,-2.67577 0.1344,-0.58723 0.1086,-1.22352 -0.057,-1.41399 -0.1658,-0.19047 -0.6285,-1.66776 -1.0283,-3.28287 -0.3999,-1.61511 -0.8753,-3.10698 -1.0566,-3.31525 -0.1813,-0.20827 -0.3749,-1.00613 -0.4302,-1.77298 -0.055,-0.76686 -0.4243,-2.44558 -0.8199,-3.73045 -0.8277,-2.68798 -2.4609,-14.95457 -2.0564,-15.44481 0.1486,-0.18024 0.1326,-1.27942 -0.036,-2.4427 -0.1683,-1.16328 -0.1007,-2.99769 0.1502,-4.07648 0.251,-1.07878 0.3661,-2.24855 0.2558,-2.59946 -0.2286,-0.72707 31.7648,-38.1657 33.3958,-39.07975 0.5198,-0.29129 2.0422,-2.10201 3.3831,-4.02379 1.9381,-2.77772 2.4046,-3.7726 2.2753,-4.85191 -0.2504,-2.08966 0.9698,-7.43339 1.961,-8.58758 0.652,-0.7592 0.7608,-1.33389 0.4112,-2.17135 -0.6379,-1.52809 0.8564,-6.56863 2.4547,-8.27996 2.5875,-2.77064 3.1156,-3.62571 2.6029,-4.2147 -0.8015,-0.92082 -0.1056,-5.10243 1.1458,-6.88485 0.6212,-0.88485 1.1577,-1.71163 1.192,-1.83726 0.034,-0.12564 1.546,-1.94251 3.3591,-4.03748 3.042,-3.51478 3.2556,-3.8796 2.7658,-4.72196 -0.292,-0.50211 -0.3448,-1.12966 -0.1173,-1.39458 0.5148,-0.59949 0.1632,-1.0257 -1.1881,-1.4402 -0.6403,-0.19643 -1.8429,-1.22822 -3.0967,-2.65693 -1.8464,-2.10375 -2.0798,-2.56078 -2.3513,-4.6012 -0.1658,-1.24596 -0.189,-2.39629 -0.052,-2.55632 0.5256,-0.61207 9.5106,1.53251 10.3209,2.46344 0.2788,0.32029 1.0887,0.75634 1.7998,0.969 0.7111,0.21267 1.6376,0.61011 2.0589,0.88316 0.986,0.63904 2.9846,-1.56626 3.0445,-3.35935 0.04,-1.20603 -0.1831,-1.50881 -6.1934,-8.39228 -5.9565,-6.822 -6.2876,-7.14365 -7.4105,-7.19775 -1.0727,-0.0517 -1.8324,0.71056 -8.6919,8.72023 l -7.5165,8.7769 -1.7196,-0.43081 c -2.0331,-0.50931 -2.5484,-0.1249 -1.6185,1.20728 0.8942,1.28113 0.071,2.96708 -2.9686,6.08154 -2.6213,2.68565 -9.2017,10.34325 -27.3943,31.87895 -10.3327,12.23141 -12.5746,14.69346 -13.6941,15.03918 -0.7363,0.22738 -1.563,0.15576 -1.8371,-0.15915 -0.2741,-0.31491 -0.6736,-0.36855 -0.8877,-0.1192 -0.2141,0.24935 -0.154,0.72372 0.1336,1.05416 0.2877,0.33044 0.3793,1.1038 0.2037,1.71858 -0.422,1.47709 -8.2833,12.25729 -9.0039,12.347 -0.3085,0.0384 -2.2222,1.96288 -4.2527,4.27661 -2.0304,2.31371 -3.9469,4.23852 -4.2588,4.27735 -0.3119,0.0389 -0.5877,0.30642 -0.6128,0.59463 -0.093,1.06222 -8.2791,10.98319 -9.0346,10.94878 -0.401,-0.0183 -0.6578,0.19358 -0.5707,0.47077 0.087,0.27717 -8.6499,10.84961 -19.4156,23.49433 -11.4798,13.48347 -19.6288,23.36022 -19.7064,23.88473 -0.073,0.49189 0.2551,1.42506 0.7287,2.07372 0.5205,0.71277 0.7679,1.58648 0.6253,2.20833 -0.283,1.23416 0.4608,2.41587 3.8227,6.07355 3.7723,4.10422 5.9397,4.41281 8.9285,1.27126 0.3568,-0.37503 0.7834,-0.30081 1.2318,0.21432 0.3773,0.43343 1.0155,0.76136 1.4183,0.72873 0.4425,-0.0358 3.9739,-3.7823 8.9225,-9.46584 8.9392,-10.26678 9.0162,-10.32743 13.0738,-10.29536 5.781,0.0457 10.669,1.45676 12.5724,3.62943 1.9122,2.18236 3.7304,3.53563 4.3083,3.20604 0.8703,-0.49642 3.5802,1.66016 6.9488,5.53013 2.7948,3.21068 3.0339,3.60752 3.7467,6.21732 0.5953,2.17974 1.2116,3.37877 2.8256,5.49771 1.598,2.09788 2.0349,2.94204 1.9343,3.73736 -0.072,0.56507 0.011,1.73201 0.1838,2.59315 0.1726,0.86117 0.4407,2.62481 0.5958,3.91914 0.2614,2.18139 0.3565,2.36893 1.3019,2.56605 0.5609,0.11697 1.1709,0.3862 1.3555,0.59827 0.1846,0.21207 0.6749,-0.0886 1.0897,-0.66816 0.4147,-0.57956 1.3515,-1.46222 2.0817,-1.96148 1.89,-1.29222 4.5572,-4.35938 4.4668,-5.13675 z m -3.518,-14.13257 c -1.4191,0.83661 -6.6359,-0.013 -7.3219,-1.19243 -0.2772,-0.4767 -0.6965,-0.84286 -0.932,-0.81342 -0.7502,0.0934 -3.9839,-4.68541 -4.543,-6.71377 -1.0051,-3.64647 -0.7631,-5.31131 1.0817,-7.44098 l 1.6682,-1.92578 3.0116,0.60124 3.0116,0.60124 2.2071,2.82607 c 3.03,3.87982 4.3076,6.15124 4.1309,7.34435 -0.082,0.55484 0.068,1.25807 0.3328,1.56273 0.2652,0.30466 0.4658,0.73779 0.4458,0.96251 -0.079,0.89037 -2.0686,3.58441 -3.0928,4.18825 z m 44.3276,-125.83372 c -2.1323,-0.51218 -2.7126,-0.86471 -4.1595,-2.52697 -1.5896,-1.82612 -1.6737,-2.05708 -1.5384,-4.22292 0.1655,-2.65089 0.47,-3.15724 1.7073,-2.83993 0.4927,0.12635 1.2978,0.0726 1.7892,-0.11952 0.7692,-0.30067 1.1353,-0.0713 2.633,1.64929 1.5947,1.83203 1.7719,2.2552 2.1275,5.07983 0.2133,1.69472 0.2823,3.19248 0.1534,3.32837 -0.129,0.1359 -1.3496,-0.0208 -2.7125,-0.34815 z M 2117.4962,751.1227 c -2.3063,-0.64095 -4.6511,-3.0497 -4.6144,-4.74027 0.013,-0.58503 -0.1781,-1.47814 -0.4239,-1.9847 -0.6452,-1.32901 0.9431,-2.63293 1.8867,-1.5489 0.3833,0.44033 1.564,0.80327 2.6759,0.82256 1.0944,0.019 2.2476,0.33056 2.5626,0.6924 0.8056,0.9255 1.0943,5.78906 0.3922,6.60664 -0.3537,0.41192 -1.3292,0.47182 -2.4791,0.15227 z m -8.4184,9.02038 c -1.3407,-0.4052 -2.2691,-1.03446 -3.3379,-2.26226 -1.2852,-1.47661 -1.4871,-1.99004 -1.5307,-3.89275 -0.053,-2.31522 0.555,-2.9777 1.9365,-2.10999 0.4604,0.28913 1.6364,0.56597 2.6135,0.61519 2.5209,0.12698 3.7059,1.59781 3.5969,4.46477 -0.115,3.02755 -0.9892,3.87691 -3.2783,3.18504 z m -34.6441,138.38426 c -1.9481,-0.79178 -1.8922,-1.86884 0.225,-4.3343 2.0693,-2.40969 3.0831,-2.55063 3.4917,-0.48546 0.1651,0.83472 0.4482,0.65812 2.1828,-1.36176 1.9139,-2.22883 1.98,-2.40799 1.6656,-4.51833 -0.6348,-4.26138 -0.6784,-4.33757 -6.1053,-10.65263 -5.6749,-6.60358 -7.307,-8.1059 -8.2326,-7.57797 -0.4433,0.25285 -1.1543,-0.1162 -2.3799,-1.23526 -1.9315,-1.76365 -2.1441,-1.60961 -2.2688,1.64407 -0.06,1.57348 0.1031,1.91777 1.8558,3.91232 1.564,1.77985 2.3971,2.37365 4.4749,3.18954 1.4041,0.55139 2.8646,1.36046 3.2454,1.79794 0.8184,0.94022 2.1772,6.43544 1.7223,6.9652 -0.1733,0.20175 -0.1522,0.89132 0.047,1.53239 0.3325,1.07111 0.081,1.49289 -3.1068,5.20476 l -3.4686,4.0392 -2.5371,-0.503 c -1.3954,-0.27666 -3.1024,-0.96616 -3.7935,-1.53224 -1.2269,-1.005 -3.0856,-1.2815 -3.7119,-0.55217 -0.1722,0.20049 -0.254,0.85689 -0.1819,1.45866 0.1656,1.3824 6.5533,8.9153 7.4638,8.80193 0.3093,-0.0385 1.6565,-1.26022 2.9938,-2.71489 1.3372,-1.45468 2.5195,-2.67862 2.6273,-2.71989 0.1078,-0.0413 0.4518,-0.32156 0.7644,-0.62288 0.406,-0.39127 0.8135,-0.2663 1.4259,0.43721 0.5544,0.63698 1.1197,0.86203 1.5996,0.63685 0.4082,-0.19153 0.7877,-0.36572 0.8434,-0.38708 0.056,-0.0214 -0.3232,-0.21136 -0.842,-0.42221 z m 5.2857,-7.44513 c -0.3994,-0.25097 -0.7663,-0.79018 -0.8152,-1.19824 -0.1271,-1.06084 1.0997,-1.38466 1.7052,-0.45007 0.6745,1.04099 0.033,2.22839 -0.89,1.64831 z m -2.5162,4.38289 c -0.2735,0.0985 -0.5655,0.43851 -0.6488,0.75561 -0.083,0.3171 0.1405,0.23652 0.4974,-0.17906 0.3569,-0.41558 0.425,-0.67503 0.1514,-0.57655 z m -16.4487,12.63339 c -0.2811,-1.92033 -1.587,-3.15387 -3.8066,-3.59588 -2.0144,-0.40112 -4.5652,-3.43523 -4.2055,-5.00232 0.1762,-0.76799 -0.1564,-1.68841 -1.2143,-3.35974 -0.8013,-1.26608 -1.7047,-3.07045 -2.0075,-4.00971 -0.538,-1.66829 -0.5964,-1.72829 -2.5278,-2.59747 -1.0874,-0.48935 -2.4057,-1.37897 -2.9297,-1.97693 -0.9344,-1.06636 -3.0623,-6.12604 -2.9789,-7.08309 0.074,-0.85354 -1.7756,-2.5752 -3.1402,-2.92227 -1.3087,-0.33287 -1.3627,-0.28506 -6.6664,5.90237 -7.0555,8.23109 -7.0725,7.99119 0.7723,10.95556 4.1683,1.57511 9.6194,6.0655 12.023,9.90409 0.827,1.32074 2.2251,3.23967 3.1068,4.2643 1.857,2.15799 2.3987,3.50409 2.5145,6.24803 0.1021,2.41896 0.8421,3.79476 2.1058,3.91527 0.9956,0.0949 2.7159,-1.48812 6.8549,-6.30797 2.125,-2.47456 2.3146,-2.8659 2.0996,-4.33424 z m -50.3592,59.02109 c -0.4821,-0.12364 -1.0423,-0.57198 -1.2448,-0.99632 -0.3149,-0.65978 -0.7805,-0.29139 -3.215,2.54366 -2.2846,2.66035 -2.7508,3.42554 -2.3605,3.87398 0.2675,0.30736 0.6367,0.87366 0.8203,1.25846 0.2694,0.56455 0.9655,0.009 3.6053,-2.87767 2.9474,-3.22307 3.1845,-3.59958 2.3947,-3.80211 z m 25.6449,-30.38745 c -0.8921,-0.37355 -1.0415,-0.62173 -1.0826,-1.79796 -0.056,-1.59227 2.5049,-5.79068 3.6793,-6.03282 0.5584,-0.11512 0.7618,-0.56645 0.7309,-1.62156 -0.023,-0.80412 0.1195,-1.65098 0.3178,-1.88191 0.1983,-0.23093 0.153,-0.65837 -0.1008,-0.94986 -0.2537,-0.29148 -0.5061,-1.10998 -0.5608,-1.81887 -0.135,-1.74976 -3.645,-8.41666 -5.6345,-10.70221 -2.0344,-2.33725 -4.6796,-4.13313 -8.5206,-5.78493 -2.8494,-1.22535 -8.3576,-2.15734 -8.9149,-1.50839 -0.1424,0.16581 -0.9632,0.26382 -1.824,0.21778 -1.3922,-0.0744 -1.6529,0.0998 -2.3606,1.57768 -1.2062,2.51917 -1.5702,4.26 -1.226,5.86351 0.3014,1.40451 0.1749,1.61176 -3.8351,6.28136 -3.1065,3.61752 -4.2044,5.18332 -4.3763,6.24158 l -0.2294,1.41264 5.0477,6.19435 c 7.0833,8.69231 12.5306,14.87223 13.4245,15.22983 0.456,0.18244 1.1516,-0.15088 1.7367,-0.83226 0.853,-0.99339 1.1388,-1.02621 2.2678,-0.26052 1.7886,1.21304 2.0771,1.12574 4.1283,-1.24915 1.5837,-1.83349 1.69,-2.08863 0.8609,-2.06569 -0.5792,0.016 -1.1012,-0.29907 -1.3463,-0.8126 -0.3256,-0.68238 -0.01,-1.29312 1.6924,-3.27567 1.7025,-1.98255 2.2284,-2.35164 2.8205,-1.97961 0.4457,0.27996 0.7216,0.88158 0.7117,1.55158 -0.015,0.99466 0.07,0.99434 0.9265,-0.003 0.5185,-0.60378 1.1692,-1.00452 1.4461,-0.89054 0.2768,0.11398 0.6727,0.0101 0.8796,-0.23085 0.3125,-0.36398 0.2011,-0.51138 -0.6588,-0.87144 z m 124.4852,-145.76126 c -0.2006,-1.04413 -0.2181,-2.06924 -0.039,-2.27806 0.1794,-0.20882 0.2288,-0.98045 0.1099,-1.71476 -0.1189,-0.73432 -0.114,-1.4542 0.011,-1.59973 0.2553,-0.29732 -0.3275,-3.9626 -1.1611,-7.30121 -0.3909,-1.56566 -1.077,-2.89082 -2.3555,-4.54901 -0.9921,-1.2869 -2.2092,-3.36684 -2.7047,-4.62206 l -0.9009,-2.28222 -2.1683,-1.05179 c -1.5125,-0.73375 -2.7252,-1.69177 -4.0101,-3.16791 -1.9637,-2.25595 -2.083,-2.30962 -7.6298,-3.432 -1.4365,-0.29067 -2.7277,-0.66158 -2.8693,-0.82422 -0.1416,-0.16263 -0.6037,0.10756 -1.0269,0.60039 -0.4894,0.56997 -1.1016,0.73601 -1.682,0.45626 -1.8416,-0.88765 -3.8926,1.27407 -29.3392,30.92244 -25.7089,29.9541 -26.7803,31.34847 -25.5487,33.24943 0.2897,0.4472 0.8764,2.47248 1.3038,4.50064 0.4273,2.02815 1.6649,5.99161 2.7502,8.80768 1.7068,4.42886 2.2521,5.44045 4.0395,7.49273 1.8404,2.11305 2.6144,2.64116 7.0754,4.82749 3.1346,1.53618 6.0006,2.58186 7.6586,2.7942 1.4572,0.18662 2.8579,0.57872 3.1126,0.87132 0.5048,0.57995 2.7663,0.56109 3.8463,-0.0321 0.372,-0.20431 12.2001,-13.73595 26.2846,-30.0703 L 2160.89,792.86925 Z M 2044.3232,917.4615 c -0.1322,-1.24084 -0.3885,-2.42619 -0.5695,-2.63412 -0.181,-0.20792 -0.5471,-1.3171 -0.8136,-2.46483 -0.3977,-1.71294 -0.9652,-2.70009 -3.1679,-5.51035 l -2.6834,-3.42357 -3.7547,-1.54196 c -2.0651,-0.84806 -3.9259,-1.73856 -4.1351,-1.97888 -0.2091,-0.24032 -1.1333,-0.53331 -2.0537,-0.65109 -1.3268,-0.16978 -1.6393,-0.0415 -1.5086,0.61918 0.161,0.81412 1.4977,1.67909 5.1617,3.34017 0.8915,0.40415 2.5016,2.01874 5.8997,5.91617 3.9148,4.49002 4.7331,5.59925 5.0398,6.83177 0.799,3.21032 1.2506,4.16134 1.9401,4.08543 0.9107,-0.10024 0.9103,-0.0989 0.6452,-2.58792 z m -69.2652,76.8582 c 0.3677,-0.4375 0.2434,-0.6246 -0.8959,-1.3479 -1.2255,-0.778 -1.4178,-0.7292 -2.6133,0.6629 -1.1494,1.3385 -1.1871,1.4998 -0.3444,1.4765 0.558,-0.015 1.1037,0.3044 1.3305,0.7797 0.4481,0.9389 1.196,0.8136 1.7248,-0.2889 0.2042,-0.4258 0.5635,-1.0029 0.7983,-1.2823 z m 20.0027,-25.68417 c -0.8761,-1.25967 -0.9553,-1.26785 -1.8776,-0.19381 -0.7703,0.89703 -0.8434,1.32708 -0.365,2.14961 0.8403,1.44489 1.3031,1.51856 2.2937,0.36507 0.7611,-0.88638 0.7551,-1.16174 -0.051,-2.32087 z m 66.3724,-84.62959 c 0.069,-0.62561 -0.031,-2.19184 -0.221,-3.48052 -0.3282,-2.22117 -0.4061,-2.36151 -1.4973,-2.69786 -1.4159,-0.43637 -1.7931,0.359 -1.4871,3.13518 0.2214,2.00835 1.4704,4.17255 2.4985,4.32917 0.5349,0.0815 0.5619,0.0324 0.7069,-1.28597 z m -98.3073,107.81896 c 0.9493,-0.3666 0.1901,-0.8174 -0.867,-0.5148 -1.2795,0.3662 -1.4602,1.0783 -0.4669,1.8398 0.6322,0.4847 0.8031,0.4324 0.7764,-0.2375 -0.019,-0.4725 0.232,-0.9619 0.5575,-1.0875 z m 119.2704,-146.51551 c -2.3809,-2.76215 -3.4298,-4.6171 -4.5303,-8.01132 -0.2567,-0.79196 -0.8825,-2.3841 -1.3905,-3.53808 -0.508,-1.15398 -1.1288,-2.84889 -1.3796,-3.76648 -0.4544,-1.66236 -0.4605,-1.66848 -1.7127,-1.71083 -0.7702,-0.0261 -1.4474,0.31946 -1.7493,0.89258 -0.271,0.51429 -1.5892,1.91256 -2.9294,3.10726 -1.3402,1.1947 -2.4218,2.29763 -2.4034,2.45096 0.018,0.15332 -2.4747,3.29264 -5.5403,6.97624 -6.1868,7.43432 -6.8328,7.89696 -9.8579,7.06043 -1.0254,-0.28354 -2.3494,-0.60137 -2.9422,-0.70629 -0.9507,-0.16825 -1.8746,-1.10597 -7.8271,-7.94434 -5.5991,-6.43244 -6.9492,-7.8219 -7.9237,-8.15455 l -1.1746,-0.40099 -18.6284,21.18093 c -21.3643,24.29181 -22.0152,25.04981 -28.9174,33.67738 -4.7751,5.96894 -21.4868,25.61786 -49.8484,58.60964 -9.9918,11.62305 -11.8263,13.93797 -11.8927,15.00713 -0.077,1.23473 0.066,1.42994 6.118,8.38299 7.7771,8.93445 7.25,8.76365 11.6488,3.77574 1.6636,-1.88642 3.196,-3.63835 3.4054,-3.89316 2.7789,-3.38253 7.4476,-8.82122 12.5425,-14.61128 4.9614,-5.63801 6.3858,-7.03857 6.8572,-6.74236 0.4675,0.29366 0.6301,0.13766 0.7582,-0.72714 0.2446,-1.65212 3.8141,-5.62851 4.7883,-5.33415 0.4323,0.13064 0.9352,-0.0648 1.1174,-0.43428 0.1921,-0.38922 0.6682,-0.4552 1.132,-0.15685 0.4403,0.28323 1.0392,0.4993 1.331,0.48016 0.2917,-0.0191 2.4968,-2.31916 4.9001,-5.11117 2.4155,-2.80644 4.741,-5.15293 5.2,-5.24755 0.5549,-0.11443 0.7695,-0.36426 0.6471,-0.75358 -0.1007,-0.32031 0.1538,-0.97468 0.5655,-1.45414 0.4702,-0.54753 0.6206,-1.35278 0.4044,-2.16514 -0.1893,-0.71137 -0.2309,-2.21418 -0.092,-3.33959 0.2095,-1.70231 0.576,-2.3721 2.181,-3.98558 1.0611,-1.06666 4.6752,-5.14235 8.0315,-9.05709 6.7153,-7.83268 7.8122,-8.74415 8.9143,-7.4065 1.0367,1.25823 2.5003,0.39218 6.6241,-3.91953 5.3289,-5.57177 7.2401,-7.76396 13.6973,-15.71077 3.2614,-4.01367 7.4826,-8.89092 9.3806,-10.83833 1.898,-1.94741 3.8372,-4.27513 4.3094,-5.17272 0.4722,-0.89758 1.0664,-1.65785 1.3204,-1.68948 0.6801,-0.0847 2.9309,-2.55451 2.7762,-3.04642 -0.2504,-0.7966 5.5466,-6.82597 6.5203,-6.78161 0.4982,0.0227 1.5492,-0.0948 2.3354,-0.26114 2.1624,-0.45746 10.9325,2.33731 13.2418,4.21976 2.1581,1.75924 2.5588,1.99276 2.8459,1.6584 0.1596,-0.18587 0.8952,-0.26731 1.6346,-0.18097 1.2264,0.1432 1.3621,0.0373 1.547,-1.2064 0.1486,-0.99965 1.2148,-2.54201 3.9963,-5.78113 l 3.7937,-4.41774 2.7864,-0.23231 c 1.5325,-0.12776 3.21,-0.0281 3.7277,0.22141 0.5177,0.24954 1.2101,0.14062 1.5387,-0.24203 0.5676,-0.66093 0.4736,-0.8395 -1.8785,-3.56825 z m -105.6718,87.15989 c -0.3995,-0.25098 -0.7663,-0.79018 -0.8152,-1.19824 -0.1271,-1.06085 1.0997,-1.38466 1.7052,-0.45008 0.6745,1.041 0.033,2.22839 -0.89,1.64832 z m -17.7147,5.16798 c -3.4238,-0.34459 -5.3431,-3.883 -3.8447,-7.08806 0.38,-0.81277 1.011,-1.14032 2.4299,-1.26129 1.6821,-0.14342 2.0789,0.0231 3.243,1.36035 1.1079,1.27276 1.3275,1.86468 1.3334,3.59329 0.01,2.69433 -0.8595,3.6274 -3.1616,3.39571 z m 9.7969,-11.45307 c -1.2492,-0.0182 -1.6759,-0.28023 -2.7896,-1.71319 -1.0675,-1.37367 -1.2813,-1.99197 -1.1369,-3.28867 0.098,-0.87832 0.348,-1.82113 0.5559,-2.09513 0.4875,-0.64256 4.5471,-0.74843 5.0832,-0.13257 0.6771,0.77787 0.8862,5.00823 0.3048,6.16829 -0.3876,0.77355 -0.9637,1.07662 -2.0174,1.06127 z m 33.6673,12.25764 c -0.08,-0.85594 -0.5185,-1.98524 -0.9748,-2.50954 -0.5429,-0.62363 -0.7117,-1.23512 -0.4883,-1.76828 0.3692,-0.88086 0.062,-1.4671 -2.7225,-5.18993 -1.5685,-2.09724 -1.8848,-2.36748 -2.2598,-1.93079 -0.2398,0.27927 -0.9172,0.46188 -1.5054,0.40579 -1.6617,-0.15847 -3.8245,2.56252 -3.7884,4.7663 0.028,1.69049 0.14,1.88258 3.2429,5.54977 3.1335,3.70334 3.259,3.80608 5.002,4.09388 2.234,0.36888 3.7124,-1.07689 3.4943,-3.41719 z m 210.3882,-245.13317 c -0.1557,-0.62489 -0.5624,-1.31166 -0.9039,-1.52617 -1.0229,-0.64271 -1.6711,0.65514 -1.0124,2.02734 0.7477,1.55749 0.3338,2.55743 -2.1107,5.0992 -1.8381,1.91122 -1.9538,1.95313 -2.8942,1.0482 l -0.9796,-0.94256 -4.0332,4.19 c -2.2182,2.30453 -6.9362,7.35442 -10.4843,11.22201 -6.2301,6.79102 -6.4634,7.10433 -6.8059,9.14295 -0.2565,1.52598 -0.1428,2.35444 0.41,2.9895 l 0.7648,0.87856 14.1662,-16.49647 c 13.4759,-15.69272 14.1523,-16.55179 13.8832,-17.63256 z m -14.7065,16.21627 c -0.3995,-0.25097 -0.7664,-0.79017 -0.8153,-1.19824 -0.1271,-1.06084 1.0998,-1.38466 1.7053,-0.45007 0.6744,1.041 0.033,2.22837 -0.89,1.64831 z m -217.9544,252.91934 c -0.1131,-0.57169 -0.095,-1.46242 0.039,-1.97939 0.2388,-0.91522 0.2297,-0.92319 -0.3451,-0.30272 -0.3247,0.35048 -0.8169,0.54398 -1.0938,0.43 -0.2769,-0.11398 -0.8393,0.18391 -1.2498,0.66198 -0.4106,0.47806 -1.1816,1.03932 -1.7135,1.24724 -0.7339,0.28685 -0.8824,0.55551 -0.6159,1.11393 0.1991,0.41724 0.011,1.13262 -0.4356,1.6521 -0.5528,0.64365 -0.6213,1.1064 -0.2304,1.5555 0.4537,0.52116 0.5496,0.46635 0.5192,-0.29657 -0.045,-1.12241 0.9487,-1.61966 1.6428,-0.82226 0.6374,0.73227 1.2293,0.5028 2.5898,-1.00395 0.7064,-0.78218 1.025,-1.58744 0.8928,-2.25584 z m -18.8666,19.16183 c 1.0017,-0.1319 0.9938,-0.1723 -0.2368,-1.2118 -0.7002,-0.5915 -1.4827,-1.3162 -1.7389,-1.6105 -0.3518,-0.4043 -0.5235,-0.083 -0.7019,1.3133 -0.1299,1.0166 -0.4259,2.0693 -0.6579,2.3394 -0.3863,0.4498 -0.333,0.5094 0.6352,0.7113 0.5812,0.1213 1.3318,0.5364 1.668,0.9226 0.5179,0.595 0.5642,0.4709 0.3036,-0.8128 -0.2749,-1.3546 -0.1978,-1.5295 0.7287,-1.6515 z m -7.7877,7.4624 c -0.3282,0.036 -0.8089,0.3067 -1.0682,0.6021 -0.4538,0.5167 -0.4223,0.5529 0.8346,0.9588 1.1827,0.382 1.2837,0.3251 1.0682,-0.602 -0.1904,-0.8191 -0.3573,-1.0109 -0.8346,-0.9589 z m 93.8605,-110.27149 c -0.7978,-0.91658 -1.4183,-2.77647 -1.8476,-5.53824 -0.2333,-1.50111 -0.4427,-1.84991 -1.5185,-2.52981 l -1.2479,-0.78863 0.3871,1.46703 c 0.5126,1.94256 1.3504,4.33493 2.5249,7.2099 0.7402,1.81172 1.1391,2.39819 1.7355,2.55112 1.0191,0.26134 0.9987,-1.18562 -0.034,-2.37137 z m 3.386,-14.723 -0.9656,-1.10938 -1.8512,2.27543 c -1.6409,2.01703 -1.7682,2.33952 -1.121,2.83984 0.4015,0.31042 0.8258,1.15533 0.9427,1.87757 0.2078,1.28328 0.2344,1.2878 1.1694,0.19898 0.5784,-0.67345 1.2007,-0.96098 1.5733,-0.7269 0.4902,0.30796 0.678,-0.0871 0.9172,-1.92944 0.2449,-1.88547 0.1211,-2.52321 -0.6648,-3.4261 z m 43.4953,-73.20137 c 1.0003,-1.62487 1.0957,-2.08052 0.5272,-2.51778 -0.3818,-0.29363 -0.8291,-1.09075 -0.9942,-1.77137 -0.2561,-1.05628 -0.1594,-1.25597 0.6601,-1.36374 1.1478,-0.15093 2.5672,-1.67893 2.3124,-2.4894 -0.1047,-0.3332 0.7859,-1.5964 2.107,-2.98841 l 2.2885,-2.41123 -1.5829,-2.18416 c -2.7465,-3.78961 -9.1167,-10.44465 -10.1481,-10.60179 -1.3667,-0.2082 -43.5088,49.06628 -44.2059,51.68767 -0.4534,1.70461 0.325,4.62388 1.6336,6.12734 1.4416,1.65612 0.5831,4.99901 -1.1684,4.54984 -0.3917,-0.10044 -1.5167,-1.02199 -2.4999,-2.04788 -1.6504,-1.722 -1.8509,-1.811 -2.61,-1.15878 -0.7777,0.66822 -0.7467,0.7933 0.5724,2.30878 1.4688,1.68739 1.8169,2.95959 1.6012,5.85209 -0.064,0.8568 -0.013,1.89248 0.1132,2.30151 0.1262,0.40904 0.06,0.94096 -0.147,1.18204 -0.6011,0.69993 2.096,3.54925 3.5725,3.77418 1.1312,0.17232 1.5688,-0.23594 7.1387,-6.65916 8.5417,-9.8504 14.2708,-16.07196 14.8684,-16.14637 0.2856,-0.0356 0.9091,0.49588 1.3856,1.18098 l 0.8663,1.24563 1.9348,-2.02277 c 3.7336,-3.9035 20.5661,-23.88423 21.7745,-25.84722 z m -20.1313,21.77411 c -1.119,-0.70302 -0.9968,-1.73101 0.3616,-3.04118 1.027,-0.99043 1.3668,-1.0632 1.9321,-0.41374 0.5752,0.66085 0.5034,1.03971 -0.4448,2.34705 -0.8695,1.19865 -1.2968,1.45472 -1.8489,1.10787 z m 16.0945,-18.73724 c -1.0595,-0.66566 -1.0211,-1.73292 0.099,-2.74657 0.7609,-0.68865 1.1445,-0.71282 1.6732,-0.10544 0.5454,0.62653 0.5079,1.04598 -0.1828,2.04638 -0.6353,0.92027 -1.0623,1.1367 -1.5893,0.80563 z m 12.0028,-13.7344 c -0.5623,-0.0857 -0.7008,0.0755 -0.6229,0.72538 0.078,0.64985 0.2386,0.67433 0.723,0.11014 0.4845,-0.56418 0.4623,-0.74985 -0.1001,-0.83552 z m 188.2161,-240.46998 0.016,-1.63517 -26.2379,-30.31302 c -14.4309,-16.67216 -27.2548,-31.29543 -28.4975,-32.4962 -1.9928,-1.92553 -2.3223,-2.10365 -2.7921,-1.50927 -0.4818,0.60969 -0.7124,0.46728 -2.419,-1.49323 -1.7357,-1.99402 -1.8375,-2.21901 -1.2752,-2.81593 0.5094,-0.54067 0.4308,-0.85607 -0.4722,-1.89342 -0.9029,-1.03734 -1.1761,-1.12617 -1.6401,-0.53333 -0.5123,0.6545 -0.7075,0.53817 -2.4432,-1.45585 -1.7357,-1.99402 -1.8376,-2.21901 -1.2752,-2.81592 0.5828,-0.61857 0.4805,-0.80415 -2.197,-3.98747 -1.5445,-1.83629 -3.2253,-3.83482 -3.7352,-4.44119 -0.7208,-0.8575 -1.0095,-0.95061 -1.2981,-0.41929 -0.2041,0.37572 -0.8819,0.63446 -1.5062,0.57493 -1.5026,-0.14329 -5.372,4.17748 -5.4807,6.12009 l -0.071,1.27314 36.6795,42.09771 36.6796,42.09771 1.4056,0.15321 c 1.9446,0.21194 2.1745,0.0815 4.4943,-2.54893 1.6703,-1.89392 2.0521,-2.62581 2.0655,-3.9587 z m 4.4943,-9.76663 c -0.2389,-0.48546 -0.58,-1.51426 -0.7579,-2.28624 -0.2993,-1.29882 -2.118,-3.45899 -24.3559,-28.92931 -23.6078,-27.03928 -24.0505,-27.5252 -25.0533,-27.49766 -0.9295,0.0255 -1.3944,-0.40598 -5.191,-4.81794 -3.4657,-4.02716 -4.1677,-5.01133 -4.1556,-5.82479 0.018,-1.23108 -1.8551,-3.45022 -2.6526,-3.14227 -0.3227,0.12461 -0.828,-0.0505 -1.1228,-0.38922 -0.2948,-0.33868 -0.4496,-0.92186 -0.3441,-1.29595 0.3096,-1.0971 -2.7474,-4.37649 -3.947,-4.23427 -0.6401,0.0759 -1.319,-0.31441 -2.0924,-1.203 -0.8408,-0.96591 -1.7054,-1.40997 -3.2545,-1.6716 -1.974,-0.3334 -2.0976,-0.28249 -1.9236,0.79223 0.1659,1.0246 4.0878,5.629 36.3518,42.67858 24.7355,28.40419 36.0597,41.21474 35.8302,40.53244 -0.4408,-1.30984 0.04,-1.8027 1.4322,-1.46949 1.3926,0.33323 1.8068,-0.0827 1.2365,-1.24151 z m -437.6568,506.1117 c -0.2082,-0.6791 -0.6723,-1.0621 -1.7237,-1.4226 -2.9915,-1.0258 -3.5642,-1.4519 -6.5485,-4.8715 -3.4259,-3.9258 -4.9403,-6.7182 -4.1454,-7.6439 0.2736,-0.3186 0.4842,-1.3672 0.4681,-2.3303 -0.027,-1.5958 0.2567,-2.0893 3.1966,-5.565 1.7742,-2.0976 3.4807,-4.3734 3.7922,-5.0575 0.3468,-0.7618 0.7727,-1.1586 1.0991,-1.0242 0.5854,0.2409 5.7583,-5.5377 7.3589,-8.2206 0.7924,-1.3281 0.8293,-1.7083 0.2123,-2.1814 -0.411,-0.3151 -0.9059,-1.1689 -1.0997,-1.8972 -0.3483,-1.3088 -0.5344,-1.4766 -2.9811,-2.687 -0.6111,-0.3023 -1.9575,-0.9682 -2.9922,-1.4798 -1.1775,-0.5822 -2.031,-1.2731 -2.2817,-1.847 -0.6806,-1.5576 -2.7137,-3.7313 -3.4984,-3.7404 -1.0026,-0.012 -1.6771,-1.534 -1.0191,-2.3002 1.0116,-1.178 -0.08,-1.2904 -1.4052,-0.1447 -1.3082,1.131 -3.7931,1.3254 -4.6503,0.3638 -0.213,-0.2388 -0.5828,-0.049 -0.8259,0.4242 -0.3858,0.7509 -0.2593,1.0366 1.0224,2.3095 0.9559,0.9493 1.5281,1.8437 1.6516,2.5814 0.1039,0.6209 0.5248,1.6069 0.9352,2.1911 l 0.7463,1.0622 -3.3453,3.8459 c -3.1177,3.5842 -3.4421,3.8346 -4.767,3.6799 -0.7819,-0.091 -1.5885,-0.3556 -1.7926,-0.5875 -0.6047,-0.6871 -2.539,0.1204 -3.811,1.5909 -1.0174,1.1764 -1.5334,1.3322 -3.6423,1.0996 -2.4398,-0.2689 -2.4738,-0.2901 -4.8609,-3.0325 -1.9591,-2.2507 -2.4382,-2.64 -2.5894,-2.1041 -0.1587,0.5626 2.3606,3.5831 17.4467,20.9172 17.3654,19.9531 17.64,20.2505 18.1479,19.6591 0.2836,-0.3303 0.8228,-0.4076 1.1982,-0.1717 0.8018,0.5037 1.1055,-0.1068 0.7042,-1.4157 z m -30.3811,-30.7025 c -0.3995,-0.251 -0.7664,-0.7902 -0.8153,-1.1982 -0.1271,-1.0609 1.0998,-1.3847 1.7053,-0.4501 0.6744,1.041 0.033,2.2284 -0.89,1.6483 z m 62.9942,-7.2894 c -0.278,-1.4196 -1.403,-2.7511 -33.4097,-39.5406 -32.6453,-37.52352 -33.1382,-38.07317 -34.2569,-38.17972 -1.1878,-0.11327 -2.0422,0.473 -4.6805,3.21144 -1.6529,1.71564 -2.5585,4.35415 -2.1695,6.32062 0.1092,0.55172 0,2.30941 -0.2363,3.90596 l -0.4349,2.90283 3.3323,3.62481 c 3.4915,3.79795 4.4606,5.46161 3.7288,6.40078 -0.314,0.40292 -0.1923,0.45964 0.4708,0.21958 0.8061,-0.29178 1.1227,-0.0593 3.2122,2.35832 2.1533,2.49146 2.3367,2.84191 2.5819,4.93279 0.2134,1.81913 0.049,2.51912 -0.8567,3.6499 -2.2763,2.84174 -4.662,5.23622 -5.2954,5.3151 -0.3735,0.0465 -0.7124,0.48988 -0.7936,1.03818 -0.092,0.62256 -0.6594,1.29656 -1.6231,1.92865 -0.8495,0.55711 -1.4128,1.19012 -1.3205,1.48379 0.2145,0.68221 -2.2452,3.51589 -2.8395,3.27123 -0.2855,-0.11752 -0.6672,0.32553 -0.9844,1.14235 -0.2849,0.73394 -0.8535,1.49551 -1.2636,1.69238 -0.4102,0.19688 -1.1687,0.81411 -1.6857,1.37163 -1.0928,1.17837 -2.4701,0.41856 -2.4439,-1.34819 0.014,-0.96146 -0.062,-0.97227 -0.7992,-0.11366 -0.521,0.6068 -1.401,0.88202 -2.4405,0.76336 -0.8941,-0.10205 -2.365,-0.18669 -3.2685,-0.18809 -1.5167,-0.002 -1.842,-0.20986 -4.2393,-2.70429 -3.3677,-3.50417 -5.8143,-7.17393 -6.1236,-9.18471 -0.4968,-3.23109 0.1726,-5.08247 3.0486,-8.43163 l 2.6707,-3.11002 -0.8615,-0.98978 c -0.4748,-0.54544 -1.0994,-0.85868 -1.3913,-0.69774 -0.2914,0.16063 -2.0387,2.06067 -3.883,4.22231 -3.1971,3.74725 -3.3545,4.02772 -3.3801,6.02363 -0.015,1.15135 -0.031,2.19699 -0.037,2.32363 -0.012,0.27722 10.7828,12.59676 18.4142,21.01576 4.1368,4.5636 5.5699,6.3409 5.7949,7.1863 0.1922,0.7221 0.5593,1.2273 1.0282,1.4147 0.4011,0.1604 1.4642,1.1318 2.3625,2.1586 1.9381,2.2157 2.4753,2.0066 1.1885,-0.4625 -0.5079,-0.9746 -1.1239,-3.0244 -1.3689,-4.555 -0.2451,-1.5307 -0.6409,-3.9696 -0.8798,-5.4199 l -0.4342,-2.6368 4.8068,-5.92275 c 2.6437,-3.25751 6.7359,-7.90899 9.0937,-10.33658 4.1302,-4.25235 4.3241,-4.3904 5.3005,-3.77339 0.5573,0.35223 1.2386,0.61238 1.514,0.57809 0.9077,-0.11303 3.7643,3.57462 4.1584,5.36816 0.1986,0.90363 1.0837,2.7885 1.9669,4.18861 2.009,3.18488 3.8663,4.22818 5.0576,2.84097 0.6107,-0.71117 0.5833,-1.05094 -0.1672,-2.07761 -0.5493,-0.75142 -0.7767,-1.51505 -0.5864,-1.96914 0.3255,-0.77671 -0.3535,-2.41385 -1.4535,-3.50481 -0.7981,-0.79148 -0.4801,-2.15869 0.4684,-2.01418 0.5285,0.0805 0.7805,0.37334 1.0395,1.20758 0.2717,0.87538 0.5043,1.10872 1.1338,1.13738 1.5822,0.072 11.1514,12.05467 12.0306,15.06477 0.2139,0.7323 0.607,1.5821 0.8736,1.8883 0.2666,0.3063 0.4557,1.1315 0.4202,1.8338 -0.064,1.2664 -0.054,1.2699 1.1641,0.4204 0.6757,-0.4711 1.5919,-0.6813 2.0361,-0.4672 0.4441,0.2141 3.6443,3.5831 7.1114,7.4868 5.5364,6.2336 6.3287,7.2512 6.5081,8.3593 0.2767,1.7087 -1.1783,4.2705 -2.3737,4.1796 -0.5909,-0.045 -0.9879,0.2513 -1.1455,0.8549 -0.1326,0.5081 -0.09,0.7726 0.095,0.5878 0.4762,-0.4756 3.5108,1.2445 3.9985,2.2665 0.2596,0.5439 0.9874,0.9548 2.012,1.1357 l 1.6053,0.2834 4.5933,-5.2317 c 4.4797,-5.1023 4.5861,-5.2679 4.3055,-6.7007 z m -52.4019,-38.41346 -1.2335,0.2341 -5.4932,-6.31074 -5.4932,-6.31072 -0.1543,-1.766 c -0.1848,-2.11564 0.1193,-2.5635 1.54,-2.26724 0.9343,0.19483 1.8506,1.1392 7.1386,7.35746 l 6.0667,7.13395 -0.5688,0.84755 c -0.3129,0.46616 -1.1239,0.9529 -1.8023,1.08164 z m 405.0683,-452.2224 -34.47,-39.60012 -1.0704,0.30525 c -0.9268,0.26433 -1.0331,0.48388 -0.7922,1.63691 0.1529,0.73243 0.36,1.90426 0.4601,2.6041 0.1715,1.19906 2.035,3.40096 32.332,38.20175 l 32.1502,36.92909 1.2808,-0.0367 c 0.7044,-0.0203 1.6229,0.35625 2.041,0.83663 1.1561,1.32812 2.0065,1.28981 2.2954,-0.1034 l 0.2434,-1.17357 -34.47,-39.60013 z m -393.7431,534.26826 c 0.776,-0.4565 0.7793,-0.5529 0.025,-0.7462 -1.1424,-0.293 -1.7366,-1.6082 -1.0747,-2.379 0.4975,-0.5793 0.3177,-0.8546 -3.1871,-4.881 -3.6313,-4.1718 -3.7267,-4.2513 -4.271,-3.5558 -0.5475,0.6995 -0.6249,0.633 -4.6726,-4.0171 -4.0071,-4.6035 -4.1033,-4.7496 -3.6414,-5.5343 0.4664,-0.7925 0.3883,-0.9064 -4.6919,-6.8346 -9.1347,-10.6595 -13.1267,-14.9387 -13.8293,-14.8241 -0.391,0.064 -1.2222,-0.5728 -2.1708,-1.6626 -1.7261,-1.9829 -1.7744,-2.996 -0.1655,-3.4708 1.4565,-0.4298 1.1071,-0.9258 -0.9463,-1.3435 -1.1013,-0.224 -2.2171,-0.8113 -2.7885,-1.4677 -0.5239,-0.6018 -1.0663,-0.9617 -1.2054,-0.7998 -0.5116,0.5958 -3.1632,-1.1533 -4.6986,-3.0993 -1.1893,-1.5073 -1.4814,-2.1666 -1.3037,-2.9424 l 0.229,-0.9998 -1.3176,-0.1129 c -1.2934,-0.1108 -1.4471,-0.2601 -8.3882,-8.14452 -7.5959,-8.62815 -9.1019,-9.91837 -8.7032,-7.45613 0.1812,1.11881 2.9072,4.33624 32.2938,38.11545 17.6528,20.2914 32.5903,37.2788 33.1944,37.7497 0.9514,0.7417 1.0532,0.7275 0.7603,-0.1065 -0.2446,-0.6968 -0.092,-1.1078 0.5529,-1.4871 z m 44.3987,-52.4025 c -0.2426,-0.2787 -0.4869,-1.0997 -0.5428,-1.8244 -0.074,-0.9574 -0.5373,-1.8181 -1.6949,-3.1479 -0.8762,-1.0067 -1.6344,-2.1747 -1.6849,-2.5957 -0.1231,-1.0274 -1.4585,-1.9067 -3.3282,-2.1916 -1.7355,-0.2643 -2.6999,-1.4027 -2.3799,-2.80892 0.2131,-0.9362 -0.096,-1.30571 -22.621,-27.0395 l -22.8369,-26.09032 -1.0419,-2.99352 c -1.229,-3.53126 -1.3455,-3.70175 -2.0047,-2.93418 -0.6342,0.73857 -1.1452,0.52553 -2.8603,-1.19256 -1.0833,-1.08513 -1.7146,-1.34345 -3.0068,-1.2303 -2.0205,0.17691 -2.6965,0.83696 -2.0678,2.01895 0.2645,0.49723 12.9485,15.09376 28.1868,32.43674 15.2382,17.34298 29.4271,33.50351 31.5307,35.91231 3.5323,4.0446 3.8783,4.3491 4.5234,3.9812 0.4256,-0.2428 0.9869,-0.067 1.4368,0.4498 0.406,0.4665 0.7597,0.6026 0.7859,0.3024 0.026,-0.3002 -0.151,-0.7738 -0.3935,-1.0525 z m -26.5948,29.0385 c -0.097,-0.6891 -0.3417,-1.7429 -0.5442,-2.3417 -0.3017,-0.8926 -0.069,-1.4365 1.2908,-3.0203 1.4857,-1.7301 1.7303,-1.8494 2.3447,-1.1435 0.5784,0.6645 0.4937,1.0849 -0.5402,2.6816 l -1.2262,1.8937 1.3807,-1.4784 c 1.1338,-1.2142 1.3525,-1.8002 1.2233,-3.2788 -0.087,-0.9902 0,-1.9808 0.1868,-2.2012 0.5826,-0.6784 0.085,-1.9762 -1.6391,-4.2766 l -1.6527,-2.2049 -8.4256,9.8117 c -6.2653,7.2959 -8.3226,9.9299 -8.0239,10.2731 0.221,0.2538 0.4853,0.9776 0.5875,1.6084 0.1695,1.0466 0.3256,1.1742 1.7851,1.4591 1.3855,0.2705 1.7052,0.1233 2.3915,-1.1012 0.8954,-1.5977 2.0968,-1.6299 3.7373,-0.1005 0.8396,0.7827 1.0404,0.7438 1.7847,-0.3459 0.4612,-0.6754 1.0802,-1.1285 1.3756,-1.0069 0.2969,0.1223 1.3423,-0.7167 2.3385,-1.8768 1.4107,-1.6427 1.7633,-2.3696 1.6254,-3.3509 z M 2228.43,545.87452 c -14.5072,-16.6428 -15.7416,-18.14015 -15.9344,-19.33103 -0.2808,-1.7338 -0.05,-1.89753 2.1848,-1.553 l 1.9153,0.29519 6.2979,7.39779 c 7.2221,8.4834 8.3411,9.56506 10.1015,9.7634 1.2442,0.14025 1.4871,0.384 9.4256,9.45514 5.637,6.4411 8.482,9.47193 9.2306,9.83279 1.0644,0.51302 1.1649,0.42536 6.0983,-5.31952 l 5.016,-5.84117 -0.9336,-0.7996 c -0.6201,-0.53107 -0.9238,-1.17651 -0.9046,-1.92197 0.028,-1.08059 -0.6896,-1.95628 -19.2525,-23.49826 -34.6526,-40.21375 -34.6569,-40.2186 -35.8561,-40.48147 -0.585,-0.12825 -1.4151,-0.53795 -1.8447,-0.91042 -0.7422,-0.6435 -1.0108,-0.4179 -5.3898,4.52741 l -4.6087,5.20468 0.4036,2.41495 c 0.4123,2.46734 0.5731,2.83332 1.7516,3.98759 0.4081,0.3996 0.5356,0.99376 0.3225,1.50219 -0.4351,1.03825 0.291,1.96801 1.153,1.47634 0.5512,-0.31443 1.0386,0.0923 3.6422,3.04009 2.9065,3.29044 2.9951,3.44083 2.6804,4.54244 -0.3151,1.10292 -0.2498,1.21311 2.0446,3.45116 1.8385,1.79326 2.3535,2.48064 2.2957,3.06419 -0.041,0.41381 0.1205,1.15013 0.3588,1.63629 0.5758,1.17473 -0.099,1.86997 -1.7908,1.84534 l -1.3813,-0.0201 -6.0205,-7.08849 c -5.9695,-7.02851 -6.0344,-7.09198 -7.6639,-7.49742 l -1.6435,-0.40889 -15.5206,18.07369 -15.5207,18.07369 0.7413,1.28699 c 0.4077,0.70784 9.6379,11.65566 20.5114,24.32848 10.8736,12.67281 19.851,23.29868 19.9498,23.61303 0.099,0.31435 -0.033,0.81851 -0.2917,1.12039 -0.9999,1.16441 2.1298,4.54222 4.4657,4.81971 1.3783,0.16375 4.5068,2.67992 5.2386,4.21319 0.2211,0.46332 0.9622,1.16069 1.6468,1.54991 l 1.2448,0.70751 3.4485,-3.88492 c 1.8967,-2.13671 4.3436,-4.74791 5.4376,-5.80266 1.094,-1.05476 2.1425,-2.14687 2.3299,-2.42692 0.1874,-0.28004 4.3498,-5.32392 9.2498,-11.2086 9.4245,-11.31838 9.6476,-11.51225 11.1982,-9.73092 0.5989,0.68807 0.8588,0.71983 1.1039,0.13496 0.2087,-0.49789 0.7868,-0.6199 1.6557,-0.34945 l 1.3351,0.41553 -2.0984,-2.82956 c -1.1541,-1.55623 -9.1748,-10.94761 -17.8237,-20.86967 z m -296.1484,389.17654 c -1.4321,-0.36725 -1.4873,-1.35575 -0.2699,-4.83875 l 1.1873,-3.39708 -2.7856,-3.50038 c -4.1024,-5.15503 -5.3601,-6.31202 -6.164,-5.67059 -0.5675,0.45273 -0.9848,0.21594 -2.8892,-1.63937 -2.4865,-2.42236 -3.3151,-4.02538 -2.3619,-4.56908 0.569,-0.32456 0.1702,-0.89255 -4.9519,-7.05203 -3.064,-3.68448 -11.5609,-13.4699 -18.8821,-21.74538 l -13.3113,-15.04633 -1.5547,-0.37156 -1.5546,-0.37157 -4.6574,5.42348 c -4.5839,5.33797 -4.6549,5.45132 -4.5031,7.18948 l 0.1544,1.766 25.9225,29.78053 c 24.3864,28.01576 25.9608,29.76224 26.5685,29.47198 0.3554,-0.1697 1.0174,-0.42232 1.4713,-0.56137 0.4538,-0.13906 1.5671,-1.02156 2.474,-1.96112 1.4411,-1.49316 1.7352,-1.60905 2.3348,-0.92023 0.6051,0.69518 0.491,1.0595 -0.9679,3.091 -1.5604,2.17282 -1.4741,2.11936 1.5283,-0.94615 1.7501,-1.78699 3.3732,-3.40037 3.6067,-3.58529 0.3387,-0.26814 0.2589,-0.37871 -0.3942,-0.54619 z m -25.858,28.69639 c -0.2252,-1.52298 -0.2264,-1.52452 -28.771,-34.33513 -23.6238,-27.15459 -28.6057,-32.74232 -28.8932,-32.40742 -0.1912,0.22257 -0.7245,0.30801 -1.1851,0.18988 -0.6903,-0.17702 -1.6973,0.78635 -5.7254,5.47704 -4.8857,5.68934 -4.8878,5.69261 -4.6763,7.45699 l 0.2115,1.76514 28.3638,32.53378 28.3638,32.53377 1.1763,0.058 c 1.0428,0.051 1.7543,-0.61214 6.2685,-5.8455 4.9506,-5.73927 5.086,-5.94582 4.8671,-7.42652 z m 9.2552,-9.27681 c -0.1271,-0.008 -0.793,0.42 -1.4796,0.95203 -0.8503,0.65876 -1.0197,0.94294 -0.5312,0.89082 0.6534,-0.0697 2.5492,-1.80718 2.0108,-1.84285 z m 30.0388,-35.48907 c -0.1004,-0.31945 0.03,-0.82895 0.2909,-1.13222 0.2716,-0.31632 0.2112,-1.00705 -0.1417,-1.6202 -0.3384,-0.58785 -12.3753,-14.58281 -26.7487,-31.09991 l -26.1335,-30.03108 -1.6543,-0.25202 c -1.5369,-0.23414 -1.8463,-0.0513 -4.3585,2.57474 -2.6991,2.82151 -2.7034,2.83017 -2.3309,4.65835 l 0.3733,1.83159 26.4387,30.39514 26.4387,30.39514 0.487,-0.94794 c 0.4069,-0.79201 0.7094,-0.79984 1.8388,-0.0477 l 1.3518,0.90025 2.1655,-2.52164 c 1.191,-1.38691 2.0833,-2.78302 1.9829,-3.10247 z m 35.0552,-41.91822 c -0.3658,-0.62901 -0.3065,-1.01089 0.2018,-1.30084 0.7977,-0.45496 0.5917,-0.59382 -2.1411,-1.4437 l -1.7141,-0.53304 -25.1264,-28.89665 c -17.5458,-20.17843 -25.5299,-29.15954 -26.4634,-29.76804 l -1.3369,-0.8714 -2.7854,3.28529 c -2.5974,3.0635 -2.7743,3.40457 -2.6207,5.05236 l 0.1647,1.76708 26.3257,30.06009 26.3257,30.0601 1.774,0.55216 1.7739,0.55217 3.07,-3.81259 c 2.7594,-3.42694 3.0176,-3.90266 2.5522,-4.70299 z m 168.8878,-196.96089 c -0.4395,-1.5112 -1.7444,-3.09968 -17.9058,-21.79598 -19.5991,-22.67327 -21.9533,-25.60794 -21.4692,-26.763 0.41,-0.97831 -0.018,-1.47539 -0.8587,-0.99609 -0.5241,0.29894 -1.1128,-0.0911 -2.9819,-1.97575 -1.281,-1.29154 -3.0814,-3.25724 -4.0011,-4.36824 -1.5062,-1.81955 -1.6214,-2.11076 -1.1613,-2.93429 l 0.5107,-0.91426 -0.8691,0.50254 c -0.7575,0.43797 -1.1443,0.24152 -3.0105,-1.52897 -3.3901,-3.21612 -5.3879,-3.66319 -4.4048,-0.98572 0.2245,0.61136 0.2525,1.29283 0.062,1.51441 -0.2746,0.31974 0.5072,1.33262 3.7896,4.90986 6.2946,6.86005 7.195,7.64076 8.3093,7.2052 0.7629,-0.29825 1.1902,-0.0923 2.189,1.05517 0.9378,1.07734 1.1609,1.61697 0.9131,2.20827 -0.1804,0.43041 -0.1554,1.17128 0.055,1.64642 0.5792,1.30514 18.1528,21.6475 20.3721,23.58178 1.065,0.92823 2.238,1.63307 2.6066,1.56638 0.4392,-0.0795 1.2072,0.49569 2.2286,1.66912 1.2701,1.45907 1.4957,1.94048 1.2188,2.60101 -0.2252,0.53744 -0.043,1.1695 0.5399,1.87576 0.4837,0.58581 2.8654,3.39418 5.2926,6.24076 2.8314,3.32054 4.5718,5.63073 4.8558,6.44541 0.2846,0.81664 0.5404,1.15587 0.7168,0.95047 0.1509,-0.17564 0.7932,-0.031 1.4274,0.32144 1.512,0.84025 2.1645,-0.002 1.5743,-2.03161 z m 32.6769,-100.80893 c -26.5539,-30.50588 -27.4188,-31.46465 -28.4781,-31.56561 -1.2212,-0.11646 -1.715,1.23436 -0.9995,2.73385 0.2155,0.4515 9.6906,11.50363 21.0558,24.56032 l 20.664,23.73943 0.5568,-0.71133 c 0.4341,-0.55467 0.7456,-0.49439 1.4142,0.27375 0.662,0.76052 0.7218,1.12977 0.2622,1.61983 -0.5882,0.62724 -0.5333,0.70564 4.6303,6.61439 4.6912,5.36835 5.2543,5.91113 5.508,5.30947 0.1555,-0.36861 0.7502,-0.67339 1.3217,-0.67729 0.5715,-0.004 1.1316,-0.10347 1.2447,-0.22124 0.113,-0.11778 -12.118,-14.37179 -27.1801,-31.67557 z m -260.2109,299.07669 c -23.916,-27.47542 -28.2777,-32.35957 -28.0379,-31.39688 0.1759,0.70581 0.036,1.23585 -0.3675,1.39159 -0.6049,0.23357 1.3426,2.53449 27.2558,32.20175 17.1205,19.60069 28.0856,31.93507 28.3685,31.91104 0.2536,-0.0215 0.6055,-0.38374 0.782,-0.80488 0.3114,-0.74294 -0.5207,-1.73255 -28.0009,-33.30262 z m -7.6102,72.56448 c 1.7801,-2.4826 2.0795,-3.19754 1.9381,-4.62916 l -0.1672,-1.69312 -5.2535,-5.62915 c -2.8894,-3.09604 -14.4073,-16.14596 -25.5954,-28.99983 -18.0629,-20.75235 -20.4822,-23.42424 -21.5937,-23.84887 -1.1781,-0.45005 -1.3925,-0.31378 -3.6428,2.3149 -3.3449,3.9073 -4.0435,5.29018 -3.2482,6.42948 0.3534,0.50618 0.545,1.48381 0.4259,2.17252 -0.1627,0.94025 -0.1002,1.11951 0.2508,0.71959 0.6985,-0.79603 1.925,0.17751 1.9128,1.51843 -0.01,1.1181 0.01,1.13614 0.9868,1.11647 0.5484,-0.011 1.1365,-0.18238 1.3069,-0.38084 0.7735,-0.9007 2.7027,0.54234 6.6779,4.99511 9.5503,10.69768 10.7004,12.15233 10.3222,13.05475 -0.3154,0.75266 -0.066,1.15552 2.7584,4.45829 1.7078,1.99697 3.5223,4.06606 4.0323,4.59798 0.51,0.53192 0.9449,1.40815 0.9664,1.9472 0.056,1.3912 5.4377,7.6039 6.2992,7.27124 0.8627,-0.33309 2.3268,1.55363 2.1471,2.76684 -0.084,0.56443 0.098,1.31346 0.4036,1.6645 0.4939,0.56737 0.5445,0.49465 0.4558,-0.65488 -0.058,-0.75128 0.174,-1.39885 0.5536,-1.54544 0.5375,-0.20753 0.9108,0.11394 2.1039,1.81181 0.7977,1.13525 2.8189,3.80585 4.4916,5.93464 2.2538,2.86852 2.9918,4.0452 2.8508,4.54517 -0.3329,1.17989 -2.0825,0.20365 -4.1443,-2.3124 -1.0509,-1.28238 -2.0934,-2.35943 -2.3167,-2.39346 -0.404,-0.0615 3.1941,4.42168 6.0752,7.56971 1.9734,2.15628 3.7483,2.84767 4.3485,1.69397 0.2485,-0.4775 0.9109,-0.8781 1.4721,-0.89022 0.5611,-0.0121 1.033,-0.16763 1.0485,-0.3456 0.015,-0.17797 0.9756,-1.6448 2.1334,-3.25962 z m 43.1203,-50.50117 c 1.0612,-0.51226 1.4398,-0.96972 1.7194,-2.07752 l 0.3586,-1.42059 -7.5704,-8.74203 c -4.1637,-4.8081 -12.5252,-14.39755 -18.5812,-21.30986 l -11.0109,-12.56785 -0.8136,-2.83728 c -0.6833,-2.38304 -1.0404,-3.03258 -2.23,-4.05718 -0.7791,-0.67094 -2.1254,-1.4456 -2.9919,-1.72146 -1.3255,-0.422 -2.1426,-1.12128 -5.1502,-4.40751 -1.966,-2.14827 -3.8282,-3.94985 -4.1381,-4.00351 -0.3099,-0.0537 -0.8125,-0.38364 -1.1168,-0.73328 -0.478,-0.54904 -0.8993,-0.20736 -3.0911,2.50672 -1.3957,1.72832 -2.5192,3.23768 -2.4965,3.35411 0.023,0.11644 0.3888,0.87804 0.8137,1.69245 0.5519,1.05787 0.6054,1.65728 0.1876,2.09891 l -0.585,0.61817 21.1455,24.29251 21.1454,24.29251 2.0873,0.65623 c 2.0572,0.64678 2.1354,0.71606 5.4357,4.81627 l 3.3484,4.16006 1.0866,-1.97648 c 0.7435,-1.35238 1.5164,-2.18391 2.4475,-2.63339 z m 150.9185,-176.11372 c 2.0138,-2.68442 2.2744,-4.19123 1.032,-5.96607 -0.4932,-0.70459 -0.4756,-1.14074 0.071,-1.7535 0.9053,-1.01532 0.7904,-1.17216 -0.4915,-0.67104 -1.5304,0.59821 -2.1953,-0.85584 -1.2052,-2.63557 1.3944,-2.50656 7.4934,-8.55646 8.1867,-8.12089 0.894,0.56162 1.072,2.17906 0.3459,3.1431 -0.3503,0.46521 0.1259,0.2142 1.0583,-0.55778 0.9325,-0.77201 2.8452,-1.6818 4.2505,-2.02175 2.1782,-0.52695 2.6422,-0.82813 3.1453,-2.04163 0.7639,-1.84264 3.6147,-4.90935 4.5251,-4.86789 0.7318,0.0333 1.7211,-2.17963 2.1696,-4.853 0.3003,-1.78941 2.2237,-3.80752 4.6432,-4.87181 1.8766,-0.82546 2.0695,-1.0228 1.9913,-2.03653 -0.07,-0.90855 -0.514,-1.55311 -2.3288,-3.38203 -1.2331,-1.24276 -2.9915,-3.34658 -3.9074,-4.67521 -2.022,-2.93304 -1.8046,-3.85604 0.8142,-3.45708 1.6399,0.24981 2.0129,0.5131 4.0616,2.8666 1.7764,2.04088 2.3385,2.49519 2.6451,2.13815 0.3323,-0.38696 -0.5582,-1.54182 -6.0799,-7.88531 l -6.4691,-7.43195 -0.4791,0.9324 c -0.2634,0.51281 -0.3992,1.33553 -0.3017,1.82826 0.2178,1.10104 -0.4483,1.94732 -1.4167,1.79979 -1.1393,-0.17356 -21.4114,-23.57864 -21.4592,-24.77561 -0.047,-1.17456 1.5366,-2.06612 2.6857,-1.51225 0.4995,0.24082 1.0794,0.23863 1.2885,-0.005 0.3206,-0.37329 -0.6439,-1.61922 -6.1512,-7.94614 l -6.5313,-7.50341 -2.9157,-0.93107 c -1.6036,-0.51207 -3.4776,-0.87991 -4.1644,-0.81745 -1.9398,0.17651 -5.6832,4.2243 -7.2607,7.8511 -1.211,2.78419 -1.4004,3.01049 -3.7437,4.47169 -1.8931,1.18048 -3.0862,2.36793 -5.1207,5.09637 -3.2308,4.33295 -4.0873,6.17677 -3.4101,7.34123 0.3349,0.57597 0.2448,1.33973 -0.2666,2.25808 -0.9387,1.6859 -1.3222,1.7696 -2.4056,0.52499 -0.659,-0.75706 -0.9721,-0.80475 -1.4708,-0.22405 -0.3484,0.40576 -0.8785,0.63687 -1.178,0.51358 -0.3714,-0.15286 -2.5556,2.17072 -6.8678,7.30602 -3.4778,4.14163 -6.6371,7.63626 -7.0207,7.76583 -0.3835,0.12958 -1.2253,1.05383 -1.8706,2.0539 -0.6453,1.00008 -2.8278,3.70008 -4.8501,6.00003 -2.0222,2.29996 -5.5548,6.48236 -7.8501,9.29424 -2.2953,2.81187 -7.3175,8.66032 -11.1604,12.99655 -8.5353,9.63107 -10.3913,11.79059 -12.5933,14.65264 -0.944,1.22705 -4.4322,5.32531 -7.7515,9.10724 -4.0099,4.56868 -6.1875,7.36059 -6.4891,8.31958 -0.3209,1.02027 -2.0234,3.11231 -5.8082,7.13699 -4.6069,4.89891 -32.3957,36.22119 -37.2565,41.99388 -0.9187,1.09105 -2.6142,3.3312 -3.7676,4.97812 -2.8085,4.00995 -5.9159,7.43133 -6.6479,7.3198 -0.3277,-0.0499 -1.1018,0.49846 -1.7202,1.21862 -0.9174,1.0683 -1.0256,1.51185 -0.5875,2.40913 0.6407,1.31215 2.3872,2.30412 4.489,2.54954 0.8082,0.0944 1.6544,0.38405 1.8804,0.64372 0.2261,0.25968 1.9604,0.90118 3.8541,1.42557 1.8937,0.52438 3.6259,1.16345 3.8493,1.42015 0.2234,0.2567 1.1563,0.45076 2.0729,0.43125 1.8456,-0.0393 3.1464,-1.44964 2.7617,-2.99417 -0.1954,-0.78467 0,-1.03725 1.2775,-1.68892 1.1445,-0.58186 1.4989,-0.97751 1.4723,-1.64407 -0.036,-0.89446 1.3242,-2.29854 3.487,-3.60033 0.9605,-0.57813 1.4028,-0.5279 2.2135,0.25146 0.7251,0.69707 1.1608,0.80201 1.5325,0.36916 0.4053,-0.47195 0.328,-0.73885 -0.3518,-1.21529 -2.0436,-1.43221 -1.8025,-1.84466 6.4844,-11.09192 4.2482,-4.7405 7.9934,-8.92607 8.3226,-9.30125 0.7966,-0.90791 2.059,-0.0861 2.0381,1.3267 -0.015,0.99159 0.083,0.98642 1.043,-0.0551 0.5826,-0.63217 2.4262,-2.41602 4.0968,-3.9641 4.0982,-3.79739 11.0044,-11.93955 12.714,-14.98934 1.1505,-2.05237 1.2565,-2.51477 0.6143,-2.67945 -1.8927,-0.48536 -1.5396,-1.44696 2.3612,-6.43052 2.0881,-2.66764 4.4781,-5.41815 5.3111,-6.11225 1.312,-1.09308 1.6134,-1.14261 2.2521,-0.37003 0.6044,0.73111 1.0217,0.72336 2.3144,-0.043 2.584,-1.53203 3.8216,-2.68874 3.607,-3.37134 -0.116,-0.3693 0.6223,-1.59258 1.7634,-2.92132 1.708,-1.98902 1.8552,-2.31365 1.1326,-2.49895 -1.5975,-0.40966 -1.7068,-1.7012 -0.264,-3.11861 1.1525,-1.13216 1.465,-1.19936 2.3443,-0.50411 0.8789,0.69503 1.1431,0.6384 1.9776,-0.42395 0.7183,-0.9144 0.8726,-1.64887 0.607,-2.88878 -0.1959,-0.91444 -0.1989,-1.84574 -0.01,-2.06953 0.1922,-0.2238 2.2251,-0.18112 4.5177,0.0948 2.2926,0.27596 5.0803,0.26985 6.1951,-0.0136 1.1147,-0.28342 2.623,-0.30044 3.3517,-0.0378 0.7288,0.26261 2.0215,0.60494 2.8727,0.76072 0.8512,0.15578 2.5352,0.73993 3.7422,1.29813 1.9884,0.91955 2.5469,1.42438 5.9459,5.3743 2.0632,2.39767 3.9793,4.86869 4.258,5.49113 1.2956,2.89356 3.249,16.34215 2.7944,19.239 -0.2303,1.46738 -0.8326,2.55458 -2.5408,4.58631 -1.2314,1.46462 -2.3294,3.09941 -2.44,3.63281 -0.1533,0.73939 -0.049,0.6844 0.4406,-0.23142 0.5201,-0.9737 0.9294,-1.14509 2.1604,-0.90475 1.4943,0.29173 1.5549,0.24569 3.7753,-2.86593 2.0817,-2.91721 2.3206,-3.12023 3.0811,-2.61826 0.4535,0.2993 1.4793,0.67454 2.2796,0.83388 0.8003,0.15934 2.1442,0.91526 2.9863,1.67982 1.4249,1.29365 1.5335,1.54571 1.5658,3.63236 0.033,2.14278 -0.058,2.32645 -2.0476,4.13985 -1.1452,1.04367 -3.0232,3.03056 -4.1734,4.4153 l -2.0912,2.51771 -1.9926,-1.05509 c -1.096,-0.5803 -2.1952,-1.28776 -2.4428,-1.57212 -0.2475,-0.28437 -0.5697,-0.37767 -0.716,-0.20732 -0.1463,0.17035 -0.7628,-0.004 -1.3701,-0.38808 -0.6073,-0.38379 -1.2848,-0.4875 -1.5055,-0.23047 -0.2207,0.25703 -0.9429,0.16632 -1.6049,-0.20156 -1.0132,-0.56301 -1.2013,-0.828 -1.1888,-1.67418 0.013,-0.85779 -0.3068,-0.76395 -2.1779,0.63947 -2.7234,2.04285 -4.0442,3.5646 -5.6017,6.4542 l -1.2156,2.25521 1.2662,1.45464 c 1.174,1.34874 1.2134,1.53403 0.541,2.54508 -0.83,1.24793 -2.322,1.71317 -2.9992,0.9352 -0.2533,-0.29102 -0.4303,-1.1023 -0.3934,-1.80284 0.064,-1.21527 -0.021,-1.19558 -1.8477,0.42907 -1.0532,0.93654 -2.4826,2.40156 -3.1764,3.25561 -0.6938,0.85406 -6.3898,7.33534 -12.6577,14.40288 -6.2679,7.06754 -11.3288,13.0645 -11.2464,13.32657 0.082,0.26207 -2.5308,3.41831 -5.807,7.01386 -3.2763,3.59554 -6.7623,7.50336 -7.7467,8.68403 -6.1432,7.36782 -9.1361,10.76085 -10.0792,11.42661 -1.4379,1.01501 -1.1971,3.88182 0.5434,6.47164 1.507,2.24226 2.8783,7.75838 2.4,9.65361 -0.2113,0.83725 -0.094,1.66828 0.2992,2.12006 0.6294,0.72312 1.148,0.14813 19.3479,-21.45282 10.2857,-12.20771 19.4114,-23.00103 20.2795,-23.98515 0.868,-0.98412 14.7043,-16.90313 30.7473,-35.37556 27.3726,-31.51775 29.133,-33.62766 28.5837,-34.25871 -0.3219,-0.36986 -1.1852,-0.78501 -1.9184,-0.92256 -1.288,-0.24164 -1.3595,-0.31454 -2.1119,-2.15413 -0.6464,-1.58034 -0.641,-2.07279 0.031,-2.89656 4.5737,-5.60365 14.2595,-16.29793 15.0359,-16.60143 0.8798,-0.34389 1.1116,-0.20706 2.0899,1.2336 1.9542,2.87796 1.8397,3.24308 -2.6934,8.58425 -2.2293,2.62673 -4.3468,5.18177 -4.7055,5.67784 -0.7915,1.09481 0.025,2.27237 1.0227,1.47511 0.811,-0.64794 6.451,-7.47432 9.1704,-11.09956 z m -32.5542,33.16944 c -1.9113,-0.0721 -2.2416,-0.49636 -2.2122,-2.84161 0.043,-3.46727 0.3502,-4.42803 1.5649,-4.90286 0.6886,-0.26919 1.0947,-0.69869 1.078,-1.14015 -0.015,-0.38954 0.8034,-1.59534 1.818,-2.67954 1.6784,-1.79341 1.992,-1.93231 3.4755,-1.53953 2.0071,0.53139 2.1186,0.64941 2.6888,2.84588 l 0.4594,1.76948 -3.6932,4.27217 c -3.4378,3.97666 -3.796,4.26831 -5.1792,4.21615 z m -40.1723,-38.61337 c -0.8737,-0.27865 -1.8924,-0.85557 -2.2636,-1.28205 -1.1061,-1.27068 -0.8877,-3.81497 0.4636,-5.40238 1.449,-1.70207 1.527,-2.37906 0.4112,-3.56957 -0.647,-0.69043 -0.747,-1.1873 -0.4077,-2.02743 0.2471,-0.61207 4.4123,-5.84757 9.2558,-11.63445 l 8.8064,-10.52159 1.9057,0.29029 c 1.0481,0.15967 2.0606,0.46836 2.25,0.68597 0.8627,0.99103 0.4856,4.95693 -0.6457,6.79189 -0.8859,1.43693 -1.0069,1.97119 -0.5163,2.27939 0.3524,0.22143 0.7298,0.85225 0.8385,1.40203 0.1563,0.79013 -0.3344,1.59248 -2.3426,3.83045 -1.3972,1.55703 -5.6062,6.61842 -9.3535,11.24753 l -6.8131,8.41655 z m -3.5201,1.73722 c -1.5783,-0.32913 -2.0903,-1.59192 -1.109,-2.73471 0.8852,-1.03073 2.0638,-0.59925 2.5328,0.92722 0.4273,1.39059 -0.1159,2.08023 -1.4238,1.80749 z m 26.9014,-36.11392 c -0.8707,-0.27763 -1.7499,-0.69648 -1.9538,-0.93075 -0.563,-0.64684 -1.3054,-4.03388 -0.9698,-4.42468 0.4481,-0.52182 2.9306,0.0727 3.6225,0.86758 0.7852,0.90204 1.628,4.12628 1.2069,4.61672 -0.1776,0.2068 -1.0352,0.14879 -1.9058,-0.12887 z m 10.89,-10.8731 c -0.43,0.28731 -1.1231,0.26067 -1.5402,-0.0592 -0.4172,-0.31984 -1.0052,-0.48627 -1.3067,-0.36985 -0.3015,0.11642 -0.9289,-0.22562 -1.3941,-0.76011 -1.4837,-1.70453 -2.0546,-3.40991 -1.6093,-4.80805 0.2364,-0.74262 0.2596,-1.54578 0.052,-1.78483 -1.0202,-1.17195 0.3803,-3.47156 6.5172,-10.70173 l 6.1394,-7.23313 1.8773,0.38186 c 2.3148,0.47079 2.6048,0.79254 2.9781,3.30463 0.2079,1.39881 0.015,2.48964 -0.6419,3.63033 -0.6918,1.20109 -0.8051,1.93898 -0.4301,2.80116 0.382,0.87824 0.2554,1.62862 -0.5071,3.00512 -1.1791,2.12871 -8.9795,11.82216 -10.1342,12.59376 z m 21.6493,-31.61029 c -2.333,2.50084 -2.9048,2.90494 -3.5337,2.49707 -0.4127,-0.26763 -1.3321,-0.66062 -2.0432,-0.87329 -1.6263,-0.48639 -2.318,-1.26449 -2.0158,-2.26778 0.3555,-1.18037 0.1541,-4.35452 -0.3594,-5.66399 -0.6318,-1.61137 0.7156,-3.16928 2.0709,-2.39426 0.628,0.35915 1.7228,0.23247 3.0243,-0.3499 2.0793,-0.93041 4.7272,-0.68433 5.7914,0.53825 0.7907,0.90844 1.0721,4.47805 0.3987,5.05734 -0.3025,0.26014 -1.8024,1.8156 -3.3333,3.45664 z m -10.1761,-2.37658 c -1.8443,0.39063 -2.4834,-0.935 -1.1816,-2.45098 0.9755,-1.13597 1.0932,-1.13758 2.0589,-0.0281 1.1969,1.37502 0.9426,2.09367 -0.8773,2.47911 z m 5.0914,-8.96259 c -0.9768,-0.6137 -1.0525,-1.74367 -0.1644,-2.45428 0.489,-0.39121 0.9544,-0.32374 1.4147,0.20504 0.8962,1.02955 -0.1619,2.933 -1.2503,2.24924 z m -15.1341,16.83563 c -0.3995,-0.25096 -0.7664,-0.79017 -0.8153,-1.19824 -0.1271,-1.06084 1.0998,-1.38465 1.7053,-0.45006 0.6745,1.04099 0.033,2.22837 -0.89,1.6483 z m -103.85,240.6371 0.5967,-1.19077 -25.9642,-29.82843 -25.9642,-29.82842 -1.2852,-0.12549 c -0.7068,-0.069 -1.8841,0.34147 -2.6163,0.9122 -1.1075,0.86338 -1.2533,1.18238 -0.8676,1.89904 0.2549,0.47373 0.6159,1.21939 0.8023,1.657 0.1863,0.43762 11.9659,14.01827 26.177,30.17923 l 25.8383,29.38355 0.8873,-0.4817 c 1.2095,-0.65666 1.6962,-1.17995 2.3959,-2.57621 z m 128.1246,-150.68819 c -0.2858,-0.32836 -0.7452,-0.32238 -1.0336,0.0134 -0.2883,0.33582 -0.2904,0.86717 0,1.19552 0.2858,0.32836 0.7452,0.32239 1.0336,-0.0134 0.2884,-0.33582 0.2904,-0.86717 0,-1.19553 z m 105.3544,-123.49672 c -0.3426,-1.39036 -1.9317,-3.27121 -25.8588,-30.60787 l -25.4937,-29.12647 -1.1482,-0.0358 c -1.0394,-0.0325 -1.8787,0.8319 -8.8659,9.1317 -4.2448,5.04215 -7.8581,9.56519 -8.0295,10.05123 -0.1714,0.48602 -0.5793,0.91626 -0.9065,0.95613 -0.3272,0.0398 -3.1662,3.1977 -6.3088,7.01749 -3.1427,3.81979 -5.9583,7.20468 -6.257,7.52197 -0.2987,0.3173 -3.5086,3.93213 -7.133,8.03295 -6.5827,7.44793 -6.5899,7.45811 -6.6091,9.36902 l -0.019,1.91299 25.2632,29.02313 c 23.6288,27.14546 25.327,29.02847 26.2497,29.10564 0.5425,0.0454 1.2965,-0.10161 1.6755,-0.32667 0.379,-0.22505 10.3904,-11.68952 22.2477,-25.4766 l 21.5585,-25.06741 -0.3649,-1.4814 z M 1985.975,864.96103 c -0.1004,-0.31946 0.1067,-0.91761 0.4601,-1.32923 0.7058,-0.82185 0.9205,-2.65498 0.6391,-5.45508 -0.1007,-1.00112 -0.073,-2.54134 0.061,-3.42273 0.1341,-0.88139 -0.071,-2.69349 -0.4549,-4.02689 -0.5731,-1.98833 -0.8496,-2.46305 -1.5373,-2.6394 -0.4612,-0.11826 -1.0868,-0.64192 -1.3903,-1.16369 -0.4877,-0.83878 -0.6785,-0.80098 -1.6466,0.32637 -1.2717,1.4809 -2.052,4.88894 -1.4776,6.45335 0.4913,1.33786 -0.3918,3.64774 -2.2033,5.76304 -1.1127,1.29962 -1.6524,1.56007 -2.8515,1.3774 -0.8134,-0.12392 -1.6403,-0.41068 -1.8375,-0.63724 -0.1972,-0.22657 -0.7214,0.0106 -1.165,0.52712 -0.6287,0.73212 -0.6521,1.03598 -0.1063,1.37887 0.385,0.2419 1.5799,1.43907 2.6552,2.66038 1.761,2.00002 2.1996,2.27556 4.4154,2.77428 3.1557,0.71024 6.9917,-0.83053 6.4397,-2.58655 z m -10.021,-0.62346 c -0.3995,-0.25098 -0.7664,-0.79019 -0.8153,-1.19824 -0.1271,-1.06085 1.0998,-1.38466 1.7053,-0.45008 0.6744,1.041 0.033,2.22839 -0.89,1.64832 z m 151.3264,-223.40868 c -22.4103,-25.74561 -25.3925,-29.06658 -25.5621,-28.46577 -0.1526,0.54115 0.5173,1.49926 3.2777,4.68777 48.7694,56.33341 46.7199,54.01246 47.2003,53.4529 0.4285,-0.49901 -0.9826,-2.17958 -24.9159,-29.6749 z m -69.2796,124.14098 c -0.3564,-0.21785 -0.3367,-0.0529 0.05,0.42067 0.3503,0.42849 0.6143,0.58978 0.5865,0.35842 -0.028,-0.23137 -0.3143,-0.58196 -0.6369,-0.77907 z m -1.9907,-2.17032 c -0.1334,-0.0203 -0.3441,0.32322 -0.4683,0.76344 -0.1898,0.67257 -0.117,0.78682 0.4558,0.71549 0.6279,-0.0782 0.639,-1.38349 0.012,-1.47893 z m -84.655,85.3086 c -0.072,-0.60178 -0.1365,-1.15164 -0.143,-1.22191 -0.01,-0.0703 -2.6476,-3.30694 -5.8689,-7.19259 -5.7477,-6.93317 -5.8464,-7.07741 -5.297,-7.74059 0.3079,-0.37167 0.5354,-0.8796 0.5056,-1.12873 -0.03,-0.24913 -1.5441,-2.14858 -3.3649,-4.22099 -3.2256,-3.6713 -3.3582,-3.77528 -5.1642,-4.05041 -1.7575,-0.26773 -4.6717,0.94486 -4.559,1.89695 0.081,0.68698 20.3635,24.4232 21.6485,25.33508 1.3412,0.95187 2.4579,0.11706 2.2429,-1.67681 z m 20.1046,-23.89003 c -0.1447,-1.55296 -0.1649,-1.57913 -9.4979,-12.3011 -10.9602,-12.59143 -10.2703,-12.14673 -13.3253,-8.58919 -1.4833,1.72723 -1.6449,2.10558 -1.0572,2.47478 0.3815,0.23971 0.9252,1.06655 1.2083,1.83728 0.4514,1.22923 0.6099,1.38421 1.2897,1.26115 0.4262,-0.0772 1.0532,0.17929 1.3932,0.56991 0.34,0.39062 1.4317,0.97616 2.4259,1.3012 0.9942,0.32504 2.3293,0.87615 2.9668,1.22469 1.5018,0.82098 4.2303,3.62845 4.1723,4.29313 -0.025,0.2835 0.2461,0.84974 0.6017,1.25833 0.3557,0.40858 0.8258,1.89305 1.0448,3.29882 0.219,1.40577 0.7223,2.92966 1.1185,3.38643 0.3961,0.45687 0.8447,1.64881 0.9967,2.64899 0.152,1.00019 0.3989,1.95922 0.5485,2.13118 0.6168,0.70857 2.3401,0.43413 3.4426,-0.54824 2.5461,-2.26876 2.8159,-2.69763 2.6714,-4.24736 z m 20.3896,-23.40697 c -0.2415,-0.48242 -0.5215,-1.31694 -0.6223,-1.85448 -0.1401,-0.74771 -2.3431,-3.43351 -9.3759,-11.43055 -5.0559,-5.74926 -9.3937,-10.48376 -9.6393,-10.52111 -0.2457,-0.0373 -4.0147,3.93592 -8.3756,8.8295 -7.5643,8.48822 -7.9309,8.97163 -7.9714,10.51101 l -0.042,1.6136 9.361,10.70426 9.3611,10.70427 1.2645,0.002 c 1.1651,10e-4 1.8621,-0.69304 8.872,-8.83968 7.0136,-8.15112 7.5732,-8.90975 7.1683,-9.7184 z m 28.1861,-33.40461 -0.1164,-1.78489 -9.028,-10.35272 -9.0279,-10.35273 -1.3733,0.0393 c -1.2556,0.0359 -1.7748,0.51601 -6.0585,5.60188 -4.0927,4.85903 -4.691,5.75299 -4.7301,7.06805 l -0.045,1.50546 9.1683,10.23806 c 7.8965,8.81778 9.3154,10.26872 10.2283,10.45909 1.3891,0.28969 1.9427,-0.17901 6.9056,-5.84733 4.0841,-4.6645 4.1903,-4.83577 4.0769,-6.57417 z m 14.0811,-15.9221 c -0.2587,-1.82309 -0.02,-5.62227 0.3826,-6.09115 0.5746,-0.66911 -0.7373,-8.89986 -1.5713,-9.85794 -0.1933,-0.22204 -0.3684,-0.82846 -0.3891,-1.3476 -0.055,-1.38339 -1.5395,-2.86847 -3.447,-3.44866 -0.9195,-0.27966 -2.4175,-0.88968 -3.3291,-1.35559 -2.5017,-1.27876 -5.3235,-1.63822 -7.7285,-0.98452 -1.1883,0.32297 -2.7892,0.51863 -3.5577,0.43479 -1.3285,-0.14493 -1.5634,0.0542 -4.778,4.05041 -3.0529,3.79522 -3.3678,4.35431 -3.2469,5.76457 0.1123,1.30971 0.3857,1.79684 1.6941,3.01868 1.1724,1.09475 1.8254,2.1095 2.6269,4.08189 2.5318,6.23032 3.6362,7.60344 6.9111,8.59329 1.5076,0.45566 2.1366,0.95691 4.2812,3.41192 2.4394,2.79233 2.5618,2.87523 4.1211,2.79156 1.462,-0.0784 1.9054,-0.43352 4.9099,-3.9323 2.8981,-3.37481 3.2805,-4.00329 3.1207,-5.12935 z m -77.7882,85.23245 1.2224,-0.93014 -1.914,-2.6252 c -1.4564,-1.99748 -2.066,-2.60627 -2.5496,-2.54605 -0.3923,0.0489 -0.5354,0.36445 -0.3739,0.82451 0.3616,1.02975 -0.3166,3.49406 -1.0383,3.7727 -0.3497,0.13503 -0.4039,0.4473 -0.132,0.7597 0.2539,0.29174 0.4782,0.94297 0.4983,1.44717 0.032,0.78909 0.3236,1.02495 2.0983,1.69388 1.9603,0.73887 2.0349,0.7219 1.5142,-0.34464 -0.4782,-0.97944 -0.3926,-1.2398 0.6746,-2.05193 z m 42.8939,-52.24278 c -0.2579,-0.29629 -0.4499,-1.10945 -0.4266,-1.80702 l 0.042,-1.26831 -1.487,-0.27898 c -1.1324,-0.21243 -2.009,-0.81593 -3.6752,-2.53011 -2,-2.05746 -2.2468,-2.47991 -2.8696,-4.91002 -0.3747,-1.46238 -0.9171,-2.92972 -1.2052,-3.26075 -0.2882,-0.33104 -0.5014,-0.86045 -0.4739,-1.17646 0.084,-0.96366 -0.8876,-1.28525 -1.5628,-0.51726 -0.5364,0.61013 -0.7824,0.53732 -1.5637,-0.46284 -0.8817,-1.12874 -0.9563,-1.12613 -1.5218,0.053 -0.3271,0.68192 -1.2131,2.14464 -1.969,3.25049 -1.0699,1.56527 -1.3187,2.37666 -1.1232,3.66308 0.239,1.57268 0.5115,1.95154 5.6449,7.84896 4.5038,5.17404 5.6062,6.2729 6.681,6.65936 1.8412,0.66207 1.8004,0.68407 3.9872,-2.14664 1.4812,-1.91736 1.8713,-2.71578 1.5225,-3.11646 z m -41.1714,42.76359 c -1.3524,-1.55366 -2.3791,-3.13933 -2.9496,-4.55544 -0.8667,-2.1511 -0.8916,-2.17977 -2.5663,-2.94818 -1.3393,-0.61454 -2.358,-1.54216 -4.897,-4.45903 -2.3264,-2.67266 -3.4145,-3.69256 -3.9662,-3.71768 -0.6413,-0.0292 -0.1256,0.75314 3.2924,4.995 2.229,2.76628 5.8977,7.07632 8.1526,9.57785 3.6362,4.03378 4.1513,4.48844 4.5543,4.01948 0.3826,-0.44533 0.1269,-0.90489 -1.6202,-2.912 z m 139.9493,-172.45317 c -4.0396,-4.64081 -4.8636,-5.44447 -5.1911,-5.06307 -0.3275,0.3814 0.3729,1.32898 4.4125,5.9698 4.0396,4.64081 4.8636,5.44447 5.1911,5.06307 0.3275,-0.3814 -0.3729,-1.32899 -4.4125,-5.9698 z M 1838.2673,977.7735 c -0.727,-0.8542 -1.8363,-2.02497 -2.4652,-2.60177 -0.6289,-0.57681 -1.2452,-1.14358 -1.3694,-1.2595 -0.1243,-0.11591 -0.6421,-0.0833 -1.1507,0.0726 -0.7039,0.21567 -0.9774,0.69474 -1.1448,2.00534 -0.256,2.00273 -0.8404,2.83713 -1.8767,2.67923 -0.565,-0.086 -0.7579,0.1264 -0.8223,0.9055 -0.053,0.6387 -1.4017,2.5614 -3.6212,5.1616 -3.2862,3.8498 -3.5347,4.2696 -3.5047,5.9185 0.042,2.282 1.1042,3.5193 3.2565,3.7917 l 1.7155,0.217 4.1801,-5.0019 c 3.2026,-3.8322 4.4286,-5.031 5.2421,-5.1262 0.8675,-0.1014 1.0821,-0.3314 1.1719,-1.2563 0.095,-0.9753 0.2669,-1.0875 1.2432,-0.8099 l 1.1334,0.3223 -0.3329,-1.7326 c -0.2152,-1.1194 -0.8008,-2.2822 -1.6548,-3.2856 z m 124.719,-158.04594 c 0.6691,-0.38163 0.6115,-0.58808 -0.5294,-1.89874 -0.9113,-1.04693 -1.6863,-1.518 -2.6906,-1.63526 -1.3878,-0.16206 -1.4109,-0.14057 -1.4351,1.33452 -0.029,1.7919 1.3122,3.55667 3.1293,4.11673 1.0778,0.33217 1.2106,0.25929 1.0082,-0.55325 -0.1424,-0.57175 0.059,-1.10239 0.5176,-1.364 z m -13.1106,-9.89418 c -0.3512,-1.39713 -0.4456,-1.50598 -1.8548,-2.13784 -0.8167,-0.36616 -1.8982,-0.54379 -2.4033,-0.39473 -0.5051,0.14906 -1.5483,0.0304 -2.3182,-0.26377 -0.77,-0.29413 -2.4516,-0.6582 -3.737,-0.80904 l -2.3372,-0.27424 -2.5122,3.4183 c -3.2424,4.41195 -3.3489,5.55154 -0.7678,8.21903 1.3589,1.40436 1.8231,1.6872 1.9619,1.19541 0.1,-0.35432 0.4909,-0.63013 0.8688,-0.61294 0.378,0.0172 1.3167,-0.58963 2.086,-1.34853 1.2713,-1.25404 1.4875,-1.29451 2.3717,-0.44387 1.2474,1.2 3.2524,0.28454 5.9372,-2.71078 1.0467,-1.16777 2.1035,-2.09269 2.3484,-2.05538 0.6939,0.10572 0.7546,-0.1978 0.3565,-1.78162 z M 1817.995,948.86572 c -0.4163,-0.31918 -0.7806,-1.15271 -0.84,-1.92184 -0.131,-1.69792 -0.2977,-1.88383 -2.4118,-2.69098 l -1.7176,-0.6558 -7.594,8.87138 c -7.2138,8.4272 -7.5623,8.90788 -6.9593,9.60062 0.3615,0.4153 0.4958,1.21577 0.3119,1.85938 -0.4096,1.43382 -0.025,1.8569 2.2636,2.49302 l 1.8468,0.51323 7.5709,-8.72361 c 4.164,-4.79796 7.699,-8.70409 7.8556,-8.68024 0.506,0.0771 0.424,-0.0901 -0.3261,-0.66516 z m -12.3796,-8.95915 c -0.4358,-0.47441 -1.0245,-0.84111 -1.3082,-0.81488 -0.2837,0.0262 -1.4966,1.40224 -2.6953,3.05779 -2.09,2.88646 -2.1464,3.04816 -1.3728,3.93685 0.7948,0.91317 0.846,0.88099 3.4876,-2.19522 2.6134,-3.04321 2.661,-3.14373 1.8887,-3.98454 z m 74.4433,-88.46882 c -0.3995,-0.25097 -0.7663,-0.79018 -0.8152,-1.19824 -0.1272,-1.06085 1.0997,-1.38466 1.7052,-0.45007 0.6745,1.04099 0.033,2.22839 -0.89,1.64831 z m 23.0874,-26.90721 c -1.1078,-0.69595 -0.9883,-1.49859 0.4512,-3.03099 1.2231,-1.30195 1.5153,-1.40235 2.1061,-0.72363 0.592,0.68013 0.5058,1.01755 -0.6296,2.46362 -0.9238,1.17656 -1.4979,1.56103 -1.9277,1.291 z m 6.2397,-7.24709 c -0.3985,-0.25039 -0.7632,-0.77691 -0.8103,-1.17003 -0.136,-1.135 1.0477,-1.64174 1.8044,-0.77244 0.8725,1.00228 0.054,2.60108 -0.9941,1.94247 z m 2.0764,-2.41793 c -0.3985,-0.25039 -0.7632,-0.77691 -0.8103,-1.17003 -0.136,-1.135 1.0477,-1.64174 1.8044,-0.77244 0.8724,1.00228 0.054,2.60108 -0.9941,1.94247 z m 7.5286,-8.76393 c -0.3995,-0.25099 -0.7664,-0.79019 -0.8153,-1.19825 -0.1271,-1.06085 1.0998,-1.38466 1.7053,-0.45007 0.6744,1.04099 0.033,2.22838 -0.8901,1.64831 z"
       id="path22" />
  </g>
</svg>
