<?xml version="1.0" encoding="UTF-8" standalone="no"?>
<svg
   xmlns:dc="http://purl.org/dc/elements/1.1/"
   xmlns:cc="http://creativecommons.org/ns#"
   xmlns:rdf="http://www.w3.org/1999/02/22-rdf-syntax-ns#"
   xmlns:svg="http://www.w3.org/2000/svg"
   xmlns="http://www.w3.org/2000/svg"
   xmlns:sodipodi="http://sodipodi.sourceforge.net/DTD/sodipodi-0.dtd"
   xmlns:inkscape="http://www.inkscape.org/namespaces/inkscape"
   width="210mm"
   height="297mm"
   viewBox="0 0 210 297"
   version="1.1"
   id="svg8"
   inkscape:version="1.0.2-2 (e86c870879, 2021-01-15)"
   sodipodi:docname="shotty.svg">
  <defs
     id="defs2" />
  <sodipodi:namedview
     id="base"
     pagecolor="#ffffff"
     bordercolor="#666666"
     borderopacity="1.0"
     inkscape:pageopacity="0.0"
     inkscape:pageshadow="2"
     inkscape:zoom="0.35"
     inkscape:cx="400"
     inkscape:cy="306.23989"
     inkscape:document-units="mm"
     inkscape:current-layer="g24"
     inkscape:document-rotation="0"
     showgrid="false"
     inkscape:window-width="1280"
     inkscape:window-height="668"
     inkscape:window-x="-6"
     inkscape:window-y="-6"
     inkscape:window-maximized="1" />
  <metadata
     id="metadata5">
    <rdf:RDF>
      <cc:Work
         rdf:about="">
        <dc:format>image/svg+xml</dc:format>
        <dc:type
           rdf:resource="http://purl.org/dc/dcmitype/StillImage" />
        <dc:title></dc:title>
      </cc:Work>
    </rdf:RDF>
  </metadata>
  <g
     inkscape:label="Layer 1"
     inkscape:groupmode="layer"
     id="layer1">
    <g
       id="g24"
       transform="matrix(-0.60157592,0.4519907,0.42380908,0.64157833,151.83136,-72.433741)"
       style="fill:#ffffff">
      <path
         style="fill:#ffffff;fill-opacity:1;stroke-width:0.352778"
         d="m 78.871172,106.09461 c 2.182812,-0.0619 5.754687,-0.0619 7.9375,0 2.182812,0.0619 0.396875,0.11254 -3.96875,0.11254 -4.365625,0 -6.151562,-0.0506 -3.96875,-0.11254 z"
         id="path38" />
      <path
         style="fill:#ffffff;fill-opacity:1;stroke-width:0.352778"
         d="m -101.31007,101.94825 c 0,-0.87313 0.15875,-1.5875 0.35278,-1.5875 0.19403,0 0.35278,0.71437 0.35278,1.5875 0,0.87312 -0.15875,1.58749 -0.35278,1.58749 -0.19403,0 -0.35278,-0.71437 -0.35278,-1.58749 z"
         id="path36" />
      <path
         style="fill:#ffffff;fill-opacity:1;stroke-width:0.352778"
         d="m 107.09339,123.02795 c 2.18282,-0.0619 5.75469,-0.0619 7.9375,0 2.18282,0.0619 0.39688,0.11253 -3.96875,0.11253 -4.36562,0 -6.15156,-0.0506 -3.96875,-0.11253 z m 20.81389,-0.35062 c 1.21267,-0.0689 3.19705,-0.0689 4.40972,0 1.21268,0.0689 0.22049,0.12525 -2.20486,0.12525 -2.42535,0 -3.41753,-0.0564 -2.20486,-0.12525 z M 49.590618,106.09402 c 3.152951,-0.0585 8.312326,-0.0585 11.465277,0 3.152951,0.0585 0.573264,0.1063 -5.732639,0.1063 -6.305902,0 -8.88559,-0.0478 -5.732638,-0.1063 z"
         id="path34" />
      <path
         style="fill:#ffffff;fill-opacity:1;stroke-width:0.352778"
         d="m 82.663533,106.00519 -8.113889,-0.19641 8.004874,-0.0782 c 5.042157,-0.0492 8.085571,0.0524 8.222904,0.2746 0.119916,0.19403 0.168973,0.31759 0.109015,0.27459 -0.05996,-0.043 -3.760265,-0.16656 -8.222904,-0.27459 z"
         id="path32" />
      <path
         style="fill:#ffffff;fill-opacity:1;stroke-width:0.352778"
         d="m 73.491311,105.60035 c 1.698477,-0.23004 18.018463,-0.32106 16.580555,-0.0925 -0.388056,0.0617 -4.674305,0.16148 -9.525,0.22177 -4.850694,0.0603 -8.025694,0.002 -7.055555,-0.12931 z"
         id="path30" />
      <path
         style="fill:#ffffff;fill-opacity:1;stroke-width:0.352778"
         d="m 107.26978,122.6748 c 2.66788,-0.0599 7.03351,-0.0599 9.70139,0 2.66788,0.0599 0.48507,0.10896 -4.85069,0.10896 -5.33577,0 -7.51858,-0.049 -4.8507,-0.10896 z M 80.370478,110.23852 c 0,-0.22001 2.057869,-0.35278 5.468055,-0.35278 3.410186,0 5.468055,0.13277 5.468055,0.35278 0,0.22002 -2.057869,0.35278 -5.468055,0.35278 -3.410186,0 -5.468055,-0.13276 -5.468055,-0.35278 z M 43.68159,105.63557 c 0,-0.25126 3.670117,-0.35099 11.460533,-0.31142 6.519213,0.0331 11.377548,0.19248 11.268067,0.36962 -0.284843,0.46089 -22.7286,0.40341 -22.7286,-0.0582 z"
         id="path28" />
      <path
         style="fill:#ffffff;fill-opacity:1;stroke-width:0.279306"
         d="m 343.20437,190.3486 c -0.49489,-0.2142 -1.12344,-0.37914 -1.39676,-0.36654 -0.58222,0.0269 -4.90132,-1.21308 -5.10576,-1.46578 -0.15773,-0.19496 -1.11557,-0.43403 -3.3523,-0.83672 -0.84516,-0.15216 -1.82698,-0.46605 -2.18182,-0.69754 -0.35484,-0.23148 -1.2348,-0.46459 -1.95545,-0.51802 -1.30735,-0.0969 -3.84744,-0.82946 -4.38951,-1.26589 -0.15733,-0.12667 -0.96568,-0.31921 -1.79633,-0.42784 -0.83062,-0.10865 -1.83316,-0.36544 -2.22785,-0.57065 -0.39466,-0.20521 -1.05296,-0.37331 -1.46288,-0.37355 -0.40987,9e-5 -0.78699,-0.10265 -0.83803,-0.22758 -0.051,-0.12493 -2.10418,-0.69966 -4.56259,-1.27718 -2.45841,-0.57752 -4.86584,-1.22473 -5.34983,-1.43825 -0.48403,-0.21352 -1.05596,-0.38792 -1.27096,-0.38756 -0.21504,4.5e-4 -0.52712,-0.13529 -0.69348,-0.30147 -0.16639,-0.16618 -1.07154,-0.37048 -2.01146,-0.45399 -0.93993,-0.0835 -1.70873,-0.27345 -1.70847,-0.42208 -6e-5,-0.14862 -0.18468,-0.199 -0.41094,-0.11194 -0.22626,0.087 -0.57926,-0.01 -0.78444,-0.21429 -0.20517,-0.20492 -1.1516,-0.46151 -2.10319,-0.57019 -0.9516,-0.10868 -1.72997,-0.30199 -1.72975,-0.42955 9e-5,-0.12756 -0.72249,-0.37881 -1.60603,-0.55833 -0.88354,-0.17952 -1.73203,-0.4246 -1.88553,-0.5446 -0.15351,-0.12 -0.78476,-0.27392 -1.40273,-0.34203 -0.61801,-0.0681 -1.37229,-0.248 -1.67619,-0.39974 -0.30392,-0.15175 -1.58971,-0.5039 -2.85736,-0.78256 -1.26766,-0.27865 -2.30467,-0.59552 -2.30449,-0.70416 1.9e-4,-0.10863 -0.64801,-0.28231 -1.44043,-0.38595 -0.79242,-0.10365 -1.79182,-0.36932 -2.22091,-0.5904 -0.42909,-0.22106 -1.15629,-0.4013 -1.61598,-0.4005 -0.45972,7e-4 -0.91335,-0.12403 -1.00808,-0.27739 -0.0947,-0.15337 -0.59756,-0.27811 -1.11743,-0.27721 -0.51986,0.001 -1.0227,-0.12385 -1.11743,-0.27719 -0.0947,-0.15337 -0.40588,-0.27844 -0.69142,-0.27795 -0.28554,9.3e-4 -0.56609,-0.1403 -0.62343,-0.31289 -0.0888,-0.26719 -3.58601,-0.40108 -6.20117,-0.23742 -0.62849,0.0393 -2.08036,0.75949 -2.62217,1.30065 -0.21101,0.21074 -0.54808,0.38345 -0.74902,0.38379 -0.44708,7.9e-4 -3.02036,2.42478 -3.469,3.26781 -0.17872,0.33583 -0.76531,0.77032 -1.30356,0.96551 -0.53823,0.19519 -0.97872,0.42774 -0.97887,0.51679 -10e-4,0.51332 -3.93302,0.29247 -5.07648,-0.28513 -1.43435,-0.72452 -1.61893,-0.96168 -1.62263,-2.0848 -0.002,-0.46824 -0.10849,-0.9705 -0.23763,-1.11612 -0.12918,-0.14563 -0.46073,-1.14366 -0.73681,-2.21784 -0.45715,-1.77861 -1.31555,-3.4836 -1.8722,-3.71854 -0.12073,-0.051 -0.21924,-0.26836 -0.21887,-0.48309 4.5e-4,-0.21472 -0.71154,-1.0509 -1.58207,-1.85815 -0.87049,-0.80726 -1.94341,-1.82266 -2.38421,-2.25643 -0.92141,-0.90671 -4.55416,-2.77681 -6.26859,-3.22701 -0.64022,-0.16811 -1.52002,-0.49066 -1.95511,-0.71677 -0.43513,-0.22611 -1.05396,-0.41143 -1.37522,-0.41183 -0.32128,-2.6e-4 -1.57848,-0.26311 -2.79377,-0.58382 -2.81927,-0.74399 -4.28557,-1.05302 -5.06258,-1.06697 -0.91971,-0.0165 -1.82267,1.08035 -1.68468,2.04642 0.29411,2.05908 -1.32896,4.934 -3.31812,5.87733 l -1.58494,0.75162 -7.85845,-0.0229 c -4.67082,-0.0136 -8.08692,-0.13722 -8.4217,-0.30469 -1.11162,-0.55611 -2.92612,-2.78084 -3.22048,-3.9486 -0.16024,-0.63567 -0.58456,-1.7833 -0.94293,-2.55029 -0.35839,-0.767 -0.8092,-1.80787 -1.00184,-2.31305 l -0.35024,-0.9185 -16.7064,0.11055 -16.70638,0.11055 -0.61094,-0.69677 c -0.33601,-0.38323 -0.7198,-0.97922 -0.85287,-1.32442 l -0.24193,-0.62763 -7.93407,0.0137 -7.93409,0.0137 -0.16961,1.22086 c -0.20294,1.4607 -0.74097,2.72811 -1.07162,2.52436 -0.13109,-0.0808 -0.23857,-0.0281 -0.23881,0.11705 3e-5,0.14516 -0.40937,0.36394 -0.90915,0.48618 -1.05288,0.25751 -68.246463,0.62353 -69.980093,0.3812 -1.85288,-0.259 -3.16311,-1.70863 -3.06123,-3.38691 l 0.079,-1.30217 -18.537798,0.22505 -18.537793,0.22505 0.0085,-4.89356 0.0085,-4.89355 3.633227,-0.006 c 3.043218,-0.005 3.633345,-0.0742 3.633952,-0.42498 6.52e-4,-0.36752 -2.048788,-0.41515 -16.768018,-0.38973 l -16.768745,0.0289 0.0075,-4.32657 0.0075,-4.32659 40.594347,-0.0789 c 137.262911,-0.26691 169.859731,-0.26907 171.948971,-0.0113 4.98723,0.61539 9.62533,1.44635 10.26169,1.83846 0.18222,0.1123 0.63714,0.2362 1.01094,0.27537 0.37379,0.0391 0.88195,0.15933 1.12926,0.26704 0.24733,0.1077 0.62792,0.23134 0.84582,0.27473 0.21791,0.0434 0.72052,0.30864 1.1169,0.58943 0.39639,0.28079 1.47479,0.81345 2.39643,1.1837 0.92163,0.37024 1.84159,0.83722 2.04437,1.03774 0.20278,0.20053 0.61124,0.36417 0.90768,0.36365 0.29644,-8.5e-4 0.53881,0.11107 0.53857,0.24795 -2e-5,0.13688 0.31385,0.32714 0.69796,0.42281 0.38412,0.0957 0.69819,0.29717 0.69793,0.44776 7e-5,0.1506 0.21961,0.2739 0.48862,0.27401 0.59651,2.2e-4 2.35943,1.03394 2.66622,1.56337 0.12255,0.21149 0.52188,0.38402 0.88736,0.38339 0.36549,-3.9e-4 0.89452,0.29112 1.17561,0.64833 0.2811,0.35722 0.64498,0.60471 0.80858,0.54998 0.16366,-0.0547 0.73791,0.19856 1.27614,0.56286 0.53824,0.3643 1.65965,1.03838 2.492,1.49793 2.44891,1.35207 3.73714,2.12883 3.89207,2.34676 0.70492,0.99175 2.86488,0.96832 4.36964,-0.0474 0.68407,-0.46174 1.36494,-0.83975 1.51303,-0.84 0.1481,5e-5 0.48785,-0.1147 0.75501,-0.25431 1.56965,-0.8203 3.43756,-0.85871 41.87816,-0.86125 42.72929,-0.003 39.40354,-0.12421 41.1115,1.50117 1.19211,1.13456 1.39281,4.57406 0.52273,8.95941 -0.66624,3.35808 -0.86494,5.34288 -1.01287,10.11775 -0.1166,3.76299 -0.0769,5.54624 0.12505,5.62302 0.26861,0.10209 0.81781,3.06382 1.09251,5.89171 0.0596,0.61399 0.22143,1.93262 0.35956,2.93028 0.39741,2.87036 0.0553,4.83861 -1.03658,5.96364 -1.45485,1.49901 -4.15835,2.01767 -6.1112,1.17242 z m 3.23315,-2.1418 c 0.0515,-0.13333 0.22669,-0.24263 0.38941,-0.24291 0.60837,-6.5e-4 1.89632,-1.67265 1.88243,-2.44313 -0.0148,-0.80195 -0.56832,-4.22211 -1.07367,-6.63011 -0.76842,-3.66165 -0.58354,-20.40689 0.24023,-21.7587 0.089,-0.14592 0.1933,-0.52294 0.23196,-0.8378 0.0387,-0.31487 0.21563,-1.20078 0.3932,-1.9687 0.36617,-1.58333 0.062,-2.82929 -0.76102,-3.11723 -0.27113,-0.0948 -0.81282,-0.46663 -1.20374,-0.82616 l -0.71077,-0.65368 -37.78624,-0.007 c -25.60903,-0.004 -37.78638,0.0854 -37.78669,0.27891 1.1e-4,0.157 -0.59816,0.44794 -1.32864,0.64653 -3.31477,0.90119 -3.70487,1.03047 -3.70521,1.228 -8.3e-4,0.58036 -2.38153,1.4028 -3.63673,1.25646 -1.454,-0.16952 -4.77303,-1.60486 -5.58404,-2.41486 -0.0767,-0.0767 -0.86207,-0.48215 -1.74519,-0.90114 -0.88312,-0.419 -1.60546,-0.88878 -1.6052,-1.04398 -9e-5,-0.15519 -0.25103,-0.28174 -0.55845,-0.2812 -0.30744,7.8e-4 -0.55877,-0.11544 -0.55852,-0.25773 -1e-5,-0.14228 -0.3451,-0.43944 -0.76742,-0.66037 -3.2675,-1.70928 -4.73149,-2.52122 -5.39231,-2.99064 -0.42158,-0.29946 -0.85471,-0.54432 -0.96251,-0.54413 -0.10779,1.8e-4 -0.56912,-0.31304 -1.02515,-0.69606 -0.45603,-0.38303 -1.00814,-0.69609 -1.22691,-0.69572 -0.21878,4.3e-4 -0.6356,-0.23684 -0.92626,-0.52715 -0.29068,-0.2903 -1.02286,-0.61042 -1.62709,-0.71136 l -1.09859,-0.18353 -0.33386,1.48237 c -0.18363,0.8153 -0.52511,2.63421 -0.75883,4.04201 -0.23374,1.4078 -0.61141,2.91577 -0.83926,3.35104 -0.22783,0.43528 -0.42258,1.04264 -0.43277,1.34971 -0.01,0.30706 -0.37489,1.62463 -0.8105,2.92792 l -0.79204,2.36963 1.15251,0.32569 c 0.63391,0.17914 2.34341,0.65711 3.7989,1.06217 1.45552,0.40506 2.78685,0.85283 2.95852,0.99504 0.17168,0.14222 0.38773,0.18309 0.48009,0.0909 0.21714,-0.21686 4.3891,1.85998 4.38853,2.18464 -3e-5,0.13536 0.10866,0.17865 0.24198,0.0963 0.13328,-0.0824 0.46689,0.098 0.7413,0.40095 0.27442,0.30294 0.63664,0.55318 0.80496,0.55608 1.12235,0.0193 4.81598,4.94089 5.48758,7.31197 0.20644,0.72889 0.45918,1.3251 0.56163,1.32493 0.10244,-1.9e-4 0.27396,0.71028 0.38112,1.57881 0.20806,1.68598 0.9263,3.5086 1.29323,3.28171 0.12225,-0.0756 0.46748,0.0153 0.76715,0.20182 1.09583,0.68236 4.78969,-1.34045 4.7919,-2.62409 9e-5,-0.12733 0.31503,-0.35143 0.69957,-0.49802 0.38453,-0.14659 0.69937,-0.39367 0.69964,-0.54906 2.7e-4,-0.3822 1.84181,-1.51616 3.21743,-1.98161 3.51543,-1.18946 7.9753,-1.29415 11.11082,-0.2608 0.88396,0.29132 1.85823,0.52925 2.16504,0.52871 0.30682,-7.8e-4 0.55765,0.11362 0.55741,0.25364 -4.9e-4,0.20874 1.38026,0.5774 2.65382,0.70864 0.47557,0.049 2.76968,0.74232 3.22897,0.97584 0.23952,0.12179 1.18231,0.37369 2.09511,0.55978 0.91279,0.18609 1.89465,0.462 2.18191,0.61315 0.28727,0.15114 1.03618,0.33289 1.6643,0.40388 0.62809,0.071 1.27296,0.21106 1.43305,0.31125 0.16008,0.10018 0.41679,0.19069 0.57048,0.20111 0.41369,0.0281 3.54382,0.96147 4.19001,1.24946 0.30719,0.1369 2.19282,0.63416 4.19027,1.10501 1.99746,0.47084 3.82504,0.95998 4.06131,1.08698 0.23625,0.12701 0.95907,0.31937 1.60626,0.4275 0.64717,0.10812 1.17651,0.29689 1.17629,0.41949 -1.2e-4,0.1226 0.34537,0.28691 0.76795,0.36511 0.42257,0.0782 1.45981,0.26875 2.30496,0.42343 0.84515,0.15467 1.91368,0.43429 2.37449,0.62137 0.46081,0.18709 1.02645,0.36582 1.25696,0.39717 1.18689,0.16144 4.84687,1.27088 5.02798,1.5241 0.0767,0.10721 0.89375,0.3301 1.81575,0.49533 2.42514,0.4346 4.42795,0.92765 4.74911,1.16912 0.15351,0.11543 0.97057,0.35625 1.81567,0.53516 2.01079,0.42568 3.70208,0.90694 4.05045,1.15256 0.15352,0.10825 0.84492,0.28764 1.53644,0.39868 1.97726,0.31745 1.99371,0.32187 3.96999,1.06498 1.03099,0.38767 2.09945,0.70494 2.37435,0.70505 0.27489,-5e-5 1.12832,0.18485 1.8965,0.41055 1.36413,0.4008 2.42089,0.34244 2.60869,-0.14407 z M 219.29377,162.44898 c 0.0382,-0.64274 0.19655,-1.29553 0.35186,-1.45066 1.10718,-1.10582 -0.4505,-3.79785 -2.19578,-3.79484 -0.57045,9e-4 -1.19106,-0.1519 -1.37914,-0.33976 -0.53612,-0.53544 -6.19608,-0.66895 -6.19699,-0.14617 -4.1e-4,0.22093 -0.32215,0.70338 -0.71505,1.07212 -1.84193,1.72865 -2.0831,3.75131 -0.60593,5.08162 l 0.85073,0.76615 4.91042,-0.0101 4.91042,-0.0101 0.0695,-1.1686 z m 3.98516,-0.0943 c 3.4e-4,-0.23179 0.25263,-0.63697 0.56051,-0.9004 0.66545,-0.56939 0.71875,-0.91344 0.14132,-0.91245 -0.26626,1.1e-4 -0.4259,-0.27937 -0.43753,-0.76686 -0.0434,-1.81587 -0.47141,-1.81599 -0.49616,4.5e-4 -0.0141,1.03577 -0.16097,2.1351 -0.32633,2.44299 -0.24013,0.44723 -0.21429,0.55974 0.12841,0.55916 0.23599,-3.1e-4 0.42939,-0.19039 0.42979,-0.42218 z m 2.80328,-2.44453 c 0.003,-0.34543 0.12234,-0.81246 0.26529,-1.03784 0.29776,-0.46945 -0.1179,-1.12569 -0.71234,-1.12466 -0.29052,8.8e-4 -0.31515,0.16662 -0.10631,0.71738 0.14949,0.39421 0.19452,1.02218 0.10013,1.39549 -0.10445,0.41307 -0.0504,0.67856 0.13812,0.67822 0.17037,-7.5e-4 0.31219,-0.28315 0.31514,-0.62859 z M 206.3688,157.1856 c 0.42337,-0.73451 0.42263,-0.73548 -0.48089,-0.64505 -0.4977,0.0498 -1.12943,0.099 -1.40386,0.10926 -0.41299,0.0154 -0.44704,0.11577 -0.19769,0.5822 0.16569,0.30993 0.22493,0.68665 0.13163,0.83717 -0.0933,0.15051 -0.0505,0.27345 0.0952,0.2732 0.14568,3e-5 0.35953,0.47041 0.47522,1.04593 l 0.21033,1.04638 0.37301,-1.25674 c 0.20514,-0.6912 0.5638,-1.58776 0.79701,-1.99235 z m -58.70536,-1.2304 0.98306,-0.95179 -0.0592,-5.46986 c -0.0325,-3.00843 -0.15717,-5.67791 -0.27699,-5.93221 -0.28319,-0.60098 -20.16195,-0.75288 -20.36221,-0.15555 -0.0877,0.26171 -5.85197,0.37008 -25.24959,0.47465 -13.824733,0.0745 -25.303033,0.19635 -25.507313,0.2707 -0.46381,0.1688 -0.38781,11.24803 0.0806,11.74831 1.17242,1.25224 -0.22438,1.20976 35.676813,1.08489 l 33.73172,-0.11734 z m 80.51743,-0.005 c 0.76855,0.0109 2.05031,0.1102 2.84837,0.22166 l 1.451,0.20266 0.19779,-1.06433 c 0.10881,-0.58537 0.2741,-1.12726 0.36733,-1.20419 0.28802,-0.23757 1.94999,-5.37821 2.14404,-6.63165 0.10094,-0.65184 0.27683,-1.24288 0.39092,-1.31342 0.11406,-0.0705 0.22321,-0.77245 0.24251,-1.55985 0.0193,-0.78738 0.16057,-1.58244 0.31384,-1.7668 0.15331,-0.18435 0.27236,-0.86111 0.26459,-1.50391 -0.0147,-1.21526 -1.34841,-2.27811 -2.8994,-2.31059 -0.29732,-0.006 -1.04332,-0.19759 -1.65777,-0.42525 -1.18647,-0.43961 -3.58092,-0.79712 -8.8013,-1.31414 -3.04842,-0.30191 -17.50182,-0.35421 -44.64636,-0.16156 l -10.1312,0.0719 -0.0139,8.03564 -0.0139,8.03564 0.80604,0.96504 0.80603,0.96503 25.75283,0.0951 c 22.48459,0.0831 25.78636,0.14816 26.01703,0.51335 0.17535,0.27759 0.26585,0.3009 0.26909,0.0693 0.008,-0.56779 4.16471,-0.4866 4.38369,0.0856 0.093,0.24301 0.24612,0.33694 0.34024,0.20877 0.0941,-0.12818 0.79993,-0.2245 1.56847,-0.21404 z m -178.156746,-6.13389 0.0056,-3.21004 -5.030622,0.009 -5.030622,0.009 -0.0056,3.21004 -0.0056,3.21004 5.030622,-0.009 5.030622,-0.009 z m 24.887073,2.04302 c 0.14715,-0.2264 0.23653,-1.22806 0.19861,-2.22589 l -0.0689,-1.81425 -11.697125,-0.0527 -11.697121,-0.0526 0.09512,2.1662 c 0.05232,1.19141 0.220722,2.26231 0.374233,2.37979 0.572655,0.43821 22.500483,0.0529 22.795213,-0.40051 z m 91.375993,-2.12413 c 0.003,-1.58042 -0.11508,-2.37185 -0.39467,-2.65108 -0.48238,-0.48179 -8.82252,-0.58047 -8.82334,-0.10443 -7.5e-4,0.17058 -1.30472,0.28138 -3.35424,0.28492 l -3.35374,0.006 -0.004,2.37264 -0.004,2.37263 7.96516,-0.0137 7.96515,-0.0137 z m -91.380993,-4.84668 10e-4,-0.8374 -11.628278,0.0201 c -10.48865,0.0181 -11.611729,0.0633 -11.459403,0.46131 0.09289,0.24268 0.16857,0.61938 0.168193,0.83711 -5.85e-4,0.3353 1.752513,0.39284 11.457955,0.37609 l 11.458643,-0.0198 z m 91.342763,-0.11554 c 0.23032,-1.60581 -0.31969,-1.71645 -8.46265,-1.70239 l -7.41788,0.0128 -0.002,1.26046 -0.002,1.26045 7.89541,-0.0878 7.89541,-0.0878 z M 50.033293,144.51281 c 5.83e-4,-0.32142 -0.35639,-0.41808 -1.536411,-0.41604 -1.180022,0.002 -1.537303,0.0999 -1.537858,0.42135 -5.84e-4,0.32142 0.356389,0.41809 1.536411,0.41605 1.180021,-0.002 1.537302,-0.0999 1.537858,-0.42136 z m 116.271487,-4.95239 0.004,-2.36623 -76.577243,0.13221 -76.577258,0.13223 -0.0038,2.20981 c -0.0026,1.50728 0.107164,2.25401 0.345285,2.34884 0.192013,0.0765 34.651653,0.0874 76.576973,0.0242 l 76.227873,-0.11484 z"
         id="path26" />
    </g>
  </g>
</svg>
