<?xml version="1.0" encoding="UTF-8" standalone="no"?>
<svg
   xmlns:dc="http://purl.org/dc/elements/1.1/"
   xmlns:cc="http://creativecommons.org/ns#"
   xmlns:rdf="http://www.w3.org/1999/02/22-rdf-syntax-ns#"
   xmlns:svg="http://www.w3.org/2000/svg"
   xmlns="http://www.w3.org/2000/svg"
   xmlns:sodipodi="http://sodipodi.sourceforge.net/DTD/sodipodi-0.dtd"
   xmlns:inkscape="http://www.inkscape.org/namespaces/inkscape"
   width="200mm"
   height="200mm"
   viewBox="0 0 200 200"
   version="1.1"
   id="cpsvg8"
   inkscape:version="1.0.2-2 (e86c870879, 2021-01-15)"
   sodipodi:docname="codeplane.svg">
  <defs
     id="defs2" />
  <sodipodi:namedview
     id="base"
     pagecolor="#ffffff"
     bordercolor="#666666"
     borderopacity="1.0"
     inkscape:pageopacity="0.0"
     inkscape:pageshadow="2"
     inkscape:zoom="0.35"
     inkscape:cx="324.8556"
     inkscape:cy="58.431581"
     inkscape:document-units="mm"
     inkscape:current-layer="layer1"
     inkscape:document-rotation="0"
     showgrid="false"
     inkscape:window-width="1267"
     inkscape:window-height="685"
     inkscape:window-x="0"
     inkscape:window-y="0"
     inkscape:window-maximized="0"
     fit-margin-top="0"
     fit-margin-left="0"
     fit-margin-right="0"
     fit-margin-bottom="0"
     scale-x="1" />
  <metadata
     id="metadata5">
    <rdf:RDF>
      <cc:Work
         rdf:about="">
        <dc:format>image/svg+xml</dc:format>
        <dc:type
           rdf:resource="http://purl.org/dc/dcmitype/StillImage" />
        <dc:title></dc:title>
      </cc:Work>
    </rdf:RDF>
  </metadata>
  <g
     inkscape:label="Layer 1"
     inkscape:groupmode="layer"
     id="layer1"
     transform="translate(-19.881956,-11.754263)">
    <path
       style="fill:#ffffff;stroke-width:0.169196"
       d="m 112.41262,209.53035 c -12.799377,-0.90561 -26.298856,-4.74329 -37.774411,-10.73859 -28.722704,-15.0059 -48.111907,-43.11663 -51.87328,-75.20658 -0.820155,-6.99711 -0.820155,-15.6794 0,-22.67652 C 24.98498,81.968434 32.621067,64.26615 44.885581,49.627706 61.942673,29.269045 86.347976,16.818752 112.86723,14.947072 c 3.19267,-0.225334 10.2771,-0.225334 13.46979,0 31.90583,2.251856 60.47351,19.807404 76.95869,47.293036 7.70354,12.844077 12.26863,27.15283 13.48841,42.277952 0.331,4.10449 0.331,11.35323 0,15.45772 -1.21978,15.12512 -5.78487,29.43388 -13.48841,42.27794 -16.45925,27.44238 -44.94162,44.9726 -76.8424,47.29463 -2.75864,0.20081 -11.09947,0.1901 -14.04069,-0.018 z m 15.77574,-1.58176 c 3.97004,-0.37123 7.28551,-0.8624 10.98726,-1.62766 39.6829,-8.20383 70.18192,-40.8755 75.57508,-80.95886 0.66226,-4.92201 0.83556,-7.64224 0.83556,-13.11515 0,-5.27498 -0.17195,-8.12216 -0.76139,-12.60747 C 212.66432,83.198786 206.37859,67.815691 196.40402,54.557991 187.80287,43.125796 176.61614,33.61633 164.03919,27.045747 152.66165,21.101775 140.8235,17.691864 127.21454,16.438621 c -2.94658,-0.271348 -12.27826,-0.271348 -15.22484,0 -11.89837,1.095717 -21.990242,3.717862 -32.310476,8.395154 -14.261739,6.463637 -27.26191,16.94169 -36.878983,29.724216 -9.97459,13.2577 -16.260319,28.640795 -18.420864,45.081459 -0.589446,4.48531 -0.761389,7.33249 -0.761389,12.60747 0,5.27497 0.171943,8.12216 0.761389,12.60747 4.781387,36.38388 30.000268,66.93076 64.872083,78.57759 8.318892,2.77845 15.78858,4.15327 26.2907,4.83895 1.96624,0.12836 10.02213,-0.0769 12.6462,-0.32234 z m -9.09374,-1.09356 c 0,-0.0691 -1.50346,-0.1748 -3.341,-0.23491 C 92.035659,205.84421 68.79411,195.48928 52.020658,178.22481 36.953357,162.71643 28.030381,143.63078 25.602617,121.71838 c -0.443513,-4.003 -0.443513,-14.93992 0,-18.94292 1.765429,-15.934339 6.856335,-30.12102 15.396333,-42.904539 15.283725,-22.878209 39.68211,-37.993407 66.76164,-41.359946 4.21287,-0.523746 7.08922,-0.691784 11.84152,-0.691784 4.75232,0 7.62869,0.168038 11.84155,0.691784 27.11417,3.370847 51.45476,18.462857 66.78867,41.411329 1.10827,1.658619 2.22423,3.391718 2.47992,3.851332 0.25567,0.459614 0.7498,1.330653 1.09804,1.935643 2.04835,3.558425 3.90168,7.454978 5.66199,11.903968 3.17789,8.031787 5.11034,15.964941 6.12937,25.162213 0.44349,4.003 0.44349,14.93992 0,18.94292 -2.42805,21.91487 -11.34905,40.99628 -26.41807,56.50643 -16.74961,17.23995 -39.9602,27.59464 -63.64838,28.39473 -1.79102,0.0605 -3.25642,0.16647 -3.25642,0.23555 0,0.0691 -0.26643,0.12554 -0.59207,0.12554 -0.32565,0 -0.59209,-0.0566 -0.59209,-0.1256 z m -0.88972,-1.67661 c -0.30151,-0.54443 -10.70724,-19.56353 -23.123875,-42.26464 l -22.575708,-41.27472 -1.74174,0.0532 -1.741739,0.0533 v -2.34527 -2.34526 l -1.522483,-0.74654 -1.522484,-0.74653 v -1.65747 c 0,-0.99216 0.06793,-1.65746 0.169157,-1.65746 0.0999,0 0.169169,0.6089 0.169169,1.48823 v 1.48824 l 1.522483,0.74654 1.522485,0.74653 v 2.33437 2.33438 h 1.437904 c 0.790847,0 1.437893,-0.052 1.437893,-0.11545 0,-0.0635 -6.679895,-12.32959 -14.844208,-27.25804 C 43.813369,69.183665 42.543229,66.925255 42.497012,67.527786 c -0.04431,0.577349 -0.237546,0.84492 -1.564785,2.166495 l -1.51424,1.507796 v 5.263044 5.263043 l 4.596291,6.132413 4.596291,6.132412 -2.521911,2.527058 c -1.387053,1.389881 -2.561723,2.527059 -2.610407,2.527059 -0.04863,0 -2.170923,-2.779567 -4.716113,-6.176815 l -4.627631,-6.176813 h -2.179463 c -1.340197,0 -2.179464,-0.06516 -2.179464,-0.169228 0,-0.104655 0.887721,-0.168999 2.326027,-0.168623 l 2.326014,6.78e-4 4.546454,6.025672 4.546466,6.025674 2.248412,-2.244694 2.248424,-2.244625 -4.553442,-6.030946 -4.553443,-6.030945 v -5.411796 -5.411796 l 1.522485,-1.515992 c 1.433555,-1.427444 1.522483,-1.557385 1.522483,-2.224638 0,-0.389755 0.0822,-0.736038 0.182561,-0.76952 0.252993,-0.08438 -1.166757,-2.674973 -1.466003,-2.674973 -0.143845,0 -0.239041,-0.172925 -0.239041,-0.434194 0,-0.238808 -0.08415,-0.591574 -0.187106,-0.783928 -0.168107,-0.31422 -0.323632,-0.119786 -1.531765,1.914938 -11.713979,19.728571 -15.702212,43.528128 -11.127352,66.401998 3.042593,15.21273 9.895676,29.40206 20.184855,41.79278 2.17919,2.62428 8.737252,9.18479 11.36056,11.36478 13.297852,11.05068 28.331723,17.99328 44.991371,20.77692 4.22708,0.70631 9.38903,1.20517 13.06637,1.26279 l 1.56315,0.0245 z m -10.78265,-3.77078 v -3.74534 l -6.08993,-9.89725 -6.089935,-9.89726 v -3.79935 -3.79937 l -5.370217,-9.21144 -5.370228,-9.2114 H 71.641092 58.780245 l -3.799096,4.56913 -3.799096,4.56916 h -4.613302 c -2.962753,0 -4.613291,-0.0606 -4.613291,-0.16923 0,-0.10855 1.598556,-0.16923 4.457366,-0.16923 h 4.457366 l 3.789414,-4.56518 3.789426,-4.56517 13.201856,-0.004 13.201868,-0.004 5.363983,9.19826 5.363983,9.19822 v 3.81256 3.81252 l 6.089938,9.89728 6.08993,9.89725 v 3.91457 c 0,2.49688 -0.0613,3.91455 -0.16917,3.91455 -0.10766,0 -0.16917,-1.36127 -0.16917,-3.74533 z m -6.08999,-0.78151 -5e-5,-3.00381 -6.089825,-9.13828 -6.089808,-9.1383 -6.9e-5,-4.59759 -5.7e-5,-4.5976 -3.830174,-6.10606 -3.830173,-6.10607 H 70.097441 58.702779 v 6.0516 6.05161 l 3.088924,3.08669 3.088934,3.0867 h 3.001 3.001011 v 6.85372 c 0,4.45633 -0.05914,6.85373 -0.169169,6.85373 -0.10995,0 -0.169157,-2.34097 -0.169157,-6.6845 v -6.6845 H 67.539931 64.53554 l -3.085554,-3.09008 -3.085544,-3.09006 v -6.38669 -6.38668 h 11.737314 11.737305 l 3.825858,6.12788 3.825869,6.12785 v 4.56433 4.56431 l 6.089934,9.17523 6.089938,9.17523 v 3.14756 c 0,1.98557 -0.0625,3.14757 -0.16917,3.14757 -0.1064,0 -0.16919,-1.11413 -0.16923,-3.00379 z m 3.04497,0 -6e-5,-3.00381 -6.089818,-9.13828 -6.089809,-9.1383 -6.8e-5,-4.54125 -5.7e-5,-4.54126 -4.609455,-7.68545 -4.609466,-7.68547 H 70.879372 58.780245 l -3.799096,4.56916 -3.799096,4.56915 h -3.852061 c -2.455257,0 -3.852048,-0.0614 -3.852048,-0.16922 0,-0.1077 1.344809,-0.16924 3.696124,-0.16924 h 3.696124 l 3.789414,-4.56518 3.789426,-4.56517 12.433902,-0.004 12.433889,-0.004 4.609466,7.68546 4.609467,7.68544 v 4.58474 4.58474 l 6.089934,9.13594 6.08993,9.13596 v 3.1319 c 0,1.9751 -0.0624,3.13188 -0.16916,3.13188 -0.10641,0 -0.1692,-1.11414 -0.16923,-3.0038 z m -9.473171,-1.47796 v -2.95866 l -0.628244,-1.27016 -0.628253,-1.27013 -0.555903,0.53901 -0.555903,0.539 v 2.92831 c 0,1.83937 -0.06291,2.92828 -0.16917,2.92828 -0.106751,0 -0.167604,-1.13945 -0.164932,-3.08841 l 0.0046,-3.0884 0.678536,-0.71923 c 0.373193,-0.39556 0.742427,-0.71921 0.820508,-0.71921 0.07809,0 0.455946,0.65462 0.839713,1.45468 l 0.697749,1.4547 v 3.11445 c 0,1.9635 -0.06256,3.11448 -0.169167,3.11448 -0.106296,0 -0.169169,-1.09907 -0.169169,-2.95871 z m 3.383236,0.71644 -5.7e-5,-2.24229 -6.08982,-9.13828 -6.089809,-9.1383 -6.8e-5,-5.28837 c -4.6e-5,-4.11541 -0.04693,-5.28939 -0.211516,-5.29294 -0.11629,-0.002 -1.201066,-1.67582 -2.410593,-3.71845 l -2.199147,-3.71385 -9.600107,-0.005 -9.600106,-0.005 v 4.27652 4.27653 l 1.48354,1.47721 1.48354,1.47722 h 4.606394 4.606395 v 9.30754 c 0,6.0922 -0.05846,9.30752 -0.169157,9.30752 -0.110744,0 -0.16917,-3.15892 -0.16917,-9.1383 v -9.1383 h -4.613267 -4.613268 l -1.476666,-1.4841 -1.476667,-1.48408 v -4.60811 -4.60811 l 9.938432,0.005 9.938434,0.005 2.263232,3.803 c 1.244771,2.09162 2.329542,3.80298 2.410593,3.80298 0.08106,0 0.147373,2.33652 0.147373,5.19227 v 5.19229 l 6.089946,9.17522 6.089934,9.17523 v 2.38605 c 0,1.47788 -0.06439,2.38603 -0.16917,2.38603 -0.104241,0 -0.169191,-0.86028 -0.169225,-2.24226 z m -9.134844,-3.89933 v -4.61852 l 0.738098,-0.72465 0.7381,-0.72468 -3.783067,-5.29147 -3.783066,-5.29149 v -4.5976 -4.5976 l -1.523373,-3.04432 -1.523375,-3.04433 h -7.611527 -7.611527 v 2.24864 2.24862 l 0.809341,0.79747 0.809343,0.79746 h 5.36517 5.365182 v 11.42288 c 0,10.04085 -0.03071,11.42288 -0.253747,11.42288 -0.223012,0 -0.253747,-1.36323 -0.253747,-11.25366 v -11.25364 h -5.292763 -5.292762 l -0.797172,-0.80963 -0.797171,-0.80966 v -2.5749 -2.57492 h 7.949898 7.9499 l 1.607918,3.21365 1.607906,3.21362 v 4.55098 4.55099 l 3.832379,5.36046 3.832376,5.36044 -0.78741,0.79974 -0.78741,0.79972 v 4.52102 c 0,3.90588 -0.03448,4.52104 -0.253747,4.52104 -0.219347,0 -0.253747,-0.62599 -0.253747,-4.61854 z M 38.910492,157.76919 c 0,-0.10951 2.104384,-0.1713 5.963056,-0.17512 l 5.963066,-0.006 2.916318,-3.67481 2.91633,-3.67481 0.0011,-2.50611 c 0.0011,-1.96063 -0.0443,-2.47825 -0.209688,-2.37817 -0.116291,0.0704 -2.008867,1.63598 -4.205697,3.47915 l -3.994228,3.35125 h -6.19794 c -4.019185,0 -6.197952,-0.0595 -6.197952,-0.16923 0,-0.10951 2.132356,-0.17119 6.047644,-0.17478 l 6.047646,-0.006 4.144546,-3.46571 c 2.279489,-1.90614 4.270923,-3.61708 4.425398,-3.80209 0.154474,-0.185 0.382841,-0.33647 0.507494,-0.33658 0.183064,-1.8e-4 0.21638,0.59198 0.17329,3.0798 l -0.05332,3.08003 -2.991626,3.76538 -2.991627,3.76536 -6.132223,0.008 c -3.981063,0.006 -6.132224,-0.0508 -6.132224,-0.16069 z m 20.807277,-23.23004 v -14.59942 l -1.522485,-1.51601 -1.522483,-1.51598 v -9.20123 -9.20123 l -5.201824,-9.65883 c -2.861002,-5.312354 -5.22812,-9.768355 -5.260258,-9.902221 -0.03426,-0.142554 0.03584,-0.212708 0.169157,-0.169329 0.125189,0.04073 2.605132,4.485386 5.510979,9.877007 l 5.283367,9.802948 0.0035,9.141825 0.0035,9.14183 1.522482,1.51599 1.522485,1.516 v 14.51481 14.51481 H 70.88359 81.540975 v -4.49895 -4.49894 l -4.609454,-7.68546 -4.609466,-7.68545 h -4.525436 c -2.904181,0 -4.525446,-0.0607 -4.525446,-0.16924 0,-0.10878 1.677654,-0.16922 4.694615,-0.16922 h 4.694604 l 4.609455,7.68546 4.609465,7.68546 v 4.83739 4.8374 H 70.79892 59.71862 Z m -23.852243,14.09174 c 0,-0.10999 2.35627,-0.16922 6.730497,-0.16922 h 6.730494 l 4.518963,-3.76258 4.518962,-3.76256 v -9.65226 -9.65226 l -1.522484,-1.516 -1.522483,-1.516 v -9.91814 -9.918146 l -4.48092,-8.216143 C 48.37405,86.0287 46.31055,82.208696 46.253008,82.058678 c -0.06474,-0.168892 -0.01725,-0.271354 0.124927,-0.269066 0.127188,0.0021 2.24751,3.712721 4.754715,8.320978 l 4.525162,8.317288 v 9.916842 9.91684 l 1.522483,1.51599 1.522484,1.51598 v 9.99074 9.99071 l -4.518973,3.76257 -4.518962,3.76257 h -6.899665 c -4.486994,0 -6.899653,-0.0591 -6.899653,-0.16923 z m 0,-2.70765 c 0,-0.11 2.374617,-0.16923 6.785515,-0.16923 h 6.785528 l 3.869814,-3.0884 3.869813,-3.08841 0.0023,-9.05721 0.0023,-9.05721 -1.522483,-1.516 -1.522483,-1.51599 v -9.87642 -9.876418 l -4.567451,-7.612509 c -2.512091,-4.18688 -4.567451,-7.689323 -4.567451,-7.783207 0,-0.596062 0.909095,0.781569 4.940314,7.486531 l 4.519362,7.516861 0.0068,9.903352 0.0068,9.90336 1.522483,1.51598 1.522483,1.51599 -0.0023,9.39568 -0.0023,9.39566 -3.869815,3.08841 -3.869814,3.08841 h -6.954696 c -4.523689,0 -6.954697,-0.0591 -6.954697,-0.16923 z m 27.404705,-0.33845 c 0,-0.11024 2.593861,-0.16923 7.443248,-0.16923 h 7.443261 v -2.75622 -2.75625 l -3.76392,-6.04056 -3.763919,-6.04057 -3.679342,-0.004 c -2.338082,-0.002 -3.679328,-0.0648 -3.679328,-0.17227 0,-0.10794 1.393583,-0.16814 3.848498,-0.1662 l 3.848498,0.004 3.763919,6.04058 3.76392,6.04056 v 3.0947 3.09467 h -7.612418 c -4.962166,0 -7.612417,-0.0589 -7.612417,-0.16922 z m 0,-2.70765 c 0,-0.10963 2.142757,-0.16922 6.089934,-0.16922 h 6.089934 v -1.47767 -1.47764 l -3.071068,-4.61455 -3.071077,-4.61455 h -3.780098 c -2.407293,0 -3.78011,-0.0615 -3.78011,-0.16922 0,-0.10818 1.419193,-0.16673 3.933077,-0.16231 l 3.933088,0.007 3.087257,4.62333 3.087256,4.62335 v 1.8004 1.8004 h -6.259092 c -4.059955,0 -6.259101,-0.0595 -6.259101,-0.16924 z m -30.449673,-0.33846 c 0,-0.11048 2.865638,-0.16922 8.258587,-0.16922 h 8.258596 l 2.990873,-2.23918 2.990861,-2.23918 v -7.36802 -7.36802 l -1.522485,-1.516 -1.522482,-1.516 -0.0079,-2.3727 -0.0079,-2.37273 -0.628254,-1.22717 -0.628266,-1.22718 -2.109751,2.11562 -2.109761,2.11563 h -9.264315 c -6.063435,0 -9.264316,-0.0585 -9.264316,-0.16924 0,-0.11072 3.146341,-0.16922 9.100684,-0.16922 h 9.100685 l 2.261346,-2.28458 c 1.243745,-1.25651 2.315397,-2.28457 2.381446,-2.28457 0.06611,0 0.43407,0.65461 0.817837,1.45469 l 0.697751,1.45469 v 2.31416 2.31416 l 1.522483,1.51598 1.522484,1.51599 v 7.70649 7.70648 l -2.990873,2.23918 -2.990872,2.23918 h -8.427755 c -5.505727,0 -8.427765,-0.0586 -8.427765,-0.16924 z m 28.927188,-2.70763 c 0,-0.10928 1.86081,-0.16923 5.244114,-0.16923 2.884259,0 5.244102,-0.0374 5.244102,-0.0835 0,-0.0458 -0.665073,-1.41659 -1.477945,-3.0461 l -1.477945,-2.96273 h -3.766168 c -2.398,0 -3.766158,-0.0615 -3.766158,-0.16922 0,-0.10794 1.424478,-0.16924 3.935097,-0.16924 h 3.935099 l 1.647342,3.30107 c 0.906036,1.81558 1.647343,3.33864 1.647343,3.38455 0,0.0459 -2.512105,0.0836 -5.582441,0.0836 -3.608851,0 -5.58244,-0.0598 -5.58244,-0.16922 z M 31.298063,139.4926 c 0,-0.11049 2.862886,-0.16924 8.25032,-0.16924 h 8.25032 l 1.476655,-1.48409 1.476666,-1.48409 v -5.07524 -5.07526 l -3.004391,-3.00202 -3.004391,-3.00204 h -8.245067 c -5.383939,0 -8.245078,-0.0586 -8.245078,-0.16924 0,-0.11048 2.91868,-0.16922 8.417718,-0.16922 h 8.417719 l 3.000908,3.00551 3.000919,3.0055 v 5.41024 5.41022 l -1.476666,1.48408 -1.476666,1.48411 h -8.419478 c -5.500212,0 -8.419488,-0.0586 -8.419488,-0.16922 z m 35.017134,-18.83014 v -2.24579 l -1.522483,-1.51598 -1.522483,-1.51599 v -2.3798 -2.37979 l 0.760544,-0.74669 c 0.507027,-0.4978 0.816925,-0.69028 0.929703,-0.57746 0.112799,0.11282 -0.08438,0.41812 -0.591378,0.91591 l -0.760544,0.7467 v 2.04133 2.04133 l 1.522484,1.516 1.522483,1.516 v 2.41501 c 0,1.4972 -0.06428,2.41503 -0.169157,2.41503 -0.104241,0 -0.169169,-0.86142 -0.169169,-2.24581 z m -4.613269,-2.28438 -1.476665,-1.48409 v -3.89242 -3.89242 l 1.517186,-1.51072 c 0.834448,-0.8309 1.566805,-1.46108 1.627453,-1.40041 0.141802,0.14186 -0.662928,1.14424 -1.862603,2.32011 l -0.94371,0.92497 v 3.53747 3.53746 l 1.437904,1.51156 c 1.331327,1.39951 1.64031,1.83257 1.307499,1.83257 -0.0717,0 -0.7949,-0.66784 -1.607064,-1.48408 z m -34.971315,-3.25429 c 0,-0.11086 3.368633,-0.16923 9.767562,-0.16923 h 9.767552 l 3.004391,-3.00203 3.00439,-3.00203 v -5.09285 -5.092861 L 49.296,93.541873 c -1.638186,-2.872603 -3.016561,-5.322105 -3.063063,-5.443335 -0.04647,-0.121229 0.01873,-0.219533 0.144998,-0.218446 0.126251,10e-4 1.580757,2.371015 3.232233,5.266511 l 3.002677,5.264539 v 5.438908 5.43891 l -3.00439,3.00203 -3.004391,3.00202 h -9.936731 c -6.511697,0 -9.93672,-0.0583 -9.93672,-0.16922 z m 1.522484,-3.0461 c 0,-0.1107 3.116245,-0.16923 9.010386,-0.16923 h 9.010372 l 2.239085,-2.24453 2.239084,-2.24454 -0.0079,-4.39765 -0.0079,-4.397657 -0.6279,-1.226467 -0.6279,-1.226469 -3.633661,3.637964 -3.633661,3.637959 h -6.979528 c -4.540244,0 -6.979529,-0.0591 -6.979529,-0.16922 0,-0.11003 2.384071,-0.16923 6.813865,-0.16923 h 6.813864 l 3.792498,-3.807626 c 2.085887,-2.094194 3.844046,-3.807626 3.907022,-3.807626 0.06303,0 0.428499,0.654612 0.812264,1.45469 l 0.697752,1.454687 v 4.677555 4.67755 l -2.239096,2.24453 -2.239072,2.24454 h -9.179555 c -6.006919,0 -9.179542,-0.0585 -9.179542,-0.16923 z m 10.609466,-21.883931 -4.53079,-5.297638 -1.516854,-0.743774 c -0.834267,-0.409075 -1.516856,-0.842337 -1.516856,-0.962804 0,-0.315184 0.08951,-0.28581 1.80885,0.593398 l 1.555091,0.795236 4.340499,5.076834 c 2.387269,2.792257 4.399528,5.139786 4.471684,5.216727 0.101953,0.108714 2.039248,-0.715681 2.353267,-1.001394 0.03619,-0.03291 -1.924014,-2.715313 -4.355992,-5.960864 l -4.42179,-5.901004 v -6.203479 c 0,-4.022834 0.05949,-6.203478 0.169168,-6.203478 0.109601,0 0.169169,2.124676 0.169169,6.035576 v 6.035574 l 4.52515,6.021905 c 2.488847,3.312047 4.546306,6.099075 4.572155,6.193395 0.04156,0.151546 -2.65039,1.606927 -2.967571,1.604413 -0.06838,-5.07e-4 -2.163239,-2.384921 -4.65518,-5.298623 z M 45.956457,77.851372 C 45.647223,77.362727 44.607322,75.644438 43.645559,74.032954 L 41.8969,71.102981 42.668829,70.330768 c 0.474042,-0.474222 0.850491,-0.723643 0.975509,-0.646348 0.14026,0.08671 -0.0091,0.343426 -0.47902,0.825315 l -0.682588,0.699447 2.189247,3.626357 c 1.204092,1.994496 2.189259,3.688889 2.189259,3.765319 0,0.379101 -0.400527,0.04732 -0.904779,-0.749486 z M 125.26915,205.99574 c 20.5847,-1.35767 38.89503,-8.67193 54.80292,-21.89159 2.62331,-2.18 9.18138,-8.7405 11.36057,-11.36478 11.07043,-13.33154 18.10217,-28.60233 20.78581,-45.14044 3.21707,-19.82541 0.23191,-39.627348 -8.64761,-57.363771 -1.52639,-3.048884 -2.91208,-5.541247 -3.08076,-5.541247 -0.0856,0 -75.23138,133.135178 -79.39298,140.659998 l -0.45042,0.81443 1.04249,-0.002 c 0.57338,-0.001 2.18436,-0.0779 3.57998,-0.16996 z m 6.51285,-7.74877 v -5.38295 l 9.13489,-14.45217 9.13491,-14.45217 v -3.05792 -3.05789 l 6.04764,-10.55998 c 5.3541,-9.34894 6.47055,-11.16617 6.47055,-10.5319 0,0.0905 -2.70241,4.88159 -6.00533,10.64691 l -6.00536,10.48241 v 3.05334 3.05332 l -2.00659,3.19434 c -1.10361,1.7569 -5.25238,8.32845 -9.21948,14.60346 l -7.2129,11.4091 v 5.21752 c 0,3.36554 -0.06,5.21753 -0.16917,5.21753 -0.10929,0 -0.16916,-1.90713 -0.16916,-5.38295 z m 3.04497,-9e-5 v -5.38303 l 9.1349,-14.44574 9.13489,-14.44574 v -3.06062 -3.0606 l 2.24876,-3.71003 c 2.0241,-3.33936 2.65703,-4.21268 2.65703,-3.66616 0,0.099 -0.98962,1.80877 -2.19914,3.79947 l -2.19915,3.61947 v 3.06941 3.06942 l -9.21948,14.58091 -9.2195,14.58088 v 5.2177 c 0,3.36565 -0.06,5.2177 -0.16917,5.2177 -0.10917,0 -0.16914,-1.90716 -0.16914,-5.38304 z m 12.17986,-6.80137 v -9.13829 h 4.54388 4.54388 l 4.54871,-7.60997 4.54875,-7.61 4.57097,-0.005 4.571,-0.005 1.51542,-1.52305 1.51544,-1.52304 h 9.18072 c 6.00771,0 9.18071,0.0584 9.18071,0.16922 0,0.11073 -3.11662,0.16923 -9.01154,0.16923 h -9.01158 l -1.51543,1.52305 -1.51541,1.52305 -4.571,0.005 -4.57097,0.005 -4.54873,7.60999 -4.54873,7.60998 h -4.54389 -4.54387 v 8.96907 c 0,5.86657 -0.0584,8.96907 -0.16918,8.96907 -0.11057,0 -0.16915,-3.15892 -0.16915,-9.13831 z m 7.63856,-12.21382 c 0.0321,-0.13071 2.41829,-3.94478 5.30256,-8.4757 l 5.2441,-8.23805 2.3001,-0.005 2.30011,-0.005 7.59604,-9.84609 c 6.7809,-8.7895 8.33714,-10.68868 7.96624,-9.72179 -0.0586,0.15287 -3.51072,4.69434 -7.67125,10.09214 l -7.56465,9.81431 -2.29413,0.005 -2.29413,0.005 -5.24412,8.23282 c -4.6119,7.24031 -5.86283,9.04633 -5.64087,8.14383 z m -7.97681,-0.0835 c 4e-5,-0.0775 2.05536,-3.22521 4.56738,-6.99475 l 4.56729,-6.85372 7e-5,-3.6807 c 5e-5,-2.34094 0.0616,-3.68072 0.16925,-3.68072 0.10776,0 0.16917,1.39927 0.16917,3.85934 v 3.85933 l -4.52517,6.74918 c -4.01294,5.98522 -4.94829,7.25969 -4.94799,6.74204 z m 24.69799,-8.85626 c 0,-0.0999 0.60695,-0.16922 1.48255,-0.16922 h 1.48254 l 2.27902,-2.28458 2.27903,-2.28457 h 4.66188 4.66186 l 0.74627,1.52304 0.74624,1.52306 h 1.48769 c 0.87901,0 1.48769,0.0693 1.48769,0.16922 0,0.10128 -0.66505,0.16922 -1.65685,0.16922 h -1.65684 l -0.74627,-1.52304 -0.74624,-1.52305 h -4.32355 -4.32357 l -2.27902,2.28458 -2.27901,2.28457 h -1.6517 c -0.98836,0 -1.65172,-0.068 -1.65172,-0.16923 z m -3.04498,-4.56915 c 0,-0.10006 0.60938,-0.16922 1.48977,-0.16922 h 1.48974 l 6.08038,-8.37018 6.08038,-8.37019 3.82809,-0.007 3.82806,-0.007 3.78435,-5.27444 c 3.33821,-4.65265 4.5279,-6.12845 4.15348,-5.15236 -0.0592,0.15439 -1.79199,2.63974 -3.85056,5.52298 l -3.74291,5.24229 -3.83109,0.005 -3.83109,0.005 -6.0872,8.3726 -6.08717,8.37261 h -1.65211 c -0.98862,0 -1.65212,-0.068 -1.65212,-0.16922 z m 14.88652,-6.38248 c 0,-0.0666 0.696,-1.17078 1.54665,-2.4538 l 1.54664,-2.33275 3.0631,-0.006 3.06309,-0.006 8.09339,-11.03639 8.09339,-11.03641 -3.72087,-0.0846 -3.72086,-0.0846 2.46016,-4.10376 2.46018,-4.10378 h 3.19032 c 2.01412,0 3.19033,0.0624 3.19033,0.16922 0,0.10648 -1.11997,0.16924 -3.02156,0.16924 h -3.02159 l -2.22253,3.70941 c -1.2224,2.04016 -2.22253,3.75892 -2.22253,3.81944 0,0.0606 1.6748,0.0857 3.72179,0.056 2.04698,-0.0298 3.7217,-0.005 3.72162,0.0567 -1e-4,0.0609 -0.8185,1.21316 -1.8187,2.56047 -1.00017,1.34731 -4.74929,6.45312 -8.33136,11.34624 l -6.51284,8.89661 -3.08427,0.008 -3.08426,0.008 -1.52848,2.28458 c -1.33525,1.9958 -1.86081,2.60684 -1.86081,2.16352 z m 0.16373,-26.20199 c -0.84363,-1.26099 -1.57018,-2.38728 -1.61452,-2.50288 -0.0946,-0.24629 16.52333,-29.0838 16.81598,-29.18139 0.10893,-0.0363 0.19798,0.0168 0.19798,0.11792 0,0.10117 -3.73409,6.65012 -8.29795,14.55323 l -8.29793,14.36927 1.49607,2.25674 1.49607,2.25673 6.02004,0.0445 6.02003,0.0445 3.78451,-6.08755 3.78451,-6.08757 3.08725,-0.007 c 1.94991,-0.005 3.08727,0.0556 3.08727,0.16247 0,0.10612 -1.08698,0.17007 -2.9181,0.17149 l -2.91809,0.002 -3.77985,6.08995 -3.77987,6.08992 h -6.32475 -6.32475 z m -16.91104,-5.81128 c 0,-0.0981 1.03649,-1.89288 2.30333,-3.98827 l 2.30334,-3.80979 4.59013,-0.0451 4.59012,-0.0449 5.21273,-9.6785 5.21275,-9.6785 -2.29032,-3.045417 -2.2903,-3.045417 7.65038,-12.986427 c 4.2077,-7.142534 7.74554,-13.017338 7.86183,-13.055119 0.11629,-0.03778 0.21144,0.0034 0.21144,0.09162 0,0.08817 -3.35958,5.863068 -7.46576,12.833106 -4.10616,6.97004 -7.50047,12.798057 -7.54292,12.951156 -0.0475,0.171571 0.78053,1.421603 2.15853,3.258454 l 2.23568,2.980094 -0.57124,1.07494 c -0.31417,0.59122 -2.70271,5.04289 -5.30785,9.8926 l -4.73661,8.81764 -4.58857,0.006 -4.5886,0.006 -2.26897,3.75334 c -2.03887,3.37268 -2.67912,4.2597 -2.67912,3.71162 z m 17.08564,-5.90345 c 0,-0.0875 3.74927,-6.62385 8.3317,-14.52538 l 8.33173,-14.36643 3.08649,-0.04613 3.08644,-0.04613 1.52594,-2.280759 c 1.33847,-2.000614 1.85886,-2.603843 1.85801,-2.153838 -1.4e-4,0.06981 -0.68482,1.154979 -1.52156,2.411496 l -1.52134,2.284574 -3.08673,0.08462 -3.08672,0.08462 -8.29053,14.287697 c -4.55979,7.85823 -8.38566,14.3185 -8.50197,14.35615 -0.11629,0.0377 -0.21146,-0.004 -0.21146,-0.0905 z m 10.68354,-22.912343 c 0.0321,-0.129977 1.04805,-1.887513 2.25756,-3.905633 l 2.19915,-3.669308 3.05895,-0.0062 3.05895,-0.0062 1.56054,-2.284575 c 1.37101,-2.007124 1.87938,-2.59235 1.87938,-2.163526 0,0.06658 -0.69599,1.17079 -1.54664,2.453803 l -1.54665,2.332748 -3.06309,0.0071 -3.0631,0.0071 -2.19914,3.660137 c -1.20953,2.013073 -2.30158,3.693964 -2.42677,3.73531 -0.13178,0.04354 -0.203,-0.0243 -0.16914,-0.16115 z m -34.48451,36.073663 39.8237,-70.652601 -39.29305,-0.04267 c -21.61116,-0.02347 -57.02903,-0.02347 -78.70638,0 l -39.413349,0.04267 38.761153,70.859271 c 22.874806,41.81743 38.810966,70.77457 38.882706,70.65261 0.0668,-0.11375 18.0422,-32.00036 39.94522,-70.85928 z m 39.60037,-71.964117 c -1.27982,-2.21788 -5.18797,-7.584561 -7.9132,-10.866402 -2.17919,-2.624289 -8.73726,-9.184784 -11.36057,-11.364787 C 165.49917,28.27942 148.46596,20.953021 130.17493,18.927696 107.85702,16.456481 85.861237,21.81179 67.330186,34.228493 c -5.240655,3.511489 -9.091915,6.710531 -14.05068,11.671135 -4.947655,4.949494 -8.173972,8.834641 -11.633075,14.008611 -1.292039,1.932565 -1.661397,2.593828 -1.179626,2.111874 0.331226,-0.33135 0.588648,-0.23478 0.811992,0.30461 l 0.210213,0.507683 h 78.98945 c 63.14388,0 78.96496,-0.04244 78.86738,-0.211534 z M 70.544322,61.630429 c -0.708335,-0.32419 -1.054425,-0.346909 -4.979281,-0.32686 l -4.218038,0.02155 -1.534757,-1.52895 -1.534769,-1.528951 -6.719421,-0.04429 -6.719423,-0.04429 6.72061,-8.418754 6.72062,-8.418756 6.858438,-3.39e-4 6.858437,-3.39e-4 2.044557,-3.088407 c 2.077795,-3.13863 3.480078,-5.488496 3.685998,-6.176813 0.06713,-0.224209 0.248336,-0.380762 0.440841,-0.380762 0.250482,0 0.326932,-0.11872 0.326932,-0.507684 v -0.507683 h 17.085656 17.085648 v -1.94612 c 0,-1.596523 -0.0446,-1.946119 -0.24786,-1.946119 -0.13633,0 -0.52828,-0.246307 -0.87103,-0.547348 -2.17189,-1.90764 -0.89379,-5.375604 1.98116,-5.375604 1.40903,0 2.75743,1.079713 2.96425,2.373605 l 0.10754,0.672496 h 9.16266 9.16262 l 0.74712,0.761525 0.74709,0.761524 h 3.77099 3.77099 l 0.007,0.380764 c 0.006,0.335104 0.0337,0.319885 0.23315,-0.126921 0.48152,-1.079194 1.58945,-1.776892 2.82166,-1.776892 1.40903,0 2.75742,1.079712 2.96425,2.373605 l 0.10765,0.672494 3.06564,0.0023 3.06564,0.0023 6.08542,5.328282 6.0854,5.328281 h 3.05569 3.05566 l 4.51898,3.762564 4.51898,3.762565 v 1.568111 c 0,0.93259 -0.0687,1.56811 -0.16918,1.56811 -0.099,0 -0.16917,-0.579113 -0.16917,-1.398883 v -1.398882 l -4.51896,-3.762566 -4.51895,-3.762565 -3.05118,-0.0023 -3.05115,-0.0023 -6.08541,-5.328283 -6.08541,-5.328281 h -2.90917 -2.90919 l -0.11419,0.520255 c -0.14717,0.670293 -1.02331,1.666254 -1.72312,1.958757 -0.69939,0.292335 -1.76963,0.292335 -2.46902,0 -0.60856,-0.254366 -1.6413,-1.338746 -1.6413,-1.723375 0,-0.1971 -0.27724,-0.247952 -1.35177,-0.247952 h -1.35177 l -3.04806,4.569149 -3.04804,4.569151 h -3.27908 c -2.83403,0 -3.29301,0.03632 -3.38176,0.267683 -0.0565,0.147225 -0.10263,0.29953 -0.10263,0.338456 0,0.03892 0.7438,0.07077 1.65289,0.07077 h 1.65289 l 1.51543,1.523049 c 1.43631,1.443531 1.55315,1.523051 2.23791,1.523051 0.46321,0 0.72379,0.07591 0.72619,0.211535 0.002,0.116345 0.14427,-0.09805 0.31607,-0.476441 1.68912,-3.720276 6.8062,-3.720276 8.49532,0 0.17181,0.378387 0.31403,0.935472 0.31607,1.237965 l 0.004,0.549991 h 7.65704 7.65707 l 2.27903,2.284575 2.27902,2.284576 h 6.8606 6.86059 l 0.73924,0.753512 c 0.62691,0.639008 0.70622,0.793309 0.52198,1.015403 -0.19578,0.235978 -0.15718,0.23677 0.39013,0.008 2.11482,-0.883956 4.33986,0.556057 4.33986,2.808676 0,1.409571 -1.0793,2.758468 -2.37273,2.965369 l -0.67223,0.107538 v 1.487388 1.487388 l 2.32622,0.775559 c 2.29496,0.765136 2.35634,0.775557 4.56744,0.775557 2.14507,0 2.24123,-0.01485 2.24123,-0.346147 0,-0.602352 0.74326,-1.176903 1.5225,-1.176903 0.95223,0 1.52248,0.570443 1.52248,1.52305 0,0.952608 -0.57025,1.52305 -1.52248,1.52305 -0.49224,0 -0.80182,-0.109936 -1.07228,-0.380762 -0.36399,-0.364512 -0.48397,-0.378752 -2.81121,-0.333641 l -2.43098,0.04712 -2.59438,-0.864999 -2.59437,-0.864993 v -1.93208 c 0,-1.584188 -0.0447,-1.932074 -0.24787,-1.932074 -0.38446,0 -1.46846,-1.033111 -1.72272,-1.641892 -0.4406,-1.054886 -0.18501,-2.670446 0.51429,-3.250598 0.26519,-0.220027 0.23807,-0.289607 -0.34647,-0.888444 l -0.6342,-0.649722 h -6.86139 -6.86142 l -2.36376,-2.36919 -2.36378,-2.369188 h -7.3721 -7.3721 l -0.37594,0.907337 c -0.20676,0.499033 -0.56331,1.083452 -0.79236,1.298706 -0.3711,0.348751 -0.41644,0.530372 -0.41644,1.667783 v 1.27641 l 2.30567,3.855538 2.30566,3.855538 h 1.47892 1.4789 l 0.10766,-0.672497 c 0.0647,-0.404567 0.32497,-0.920276 0.65333,-1.294415 1.89917,-2.163817 5.37234,-0.892219 5.37234,1.966912 0,1.249438 -0.79793,2.444227 -1.91411,2.866105 -0.65433,0.247315 -1.70921,0.225622 -2.36538,-0.04864 -0.60856,-0.254367 -1.64127,-1.338746 -1.64127,-1.723375 0,-0.202781 -0.3467,-0.248907 -1.90311,-0.253192 l -1.90312,-0.0053 -2.41058,-4.042687 -2.4106,-4.042689 v -1.184522 -1.18452 l -0.67666,0.265899 -0.67666,0.265898 v 2.468853 2.468853 l -3.2548,3.259221 -3.2548,3.259229 h -7.79437 -7.79437 l -0.38227,0.922642 c -0.71266,1.720045 -2.34428,2.792936 -4.24745,2.792936 -1.83406,0 -3.41373,-0.990441 -4.16968,-2.614366 -0.21695,-0.466052 -0.39519,-0.75218 -0.3961,-0.635837 -10e-4,0.164099 -1.03542,0.210767 -4.6114,0.208103 l -4.60974,-0.0034 -1.504079,-2.281141 -1.50409,-2.281142 H 87.108084 75.976132 l 0.498463,0.947938 c 1.237841,2.354067 0.209208,5.215614 -2.281704,6.347403 -0.958452,0.435487 -2.654601,0.41878 -3.648104,-0.03593 z m 3.637041,-0.480018 c 2.584956,-1.125088 3.147699,-4.79473 1.034158,-6.743656 -2.649613,-2.443225 -6.944717,-0.588918 -6.93282,2.993069 0.0035,1.089147 0.340632,1.98042 1.04288,2.758013 1.283796,1.421542 3.043677,1.781282 4.855782,0.992574 z m -3.044967,-0.92705 c -0.279129,-0.124635 -0.71199,-0.445303 -0.961935,-0.712595 -1.823885,-1.95049 -0.44994,-5.139749 2.214218,-5.139749 2.696138,0 4.084035,3.174629 2.247122,5.139982 -0.852236,0.911829 -2.363658,1.219503 -3.499405,0.712362 z m 2.70664,-0.616794 c 0.727596,-0.436661 1.138604,-1.229738 1.138604,-2.197047 0,-1.528508 -1.047129,-2.569872 -2.584101,-2.569872 -1.527941,0 -2.568916,1.04752 -2.568916,2.585066 0,2.114831 2.165204,3.291634 4.014413,2.181853 z m 42.967864,1.543844 c 0.84203,-0.366487 1.83422,-1.44788 2.12409,-2.315044 0.92004,-2.752359 -1.04627,-5.541066 -3.90033,-5.531614 -1.45192,0.0048 -3.04496,0.844203 -3.04496,1.604446 0,0.169925 -0.11806,0.308957 -0.26237,0.308957 -0.38741,0 -0.80141,1.136464 -0.80141,2.199961 0,3.080623 3.00488,4.986844 5.88498,3.733294 z m -3.04497,-0.92705 c -0.27912,-0.124635 -0.71199,-0.445303 -0.96193,-0.712595 -1.82388,-1.95049 -0.44994,-5.139749 2.21422,-5.139749 2.69613,0 4.08403,3.174629 2.24713,5.139982 -0.85225,0.911829 -2.36366,1.219503 -3.49942,0.712362 z m 2.70664,-0.616794 c 0.72761,-0.436661 1.13862,-1.229738 1.13862,-2.197047 0,-1.528508 -1.04713,-2.569872 -2.58412,-2.569872 -1.52793,0 -2.56891,1.04752 -2.56891,2.585066 0,2.114831 2.16521,3.291634 4.01441,2.181853 z m -48.153563,-0.09794 c -1.201797,-2.383466 -0.174523,-5.216928 2.29883,-6.34074 1.115347,-0.506774 2.722511,-0.432828 3.884679,0.178733 0.521173,0.274254 0.947583,0.426559 0.947583,0.338455 0,-0.09922 4.441575,-0.160187 11.669382,-0.160187 h 11.669395 l 1.528454,2.284575 1.52847,2.284574 h 4.31071 4.31071 V 57.24246 c 0,-0.468366 0.11029,-1.115661 0.24512,-1.438436 l 0.24511,-0.586862 h -1.25711 -1.25711 l -1.52847,-2.284574 -1.52846,-2.284576 h -5.833202 -5.833196 v -0.42307 -0.423069 l 6.132223,0.0034 6.132235,0.0034 1.50408,2.281141 1.50409,2.281143 h 1.26271 c 1.12015,0 1.32277,-0.05072 1.79463,-0.449237 1.38758,-1.171889 3.38957,-1.429228 4.97403,-0.639363 1.41389,0.704834 2.56589,2.308856 2.57451,3.58471 l 0.004,0.549985 h 7.56846 7.56847 l 3.08892,-3.08669 3.08894,-3.086694 V 48.99967 46.755686 l -0.54979,-0.0038 c -1.96006,-0.01324 -4.01209,-2.237931 -4.01603,-4.353892 l -0.001,-0.888445 h -0.97622 -0.97623 l -1.51542,-1.523051 -1.51544,-1.52305 h -1.56874 -1.56875 l -0.60677,0.671871 c -0.33372,0.369529 -1.0175,0.872902 -1.51951,1.118605 -0.79089,0.387091 -1.07927,0.438322 -2.16,0.383727 -1.04632,-0.05285 -1.38781,-0.15043 -2.11995,-0.60571 l -0.87268,-0.542704 -2.15223,2.87166 -2.1522,2.871662 h -10.6806 -10.679949 l -0.08083,0.842074 c -0.108467,1.129555 -0.990545,2.869998 -1.846595,3.643685 -0.383355,0.346468 -1.124835,0.830616 -1.647719,1.075884 -0.8181,0.383738 -1.174887,0.445944 -2.557785,0.445944 -1.382884,0 -1.739683,-0.06221 -2.557772,-0.445944 -2.059743,-0.966152 -3.380781,-2.882606 -3.505182,-5.085038 l -0.0652,-1.153516 h -2.007943 -2.007897 l -1.528466,2.284575 -1.528467,2.284576 h -4.902797 c -4.193503,0 -4.902785,0.03587 -4.902785,0.247952 0,0.384631 -1.032732,1.469009 -1.64128,1.723376 -1.17282,0.490215 -2.611512,0.189795 -3.465199,-0.723584 -1.830315,-1.958301 -0.449506,-5.139984 2.230681,-5.139984 1.215555,0 2.326288,0.703572 2.805194,1.776893 0.199367,0.446806 0.227317,0.462025 0.233151,0.12692 l 0.0068,-0.380763 h 3.776936 3.776946 l 3.793182,-5.326735 3.793194,-5.326738 19.073332,-0.0039 19.07334,-0.0039 0.003,-0.54999 c 0.002,-0.302494 0.14428,-0.859579 0.31608,-1.237966 1.68912,-3.720276 6.80622,-3.720276 8.49532,0 0.1718,0.378387 0.31403,0.935472 0.31608,1.237966 l 0.004,0.54999 h 3.01893 3.01894 l 3.02869,-4.56494 3.02873,-4.564943 1.56478,-0.0042 c 1.45058,-0.0039 1.56477,-0.02891 1.56477,-0.342665 0,-0.328972 -0.11278,-0.338456 -4.02473,-0.338456 h -4.02474 l -0.74717,-0.761513 -0.74711,-0.761526 h -8.99676 -8.99677 l -0.10064,0.401371 c -0.15981,0.636952 -1.35601,1.608974 -2.13302,1.733271 l -0.67874,0.10858 v 2.262946 2.262947 H 96.093766 c -14.367919,0 -17.403648,0.03917 -17.332896,0.223631 0.158082,0.412101 -1.427219,3.257301 -3.823952,6.863016 l -2.376136,3.574703 -6.886592,0.0027 -6.886593,0.0027 -6.024662,7.57026 -6.024662,7.570263 6.030246,0.04439 6.030255,0.04438 1.513373,1.520978 1.513362,1.520978 h 3.487543 3.487533 l -0.481339,-0.954512 z m 26.923378,-12.32978 v -0.42307 h 12.145065 12.14507 l 0.74626,-1.523051 0.74625,-1.523049 h 7.66221 7.66221 v 0.423069 0.423068 h -7.32388 -7.32388 l -0.74626,1.523051 -0.74625,1.523051 H 107.72579 95.242385 Z m 97.849795,12.172312 c 0.1462,-0.146261 0.26582,-0.331203 0.26582,-0.410982 0,-0.187994 -0.48874,-0.676911 -0.67666,-0.676911 -0.18792,0 -0.67665,0.488917 -0.67665,0.676911 0,0.187993 0.48873,0.676911 0.67665,0.676911 0.0799,0 0.26463,-0.119664 0.41084,-0.265929 z m -37.03503,-1.267632 c 0.72761,-0.436661 1.13862,-1.22974 1.13862,-2.197047 0,-1.528508 -1.04714,-2.569874 -2.5841,-2.569874 -1.52795,0 -2.56892,1.047521 -2.56892,2.585067 0,2.114832 2.16519,3.291634 4.0144,2.181854 z m 27.40471,-4.56915 c 0.7276,-0.436661 1.13861,-1.229739 1.13861,-2.197047 0,-1.528509 -1.04712,-2.569872 -2.5841,-2.569872 -1.52794,0 -2.56892,1.04752 -2.56892,2.585066 0,2.11483 2.16519,3.291633 4.01441,2.181853 z M 64.708135,50.468274 c 0.727596,-0.436663 1.138603,-1.229741 1.138603,-2.197048 0,-1.52851 -1.047129,-2.569873 -2.584101,-2.569873 -1.527941,0 -2.568915,1.04752 -2.568915,2.585066 0,2.114831 2.165202,3.291635 4.014413,2.181855 z m 25.380583,0.333561 c 2.496508,-0.461679 4.228543,-2.210109 4.62424,-4.668014 0.50013,-3.106717 -1.476062,-5.88802 -4.593174,-6.464466 -3.796367,-0.702057 -7.148708,2.607765 -6.530524,6.447699 0.437085,2.715081 2.309472,4.396941 5.405245,4.85523 0.05275,0.0078 0.545091,-0.06891 1.094213,-0.170449 z m -2.723562,-1.319873 c -1.761,-0.800144 -2.778329,-2.358056 -2.774791,-4.24924 0.0091,-4.984643 6.738307,-6.350297 8.809752,-1.787955 0.457522,1.007705 0.423053,2.658993 -0.07797,3.735307 -0.443546,0.952834 -1.358098,1.836478 -2.382403,2.301888 -0.920101,0.418061 -2.654488,0.418061 -3.574588,0 z m 3.563525,-0.515945 c 2.584957,-1.125088 3.1477,-4.79473 1.034159,-6.743656 -2.649601,-2.443225 -6.944716,-0.588919 -6.932821,2.993069 0.0035,1.089147 0.340633,1.980419 1.042882,2.758013 1.283796,1.421541 3.043677,1.781281 4.85578,0.992574 z m -14.022284,-2.974632 1.50409,-2.28744 2.386207,0.04517 2.386216,0.04517 0.274093,-0.772864 c 0.827724,-2.333922 3.098001,-3.8809 5.695448,-3.8809 2.747628,0 5.029368,1.684219 5.862126,4.32701 l 0.289597,0.919051 10.415036,-0.0041 10.41504,-0.0041 1.69163,-2.30975 c 0.93042,-1.27036 1.86337,-2.546565 2.07323,-2.836011 l 0.38155,-0.526265 -0.37316,-0.883543 -0.37314,-0.883543 -18.77795,0.04303 -18.777935,0.04304 -3.779457,5.288368 -3.779447,5.288369 h -4.052192 c -3.939402,0 -4.052182,0.0094 -4.052182,0.338455 0,0.330055 0.112799,0.338456 4.543555,0.338456 h 4.543565 z m 65.659863,-0.0074 c 0.30237,-0.12445 0.54977,-0.344387 0.54977,-0.488749 0,-0.144363 0.13898,-0.262477 0.30885,-0.262477 0.75996,0 1.59905,-1.593621 1.60385,-3.0461 0.012,-3.611025 -4.25734,-5.467673 -6.92222,-3.010361 -1.64572,1.517542 -1.76629,4.09334 -0.26918,5.751081 1.24277,1.376094 2.99914,1.768528 4.72893,1.056606 z m -16.62045,-6.161346 c 0.69321,-0.306957 1.83084,-1.358992 1.46954,-1.358992 -0.11033,0 -0.20081,-0.19038 -0.20081,-0.423068 0,-0.33759 0.0849,-0.423069 0.41969,-0.423069 0.315,0 0.45062,-0.116091 0.54373,-0.465378 0.37787,-1.417758 -0.10614,-3.061182 -1.19801,-4.068034 -1.63179,-1.504693 -3.98897,-1.504693 -5.62076,0 -1.64572,1.517542 -1.76629,4.093339 -0.26917,5.751081 1.28592,1.423894 3.05686,1.784026 4.85579,0.98746 z m 22.49891,-10.67703 c 0.72761,-0.436662 1.13862,-1.229739 1.13862,-2.197046 0,-1.528512 -1.04712,-2.569874 -2.58411,-2.569874 -1.52793,0 -2.56891,1.04752 -2.56891,2.585066 0,2.114831 2.16521,3.291634 4.0144,2.181854 z m -33.49463,-3.046115 c 0.7276,-0.436661 1.13861,-1.229739 1.13861,-2.197047 0,-1.528509 -1.04714,-2.569873 -2.58411,-2.569873 -1.52794,0 -2.56891,1.04752 -2.56891,2.585066 0,2.114831 2.16521,3.291635 4.01441,2.181854 z m -2.54516,-1.081778 c -0.30552,-0.305635 -0.41523,-0.59828 -0.41523,-1.107671 0,-0.952608 0.57024,-1.523051 1.52249,-1.523051 0.95225,0 1.52247,0.570443 1.52247,1.523051 0,0.952606 -0.57022,1.523049 -1.52247,1.523049 -0.5092,0 -0.80174,-0.109743 -1.10726,-0.415378 z m 1.5222,-0.08927 c 0.88665,-0.337232 0.89401,-1.696767 0.0117,-2.032613 -0.92942,-0.353496 -1.7928,0.511455 -1.4392,1.441823 0.13177,0.34672 0.39767,0.553427 0.95996,0.746257 0.0173,0.0059 0.2279,-0.06406 0.46823,-0.155467 z m 54.47905,36.719396 c -0.58781,-0.299794 -0.99758,-0.338456 -3.58736,-0.338456 h -2.92372 l -2.36919,-1.540302 c -1.30306,-0.847165 -2.36919,-1.594135 -2.36919,-1.659933 0,-0.06579 0.10613,-0.264699 0.23563,-0.442004 0.22387,-0.306266 0.35305,-0.244476 2.58563,1.236865 l 2.34999,1.559235 h 2.40057 2.40054 l -0.16499,-0.434087 c -0.39517,-1.039772 -0.12753,-2.351664 0.64932,-3.182845 1.87879,-2.010171 5.27564,-0.672567 5.27564,2.07743 0,2.323335 -2.40416,3.784272 -4.48287,2.724097 z m 2.87581,-0.518194 c 1.11688,-0.670293 1.50555,-2.424262 0.79244,-3.576318 -1.00259,-1.619778 -3.52826,-1.598287 -4.4913,0.03821 -0.5917,1.005461 -0.32777,2.871703 0.40609,2.871703 0.21624,0 0.33237,0.114783 0.33237,0.328469 0,0.81862 1.81434,1.025728 2.9604,0.337932 z m -15.36576,-8.58887 c -0.25505,-0.281938 -0.16773,-0.4053 1.37522,-1.943035 l 1.64756,-1.641983 h 10.10457 10.10457 v 0.423069 0.42307 h -9.88616 c -5.46955,0 -9.92704,0.06618 -9.97766,0.148129 -0.0503,0.08147 -0.76748,0.765456 -1.59364,1.519967 -1.41901,1.295961 -1.51717,1.355186 -1.77446,1.070783 z"
       id="path24" />
  </g>
</svg>
