<?xml version="1.0" encoding="UTF-8" standalone="no"?>
<svg
   xmlns:dc="http://purl.org/dc/elements/1.1/"
   xmlns:cc="http://creativecommons.org/ns#"
   xmlns:rdf="http://www.w3.org/1999/02/22-rdf-syntax-ns#"
   xmlns:svg="http://www.w3.org/2000/svg"
   xmlns="http://www.w3.org/2000/svg"
   xmlns:sodipodi="http://sodipodi.sourceforge.net/DTD/sodipodi-0.dtd"
   xmlns:inkscape="http://www.inkscape.org/namespaces/inkscape"
   width="182.48691mm"
   height="179.65208mm"
   viewBox="0 0 182.48691 179.65208"
   version="1.1"
   id="svg8"
   inkscape:version="1.0.2-2 (e86c870879, 2021-01-15)"
   sodipodi:docname="problu.svg">
  <defs
     id="defs2" />
  <sodipodi:namedview
     id="base"
     pagecolor="#ffffff"
     bordercolor="#666666"
     borderopacity="1.0"
     inkscape:pageopacity="0.0"
     inkscape:pageshadow="2"
     inkscape:zoom="0.35"
     inkscape:cx="375.57141"
     inkscape:cy="175.14286"
     inkscape:document-units="mm"
     inkscape:current-layer="layer1"
     inkscape:document-rotation="0"
     showgrid="false"
     inkscape:window-width="1267"
     inkscape:window-height="685"
     inkscape:window-x="0"
     inkscape:window-y="0"
     inkscape:window-maximized="0" />
  <metadata
     id="metadata5">
    <rdf:RDF>
      <cc:Work
         rdf:about="">
        <dc:format>image/svg+xml</dc:format>
        <dc:type
           rdf:resource="http://purl.org/dc/dcmitype/StillImage" />
        <dc:title></dc:title>
      </cc:Work>
    </rdf:RDF>
  </metadata>
  <g
     inkscape:label="Layer 1"
     inkscape:groupmode="layer"
     id="layer1"
     transform="translate(-6.4633982,-101.82679)">
    <g
       id="g57"
       transform="matrix(0.70092915,0,0,0.75528365,42.732935,75.163025)">
      <path
         style="fill:#b4f5fd;stroke-width:0.264583"
         d="m 54.61756,263.10923 v -7.40834 h 4.233333 4.233334 v 7.40834 7.40833 H 58.850893 54.61756 Z M 17.575893,230.56548 v -22.48959 h 28.575 28.575 v 11.90625 11.90625 h 22.357292 22.357295 v 10.58334 10.58333 H 68.508185 17.575893 Z m -29.633333,-36.5125 v -11.37709 h 46.698958 46.698959 v 0.92604 0.92605 h -3.307292 -3.307292 v 10.45104 10.45104 H 31.334227 -12.05744 Z m 184.94375,-7.40834 v -2.11666 h -7.40833 -7.40834 v -4.23334 -4.23333 h 11.64167 11.64167 v 6.35 6.35 h -4.23334 -4.23333 z m -88.9,-3.04271 c 0,-0.92114 0.0063,-0.92604 1.190625,-0.92604 h 1.190625 v -5.95312 -5.95313 h 16.53646 16.53646 v 6.87917 6.87917 H 101.71339 83.98631 Z m -133.085417,-9.525 v -4.36562 h 6.879167 6.879167 v 4.36562 4.36563 h -6.879167 -6.879167 z M 86.36756,161.9061 v -6.21771 h 21.03438 21.03437 v 6.21771 6.21771 H 107.40194 86.36756 Z m 56.35625,0 v -6.21771 h 6.21771 6.21771 v 6.21771 6.21771 h -6.21771 -6.21771 z m 25.66458,-17.06562 v -3.43959 h 4.10104 4.10105 v 3.43959 3.43958 h -4.10105 -4.10104 z M -12.05744,127.51027 v -4.10104 h 32.411458 32.411459 v 4.10104 4.10104 H 20.354018 -12.05744 Z M 17.575893,108.85714 V 96.950893 h 9.789584 9.789583 V 90.33631 83.721726 h 6.217708 6.217709 v 18.520834 18.52083 H 33.583185 17.575893 Z M 52.23631,86.896726 V 55.675893 h 8.863542 8.863541 V 65.862351 76.04881 h -8.598958 -8.598958 v 21.034375 c 0,13.846525 -0.09041,21.034375 -0.264584,21.034375 -0.174895,0 -0.264583,-10.58333 -0.264583,-31.220834 z"
         id="path71" />
      <path
         style="fill:#92b0cb;stroke-width:0.264583"
         d="m 51.971727,264.43214 v -8.73125 H 33.450893 14.93006 v -23.8125 -23.8125 H 0.11339333 -14.703273 v -12.7 -12.7 h 1.322916 1.322917 v 11.37709 11.37708 h 43.391667 43.391666 v 1.32292 1.32291 h -28.575 -28.575 v 22.48959 22.48958 h 50.932292 50.932295 v -10.58333 -10.58334 h 1.32291 1.32292 v 11.90625 11.90625 H 93.908185 65.73006 v 8.73125 8.73125 h -6.879167 -6.879166 z m 11.1125,-1.32291 v -7.40834 H 58.850893 54.61756 v 7.40834 7.40833 h 4.233333 4.233334 z m 109.802083,-73.025 v -1.32292 h 4.23333 4.23334 v -6.35 -6.35 h -11.64167 -11.64167 v 4.23333 4.23334 h -1.32291 -1.32292 v -5.55625 -5.55625 h 14.2875 14.2875 v 8.99583 8.99583 h -5.55625 -5.55625 z m -91.545833,-6.4823 v -0.92604 h 1.322916 1.322917 v 0.92604 0.92605 h -1.322917 -1.322916 z m 38.100003,-5.95312 v -6.87917 H 102.90402 86.36756 v -1.32291 -1.32292 h 21.03438 21.03437 v 0.92604 0.92604 h 7.14375 7.14375 v -0.92604 -0.92604 h 6.21771 6.21771 v -6.21771 -6.21771 h 1.32291 1.32292 v 7.54063 7.54062 h -17.85938 -17.85937 v 6.87917 6.87917 h -1.32292 -1.32291 z m -171.18542,-3.57188 v -7.01145 h 9.525 9.525 v 7.01145 7.01146 h -9.525 -9.525 z m 16.404167,0 v -4.36562 h -6.879167 -6.879167 v 4.36562 4.36563 h 6.879167 6.879167 z M 165.74256,145.36964 v -5.55625 h 6.74687 6.74688 v 3.83646 3.83646 h -0.66146 c -0.63772,0 -0.66146,0.0617 -0.66146,1.71979 v 1.71979 h -6.08541 -6.08542 z m 10.84792,-0.52916 v -3.43959 h -4.10105 -4.10104 v 3.43959 3.43958 h 4.10104 4.10105 z M -14.703273,126.18735 v -5.42396 H 0.11339333 14.93006 V 108.85714 96.950893 h 1.322917 1.322916 v 11.906247 11.90625 H 33.583185 49.590477 V 102.24256 83.721726 H 43.372768 37.15506 V 82.39881 81.075893 h 6.217708 6.217709 V 67.052976 53.03006 h 10.186458 10.186458 v 1.322916 1.322917 H 61.099852 52.23631 v 31.220833 c 0,20.637504 0.08969,31.220834 0.264583,31.220834 0.15875,0 0.264584,1.05833 0.264584,2.64583 v 2.64584 H 20.354018 -12.05744 v 4.10104 4.10104 h -1.322917 -1.322916 z"
         id="path69" />
      <path
         style="fill:#00fdfd;stroke-width:0.264583"
         d="m 77.371727,208.20818 v -21.03437 h 46.434373 46.43438 v 21.03437 21.03438 H 123.8061 77.371727 Z M -25.815773,157.1436 V 134.25714 H 22.07381 69.963393 v 10.71563 10.71562 h 6.879167 6.879167 v 12.17084 12.17083 h -54.76875 -54.76875 z m 156.897913,4.36563 v -5.82084 h 4.49792 4.49792 v 5.82084 5.82083 h -4.49792 -4.49792 z M 161.77381,107.9311 V 78.694643 h 22.09271 22.09271 V 107.9311 137.16756 H 183.86652 161.77381 Z M 55.41131,105.15298 V 78.694643 h 7.276042 7.276041 v 26.458337 26.45833 H 62.687352 55.41131 Z m -97.63125,-3.43959 v -6.879164 h 11.641667 11.641666 v 1.058334 1.058333 h 6.482292 6.4822917 v 5.820837 5.82083 H -24.095982 -42.21994 Z m 79.375,-36.644789 v -3.042708 h -6.35 -6.35 V 59.512351 56.99881 h 8.995833 8.995834 v 5.55625 5.55625 H 39.800893 37.15506 Z"
         id="path67" />
      <path
         style="fill:#00aced;stroke-width:0.264583"
         d="m -42.484523,220.6436 v -3.04271 h 10.583333 10.583333 v 3.04271 3.04271 H -31.90119 -42.484523 Z M 180.82381,156.87902 v -6.48229 h 7.27604 7.27604 v 6.48229 6.48229 h -7.27604 -7.27604 z M 72.87381,95.627976 V 38.213393 h 42.99479 42.99479 V 95.627976 153.04256 H 115.8686 72.87381 Z m -88.9,-16.007291 V 64.93631 H 9.1092267 34.244643 V 79.620685 94.30506 H 9.1092267 -16.02619 Z"
         id="path65" />
      <path
         style="fill:#438bca;stroke-width:0.264583"
         d="m 74.725893,208.20818 v -23.6802 h 49.080207 49.08021 v 23.6802 23.68021 H 123.8061 74.725893 Z m 95.514587,0 V 187.17381 H 123.8061 77.371727 v 21.03437 21.03438 H 123.8061 170.24048 Z M -28.461607,157.1436 V 131.61131 H 12.151935 52.765477 V 103.83006 76.04881 h 8.598958 8.598958 v 1.322916 1.322917 H 62.687352 55.41131 v 26.458337 26.45833 h 7.276042 7.276041 v 1.32292 1.32291 H 22.07381 -25.815773 v 22.88646 22.88646 h 54.76875 54.76875 v -12.17083 -12.17084 h 1.322916 1.322917 v 13.49375 13.49375 H 28.952977 -28.461607 Z m 156.897917,5.68854 v -7.14375 h 1.32292 1.32291 v 5.82084 5.82083 h 4.49792 4.49792 v -5.82083 -5.82084 h 1.32291 1.32292 v 7.14375 7.14375 h -7.14375 -7.14375 z m 33.3375,-24.34166 v -1.32292 h 22.09271 22.09271 V 107.9311 78.694643 H 183.86652 161.77381 V 77.371726 76.04881 h 23.41562 23.41563 v 31.88229 31.88229 H 185.18943 161.77381 Z M -44.865773,101.71339 v -9.524997 h 12.964583 12.964583 v 1.322917 1.322916 H -30.578273 -42.21994 v 6.879164 6.87917 h 18.123958 18.1239587 v -5.82083 -5.820837 h 1.3229166 1.3229167 v 7.143747 7.14375 H -24.095982 -44.865773 Z M 37.15506,69.434226 V 68.11131 h 2.645833 2.645834 V 62.55506 56.99881 H 33.450893 24.45506 v 2.513541 2.513542 H 23.132143 21.809227 V 58.189435 54.352976 H 33.450893 45.09256 v 8.202084 8.202083 h -3.96875 -3.96875 z"
         id="path63" />
      <path
         style="fill:#07a1de;stroke-width:0.264583"
         d="m -42.692213,220.57746 -0.05689,-3.24115 h 10.847917 10.847917 l -0.05689,3.24115 -0.0569,3.24114 -0.08379,-3.10885 -0.08379,-3.10886 h -10.56654 -10.56654 l -0.08379,3.10886 -0.08379,3.10885 z m 223.312743,-63.76459 -0.0613,-6.68073 h 7.54062 7.54063 l -0.0613,6.68073 -0.0613,6.68073 -0.0756,-6.54844 -0.0756,-6.54843 h -7.26681 -7.26681 l -0.0756,6.54843 -0.0756,6.54844 z M 72.674772,95.561831 72.609227,37.94881 h 43.259373 43.25938 l -0.0656,57.613021 -0.0655,57.613019 -0.0674,-57.480728 -0.0673,-57.480729 H 115.8686 72.875006 l -0.06734,57.480729 -0.06735,57.480728 z M -16.226895,79.554539 -16.290773,64.671726 H 9.1092267 34.509227 l -0.06388,14.882813 -0.06388,14.882812 -0.07063,-14.750521 -0.07063,-14.75052 H 9.1092267 -16.021748 l -0.07063,14.75052 -0.07063,14.750521 z"
         id="path61" />
      <path
         style="fill:#445272;stroke-width:0.264583"
         d="m -45.39494,220.51131 v -5.82083 h 13.49375 13.49375 v 5.82083 5.82083 h -13.49375 -13.49375 z m 24.341667,0 v -3.175 H -31.90119 -42.749107 v 3.175 3.175 h 10.847917 10.847917 z M 177.91339,156.74673 v -9.26042 h 10.18646 10.18646 v 9.26042 9.26041 h -10.18646 -10.18646 z m 17.72709,0 v -6.61459 h -7.54063 -7.54062 v 6.61459 6.61458 h 7.54062 7.54063 z M 69.963393,95.495685 V 35.302976 H 115.8686 161.77381 V 95.495685 155.68839 H 115.8686 69.963393 Z m 89.164587,0 V 37.94881 H 115.8686 72.609227 V 95.495685 153.04256 H 115.8686 159.12798 Z M -18.936607,79.488393 v -17.4625 H 9.1092267 37.15506 v 17.4625 17.4625 H 9.1092267 -18.936607 Z m 53.445834,0 V 64.671726 H 9.1092267 -16.290773 V 79.488393 94.30506 H 9.1092267 34.509227 Z"
         id="path59" />
    </g>
  </g>
</svg>
