<?xml version="1.0" encoding="UTF-8" standalone="no"?>
<svg
   xmlns:dc="http://purl.org/dc/elements/1.1/"
   xmlns:cc="http://creativecommons.org/ns#"
   xmlns:rdf="http://www.w3.org/1999/02/22-rdf-syntax-ns#"
   xmlns:svg="http://www.w3.org/2000/svg"
   xmlns="http://www.w3.org/2000/svg"
   xmlns:sodipodi="http://sodipodi.sourceforge.net/DTD/sodipodi-0.dtd"
   xmlns:inkscape="http://www.inkscape.org/namespaces/inkscape"
   width="153.23457mm"
   height="147.7mm"
   viewBox="0 0 153.23457 147.7"
   version="1.1"
   id="svg8"
   inkscape:version="1.0.2-2 (e86c870879, 2021-01-15)"
   sodipodi:docname="prored.svg">
  <defs
     id="defs2" />
  <sodipodi:namedview
     id="base"
     pagecolor="#ffffff"
     bordercolor="#666666"
     borderopacity="1.0"
     inkscape:pageopacity="0.0"
     inkscape:pageshadow="2"
     inkscape:zoom="0.35"
     inkscape:cx="318.00578"
     inkscape:cy="287.71051"
     inkscape:document-units="mm"
     inkscape:current-layer="layer1"
     inkscape:document-rotation="0"
     showgrid="false"
     inkscape:window-width="1267"
     inkscape:window-height="685"
     inkscape:window-x="0"
     inkscape:window-y="0"
     inkscape:window-maximized="0" />
  <metadata
     id="metadata5">
    <rdf:RDF>
      <cc:Work
         rdf:about="">
        <dc:format>image/svg+xml</dc:format>
        <dc:type
           rdf:resource="http://purl.org/dc/dcmitype/StillImage" />
        <dc:title />
      </cc:Work>
    </rdf:RDF>
  </metadata>
  <g
     inkscape:label="Layer 1"
     inkscape:groupmode="layer"
     id="layer1"
     transform="translate(-21.694305,-41.805167)">
    <g
       id="g96"
       transform="translate(6.8035681,12.851191)">
      <path
         style="fill:#fe2db6;stroke-width:0.159953"
         d="m 77.492667,170.41082 v -4.60022 h 2.491619 2.491619 v 4.60022 4.60022 H 79.984286 77.492667 Z M 55.691,150.2027 v -13.96496 h 16.818429 16.818429 v 7.39321 7.39322 h 13.158862 13.15886 v 6.57174 6.57175 H 85.668292 55.691 Z M 38.249666,127.53017 v -7.06463 H 65.73534 93.221013 v 0.57503 0.57503 h -1.946578 -1.946577 v 6.4896 6.4896 H 63.788762 38.249666 Z m 108.852614,-4.60022 v -1.31435 h -4.36034 -4.36033 v -2.6287 -2.6287 h 6.85195 6.85195 v 3.94305 3.94305 h -2.49162 -2.49161 z m -52.324005,-1.88938 c 0,-0.57198 0.0037,-0.57503 0.700767,-0.57503 h 0.700768 v -3.6966 -3.69661 h 9.73289 9.73288 v 4.27164 4.27163 H 105.21193 94.778275 Z M 16.447999,115.126 v -2.71084 h 4.048881 4.048881 v 2.71084 2.71085 H 20.49688 16.447999 Z m 79.731811,-7.55751 v -3.8609 h 12.38023 12.38024 v 3.8609 3.8609 H 108.56004 96.17981 Z m 33.16968,0 v -3.8609 h 3.65957 3.65956 v 3.8609 3.8609 h -3.65956 -3.65957 z m 15.10544,-10.596938 v -2.135818 h 2.41376 2.41375 v 2.135818 2.135817 h -2.41375 -2.41376 z M 38.249666,86.210317 v -2.546552 h 19.076459 19.076459 v 2.546552 2.546552 H 57.326125 38.249666 Z M 55.691,74.627614 v -7.393215 h 5.761869 5.761869 v -4.107341 -4.107342 h 3.659566 3.659565 V 70.520272 82.020829 H 65.112435 55.691 Z M 76.091131,60.99124 V 41.604588 h 5.216828 5.216827 v 6.325306 6.325306 h -5.061101 -5.061101 v 13.061346 c 0,8.598034 -0.05322,13.061346 -0.155726,13.061346 -0.102939,0 -0.155727,-6.571747 -0.155727,-19.386652 z"
         id="path110" />
      <path
         style="fill:#f1004a;stroke-width:0.159953"
         d="M 75.935405,171.23229 V 165.8106 H 65.034572 54.133738 v -14.78643 -14.78643 h -8.720667 -8.720667 v -7.8861 -7.8861 h 0.778631 0.778631 v 7.06463 7.06463 h 25.539096 25.539096 v 0.82147 0.82147 H 72.509429 55.691 v 13.96496 13.96496 h 29.977292 29.977288 v -6.57175 -6.57174 h 0.77864 0.77863 v 7.39321 7.39322 H 100.61801 84.033167 v 5.42169 5.42169 h -4.048881 -4.048881 z m 6.5405,-0.82147 v -4.60022 h -2.491619 -2.491619 v 4.60022 4.60022 h 2.491619 2.491619 z m 64.626375,-45.34505 v -0.82147 h 2.49161 2.49162 v -3.94305 -3.94305 h -6.85195 -6.85195 v 2.6287 2.6287 h -0.77863 -0.77863 v -3.45017 -3.45016 h 8.40921 8.40922 v 5.58598 5.58599 h -3.27025 -3.27025 z m -53.881267,-4.0252 v -0.57503 h 0.778631 0.778631 v 0.57503 0.57503 h -0.778631 -0.778631 z m 22.424567,-3.6966 v -4.27164 h -9.73288 -9.73289 v -0.82147 -0.82147 h 12.38023 12.38024 v 0.57503 0.57503 h 4.2046 4.20461 v -0.57503 -0.57503 h 3.65957 3.65956 v -3.8609 -3.8609 h 0.77863 0.77863 v 4.68237 4.68237 h -10.51152 -10.51151 v 4.27164 4.27163 h -0.77863 -0.77864 z M 14.890737,115.126 v -4.35378 h 5.606143 5.606143 v 4.35378 4.35378 H 20.49688 14.890737 Z m 9.655024,0 v -2.71084 H 20.49688 16.447999 v 2.71084 2.71085 h 4.048881 4.048881 z M 142.89767,97.300139 v -3.450167 h 3.97102 3.97101 v 2.382258 2.382258 h -0.38931 c -0.37535,0 -0.38932,0.03834 -0.38932,1.067909 v 1.067913 h -3.5817 -3.5817 z m 6.38477,-0.328587 v -2.135818 h -2.41375 -2.41376 v 2.135818 2.135817 h 2.41376 2.41375 z M 36.692404,85.388849 v -3.36802 h 8.720667 8.720667 V 74.627614 67.234399 H 54.912369 55.691 v 7.393215 7.393215 h 9.421435 9.421434 V 70.520272 59.019716 h -3.659565 -3.659566 v -0.821468 -0.821469 h 3.659566 3.659565 v -8.707563 -8.707564 h 5.995459 5.995458 v 0.821468 0.821468 H 81.307959 76.091131 V 60.99124 c 0,12.814905 0.05279,19.386652 0.155727,19.386652 0.09343,0 0.155726,0.657175 0.155726,1.642937 v 1.642936 H 57.326125 38.249666 v 2.546552 2.546552 h -0.778631 -0.778631 z"
         id="path108" />
      <path
         style="fill:#af0088;stroke-width:0.159953"
         d="m 91.040846,136.31988 v -12.89705 h 27.174224 27.17422 v 12.89705 12.89706 H 118.21507 91.040846 Z M 30.307631,104.61121 V 90.564099 h 28.108577 28.108578 v 6.571746 6.571745 h 3.971018 3.971018 v 7.47536 7.47536 H 62.387226 30.307631 Z m 92.345629,2.6287 v -3.53232 h 2.49162 2.49162 v 3.53232 3.53231 h -2.49162 -2.49162 z M 140.56178,74.052586 V 56.06243 h 12.92527 12.92527 V 74.052586 92.042742 H 153.48705 140.56178 Z M 78.115572,72.409649 V 56.06243 h 4.204607 4.204607 v 16.347219 16.34722 H 82.320179 78.115572 Z M 20.652607,70.191685 v -4.107342 h 6.774089 6.774089 v 0.575028 0.575028 h 3.737429 3.737429 v 3.532314 3.532313 H 31.164125 20.652607 Z M 67.214738,47.354866 v -1.80723 H 63.555173 59.895607 V 44.068993 42.59035 h 5.138965 5.138964 v 3.285873 3.285874 h -1.479399 -1.479399 z"
         id="path106" />
      <path
         style="fill:#b00084;stroke-width:0.159953"
         d="m 90.88512,136.31988 v -13.06134 h 27.32995 27.32994 v 13.06134 13.06135 H 118.21507 90.88512 Z m 54.50417,0 V 123.42283 H 118.21507 91.040846 v 12.89705 12.89706 h 27.174224 27.17422 z M 30.151904,104.61121 V 90.399805 l 28.225373,0.04063 28.225372,0.04063 -28.147509,0.04196 -28.147509,0.04197 v 14.046665 14.04666 H 62.385655 94.46368 l 0.04211,-7.51643 0.04211,-7.51644 0.03732,7.59859 0.03732,7.59858 H 62.387226 30.151904 Z m 92.381366,2.66977 0.0357,-3.65554 0.0452,3.57339 0.0452,3.57339 h 2.48554 2.48555 l 0.0452,-3.57339 0.0452,-3.57339 0.0357,3.65554 0.0357,3.65553 h -2.64735 -2.64734 z m 30.91485,-15.197152 12.9642,-0.04297 V 74.052586 56.064318 l -12.9642,-0.04297 -12.96421,-0.04297 13.04207,-0.04012 13.04207,-0.04012 v 18.154449 18.154449 l -13.04207,-0.04012 -13.04207,-0.04012 z m -75.450103,-19.715252 -0.03817,-16.470439 4.321402,0.03832 4.321401,0.03832 -4.242786,0.04646 -4.242788,0.04647 -0.04044,16.385652 -0.04044,16.385654 z M 20.49688,70.191685 V 65.92005 l 6.890884,0.0393 6.890884,0.0393 -6.813021,0.04457 -6.81302,0.04457 v 4.105615 4.105614 h 10.508481 10.508481 l 0.04517,-3.573387 0.04517,-3.573387 0.03573,3.655534 0.03573,3.655534 H 31.164125 20.49688 Z m 48.158326,-20.987776 1.51833,-0.05371 V 45.870274 42.59035 h -5.13312 -5.133121 l -0.05139,1.519716 -0.05139,1.519717 -0.03232,-1.601863 -0.03232,-1.601864 h 5.294691 5.29469 v 3.450167 3.450167 L 68.733063,49.292 67.136869,49.25761 Z"
         id="path104" />
      <path
         style="fill:#ba003b;stroke-width:0.159953"
         d="M 89.327858,136.31988 V 121.6156 h 28.887212 28.88721 v 14.70428 14.70429 H 118.21507 89.327858 Z m 56.217152,0 V 123.25854 H 118.21507 90.88512 v 13.06134 13.06135 h 27.32995 27.32994 z M 28.594642,104.61121 V 88.756869 H 52.498613 76.402584 V 71.506034 54.2552 h 5.061101 5.061101 v 0.821468 0.821469 h -4.28247 -4.28247 v 16.429366 16.429366 h 4.28247 4.28247 v 0.821468 0.821468 H 58.338345 30.151904 v 14.211405 14.2114 h 32.235322 32.235322 v -7.55751 -7.55751 h 0.778631 0.778631 v 8.37898 8.37897 H 62.387226 28.594642 Z m 92.345638,3.53231 v -4.43593 h 0.77863 0.77863 v 3.61446 3.61446 h 2.64734 2.64735 v -3.61446 -3.61446 h 0.77863 0.77863 v 4.43593 4.43593 h -4.20461 -4.2046 z m 19.6215,-15.115016 v -0.821469 h 13.00313 13.00314 V 74.052586 55.898137 H 153.56491 140.56178 V 55.076668 54.2552 h 13.78176 13.78177 V 74.052586 93.849972 H 154.34354 140.56178 Z M 18.939618,70.191685 v -5.914572 h 7.630584 7.630583 v 0.821469 0.821468 H 27.348833 20.49688 v 4.271635 4.271635 H 31.164125 41.831369 V 70.84886 67.234399 H 42.61 43.388631 v 4.435929 4.435929 H 31.164125 18.939618 Z M 67.214738,50.147858 V 49.32639 H 68.772 70.329262 v -3.450167 -3.450167 h -5.29469 -5.294691 v 1.56079 1.56079 H 58.96125 58.182619 V 43.165378 40.78312 h 6.851953 6.851952 v 5.093103 5.093104 h -2.335893 -2.335893 z"
         id="path102" />
      <path
         style="fill:#a30052;stroke-width:0.159953"
         d="m 20.185428,143.95954 v -1.97153 h 6.384774 6.384774 v 1.97153 1.97152 H 26.570202 20.185428 Z M 151.61834,104.36477 v -4.10735 h 4.43819 4.4382 v 4.10735 4.10734 h -4.4382 -4.43819 z M 88.082048,66.330784 V 30.596913 h 25.461232 25.46123 V 66.330784 102.06466 H 113.54328 88.082048 Z M 35.758047,56.391018 v -9.200445 h 14.949715 14.949714 v 9.200445 9.200445 H 50.707762 35.758047 Z"
         id="path100" />
      <path
         style="fill:#7e0008;stroke-width:0.159953"
         d="m 18.628166,143.95954 v -3.61446 h 7.942036 7.942036 v 3.61446 3.61446 h -7.942036 -7.942036 z m 14.32681,0 v -1.97153 h -6.384774 -6.384774 v 1.97153 1.97152 h 6.384774 6.384774 z M 150.06107,104.36477 v -5.750282 h 5.99546 5.99546 v 5.750282 5.75027 h -5.99546 -5.99546 z m 10.43366,0 v -4.10735 h -4.4382 -4.43819 v 4.10735 4.10734 h 4.43819 4.4382 z M 86.524786,66.330784 V 28.953976 h 27.018494 27.0185 v 37.376808 37.376806 h -27.0185 -27.018494 z m 52.479724,0 V 30.596913 H 113.54328 88.082048 v 35.733871 35.733876 h 25.461232 25.46123 z M 34.200785,56.391018 V 45.547636 H 50.707762 67.214738 V 56.391018 67.234399 H 50.707762 34.200785 Z m 31.456691,0 V 47.190573 H 50.707762 35.758047 v 9.200445 9.200445 h 14.949715 14.949714 z"
         id="path98" />
    </g>
  </g>
</svg>
